G04 #@! TF.GenerationSoftware,KiCad,Pcbnew,(5.0.1-3-g963ef8bb5)*
G04 #@! TF.CreationDate,2019-03-09T14:34:52+08:00*
G04 #@! TF.ProjectId,fc660c,6663363630632E6B696361645F706362,rev?*
G04 #@! TF.SameCoordinates,Original*
G04 #@! TF.FileFunction,Legend,Top*
G04 #@! TF.FilePolarity,Positive*
%FSLAX46Y46*%
G04 Gerber Fmt 4.6, Leading zero omitted, Abs format (unit mm)*
G04 Created by KiCad (PCBNEW (5.0.1-3-g963ef8bb5)) date 2019 March 09, Saturday 14:34:52*
%MOMM*%
%LPD*%
G01*
G04 APERTURE LIST*
%ADD10C,0.150000*%
%ADD11C,0.200000*%
%ADD12C,0.120000*%
%ADD13C,0.152400*%
%ADD14C,0.127000*%
%ADD15C,0.304800*%
%ADD16C,0.340000*%
%ADD17C,0.010000*%
G04 APERTURE END LIST*
D10*
X236300971Y-95149942D02*
X236300971Y-95483276D01*
X236824780Y-95483276D02*
X235824780Y-95483276D01*
X235824780Y-95007085D01*
X235872400Y-94102323D02*
X235824780Y-94197561D01*
X235824780Y-94340419D01*
X235872400Y-94483276D01*
X235967638Y-94578514D01*
X236062876Y-94626133D01*
X236253352Y-94673752D01*
X236396209Y-94673752D01*
X236586685Y-94626133D01*
X236681923Y-94578514D01*
X236777161Y-94483276D01*
X236824780Y-94340419D01*
X236824780Y-94245180D01*
X236777161Y-94102323D01*
X236729542Y-94054704D01*
X236396209Y-94054704D01*
X236396209Y-94245180D01*
X234653200Y-94945104D02*
X234605580Y-95040342D01*
X234605580Y-95183200D01*
X234653200Y-95326057D01*
X234748438Y-95421295D01*
X234843676Y-95468914D01*
X235034152Y-95516533D01*
X235177009Y-95516533D01*
X235367485Y-95468914D01*
X235462723Y-95421295D01*
X235557961Y-95326057D01*
X235605580Y-95183200D01*
X235605580Y-95087961D01*
X235557961Y-94945104D01*
X235510342Y-94897485D01*
X235177009Y-94897485D01*
X235177009Y-95087961D01*
X235605580Y-94468914D02*
X234605580Y-94468914D01*
X235605580Y-93897485D01*
X234605580Y-93897485D01*
X235605580Y-93421295D02*
X234605580Y-93421295D01*
X234605580Y-93183200D01*
X234653200Y-93040342D01*
X234748438Y-92945104D01*
X234843676Y-92897485D01*
X235034152Y-92849866D01*
X235177009Y-92849866D01*
X235367485Y-92897485D01*
X235462723Y-92945104D01*
X235557961Y-93040342D01*
X235605580Y-93183200D01*
X235605580Y-93421295D01*
X233484800Y-94945104D02*
X233437180Y-95040342D01*
X233437180Y-95183200D01*
X233484800Y-95326057D01*
X233580038Y-95421295D01*
X233675276Y-95468914D01*
X233865752Y-95516533D01*
X234008609Y-95516533D01*
X234199085Y-95468914D01*
X234294323Y-95421295D01*
X234389561Y-95326057D01*
X234437180Y-95183200D01*
X234437180Y-95087961D01*
X234389561Y-94945104D01*
X234341942Y-94897485D01*
X234008609Y-94897485D01*
X234008609Y-95087961D01*
X234437180Y-94468914D02*
X233437180Y-94468914D01*
X234437180Y-93897485D01*
X233437180Y-93897485D01*
X234437180Y-93421295D02*
X233437180Y-93421295D01*
X233437180Y-93183200D01*
X233484800Y-93040342D01*
X233580038Y-92945104D01*
X233675276Y-92897485D01*
X233865752Y-92849866D01*
X234008609Y-92849866D01*
X234199085Y-92897485D01*
X234294323Y-92945104D01*
X234389561Y-93040342D01*
X234437180Y-93183200D01*
X234437180Y-93421295D01*
X232116380Y-95710190D02*
X232116380Y-95091142D01*
X232497333Y-95424476D01*
X232497333Y-95281619D01*
X232544952Y-95186380D01*
X232592571Y-95138761D01*
X232687809Y-95091142D01*
X232925904Y-95091142D01*
X233021142Y-95138761D01*
X233068761Y-95186380D01*
X233116380Y-95281619D01*
X233116380Y-95567333D01*
X233068761Y-95662571D01*
X233021142Y-95710190D01*
X233021142Y-94662571D02*
X233068761Y-94614952D01*
X233116380Y-94662571D01*
X233068761Y-94710190D01*
X233021142Y-94662571D01*
X233116380Y-94662571D01*
X232116380Y-94281619D02*
X232116380Y-93662571D01*
X232497333Y-93995904D01*
X232497333Y-93853047D01*
X232544952Y-93757809D01*
X232592571Y-93710190D01*
X232687809Y-93662571D01*
X232925904Y-93662571D01*
X233021142Y-93710190D01*
X233068761Y-93757809D01*
X233116380Y-93853047D01*
X233116380Y-94138761D01*
X233068761Y-94234000D01*
X233021142Y-94281619D01*
X232116380Y-93376857D02*
X233116380Y-93043523D01*
X232116380Y-92710190D01*
X230846380Y-94424476D02*
X230846380Y-94900666D01*
X231322571Y-94948285D01*
X231274952Y-94900666D01*
X231227333Y-94805428D01*
X231227333Y-94567333D01*
X231274952Y-94472095D01*
X231322571Y-94424476D01*
X231417809Y-94376857D01*
X231655904Y-94376857D01*
X231751142Y-94424476D01*
X231798761Y-94472095D01*
X231846380Y-94567333D01*
X231846380Y-94805428D01*
X231798761Y-94900666D01*
X231751142Y-94948285D01*
X230846380Y-94091142D02*
X231846380Y-93757809D01*
X230846380Y-93424476D01*
X230525580Y-95472095D02*
X229525580Y-95472095D01*
X229525580Y-95091142D01*
X229573200Y-94995904D01*
X229620819Y-94948285D01*
X229716057Y-94900666D01*
X229858914Y-94900666D01*
X229954152Y-94948285D01*
X230001771Y-94995904D01*
X230049390Y-95091142D01*
X230049390Y-95472095D01*
X230430342Y-93900666D02*
X230477961Y-93948285D01*
X230525580Y-94091142D01*
X230525580Y-94186380D01*
X230477961Y-94329238D01*
X230382723Y-94424476D01*
X230287485Y-94472095D01*
X230097009Y-94519714D01*
X229954152Y-94519714D01*
X229763676Y-94472095D01*
X229668438Y-94424476D01*
X229573200Y-94329238D01*
X229525580Y-94186380D01*
X229525580Y-94091142D01*
X229573200Y-93948285D01*
X229620819Y-93900666D01*
X229525580Y-93567333D02*
X229525580Y-92900666D01*
X230525580Y-93329238D01*
X229255580Y-95472095D02*
X228255580Y-95472095D01*
X228255580Y-95091142D01*
X228303200Y-94995904D01*
X228350819Y-94948285D01*
X228446057Y-94900666D01*
X228588914Y-94900666D01*
X228684152Y-94948285D01*
X228731771Y-94995904D01*
X228779390Y-95091142D01*
X228779390Y-95472095D01*
X229160342Y-93900666D02*
X229207961Y-93948285D01*
X229255580Y-94091142D01*
X229255580Y-94186380D01*
X229207961Y-94329238D01*
X229112723Y-94424476D01*
X229017485Y-94472095D01*
X228827009Y-94519714D01*
X228684152Y-94519714D01*
X228493676Y-94472095D01*
X228398438Y-94424476D01*
X228303200Y-94329238D01*
X228255580Y-94186380D01*
X228255580Y-94091142D01*
X228303200Y-93948285D01*
X228350819Y-93900666D01*
X228255580Y-93043523D02*
X228255580Y-93234000D01*
X228303200Y-93329238D01*
X228350819Y-93376857D01*
X228493676Y-93472095D01*
X228684152Y-93519714D01*
X229065104Y-93519714D01*
X229160342Y-93472095D01*
X229207961Y-93424476D01*
X229255580Y-93329238D01*
X229255580Y-93138761D01*
X229207961Y-93043523D01*
X229160342Y-92995904D01*
X229065104Y-92948285D01*
X228827009Y-92948285D01*
X228731771Y-92995904D01*
X228684152Y-93043523D01*
X228636533Y-93138761D01*
X228636533Y-93329238D01*
X228684152Y-93424476D01*
X228731771Y-93472095D01*
X228827009Y-93519714D01*
X228087180Y-95472095D02*
X227087180Y-95472095D01*
X227087180Y-95091142D01*
X227134800Y-94995904D01*
X227182419Y-94948285D01*
X227277657Y-94900666D01*
X227420514Y-94900666D01*
X227515752Y-94948285D01*
X227563371Y-94995904D01*
X227610990Y-95091142D01*
X227610990Y-95472095D01*
X228087180Y-94472095D02*
X227087180Y-94472095D01*
X227087180Y-94234000D01*
X227134800Y-94091142D01*
X227230038Y-93995904D01*
X227325276Y-93948285D01*
X227515752Y-93900666D01*
X227658609Y-93900666D01*
X227849085Y-93948285D01*
X227944323Y-93995904D01*
X228039561Y-94091142D01*
X228087180Y-94234000D01*
X228087180Y-94472095D01*
X227087180Y-93281619D02*
X227087180Y-93186380D01*
X227134800Y-93091142D01*
X227182419Y-93043523D01*
X227277657Y-92995904D01*
X227468133Y-92948285D01*
X227706228Y-92948285D01*
X227896704Y-92995904D01*
X227991942Y-93043523D01*
X228039561Y-93091142D01*
X228087180Y-93186380D01*
X228087180Y-93281619D01*
X228039561Y-93376857D01*
X227991942Y-93424476D01*
X227896704Y-93472095D01*
X227706228Y-93519714D01*
X227468133Y-93519714D01*
X227277657Y-93472095D01*
X227182419Y-93424476D01*
X227134800Y-93376857D01*
X227087180Y-93281619D01*
X226817180Y-95472095D02*
X225817180Y-95472095D01*
X225817180Y-95091142D01*
X225864800Y-94995904D01*
X225912419Y-94948285D01*
X226007657Y-94900666D01*
X226150514Y-94900666D01*
X226245752Y-94948285D01*
X226293371Y-94995904D01*
X226340990Y-95091142D01*
X226340990Y-95472095D01*
X226817180Y-94472095D02*
X225817180Y-94472095D01*
X225817180Y-94234000D01*
X225864800Y-94091142D01*
X225960038Y-93995904D01*
X226055276Y-93948285D01*
X226245752Y-93900666D01*
X226388609Y-93900666D01*
X226579085Y-93948285D01*
X226674323Y-93995904D01*
X226769561Y-94091142D01*
X226817180Y-94234000D01*
X226817180Y-94472095D01*
X226817180Y-92948285D02*
X226817180Y-93519714D01*
X226817180Y-93234000D02*
X225817180Y-93234000D01*
X225960038Y-93329238D01*
X226055276Y-93424476D01*
X226102895Y-93519714D01*
X225547180Y-95472095D02*
X224547180Y-95472095D01*
X224547180Y-95091142D01*
X224594800Y-94995904D01*
X224642419Y-94948285D01*
X224737657Y-94900666D01*
X224880514Y-94900666D01*
X224975752Y-94948285D01*
X225023371Y-94995904D01*
X225070990Y-95091142D01*
X225070990Y-95472095D01*
X225023371Y-94138761D02*
X225070990Y-93995904D01*
X225118609Y-93948285D01*
X225213847Y-93900666D01*
X225356704Y-93900666D01*
X225451942Y-93948285D01*
X225499561Y-93995904D01*
X225547180Y-94091142D01*
X225547180Y-94472095D01*
X224547180Y-94472095D01*
X224547180Y-94138761D01*
X224594800Y-94043523D01*
X224642419Y-93995904D01*
X224737657Y-93948285D01*
X224832895Y-93948285D01*
X224928133Y-93995904D01*
X224975752Y-94043523D01*
X225023371Y-94138761D01*
X225023371Y-94472095D01*
X224880514Y-93043523D02*
X225547180Y-93043523D01*
X224499561Y-93281619D02*
X225213847Y-93519714D01*
X225213847Y-92900666D01*
X224327980Y-95449828D02*
X223327980Y-95449828D01*
X224042266Y-95116495D01*
X223327980Y-94783161D01*
X224327980Y-94783161D01*
X224327980Y-94306971D02*
X223327980Y-94306971D01*
X224280361Y-93878400D02*
X224327980Y-93735542D01*
X224327980Y-93497447D01*
X224280361Y-93402209D01*
X224232742Y-93354590D01*
X224137504Y-93306971D01*
X224042266Y-93306971D01*
X223947028Y-93354590D01*
X223899409Y-93402209D01*
X223851790Y-93497447D01*
X223804171Y-93687923D01*
X223756552Y-93783161D01*
X223708933Y-93830780D01*
X223613695Y-93878400D01*
X223518457Y-93878400D01*
X223423219Y-93830780D01*
X223375600Y-93783161D01*
X223327980Y-93687923D01*
X223327980Y-93449828D01*
X223375600Y-93306971D01*
X223327980Y-92687923D02*
X223327980Y-92497447D01*
X223375600Y-92402209D01*
X223470838Y-92306971D01*
X223661314Y-92259352D01*
X223994647Y-92259352D01*
X224185123Y-92306971D01*
X224280361Y-92402209D01*
X224327980Y-92497447D01*
X224327980Y-92687923D01*
X224280361Y-92783161D01*
X224185123Y-92878400D01*
X223994647Y-92926019D01*
X223661314Y-92926019D01*
X223470838Y-92878400D01*
X223375600Y-92783161D01*
X223327980Y-92687923D01*
X223057980Y-95449828D02*
X222057980Y-95449828D01*
X222772266Y-95116495D01*
X222057980Y-94783161D01*
X223057980Y-94783161D01*
X222057980Y-94116495D02*
X222057980Y-93926019D01*
X222105600Y-93830780D01*
X222200838Y-93735542D01*
X222391314Y-93687923D01*
X222724647Y-93687923D01*
X222915123Y-93735542D01*
X223010361Y-93830780D01*
X223057980Y-93926019D01*
X223057980Y-94116495D01*
X223010361Y-94211733D01*
X222915123Y-94306971D01*
X222724647Y-94354590D01*
X222391314Y-94354590D01*
X222200838Y-94306971D01*
X222105600Y-94211733D01*
X222057980Y-94116495D01*
X223010361Y-93306971D02*
X223057980Y-93164114D01*
X223057980Y-92926019D01*
X223010361Y-92830780D01*
X222962742Y-92783161D01*
X222867504Y-92735542D01*
X222772266Y-92735542D01*
X222677028Y-92783161D01*
X222629409Y-92830780D01*
X222581790Y-92926019D01*
X222534171Y-93116495D01*
X222486552Y-93211733D01*
X222438933Y-93259352D01*
X222343695Y-93306971D01*
X222248457Y-93306971D01*
X222153219Y-93259352D01*
X222105600Y-93211733D01*
X222057980Y-93116495D01*
X222057980Y-92878400D01*
X222105600Y-92735542D01*
X223057980Y-92306971D02*
X222057980Y-92306971D01*
X221791161Y-95467276D02*
X221838780Y-95324419D01*
X221838780Y-95086323D01*
X221791161Y-94991085D01*
X221743542Y-94943466D01*
X221648304Y-94895847D01*
X221553066Y-94895847D01*
X221457828Y-94943466D01*
X221410209Y-94991085D01*
X221362590Y-95086323D01*
X221314971Y-95276800D01*
X221267352Y-95372038D01*
X221219733Y-95419657D01*
X221124495Y-95467276D01*
X221029257Y-95467276D01*
X220934019Y-95419657D01*
X220886400Y-95372038D01*
X220838780Y-95276800D01*
X220838780Y-95038704D01*
X220886400Y-94895847D01*
X221743542Y-93895847D02*
X221791161Y-93943466D01*
X221838780Y-94086323D01*
X221838780Y-94181561D01*
X221791161Y-94324419D01*
X221695923Y-94419657D01*
X221600685Y-94467276D01*
X221410209Y-94514895D01*
X221267352Y-94514895D01*
X221076876Y-94467276D01*
X220981638Y-94419657D01*
X220886400Y-94324419D01*
X220838780Y-94181561D01*
X220838780Y-94086323D01*
X220886400Y-93943466D01*
X220934019Y-93895847D01*
X221838780Y-92991085D02*
X221838780Y-93467276D01*
X220838780Y-93467276D01*
X221838780Y-92657752D02*
X220838780Y-92657752D01*
X221838780Y-92086323D02*
X221267352Y-92514895D01*
X220838780Y-92086323D02*
X221410209Y-92657752D01*
X220521161Y-95453104D02*
X220568780Y-95310247D01*
X220568780Y-95072152D01*
X220521161Y-94976914D01*
X220473542Y-94929295D01*
X220378304Y-94881676D01*
X220283066Y-94881676D01*
X220187828Y-94929295D01*
X220140209Y-94976914D01*
X220092590Y-95072152D01*
X220044971Y-95262628D01*
X219997352Y-95357866D01*
X219949733Y-95405485D01*
X219854495Y-95453104D01*
X219759257Y-95453104D01*
X219664019Y-95405485D01*
X219616400Y-95357866D01*
X219568780Y-95262628D01*
X219568780Y-95024533D01*
X219616400Y-94881676D01*
X220521161Y-94500723D02*
X220568780Y-94357866D01*
X220568780Y-94119771D01*
X220521161Y-94024533D01*
X220473542Y-93976914D01*
X220378304Y-93929295D01*
X220283066Y-93929295D01*
X220187828Y-93976914D01*
X220140209Y-94024533D01*
X220092590Y-94119771D01*
X220044971Y-94310247D01*
X219997352Y-94405485D01*
X219949733Y-94453104D01*
X219854495Y-94500723D01*
X219759257Y-94500723D01*
X219664019Y-94453104D01*
X219616400Y-94405485D01*
X219568780Y-94310247D01*
X219568780Y-94072152D01*
X219616400Y-93929295D01*
X219349580Y-95472095D02*
X218349580Y-95472095D01*
X218349580Y-95091142D01*
X218397200Y-94995904D01*
X218444819Y-94948285D01*
X218540057Y-94900666D01*
X218682914Y-94900666D01*
X218778152Y-94948285D01*
X218825771Y-94995904D01*
X218873390Y-95091142D01*
X218873390Y-95472095D01*
X219349580Y-94472095D02*
X218349580Y-94472095D01*
X218349580Y-94234000D01*
X218397200Y-94091142D01*
X218492438Y-93995904D01*
X218587676Y-93948285D01*
X218778152Y-93900666D01*
X218921009Y-93900666D01*
X219111485Y-93948285D01*
X219206723Y-93995904D01*
X219301961Y-94091142D01*
X219349580Y-94234000D01*
X219349580Y-94472095D01*
X218349580Y-93043523D02*
X218349580Y-93234000D01*
X218397200Y-93329238D01*
X218444819Y-93376857D01*
X218587676Y-93472095D01*
X218778152Y-93519714D01*
X219159104Y-93519714D01*
X219254342Y-93472095D01*
X219301961Y-93424476D01*
X219349580Y-93329238D01*
X219349580Y-93138761D01*
X219301961Y-93043523D01*
X219254342Y-92995904D01*
X219159104Y-92948285D01*
X218921009Y-92948285D01*
X218825771Y-92995904D01*
X218778152Y-93043523D01*
X218730533Y-93138761D01*
X218730533Y-93329238D01*
X218778152Y-93424476D01*
X218825771Y-93472095D01*
X218921009Y-93519714D01*
X218079580Y-95472095D02*
X217079580Y-95472095D01*
X217079580Y-95091142D01*
X217127200Y-94995904D01*
X217174819Y-94948285D01*
X217270057Y-94900666D01*
X217412914Y-94900666D01*
X217508152Y-94948285D01*
X217555771Y-94995904D01*
X217603390Y-95091142D01*
X217603390Y-95472095D01*
X218079580Y-94472095D02*
X217079580Y-94472095D01*
X217079580Y-94234000D01*
X217127200Y-94091142D01*
X217222438Y-93995904D01*
X217317676Y-93948285D01*
X217508152Y-93900666D01*
X217651009Y-93900666D01*
X217841485Y-93948285D01*
X217936723Y-93995904D01*
X218031961Y-94091142D01*
X218079580Y-94234000D01*
X218079580Y-94472095D01*
X217079580Y-92995904D02*
X217079580Y-93472095D01*
X217555771Y-93519714D01*
X217508152Y-93472095D01*
X217460533Y-93376857D01*
X217460533Y-93138761D01*
X217508152Y-93043523D01*
X217555771Y-92995904D01*
X217651009Y-92948285D01*
X217889104Y-92948285D01*
X217984342Y-92995904D01*
X218031961Y-93043523D01*
X218079580Y-93138761D01*
X218079580Y-93376857D01*
X218031961Y-93472095D01*
X217984342Y-93519714D01*
X216860380Y-95472095D02*
X215860380Y-95472095D01*
X215860380Y-95091142D01*
X215908000Y-94995904D01*
X215955619Y-94948285D01*
X216050857Y-94900666D01*
X216193714Y-94900666D01*
X216288952Y-94948285D01*
X216336571Y-94995904D01*
X216384190Y-95091142D01*
X216384190Y-95472095D01*
X216860380Y-94472095D02*
X215860380Y-94472095D01*
X215860380Y-94234000D01*
X215908000Y-94091142D01*
X216003238Y-93995904D01*
X216098476Y-93948285D01*
X216288952Y-93900666D01*
X216431809Y-93900666D01*
X216622285Y-93948285D01*
X216717523Y-93995904D01*
X216812761Y-94091142D01*
X216860380Y-94234000D01*
X216860380Y-94472095D01*
X216193714Y-93043523D02*
X216860380Y-93043523D01*
X215812761Y-93281619D02*
X216527047Y-93519714D01*
X216527047Y-92900666D01*
X215590380Y-95472095D02*
X214590380Y-95472095D01*
X214590380Y-95091142D01*
X214638000Y-94995904D01*
X214685619Y-94948285D01*
X214780857Y-94900666D01*
X214923714Y-94900666D01*
X215018952Y-94948285D01*
X215066571Y-94995904D01*
X215114190Y-95091142D01*
X215114190Y-95472095D01*
X215590380Y-94472095D02*
X214590380Y-94472095D01*
X214590380Y-94234000D01*
X214638000Y-94091142D01*
X214733238Y-93995904D01*
X214828476Y-93948285D01*
X215018952Y-93900666D01*
X215161809Y-93900666D01*
X215352285Y-93948285D01*
X215447523Y-93995904D01*
X215542761Y-94091142D01*
X215590380Y-94234000D01*
X215590380Y-94472095D01*
X214590380Y-93567333D02*
X214590380Y-92900666D01*
X215590380Y-93329238D01*
X214320380Y-95472095D02*
X213320380Y-95472095D01*
X213320380Y-95091142D01*
X213368000Y-94995904D01*
X213415619Y-94948285D01*
X213510857Y-94900666D01*
X213653714Y-94900666D01*
X213748952Y-94948285D01*
X213796571Y-94995904D01*
X213844190Y-95091142D01*
X213844190Y-95472095D01*
X213796571Y-94138761D02*
X213844190Y-93995904D01*
X213891809Y-93948285D01*
X213987047Y-93900666D01*
X214129904Y-93900666D01*
X214225142Y-93948285D01*
X214272761Y-93995904D01*
X214320380Y-94091142D01*
X214320380Y-94472095D01*
X213320380Y-94472095D01*
X213320380Y-94138761D01*
X213368000Y-94043523D01*
X213415619Y-93995904D01*
X213510857Y-93948285D01*
X213606095Y-93948285D01*
X213701333Y-93995904D01*
X213748952Y-94043523D01*
X213796571Y-94138761D01*
X213796571Y-94472095D01*
X213320380Y-92995904D02*
X213320380Y-93472095D01*
X213796571Y-93519714D01*
X213748952Y-93472095D01*
X213701333Y-93376857D01*
X213701333Y-93138761D01*
X213748952Y-93043523D01*
X213796571Y-92995904D01*
X213891809Y-92948285D01*
X214129904Y-92948285D01*
X214225142Y-92995904D01*
X214272761Y-93043523D01*
X214320380Y-93138761D01*
X214320380Y-93376857D01*
X214272761Y-93472095D01*
X214225142Y-93519714D01*
X212999580Y-95472095D02*
X211999580Y-95472095D01*
X211999580Y-95091142D01*
X212047200Y-94995904D01*
X212094819Y-94948285D01*
X212190057Y-94900666D01*
X212332914Y-94900666D01*
X212428152Y-94948285D01*
X212475771Y-94995904D01*
X212523390Y-95091142D01*
X212523390Y-95472095D01*
X212475771Y-94138761D02*
X212523390Y-93995904D01*
X212571009Y-93948285D01*
X212666247Y-93900666D01*
X212809104Y-93900666D01*
X212904342Y-93948285D01*
X212951961Y-93995904D01*
X212999580Y-94091142D01*
X212999580Y-94472095D01*
X211999580Y-94472095D01*
X211999580Y-94138761D01*
X212047200Y-94043523D01*
X212094819Y-93995904D01*
X212190057Y-93948285D01*
X212285295Y-93948285D01*
X212380533Y-93995904D01*
X212428152Y-94043523D01*
X212475771Y-94138761D01*
X212475771Y-94472095D01*
X211999580Y-93043523D02*
X211999580Y-93234000D01*
X212047200Y-93329238D01*
X212094819Y-93376857D01*
X212237676Y-93472095D01*
X212428152Y-93519714D01*
X212809104Y-93519714D01*
X212904342Y-93472095D01*
X212951961Y-93424476D01*
X212999580Y-93329238D01*
X212999580Y-93138761D01*
X212951961Y-93043523D01*
X212904342Y-92995904D01*
X212809104Y-92948285D01*
X212571009Y-92948285D01*
X212475771Y-92995904D01*
X212428152Y-93043523D01*
X212380533Y-93138761D01*
X212380533Y-93329238D01*
X212428152Y-93424476D01*
X212475771Y-93472095D01*
X212571009Y-93519714D01*
X217278819Y-101950780D02*
X217278819Y-100950780D01*
X217516914Y-100950780D01*
X217659771Y-100998400D01*
X217755009Y-101093638D01*
X217802628Y-101188876D01*
X217850247Y-101379352D01*
X217850247Y-101522209D01*
X217802628Y-101712685D01*
X217755009Y-101807923D01*
X217659771Y-101903161D01*
X217516914Y-101950780D01*
X217278819Y-101950780D01*
X218612152Y-101426971D02*
X218278819Y-101426971D01*
X218278819Y-101950780D02*
X218278819Y-100950780D01*
X218755009Y-100950780D01*
X219659771Y-101950780D02*
X219088342Y-101950780D01*
X219374057Y-101950780D02*
X219374057Y-100950780D01*
X219278819Y-101093638D01*
X219183580Y-101188876D01*
X219088342Y-101236495D01*
X220516914Y-101284114D02*
X220516914Y-101950780D01*
X220278819Y-100903161D02*
X220040723Y-101617447D01*
X220659771Y-101617447D01*
X220993104Y-101665066D02*
X221469295Y-101665066D01*
X220897866Y-101950780D02*
X221231200Y-100950780D01*
X221564533Y-101950780D01*
X221897866Y-101569828D02*
X222659771Y-101569828D01*
X223088342Y-101046019D02*
X223135961Y-100998400D01*
X223231200Y-100950780D01*
X223469295Y-100950780D01*
X223564533Y-100998400D01*
X223612152Y-101046019D01*
X223659771Y-101141257D01*
X223659771Y-101236495D01*
X223612152Y-101379352D01*
X223040723Y-101950780D01*
X223659771Y-101950780D01*
X224278819Y-100950780D02*
X224374057Y-100950780D01*
X224469295Y-100998400D01*
X224516914Y-101046019D01*
X224564533Y-101141257D01*
X224612152Y-101331733D01*
X224612152Y-101569828D01*
X224564533Y-101760304D01*
X224516914Y-101855542D01*
X224469295Y-101903161D01*
X224374057Y-101950780D01*
X224278819Y-101950780D01*
X224183580Y-101903161D01*
X224135961Y-101855542D01*
X224088342Y-101760304D01*
X224040723Y-101569828D01*
X224040723Y-101331733D01*
X224088342Y-101141257D01*
X224135961Y-101046019D01*
X224183580Y-100998400D01*
X224278819Y-100950780D01*
X225040723Y-101950780D02*
X225040723Y-100950780D01*
X225421676Y-100950780D01*
X225516914Y-100998400D01*
X225564533Y-101046019D01*
X225612152Y-101141257D01*
X225612152Y-101284114D01*
X225564533Y-101379352D01*
X225516914Y-101426971D01*
X225421676Y-101474590D01*
X225040723Y-101474590D01*
X226040723Y-101569828D02*
X226802628Y-101569828D01*
X227802628Y-101950780D02*
X227231200Y-101950780D01*
X227516914Y-101950780D02*
X227516914Y-100950780D01*
X227421676Y-101093638D01*
X227326438Y-101188876D01*
X227231200Y-101236495D01*
X228231200Y-101855542D02*
X228278819Y-101903161D01*
X228231200Y-101950780D01*
X228183580Y-101903161D01*
X228231200Y-101855542D01*
X228231200Y-101950780D01*
X228659771Y-101046019D02*
X228707390Y-100998400D01*
X228802628Y-100950780D01*
X229040723Y-100950780D01*
X229135961Y-100998400D01*
X229183580Y-101046019D01*
X229231200Y-101141257D01*
X229231200Y-101236495D01*
X229183580Y-101379352D01*
X228612152Y-101950780D01*
X229231200Y-101950780D01*
X230135961Y-100950780D02*
X229659771Y-100950780D01*
X229612152Y-101426971D01*
X229659771Y-101379352D01*
X229755009Y-101331733D01*
X229993104Y-101331733D01*
X230088342Y-101379352D01*
X230135961Y-101426971D01*
X230183580Y-101522209D01*
X230183580Y-101760304D01*
X230135961Y-101855542D01*
X230088342Y-101903161D01*
X229993104Y-101950780D01*
X229755009Y-101950780D01*
X229659771Y-101903161D01*
X229612152Y-101855542D01*
X230612152Y-101950780D02*
X230612152Y-100950780D01*
X230612152Y-101426971D02*
X231183580Y-101426971D01*
X231183580Y-101950780D02*
X231183580Y-100950780D01*
X230359295Y-88073361D02*
X230502152Y-88120980D01*
X230740247Y-88120980D01*
X230835485Y-88073361D01*
X230883104Y-88025742D01*
X230930723Y-87930504D01*
X230930723Y-87835266D01*
X230883104Y-87740028D01*
X230835485Y-87692409D01*
X230740247Y-87644790D01*
X230549771Y-87597171D01*
X230454533Y-87549552D01*
X230406914Y-87501933D01*
X230359295Y-87406695D01*
X230359295Y-87311457D01*
X230406914Y-87216219D01*
X230454533Y-87168600D01*
X230549771Y-87120980D01*
X230787866Y-87120980D01*
X230930723Y-87168600D01*
X231359295Y-87454314D02*
X231359295Y-88454314D01*
X231359295Y-87501933D02*
X231454533Y-87454314D01*
X231645009Y-87454314D01*
X231740247Y-87501933D01*
X231787866Y-87549552D01*
X231835485Y-87644790D01*
X231835485Y-87930504D01*
X231787866Y-88025742D01*
X231740247Y-88073361D01*
X231645009Y-88120980D01*
X231454533Y-88120980D01*
X231359295Y-88073361D01*
X232645009Y-88073361D02*
X232549771Y-88120980D01*
X232359295Y-88120980D01*
X232264057Y-88073361D01*
X232216438Y-87978123D01*
X232216438Y-87597171D01*
X232264057Y-87501933D01*
X232359295Y-87454314D01*
X232549771Y-87454314D01*
X232645009Y-87501933D01*
X232692628Y-87597171D01*
X232692628Y-87692409D01*
X232216438Y-87787647D01*
X233549771Y-88120980D02*
X233549771Y-87597171D01*
X233502152Y-87501933D01*
X233406914Y-87454314D01*
X233216438Y-87454314D01*
X233121200Y-87501933D01*
X233549771Y-88073361D02*
X233454533Y-88120980D01*
X233216438Y-88120980D01*
X233121200Y-88073361D01*
X233073580Y-87978123D01*
X233073580Y-87882885D01*
X233121200Y-87787647D01*
X233216438Y-87740028D01*
X233454533Y-87740028D01*
X233549771Y-87692409D01*
X234025961Y-88120980D02*
X234025961Y-87120980D01*
X234121200Y-87740028D02*
X234406914Y-88120980D01*
X234406914Y-87454314D02*
X234025961Y-87835266D01*
X235216438Y-88073361D02*
X235121200Y-88120980D01*
X234930723Y-88120980D01*
X234835485Y-88073361D01*
X234787866Y-87978123D01*
X234787866Y-87597171D01*
X234835485Y-87501933D01*
X234930723Y-87454314D01*
X235121200Y-87454314D01*
X235216438Y-87501933D01*
X235264057Y-87597171D01*
X235264057Y-87692409D01*
X234787866Y-87787647D01*
X235692628Y-88120980D02*
X235692628Y-87454314D01*
X235692628Y-87644790D02*
X235740247Y-87549552D01*
X235787866Y-87501933D01*
X235883104Y-87454314D01*
X235978342Y-87454314D01*
X231502152Y-90151933D02*
X231454533Y-90104314D01*
X231359295Y-89961457D01*
X231311676Y-89866219D01*
X231264057Y-89723361D01*
X231216438Y-89485266D01*
X231216438Y-89294790D01*
X231264057Y-89056695D01*
X231311676Y-88913838D01*
X231359295Y-88818600D01*
X231454533Y-88675742D01*
X231502152Y-88628123D01*
X231883104Y-89770980D02*
X231883104Y-88770980D01*
X232264057Y-88770980D01*
X232359295Y-88818600D01*
X232406914Y-88866219D01*
X232454533Y-88961457D01*
X232454533Y-89104314D01*
X232406914Y-89199552D01*
X232359295Y-89247171D01*
X232264057Y-89294790D01*
X231883104Y-89294790D01*
X233216438Y-89247171D02*
X233359295Y-89294790D01*
X233406914Y-89342409D01*
X233454533Y-89437647D01*
X233454533Y-89580504D01*
X233406914Y-89675742D01*
X233359295Y-89723361D01*
X233264057Y-89770980D01*
X232883104Y-89770980D01*
X232883104Y-88770980D01*
X233216438Y-88770980D01*
X233311676Y-88818600D01*
X233359295Y-88866219D01*
X233406914Y-88961457D01*
X233406914Y-89056695D01*
X233359295Y-89151933D01*
X233311676Y-89199552D01*
X233216438Y-89247171D01*
X232883104Y-89247171D01*
X233787866Y-88770980D02*
X234454533Y-88770980D01*
X234025961Y-89770980D01*
X234740247Y-90151933D02*
X234787866Y-90104314D01*
X234883104Y-89961457D01*
X234930723Y-89866219D01*
X234978342Y-89723361D01*
X235025961Y-89485266D01*
X235025961Y-89294790D01*
X234978342Y-89056695D01*
X234930723Y-88913838D01*
X234883104Y-88818600D01*
X234787866Y-88675742D01*
X234740247Y-88628123D01*
D11*
X223215200Y-77571600D02*
X223723200Y-78181200D01*
X223164400Y-76200000D02*
X222808800Y-76200000D01*
X223164400Y-79959200D02*
X222808800Y-79959200D01*
X223164400Y-78486000D02*
X223164400Y-79908400D01*
X223164400Y-76200000D02*
X223164400Y-77520800D01*
X223266000Y-77520800D02*
G75*
G03X223266000Y-77520800I-101600J0D01*
G01*
X223266000Y-78486000D02*
G75*
G03X223266000Y-78486000I-101600J0D01*
G01*
D10*
X225171047Y-78684380D02*
X224837714Y-78208190D01*
X224599619Y-78684380D02*
X224599619Y-77684380D01*
X224980571Y-77684380D01*
X225075809Y-77732000D01*
X225123428Y-77779619D01*
X225171047Y-77874857D01*
X225171047Y-78017714D01*
X225123428Y-78112952D01*
X225075809Y-78160571D01*
X224980571Y-78208190D01*
X224599619Y-78208190D01*
X225552000Y-78636761D02*
X225647238Y-78684380D01*
X225837714Y-78684380D01*
X225932952Y-78636761D01*
X225980571Y-78541523D01*
X225980571Y-78493904D01*
X225932952Y-78398666D01*
X225837714Y-78351047D01*
X225694857Y-78351047D01*
X225599619Y-78303428D01*
X225552000Y-78208190D01*
X225552000Y-78160571D01*
X225599619Y-78065333D01*
X225694857Y-78017714D01*
X225837714Y-78017714D01*
X225932952Y-78065333D01*
X226266285Y-78017714D02*
X226647238Y-78017714D01*
X226409142Y-77684380D02*
X226409142Y-78541523D01*
X226456761Y-78636761D01*
X226552000Y-78684380D01*
X226647238Y-78684380D01*
X213044114Y-87691790D02*
X213710780Y-87691790D01*
X212663161Y-87929885D02*
X213377447Y-88167980D01*
X213377447Y-87548933D01*
X213615542Y-87167980D02*
X213663161Y-87120361D01*
X213710780Y-87167980D01*
X213663161Y-87215600D01*
X213615542Y-87167980D01*
X213710780Y-87167980D01*
X212710780Y-86787028D02*
X212710780Y-86120361D01*
X213710780Y-86548933D01*
X213044114Y-85310838D02*
X213710780Y-85310838D01*
X213044114Y-85739409D02*
X213567923Y-85739409D01*
X213663161Y-85691790D01*
X213710780Y-85596552D01*
X213710780Y-85453695D01*
X213663161Y-85358457D01*
X213615542Y-85310838D01*
X218638380Y-84243752D02*
X218638380Y-84815180D01*
X218638380Y-84529466D02*
X217638380Y-84529466D01*
X217781238Y-84624704D01*
X217876476Y-84719942D01*
X217924095Y-84815180D01*
X218543142Y-83815180D02*
X218590761Y-83767561D01*
X218638380Y-83815180D01*
X218590761Y-83862800D01*
X218543142Y-83815180D01*
X218638380Y-83815180D01*
X217638380Y-83148514D02*
X217638380Y-83053276D01*
X217686000Y-82958038D01*
X217733619Y-82910419D01*
X217828857Y-82862800D01*
X218019333Y-82815180D01*
X218257428Y-82815180D01*
X218447904Y-82862800D01*
X218543142Y-82910419D01*
X218590761Y-82958038D01*
X218638380Y-83053276D01*
X218638380Y-83148514D01*
X218590761Y-83243752D01*
X218543142Y-83291371D01*
X218447904Y-83338990D01*
X218257428Y-83386609D01*
X218019333Y-83386609D01*
X217828857Y-83338990D01*
X217733619Y-83291371D01*
X217686000Y-83243752D01*
X217638380Y-83148514D01*
X217971714Y-81958038D02*
X218638380Y-81958038D01*
X217971714Y-82386609D02*
X218495523Y-82386609D01*
X218590761Y-82338990D01*
X218638380Y-82243752D01*
X218638380Y-82100895D01*
X218590761Y-82005657D01*
X218543142Y-81958038D01*
X224327980Y-84243752D02*
X224327980Y-84815180D01*
X224327980Y-84529466D02*
X223327980Y-84529466D01*
X223470838Y-84624704D01*
X223566076Y-84719942D01*
X223613695Y-84815180D01*
X224232742Y-83815180D02*
X224280361Y-83767561D01*
X224327980Y-83815180D01*
X224280361Y-83862800D01*
X224232742Y-83815180D01*
X224327980Y-83815180D01*
X223327980Y-83148514D02*
X223327980Y-83053276D01*
X223375600Y-82958038D01*
X223423219Y-82910419D01*
X223518457Y-82862800D01*
X223708933Y-82815180D01*
X223947028Y-82815180D01*
X224137504Y-82862800D01*
X224232742Y-82910419D01*
X224280361Y-82958038D01*
X224327980Y-83053276D01*
X224327980Y-83148514D01*
X224280361Y-83243752D01*
X224232742Y-83291371D01*
X224137504Y-83338990D01*
X223947028Y-83386609D01*
X223708933Y-83386609D01*
X223518457Y-83338990D01*
X223423219Y-83291371D01*
X223375600Y-83243752D01*
X223327980Y-83148514D01*
X223661314Y-81958038D02*
X224327980Y-81958038D01*
X223661314Y-82386609D02*
X224185123Y-82386609D01*
X224280361Y-82338990D01*
X224327980Y-82243752D01*
X224327980Y-82100895D01*
X224280361Y-82005657D01*
X224232742Y-81958038D01*
X198024952Y-95803980D02*
X197453523Y-95803980D01*
X197739238Y-95803980D02*
X197739238Y-94803980D01*
X197644000Y-94946838D01*
X197548761Y-95042076D01*
X197453523Y-95089695D01*
X198882095Y-94803980D02*
X198691619Y-94803980D01*
X198596380Y-94851600D01*
X198548761Y-94899219D01*
X198453523Y-95042076D01*
X198405904Y-95232552D01*
X198405904Y-95613504D01*
X198453523Y-95708742D01*
X198501142Y-95756361D01*
X198596380Y-95803980D01*
X198786857Y-95803980D01*
X198882095Y-95756361D01*
X198929714Y-95708742D01*
X198977333Y-95613504D01*
X198977333Y-95375409D01*
X198929714Y-95280171D01*
X198882095Y-95232552D01*
X198786857Y-95184933D01*
X198596380Y-95184933D01*
X198501142Y-95232552D01*
X198453523Y-95280171D01*
X198405904Y-95375409D01*
X199405904Y-95803980D02*
X199405904Y-94803980D01*
X199739238Y-95518266D01*
X200072571Y-94803980D01*
X200072571Y-95803980D01*
X200548761Y-95803980D02*
X200548761Y-94803980D01*
X200977333Y-95803980D02*
X200977333Y-95280171D01*
X200929714Y-95184933D01*
X200834476Y-95137314D01*
X200691619Y-95137314D01*
X200596380Y-95184933D01*
X200548761Y-95232552D01*
X201358285Y-95137314D02*
X201882095Y-95137314D01*
X201358285Y-95803980D01*
X201882095Y-95803980D01*
X180119447Y-86456780D02*
X179548019Y-86456780D01*
X179833733Y-86456780D02*
X179833733Y-85456780D01*
X179738495Y-85599638D01*
X179643257Y-85694876D01*
X179548019Y-85742495D01*
X180548019Y-86361542D02*
X180595638Y-86409161D01*
X180548019Y-86456780D01*
X180500400Y-86409161D01*
X180548019Y-86361542D01*
X180548019Y-86456780D01*
X181214685Y-85456780D02*
X181309923Y-85456780D01*
X181405161Y-85504400D01*
X181452780Y-85552019D01*
X181500400Y-85647257D01*
X181548019Y-85837733D01*
X181548019Y-86075828D01*
X181500400Y-86266304D01*
X181452780Y-86361542D01*
X181405161Y-86409161D01*
X181309923Y-86456780D01*
X181214685Y-86456780D01*
X181119447Y-86409161D01*
X181071828Y-86361542D01*
X181024209Y-86266304D01*
X180976590Y-86075828D01*
X180976590Y-85837733D01*
X181024209Y-85647257D01*
X181071828Y-85552019D01*
X181119447Y-85504400D01*
X181214685Y-85456780D01*
X182405161Y-85790114D02*
X182405161Y-86456780D01*
X181976590Y-85790114D02*
X181976590Y-86313923D01*
X182024209Y-86409161D01*
X182119447Y-86456780D01*
X182262304Y-86456780D01*
X182357542Y-86409161D01*
X182405161Y-86361542D01*
X173426571Y-82859619D02*
X173474190Y-82812000D01*
X173569428Y-82764380D01*
X173807523Y-82764380D01*
X173902761Y-82812000D01*
X173950380Y-82859619D01*
X173998000Y-82954857D01*
X173998000Y-83050095D01*
X173950380Y-83192952D01*
X173378952Y-83764380D01*
X173998000Y-83764380D01*
X174378952Y-82859619D02*
X174426571Y-82812000D01*
X174521809Y-82764380D01*
X174759904Y-82764380D01*
X174855142Y-82812000D01*
X174902761Y-82859619D01*
X174950380Y-82954857D01*
X174950380Y-83050095D01*
X174902761Y-83192952D01*
X174331333Y-83764380D01*
X174950380Y-83764380D01*
X175378952Y-83764380D02*
X175378952Y-83097714D01*
X175378952Y-83288190D02*
X175426571Y-83192952D01*
X175474190Y-83145333D01*
X175569428Y-83097714D01*
X175664666Y-83097714D01*
X173375771Y-81030819D02*
X173423390Y-80983200D01*
X173518628Y-80935580D01*
X173756723Y-80935580D01*
X173851961Y-80983200D01*
X173899580Y-81030819D01*
X173947200Y-81126057D01*
X173947200Y-81221295D01*
X173899580Y-81364152D01*
X173328152Y-81935580D01*
X173947200Y-81935580D01*
X174328152Y-81030819D02*
X174375771Y-80983200D01*
X174471009Y-80935580D01*
X174709104Y-80935580D01*
X174804342Y-80983200D01*
X174851961Y-81030819D01*
X174899580Y-81126057D01*
X174899580Y-81221295D01*
X174851961Y-81364152D01*
X174280533Y-81935580D01*
X174899580Y-81935580D01*
X175328152Y-81935580D02*
X175328152Y-81268914D01*
X175328152Y-81459390D02*
X175375771Y-81364152D01*
X175423390Y-81316533D01*
X175518628Y-81268914D01*
X175613866Y-81268914D01*
X186113942Y-94854780D02*
X186209180Y-94854780D01*
X186304419Y-94902400D01*
X186352038Y-94950019D01*
X186399657Y-95045257D01*
X186447276Y-95235733D01*
X186447276Y-95473828D01*
X186399657Y-95664304D01*
X186352038Y-95759542D01*
X186304419Y-95807161D01*
X186209180Y-95854780D01*
X186113942Y-95854780D01*
X186018704Y-95807161D01*
X185971085Y-95759542D01*
X185923466Y-95664304D01*
X185875847Y-95473828D01*
X185875847Y-95235733D01*
X185923466Y-95045257D01*
X185971085Y-94950019D01*
X186018704Y-94902400D01*
X186113942Y-94854780D01*
X186875847Y-95759542D02*
X186923466Y-95807161D01*
X186875847Y-95854780D01*
X186828228Y-95807161D01*
X186875847Y-95759542D01*
X186875847Y-95854780D01*
X187875847Y-95854780D02*
X187304419Y-95854780D01*
X187590133Y-95854780D02*
X187590133Y-94854780D01*
X187494895Y-94997638D01*
X187399657Y-95092876D01*
X187304419Y-95140495D01*
X188732990Y-95188114D02*
X188732990Y-95854780D01*
X188304419Y-95188114D02*
X188304419Y-95711923D01*
X188352038Y-95807161D01*
X188447276Y-95854780D01*
X188590133Y-95854780D01*
X188685371Y-95807161D01*
X188732990Y-95759542D01*
X189542514Y-95330971D02*
X189209180Y-95330971D01*
X189209180Y-95854780D02*
X189209180Y-94854780D01*
X189685371Y-94854780D01*
X187472723Y-97886780D02*
X186901295Y-97886780D01*
X187187009Y-97886780D02*
X187187009Y-96886780D01*
X187091771Y-97029638D01*
X186996533Y-97124876D01*
X186901295Y-97172495D01*
X188091771Y-96886780D02*
X188187009Y-96886780D01*
X188282247Y-96934400D01*
X188329866Y-96982019D01*
X188377485Y-97077257D01*
X188425104Y-97267733D01*
X188425104Y-97505828D01*
X188377485Y-97696304D01*
X188329866Y-97791542D01*
X188282247Y-97839161D01*
X188187009Y-97886780D01*
X188091771Y-97886780D01*
X187996533Y-97839161D01*
X187948914Y-97791542D01*
X187901295Y-97696304D01*
X187853676Y-97505828D01*
X187853676Y-97267733D01*
X187901295Y-97077257D01*
X187948914Y-96982019D01*
X187996533Y-96934400D01*
X188091771Y-96886780D01*
X188853676Y-97886780D02*
X188853676Y-96886780D01*
X189425104Y-97886780D02*
X188996533Y-97315352D01*
X189425104Y-96886780D02*
X188853676Y-97458209D01*
X207278361Y-80563980D02*
X206706933Y-80563980D01*
X206992647Y-80563980D02*
X206992647Y-79563980D01*
X206897409Y-79706838D01*
X206802171Y-79802076D01*
X206706933Y-79849695D01*
X207897409Y-79563980D02*
X207992647Y-79563980D01*
X208087885Y-79611600D01*
X208135504Y-79659219D01*
X208183123Y-79754457D01*
X208230742Y-79944933D01*
X208230742Y-80183028D01*
X208183123Y-80373504D01*
X208135504Y-80468742D01*
X208087885Y-80516361D01*
X207992647Y-80563980D01*
X207897409Y-80563980D01*
X207802171Y-80516361D01*
X207754552Y-80468742D01*
X207706933Y-80373504D01*
X207659314Y-80183028D01*
X207659314Y-79944933D01*
X207706933Y-79754457D01*
X207754552Y-79659219D01*
X207802171Y-79611600D01*
X207897409Y-79563980D01*
X208659314Y-80563980D02*
X208659314Y-79563980D01*
X208754552Y-80183028D02*
X209040266Y-80563980D01*
X209040266Y-79897314D02*
X208659314Y-80278266D01*
X206862514Y-89673180D02*
X206957752Y-89673180D01*
X207052990Y-89720800D01*
X207100609Y-89768419D01*
X207148228Y-89863657D01*
X207195847Y-90054133D01*
X207195847Y-90292228D01*
X207148228Y-90482704D01*
X207100609Y-90577942D01*
X207052990Y-90625561D01*
X206957752Y-90673180D01*
X206862514Y-90673180D01*
X206767276Y-90625561D01*
X206719657Y-90577942D01*
X206672038Y-90482704D01*
X206624419Y-90292228D01*
X206624419Y-90054133D01*
X206672038Y-89863657D01*
X206719657Y-89768419D01*
X206767276Y-89720800D01*
X206862514Y-89673180D01*
X207624419Y-90577942D02*
X207672038Y-90625561D01*
X207624419Y-90673180D01*
X207576800Y-90625561D01*
X207624419Y-90577942D01*
X207624419Y-90673180D01*
X208624419Y-90673180D02*
X208052990Y-90673180D01*
X208338704Y-90673180D02*
X208338704Y-89673180D01*
X208243466Y-89816038D01*
X208148228Y-89911276D01*
X208052990Y-89958895D01*
X209481561Y-90006514D02*
X209481561Y-90673180D01*
X209052990Y-90006514D02*
X209052990Y-90530323D01*
X209100609Y-90625561D01*
X209195847Y-90673180D01*
X209338704Y-90673180D01*
X209433942Y-90625561D01*
X209481561Y-90577942D01*
X187253714Y-74331580D02*
X187348952Y-74331580D01*
X187444190Y-74379200D01*
X187491809Y-74426819D01*
X187539428Y-74522057D01*
X187587047Y-74712533D01*
X187587047Y-74950628D01*
X187539428Y-75141104D01*
X187491809Y-75236342D01*
X187444190Y-75283961D01*
X187348952Y-75331580D01*
X187253714Y-75331580D01*
X187158476Y-75283961D01*
X187110857Y-75236342D01*
X187063238Y-75141104D01*
X187015619Y-74950628D01*
X187015619Y-74712533D01*
X187063238Y-74522057D01*
X187110857Y-74426819D01*
X187158476Y-74379200D01*
X187253714Y-74331580D01*
X188015619Y-75236342D02*
X188063238Y-75283961D01*
X188015619Y-75331580D01*
X187968000Y-75283961D01*
X188015619Y-75236342D01*
X188015619Y-75331580D01*
X189015619Y-75331580D02*
X188444190Y-75331580D01*
X188729904Y-75331580D02*
X188729904Y-74331580D01*
X188634666Y-74474438D01*
X188539428Y-74569676D01*
X188444190Y-74617295D01*
X189872761Y-74664914D02*
X189872761Y-75331580D01*
X189444190Y-74664914D02*
X189444190Y-75188723D01*
X189491809Y-75283961D01*
X189587047Y-75331580D01*
X189729904Y-75331580D01*
X189825142Y-75283961D01*
X189872761Y-75236342D01*
X197870914Y-74331580D02*
X197966152Y-74331580D01*
X198061390Y-74379200D01*
X198109009Y-74426819D01*
X198156628Y-74522057D01*
X198204247Y-74712533D01*
X198204247Y-74950628D01*
X198156628Y-75141104D01*
X198109009Y-75236342D01*
X198061390Y-75283961D01*
X197966152Y-75331580D01*
X197870914Y-75331580D01*
X197775676Y-75283961D01*
X197728057Y-75236342D01*
X197680438Y-75141104D01*
X197632819Y-74950628D01*
X197632819Y-74712533D01*
X197680438Y-74522057D01*
X197728057Y-74426819D01*
X197775676Y-74379200D01*
X197870914Y-74331580D01*
X198632819Y-75236342D02*
X198680438Y-75283961D01*
X198632819Y-75331580D01*
X198585200Y-75283961D01*
X198632819Y-75236342D01*
X198632819Y-75331580D01*
X199632819Y-75331580D02*
X199061390Y-75331580D01*
X199347104Y-75331580D02*
X199347104Y-74331580D01*
X199251866Y-74474438D01*
X199156628Y-74569676D01*
X199061390Y-74617295D01*
X200489961Y-74664914D02*
X200489961Y-75331580D01*
X200061390Y-74664914D02*
X200061390Y-75188723D01*
X200109009Y-75283961D01*
X200204247Y-75331580D01*
X200347104Y-75331580D01*
X200442342Y-75283961D01*
X200489961Y-75236342D01*
X191470114Y-74331580D02*
X191565352Y-74331580D01*
X191660590Y-74379200D01*
X191708209Y-74426819D01*
X191755828Y-74522057D01*
X191803447Y-74712533D01*
X191803447Y-74950628D01*
X191755828Y-75141104D01*
X191708209Y-75236342D01*
X191660590Y-75283961D01*
X191565352Y-75331580D01*
X191470114Y-75331580D01*
X191374876Y-75283961D01*
X191327257Y-75236342D01*
X191279638Y-75141104D01*
X191232019Y-74950628D01*
X191232019Y-74712533D01*
X191279638Y-74522057D01*
X191327257Y-74426819D01*
X191374876Y-74379200D01*
X191470114Y-74331580D01*
X192232019Y-75236342D02*
X192279638Y-75283961D01*
X192232019Y-75331580D01*
X192184400Y-75283961D01*
X192232019Y-75236342D01*
X192232019Y-75331580D01*
X193232019Y-75331580D02*
X192660590Y-75331580D01*
X192946304Y-75331580D02*
X192946304Y-74331580D01*
X192851066Y-74474438D01*
X192755828Y-74569676D01*
X192660590Y-74617295D01*
X194089161Y-74664914D02*
X194089161Y-75331580D01*
X193660590Y-74664914D02*
X193660590Y-75188723D01*
X193708209Y-75283961D01*
X193803447Y-75331580D01*
X193946304Y-75331580D01*
X194041542Y-75283961D01*
X194089161Y-75236342D01*
X183088114Y-79360780D02*
X183183352Y-79360780D01*
X183278590Y-79408400D01*
X183326209Y-79456019D01*
X183373828Y-79551257D01*
X183421447Y-79741733D01*
X183421447Y-79979828D01*
X183373828Y-80170304D01*
X183326209Y-80265542D01*
X183278590Y-80313161D01*
X183183352Y-80360780D01*
X183088114Y-80360780D01*
X182992876Y-80313161D01*
X182945257Y-80265542D01*
X182897638Y-80170304D01*
X182850019Y-79979828D01*
X182850019Y-79741733D01*
X182897638Y-79551257D01*
X182945257Y-79456019D01*
X182992876Y-79408400D01*
X183088114Y-79360780D01*
X183850019Y-80265542D02*
X183897638Y-80313161D01*
X183850019Y-80360780D01*
X183802400Y-80313161D01*
X183850019Y-80265542D01*
X183850019Y-80360780D01*
X184850019Y-80360780D02*
X184278590Y-80360780D01*
X184564304Y-80360780D02*
X184564304Y-79360780D01*
X184469066Y-79503638D01*
X184373828Y-79598876D01*
X184278590Y-79646495D01*
X185707161Y-79694114D02*
X185707161Y-80360780D01*
X185278590Y-79694114D02*
X185278590Y-80217923D01*
X185326209Y-80313161D01*
X185421447Y-80360780D01*
X185564304Y-80360780D01*
X185659542Y-80313161D01*
X185707161Y-80265542D01*
X179735314Y-87539580D02*
X179830552Y-87539580D01*
X179925790Y-87587200D01*
X179973409Y-87634819D01*
X180021028Y-87730057D01*
X180068647Y-87920533D01*
X180068647Y-88158628D01*
X180021028Y-88349104D01*
X179973409Y-88444342D01*
X179925790Y-88491961D01*
X179830552Y-88539580D01*
X179735314Y-88539580D01*
X179640076Y-88491961D01*
X179592457Y-88444342D01*
X179544838Y-88349104D01*
X179497219Y-88158628D01*
X179497219Y-87920533D01*
X179544838Y-87730057D01*
X179592457Y-87634819D01*
X179640076Y-87587200D01*
X179735314Y-87539580D01*
X180497219Y-88444342D02*
X180544838Y-88491961D01*
X180497219Y-88539580D01*
X180449600Y-88491961D01*
X180497219Y-88444342D01*
X180497219Y-88539580D01*
X181497219Y-88539580D02*
X180925790Y-88539580D01*
X181211504Y-88539580D02*
X181211504Y-87539580D01*
X181116266Y-87682438D01*
X181021028Y-87777676D01*
X180925790Y-87825295D01*
X182354361Y-87872914D02*
X182354361Y-88539580D01*
X181925790Y-87872914D02*
X181925790Y-88396723D01*
X181973409Y-88491961D01*
X182068647Y-88539580D01*
X182211504Y-88539580D01*
X182306742Y-88491961D01*
X182354361Y-88444342D01*
D12*
G04 #@! TO.C,C1*
X191418748Y-96050000D02*
X191941252Y-96050000D01*
X191418748Y-94630000D02*
X191941252Y-94630000D01*
G04 #@! TO.C,C2*
X184791252Y-82320000D02*
X184268748Y-82320000D01*
X184791252Y-80900000D02*
X184268748Y-80900000D01*
G04 #@! TO.C,C3*
X204620000Y-90008748D02*
X204620000Y-90531252D01*
X206040000Y-90008748D02*
X206040000Y-90531252D01*
G04 #@! TO.C,C4*
X199291252Y-77210000D02*
X198768748Y-77210000D01*
X199291252Y-75790000D02*
X198768748Y-75790000D01*
G04 #@! TO.C,C5*
X158591252Y-84030000D02*
X158068748Y-84030000D01*
X158591252Y-82610000D02*
X158068748Y-82610000D01*
G04 #@! TO.C,C6*
X184771252Y-87280000D02*
X184248748Y-87280000D01*
X184771252Y-88700000D02*
X184248748Y-88700000D01*
G04 #@! TO.C,C7*
X188068748Y-75790000D02*
X188591252Y-75790000D01*
X188068748Y-77210000D02*
X188591252Y-77210000D01*
G04 #@! TO.C,C8*
X192891252Y-75790000D02*
X192368748Y-75790000D01*
X192891252Y-77210000D02*
X192368748Y-77210000D01*
G04 #@! TO.C,C9*
X184781252Y-86660000D02*
X184258748Y-86660000D01*
X184781252Y-85240000D02*
X184258748Y-85240000D01*
G04 #@! TO.C,C10*
X214190000Y-87572064D02*
X214190000Y-86367936D01*
X216010000Y-87572064D02*
X216010000Y-86367936D01*
G04 #@! TO.C,C11*
X218940000Y-86618748D02*
X218940000Y-87141252D01*
X217520000Y-86618748D02*
X217520000Y-87141252D01*
G04 #@! TO.C,C12*
X224590000Y-87081252D02*
X224590000Y-86558748D01*
X223170000Y-87081252D02*
X223170000Y-86558748D01*
D13*
G04 #@! TO.C,J1*
X167510000Y-79250000D02*
X167510000Y-79350000D01*
X167510000Y-79350000D02*
X165810000Y-79350000D01*
X159710000Y-79250000D02*
X159710000Y-79350000D01*
X159710000Y-79350000D02*
X161410000Y-79350000D01*
X159710000Y-74400000D02*
X159710000Y-77100000D01*
X159710000Y-72300000D02*
X159710000Y-70400000D01*
X167510000Y-72300000D02*
X167510000Y-70400000D01*
D14*
X167510000Y-77100000D02*
X167510000Y-74400000D01*
D12*
G04 #@! TO.C,JP1*
X159120000Y-84550000D02*
G75*
G02X159820000Y-85250000I0J-700000D01*
G01*
X159820000Y-85850000D02*
G75*
G02X159120000Y-86550000I-700000J0D01*
G01*
X157720000Y-86550000D02*
G75*
G02X157020000Y-85850000I0J700000D01*
G01*
X157020000Y-85250000D02*
G75*
G02X157720000Y-84550000I700000J0D01*
G01*
X157020000Y-85850000D02*
X157020000Y-85250000D01*
X159120000Y-86550000D02*
X157720000Y-86550000D01*
X159820000Y-85250000D02*
X159820000Y-85850000D01*
X157720000Y-84550000D02*
X159120000Y-84550000D01*
D10*
G04 #@! TO.C,LS1*
X233426000Y-92384000D02*
X238926000Y-92384000D01*
X238926000Y-92384000D02*
X238926000Y-83384000D01*
X238926000Y-83384000D02*
X227926000Y-83384000D01*
X227926000Y-83384000D02*
X227926000Y-92384000D01*
X227926000Y-92384000D02*
X233426000Y-92384000D01*
D15*
G04 #@! TO.C,U1*
X200833800Y-80336200D02*
X200833800Y-90343800D01*
X200833800Y-90343800D02*
X190826200Y-90343800D01*
X190826200Y-80818800D02*
X190826200Y-90343800D01*
X191308800Y-80336200D02*
X200833800Y-80336200D01*
X190826200Y-80818800D02*
X191308800Y-80336200D01*
D16*
X192428205Y-81745900D02*
G75*
G03X192428205Y-81745900I-179605J0D01*
G01*
D10*
X193074100Y-81745900D02*
X192248600Y-82507900D01*
X199456700Y-81726000D02*
X198681700Y-81726000D01*
X199456700Y-88976000D02*
X198681700Y-88976000D01*
X192206700Y-88976000D02*
X192981700Y-88976000D01*
X199456700Y-88976000D02*
X199456700Y-88201000D01*
X192206700Y-88976000D02*
X192206700Y-88201000D01*
X199456700Y-81726000D02*
X199456700Y-82501000D01*
D12*
G04 #@! TO.C,U2*
X219460000Y-85950000D02*
X219460000Y-87750000D01*
X222680000Y-87750000D02*
X222680000Y-85300000D01*
D11*
G04 #@! TO.C,Y1*
X197110000Y-96010000D02*
X193910000Y-96010000D01*
X193910000Y-94710000D02*
X197110000Y-94710000D01*
X197110000Y-94710000D02*
X197110000Y-96010000D01*
X193910000Y-94710000D02*
X193910000Y-96010000D01*
D12*
G04 #@! TO.C,R1*
X158601252Y-80610000D02*
X158078748Y-80610000D01*
X158601252Y-82030000D02*
X158078748Y-82030000D01*
G04 #@! TO.C,R2*
X178166252Y-80620000D02*
X177643748Y-80620000D01*
X178166252Y-82040000D02*
X177643748Y-82040000D01*
G04 #@! TO.C,R3*
X178166252Y-84040000D02*
X177643748Y-84040000D01*
X178166252Y-82620000D02*
X177643748Y-82620000D01*
G04 #@! TO.C,R4*
X191941252Y-98040000D02*
X191418748Y-98040000D01*
X191941252Y-96620000D02*
X191418748Y-96620000D01*
G04 #@! TO.C,R5*
X204580000Y-80431252D02*
X204580000Y-79908748D01*
X206000000Y-80431252D02*
X206000000Y-79908748D01*
D17*
G04 #@! TO.C,G\002A\002A\002A*
G36*
X162136226Y-99550367D02*
X162263225Y-99598008D01*
X162414552Y-99665836D01*
X162439833Y-99678163D01*
X162588850Y-99756879D01*
X162660420Y-99805604D01*
X162656982Y-99822398D01*
X162580976Y-99805318D01*
X162434841Y-99752422D01*
X162376333Y-99728718D01*
X162234125Y-99667493D01*
X162113300Y-99611284D01*
X162058833Y-99582844D01*
X161974167Y-99533241D01*
X162058833Y-99532573D01*
X162136226Y-99550367D01*
X162136226Y-99550367D01*
G37*
X162136226Y-99550367D02*
X162263225Y-99598008D01*
X162414552Y-99665836D01*
X162439833Y-99678163D01*
X162588850Y-99756879D01*
X162660420Y-99805604D01*
X162656982Y-99822398D01*
X162580976Y-99805318D01*
X162434841Y-99752422D01*
X162376333Y-99728718D01*
X162234125Y-99667493D01*
X162113300Y-99611284D01*
X162058833Y-99582844D01*
X161974167Y-99533241D01*
X162058833Y-99532573D01*
X162136226Y-99550367D01*
G36*
X155050896Y-91524442D02*
X155158135Y-91570816D01*
X155310579Y-91645319D01*
X155493979Y-91741187D01*
X155564032Y-91779187D01*
X155874864Y-91944045D01*
X156135894Y-92069645D01*
X156366935Y-92164919D01*
X156575480Y-92235110D01*
X156616555Y-92256382D01*
X156582072Y-92289088D01*
X156575480Y-92293296D01*
X156456336Y-92327372D01*
X156276941Y-92314423D01*
X156110007Y-92276622D01*
X155958456Y-92223494D01*
X155788132Y-92146406D01*
X155707840Y-92103382D01*
X155554295Y-92016087D01*
X155371259Y-91913865D01*
X155232583Y-91837571D01*
X155068086Y-91736585D01*
X154982562Y-91655480D01*
X154968000Y-91614000D01*
X154984513Y-91536585D01*
X155003115Y-91512961D01*
X155050896Y-91524442D01*
X155050896Y-91524442D01*
G37*
X155050896Y-91524442D02*
X155158135Y-91570816D01*
X155310579Y-91645319D01*
X155493979Y-91741187D01*
X155564032Y-91779187D01*
X155874864Y-91944045D01*
X156135894Y-92069645D01*
X156366935Y-92164919D01*
X156575480Y-92235110D01*
X156616555Y-92256382D01*
X156582072Y-92289088D01*
X156575480Y-92293296D01*
X156456336Y-92327372D01*
X156276941Y-92314423D01*
X156110007Y-92276622D01*
X155958456Y-92223494D01*
X155788132Y-92146406D01*
X155707840Y-92103382D01*
X155554295Y-92016087D01*
X155371259Y-91913865D01*
X155232583Y-91837571D01*
X155068086Y-91736585D01*
X154982562Y-91655480D01*
X154968000Y-91614000D01*
X154984513Y-91536585D01*
X155003115Y-91512961D01*
X155050896Y-91524442D01*
G36*
X163794500Y-88369578D02*
X164416430Y-88422747D01*
X165031380Y-88530244D01*
X165618623Y-88687216D01*
X166157429Y-88888804D01*
X166309773Y-88958820D01*
X166626403Y-89147586D01*
X166946914Y-89405318D01*
X167257752Y-89718130D01*
X167545366Y-90072135D01*
X167796201Y-90453448D01*
X167835179Y-90521723D01*
X167909363Y-90684572D01*
X167964613Y-90877992D01*
X168001189Y-91109602D01*
X168019353Y-91387024D01*
X168019365Y-91717875D01*
X168001484Y-92109775D01*
X167965971Y-92570344D01*
X167920969Y-93032500D01*
X167901223Y-93264565D01*
X167888317Y-93507852D01*
X167881840Y-93751623D01*
X167881383Y-93985139D01*
X167886535Y-94197664D01*
X167896887Y-94378458D01*
X167912029Y-94516785D01*
X167931550Y-94601906D01*
X167955041Y-94623083D01*
X167979929Y-94576480D01*
X168025559Y-94392795D01*
X168068071Y-94141507D01*
X168105790Y-93839667D01*
X168137040Y-93504325D01*
X168160144Y-93152534D01*
X168173427Y-92801343D01*
X168176000Y-92581852D01*
X168179532Y-92405563D01*
X168189048Y-92266133D01*
X168202925Y-92181611D01*
X168213479Y-92164667D01*
X168263589Y-92195721D01*
X168354963Y-92280501D01*
X168476215Y-92406426D01*
X168615956Y-92560918D01*
X168762799Y-92731398D01*
X168905354Y-92905288D01*
X169028226Y-93064594D01*
X169382386Y-93598071D01*
X169665014Y-94143521D01*
X169875273Y-94695016D01*
X170012327Y-95246632D01*
X170075341Y-95792443D01*
X170063478Y-96326525D01*
X169975901Y-96842952D01*
X169811775Y-97335799D01*
X169671893Y-97625667D01*
X169549741Y-97833729D01*
X169416397Y-98024025D01*
X169255609Y-98216994D01*
X169051127Y-98433077D01*
X168948801Y-98535152D01*
X168663491Y-98816284D01*
X169045069Y-99184059D01*
X169289397Y-99425500D01*
X169479738Y-99628950D01*
X169628224Y-99809305D01*
X169746983Y-99981461D01*
X169848147Y-100160314D01*
X169861646Y-100186833D01*
X169995342Y-100534331D01*
X170054611Y-100889626D01*
X170050141Y-101128750D01*
X170027894Y-101351000D01*
X169663577Y-101351000D01*
X169702955Y-101213696D01*
X169743599Y-100935150D01*
X169721221Y-100624869D01*
X169639514Y-100303250D01*
X169502171Y-99990689D01*
X169471793Y-99936908D01*
X169386631Y-99815806D01*
X169255343Y-99657167D01*
X169095196Y-99479572D01*
X168923461Y-99301605D01*
X168757407Y-99141846D01*
X168630761Y-99031938D01*
X168517024Y-98956729D01*
X168425028Y-98945223D01*
X168325063Y-98993883D01*
X168323003Y-98995291D01*
X168188937Y-99068116D01*
X167991303Y-99150575D01*
X167749575Y-99235808D01*
X167483229Y-99316955D01*
X167211741Y-99387158D01*
X167207911Y-99388050D01*
X166885436Y-99446930D01*
X166502736Y-99490465D01*
X166083037Y-99517607D01*
X165649565Y-99527307D01*
X165225546Y-99518515D01*
X164868789Y-99493689D01*
X164376745Y-99445420D01*
X164106789Y-99566595D01*
X163939075Y-99641271D01*
X163774836Y-99713421D01*
X163667500Y-99759770D01*
X163538176Y-99825741D01*
X163410892Y-99917207D01*
X163270774Y-100047083D01*
X163102948Y-100228287D01*
X163025019Y-100317693D01*
X162888288Y-100459284D01*
X162737783Y-100588931D01*
X162605370Y-100679267D01*
X162601686Y-100681257D01*
X162338373Y-100786385D01*
X162024750Y-100853963D01*
X161688595Y-100879162D01*
X161499375Y-100872851D01*
X161286154Y-100846621D01*
X161097131Y-100797132D01*
X160917697Y-100715965D01*
X160733244Y-100594697D01*
X160529163Y-100424907D01*
X160290846Y-100198172D01*
X160238500Y-100145964D01*
X160037160Y-99944037D01*
X159886606Y-99794985D01*
X159777441Y-99692136D01*
X159700264Y-99628817D01*
X159645676Y-99598352D01*
X159604280Y-99594070D01*
X159566675Y-99609297D01*
X159523462Y-99637359D01*
X159522785Y-99637804D01*
X159412185Y-99695391D01*
X159271067Y-99750881D01*
X159234201Y-99762673D01*
X159121602Y-99802593D01*
X159070162Y-99847110D01*
X159058331Y-99918910D01*
X159059178Y-99946918D01*
X159077052Y-100036749D01*
X159121145Y-100183761D01*
X159184704Y-100367152D01*
X159256572Y-100555131D01*
X159334389Y-100755109D01*
X159402114Y-100939258D01*
X159452153Y-101086282D01*
X159476174Y-101171083D01*
X159504394Y-101308667D01*
X157913530Y-101308667D01*
X157555948Y-101308090D01*
X157226425Y-101306446D01*
X156934208Y-101303866D01*
X156688542Y-101300481D01*
X156498672Y-101296421D01*
X156373843Y-101291818D01*
X156323301Y-101286802D01*
X156322667Y-101286164D01*
X156339207Y-101209046D01*
X156382771Y-101078395D01*
X156444271Y-100917259D01*
X156514618Y-100748684D01*
X156584725Y-100595716D01*
X156628191Y-100511348D01*
X156751325Y-100328800D01*
X156929898Y-100116769D01*
X157147821Y-99891074D01*
X157389003Y-99667533D01*
X157637354Y-99461964D01*
X157857250Y-99303034D01*
X158227667Y-99057193D01*
X158227667Y-98874059D01*
X158229866Y-98738486D01*
X158246408Y-98650932D01*
X158292208Y-98602054D01*
X158382180Y-98582512D01*
X158531239Y-98582965D01*
X158680774Y-98590284D01*
X159087106Y-98611538D01*
X159057780Y-98428143D01*
X159013830Y-98249522D01*
X158929844Y-98005864D01*
X158808794Y-97705060D01*
X158654212Y-97356224D01*
X158526130Y-97066123D01*
X158435790Y-96829621D01*
X158377824Y-96627449D01*
X158346864Y-96440337D01*
X158337541Y-96249016D01*
X158337665Y-96219964D01*
X158337187Y-96201137D01*
X158490252Y-96201137D01*
X158497327Y-96229957D01*
X158664394Y-96744289D01*
X158809349Y-97185635D01*
X158935220Y-97561859D01*
X159045031Y-97880822D01*
X159141810Y-98150389D01*
X159228582Y-98378422D01*
X159308375Y-98572784D01*
X159384214Y-98741338D01*
X159459126Y-98891947D01*
X159536138Y-99032474D01*
X159618275Y-99170782D01*
X159647241Y-99217631D01*
X159789373Y-99429046D01*
X159960614Y-99657873D01*
X160147550Y-99888533D01*
X160336767Y-100105444D01*
X160514851Y-100293026D01*
X160668387Y-100435698D01*
X160748747Y-100497025D01*
X160850882Y-100558706D01*
X160958185Y-100607269D01*
X161091231Y-100649447D01*
X161270594Y-100691970D01*
X161466167Y-100731719D01*
X161609045Y-100736926D01*
X161813148Y-100712224D01*
X162037667Y-100665415D01*
X162326054Y-100564184D01*
X162632242Y-100401304D01*
X162934191Y-100189835D01*
X163138333Y-100013177D01*
X163328562Y-99843402D01*
X163486511Y-99728619D01*
X163630591Y-99656007D01*
X163673104Y-99640779D01*
X163794175Y-99591608D01*
X163901728Y-99532255D01*
X163981044Y-99473986D01*
X164017400Y-99428066D01*
X163996078Y-99405760D01*
X163980978Y-99405167D01*
X163901938Y-99426264D01*
X163815667Y-99467167D01*
X163680208Y-99513569D01*
X163518921Y-99526830D01*
X163369074Y-99506881D01*
X163284008Y-99468143D01*
X163241722Y-99431181D01*
X163254017Y-99417260D01*
X163332818Y-99422083D01*
X163392333Y-99429123D01*
X163553560Y-99432624D01*
X163661665Y-99392917D01*
X163667500Y-99388663D01*
X163718556Y-99333150D01*
X163704406Y-99285935D01*
X163618723Y-99241176D01*
X163455833Y-99193197D01*
X162651081Y-98953041D01*
X161882248Y-98647970D01*
X161142867Y-98274243D01*
X160426472Y-97828113D01*
X159726598Y-97305837D01*
X159036779Y-96703671D01*
X158851264Y-96526759D01*
X158715259Y-96394920D01*
X158602221Y-96285680D01*
X158525654Y-96212068D01*
X158499777Y-96187624D01*
X158490252Y-96201137D01*
X158337187Y-96201137D01*
X158332608Y-96021126D01*
X158313641Y-95905615D01*
X158282146Y-95873649D01*
X158239505Y-95925445D01*
X158187099Y-96061220D01*
X158149572Y-96190420D01*
X158052316Y-96488382D01*
X157909558Y-96834239D01*
X157729495Y-97210430D01*
X157520325Y-97599393D01*
X157380788Y-97837333D01*
X157225960Y-98101031D01*
X157064128Y-98390979D01*
X156906721Y-98685537D01*
X156765169Y-98963065D01*
X156650902Y-99201923D01*
X156605104Y-99305931D01*
X156516447Y-99451686D01*
X156371787Y-99615192D01*
X156278367Y-99701703D01*
X156159246Y-99811379D01*
X156070496Y-99905436D01*
X156027930Y-99966775D01*
X156026333Y-99974258D01*
X156008167Y-100036106D01*
X155960138Y-100150084D01*
X155891950Y-100293471D01*
X155878958Y-100319320D01*
X155808549Y-100462438D01*
X155756217Y-100576732D01*
X155731557Y-100641060D01*
X155730792Y-100645871D01*
X155752407Y-100699786D01*
X155808969Y-100797797D01*
X155886401Y-100918991D01*
X155970622Y-101042453D01*
X156047552Y-101147267D01*
X156103114Y-101212521D01*
X156119978Y-101224000D01*
X156152412Y-101256464D01*
X156153333Y-101266333D01*
X156119085Y-101303984D01*
X156090401Y-101308667D01*
X156034344Y-101344226D01*
X155976667Y-101431922D01*
X155966985Y-101453426D01*
X155906573Y-101562506D01*
X155818237Y-101641731D01*
X155677513Y-101711132D01*
X155629043Y-101730146D01*
X155554911Y-101751802D01*
X155539236Y-101729176D01*
X155548098Y-101698432D01*
X155609357Y-101583436D01*
X155712671Y-101497088D01*
X155799332Y-101451228D01*
X155898446Y-101392114D01*
X155940880Y-101341529D01*
X155918875Y-101311847D01*
X155888750Y-101308591D01*
X155837530Y-101275413D01*
X155764902Y-101190730D01*
X155720328Y-101125677D01*
X155631578Y-101008083D01*
X155498634Y-100858203D01*
X155342738Y-100697479D01*
X155185129Y-100547355D01*
X155047049Y-100429274D01*
X154987928Y-100386282D01*
X154949403Y-100355439D01*
X154967149Y-100343183D01*
X155052440Y-100346532D01*
X155116167Y-100352365D01*
X155272983Y-100370765D01*
X155418852Y-100392822D01*
X155463384Y-100401218D01*
X155558656Y-100412754D01*
X155604893Y-100381179D01*
X155629121Y-100308135D01*
X155680968Y-100161605D01*
X155772191Y-99992828D01*
X155910677Y-99788637D01*
X156052143Y-99601981D01*
X156205117Y-99393891D01*
X156386491Y-99126765D01*
X156586261Y-98817023D01*
X156794422Y-98481084D01*
X157000970Y-98135369D01*
X157195903Y-97796298D01*
X157369215Y-97480290D01*
X157501238Y-97223500D01*
X157603369Y-97005151D01*
X157709172Y-96760328D01*
X157812900Y-96504461D01*
X157908805Y-96252978D01*
X157991138Y-96021309D01*
X158054150Y-95824881D01*
X158092095Y-95679125D01*
X158100667Y-95614552D01*
X158078353Y-95556648D01*
X158019238Y-95450165D01*
X157935062Y-95315895D01*
X157914741Y-95285281D01*
X157656569Y-94851774D01*
X157418579Y-94358147D01*
X157209919Y-93828227D01*
X157039734Y-93285839D01*
X156917168Y-92754807D01*
X156895634Y-92630333D01*
X156871940Y-92411334D01*
X159100582Y-92411334D01*
X159100599Y-92418667D01*
X159139763Y-92799039D01*
X159250440Y-93204096D01*
X159426352Y-93625105D01*
X159661221Y-94053333D01*
X159948768Y-94480045D01*
X160282714Y-94896510D01*
X160656781Y-95293992D01*
X161064691Y-95663759D01*
X161500163Y-95997078D01*
X161825007Y-96208247D01*
X162472639Y-96555437D01*
X163127072Y-96820021D01*
X163717683Y-96987321D01*
X163910058Y-97030586D01*
X164064802Y-97062178D01*
X164201020Y-97083667D01*
X164337821Y-97096624D01*
X164494311Y-97102620D01*
X164689598Y-97103223D01*
X164942790Y-97100005D01*
X165064500Y-97098001D01*
X165349827Y-97091560D01*
X165568585Y-97081869D01*
X165738860Y-97067045D01*
X165878737Y-97045205D01*
X166006303Y-97014466D01*
X166080500Y-96992222D01*
X166486483Y-96832334D01*
X166825874Y-96631696D01*
X167095433Y-96393125D01*
X167291922Y-96119440D01*
X167405129Y-95839938D01*
X167430965Y-95715862D01*
X167421529Y-95667394D01*
X167379732Y-95694575D01*
X167308487Y-95797446D01*
X167284557Y-95838243D01*
X167065362Y-96138809D01*
X166781876Y-96393951D01*
X166442559Y-96601553D01*
X166055872Y-96759498D01*
X165630276Y-96865671D01*
X165174231Y-96917955D01*
X164696199Y-96914233D01*
X164204640Y-96852389D01*
X163712643Y-96731730D01*
X163065752Y-96491519D01*
X162431769Y-96175091D01*
X161822533Y-95790887D01*
X161249883Y-95347350D01*
X160725659Y-94852921D01*
X160261700Y-94316043D01*
X160187198Y-94217833D01*
X159896425Y-93791861D01*
X159679628Y-93393845D01*
X159533806Y-93016477D01*
X159455963Y-92652449D01*
X159440317Y-92397500D01*
X159462192Y-92086872D01*
X159533007Y-91820063D01*
X159541005Y-91804833D01*
X159791155Y-91804833D01*
X159812833Y-92058833D01*
X159842187Y-92250366D01*
X159892614Y-92453326D01*
X159923594Y-92545667D01*
X160012532Y-92755102D01*
X160116275Y-92949532D01*
X160241756Y-93135601D01*
X160395906Y-93319955D01*
X160585658Y-93509237D01*
X160817944Y-93710093D01*
X161099698Y-93929166D01*
X161437851Y-94173101D01*
X161839335Y-94448543D01*
X162069651Y-94602586D01*
X162535333Y-94909584D01*
X162940752Y-95170801D01*
X163294077Y-95390314D01*
X163603476Y-95572201D01*
X163877116Y-95720540D01*
X164123166Y-95839407D01*
X164349792Y-95932880D01*
X164565162Y-96005036D01*
X164777445Y-96059953D01*
X164994808Y-96101708D01*
X165106833Y-96118767D01*
X165267542Y-96128378D01*
X165481801Y-96123644D01*
X165720141Y-96106841D01*
X165953094Y-96080245D01*
X166151191Y-96046133D01*
X166201608Y-96034208D01*
X166537148Y-95918919D01*
X166824808Y-95762723D01*
X167055503Y-95573031D01*
X167220142Y-95357254D01*
X167307654Y-95132264D01*
X167317592Y-95074913D01*
X167310357Y-95050502D01*
X167277090Y-95064927D01*
X167208933Y-95124085D01*
X167097025Y-95233872D01*
X166984835Y-95347125D01*
X166793931Y-95533574D01*
X166634685Y-95668143D01*
X166485130Y-95764472D01*
X166323299Y-95836200D01*
X166127224Y-95896966D01*
X166078371Y-95909942D01*
X165789637Y-95965570D01*
X165494103Y-95981032D01*
X165184393Y-95954077D01*
X164853134Y-95882456D01*
X164492952Y-95763916D01*
X164096472Y-95596208D01*
X163656320Y-95377080D01*
X163165123Y-95104281D01*
X162871446Y-94931097D01*
X162410991Y-94647969D01*
X162014064Y-94387877D01*
X161666479Y-94140267D01*
X161354046Y-93894586D01*
X161062577Y-93640277D01*
X160805359Y-93394215D01*
X160501099Y-93074512D01*
X160261533Y-92782012D01*
X160077195Y-92503060D01*
X159938623Y-92224005D01*
X159872927Y-92049105D01*
X159791155Y-91804833D01*
X159541005Y-91804833D01*
X159662340Y-91573793D01*
X159859769Y-91324782D01*
X159899173Y-91282221D01*
X159965430Y-91208776D01*
X164498396Y-91208776D01*
X164515383Y-91265684D01*
X164572442Y-91336438D01*
X164625813Y-91410891D01*
X164704518Y-91539795D01*
X164795938Y-91701919D01*
X164850873Y-91804833D01*
X164958058Y-92006210D01*
X165043532Y-92151207D01*
X165123072Y-92259358D01*
X165212456Y-92350199D01*
X165327461Y-92443263D01*
X165424333Y-92514860D01*
X165651967Y-92687169D01*
X165821131Y-92835849D01*
X165946288Y-92980278D01*
X166041901Y-93139832D01*
X166122431Y-93333888D01*
X166189845Y-93540500D01*
X166239923Y-93697480D01*
X166285960Y-93829411D01*
X166318356Y-93908850D01*
X166319427Y-93910917D01*
X166374237Y-93974575D01*
X166422434Y-93974957D01*
X166440333Y-93920293D01*
X166465028Y-93823875D01*
X166536054Y-93668063D01*
X166648820Y-93461104D01*
X166798736Y-93211246D01*
X166981212Y-92926738D01*
X167054517Y-92816638D01*
X167285142Y-92448079D01*
X167448747Y-92127931D01*
X167546226Y-91854045D01*
X167578473Y-91624274D01*
X167575716Y-91565226D01*
X167567158Y-91501835D01*
X167552307Y-91482828D01*
X167523594Y-91516532D01*
X167473448Y-91611277D01*
X167404899Y-91753189D01*
X167311730Y-91926308D01*
X167183690Y-92135012D01*
X167039705Y-92349508D01*
X166934339Y-92494022D01*
X166799074Y-92673871D01*
X166670837Y-92848241D01*
X166565227Y-92995703D01*
X166503898Y-93085417D01*
X166411349Y-93211984D01*
X166349493Y-93259999D01*
X166317928Y-93229659D01*
X166313333Y-93178980D01*
X166279887Y-93025851D01*
X166177304Y-92855955D01*
X166002219Y-92664913D01*
X165752580Y-92449392D01*
X165576515Y-92303105D01*
X165406901Y-92151590D01*
X165265900Y-92015199D01*
X165191500Y-91934164D01*
X165086986Y-91809362D01*
X164992845Y-91698053D01*
X164943767Y-91640863D01*
X164872290Y-91552807D01*
X164780213Y-91431913D01*
X164735507Y-91370917D01*
X164651861Y-91268883D01*
X164579197Y-91203683D01*
X164549323Y-91191000D01*
X164498396Y-91208776D01*
X159965430Y-91208776D01*
X160034483Y-91132233D01*
X160122123Y-91014253D01*
X160177186Y-90903463D01*
X160214768Y-90775046D01*
X160219046Y-90756258D01*
X160260221Y-90605538D01*
X160311306Y-90510137D01*
X160389442Y-90441017D01*
X160414754Y-90424722D01*
X160523163Y-90344522D01*
X160553796Y-90283664D01*
X160520738Y-90242870D01*
X160450704Y-90246147D01*
X160350091Y-90310886D01*
X160230978Y-90425414D01*
X160105447Y-90578060D01*
X159985577Y-90757152D01*
X159981642Y-90763740D01*
X159854410Y-90963169D01*
X159700754Y-91183244D01*
X159550586Y-91381406D01*
X159527397Y-91410046D01*
X159350068Y-91638843D01*
X159227528Y-91832559D01*
X159150971Y-92012006D01*
X159111592Y-92197993D01*
X159100582Y-92411334D01*
X156871940Y-92411334D01*
X156830922Y-92032225D01*
X156836263Y-91481580D01*
X156911185Y-90979012D01*
X157055219Y-90525135D01*
X157267894Y-90120562D01*
X157548739Y-89765906D01*
X157897283Y-89461782D01*
X158313056Y-89208804D01*
X158795587Y-89007584D01*
X159344405Y-88858737D01*
X159852635Y-88775076D01*
X160028959Y-88760162D01*
X160256234Y-88750670D01*
X160514954Y-88746382D01*
X160785615Y-88747084D01*
X161048714Y-88752557D01*
X161284746Y-88762585D01*
X161474207Y-88776953D01*
X161593167Y-88794395D01*
X161692492Y-88812464D01*
X161735604Y-88817094D01*
X161734644Y-88846526D01*
X161684018Y-88922755D01*
X161593453Y-89032237D01*
X161534390Y-89097188D01*
X161343420Y-89307684D01*
X161215040Y-89461989D01*
X161147528Y-89558976D01*
X161139162Y-89597519D01*
X161188218Y-89576492D01*
X161292974Y-89494769D01*
X161451708Y-89351223D01*
X161640795Y-89166742D01*
X161908597Y-88910792D01*
X162151171Y-88712056D01*
X162385023Y-88564426D01*
X162626657Y-88461791D01*
X162892578Y-88398042D01*
X163199292Y-88367071D01*
X163563305Y-88362768D01*
X163794500Y-88369578D01*
X163794500Y-88369578D01*
G37*
X163794500Y-88369578D02*
X164416430Y-88422747D01*
X165031380Y-88530244D01*
X165618623Y-88687216D01*
X166157429Y-88888804D01*
X166309773Y-88958820D01*
X166626403Y-89147586D01*
X166946914Y-89405318D01*
X167257752Y-89718130D01*
X167545366Y-90072135D01*
X167796201Y-90453448D01*
X167835179Y-90521723D01*
X167909363Y-90684572D01*
X167964613Y-90877992D01*
X168001189Y-91109602D01*
X168019353Y-91387024D01*
X168019365Y-91717875D01*
X168001484Y-92109775D01*
X167965971Y-92570344D01*
X167920969Y-93032500D01*
X167901223Y-93264565D01*
X167888317Y-93507852D01*
X167881840Y-93751623D01*
X167881383Y-93985139D01*
X167886535Y-94197664D01*
X167896887Y-94378458D01*
X167912029Y-94516785D01*
X167931550Y-94601906D01*
X167955041Y-94623083D01*
X167979929Y-94576480D01*
X168025559Y-94392795D01*
X168068071Y-94141507D01*
X168105790Y-93839667D01*
X168137040Y-93504325D01*
X168160144Y-93152534D01*
X168173427Y-92801343D01*
X168176000Y-92581852D01*
X168179532Y-92405563D01*
X168189048Y-92266133D01*
X168202925Y-92181611D01*
X168213479Y-92164667D01*
X168263589Y-92195721D01*
X168354963Y-92280501D01*
X168476215Y-92406426D01*
X168615956Y-92560918D01*
X168762799Y-92731398D01*
X168905354Y-92905288D01*
X169028226Y-93064594D01*
X169382386Y-93598071D01*
X169665014Y-94143521D01*
X169875273Y-94695016D01*
X170012327Y-95246632D01*
X170075341Y-95792443D01*
X170063478Y-96326525D01*
X169975901Y-96842952D01*
X169811775Y-97335799D01*
X169671893Y-97625667D01*
X169549741Y-97833729D01*
X169416397Y-98024025D01*
X169255609Y-98216994D01*
X169051127Y-98433077D01*
X168948801Y-98535152D01*
X168663491Y-98816284D01*
X169045069Y-99184059D01*
X169289397Y-99425500D01*
X169479738Y-99628950D01*
X169628224Y-99809305D01*
X169746983Y-99981461D01*
X169848147Y-100160314D01*
X169861646Y-100186833D01*
X169995342Y-100534331D01*
X170054611Y-100889626D01*
X170050141Y-101128750D01*
X170027894Y-101351000D01*
X169663577Y-101351000D01*
X169702955Y-101213696D01*
X169743599Y-100935150D01*
X169721221Y-100624869D01*
X169639514Y-100303250D01*
X169502171Y-99990689D01*
X169471793Y-99936908D01*
X169386631Y-99815806D01*
X169255343Y-99657167D01*
X169095196Y-99479572D01*
X168923461Y-99301605D01*
X168757407Y-99141846D01*
X168630761Y-99031938D01*
X168517024Y-98956729D01*
X168425028Y-98945223D01*
X168325063Y-98993883D01*
X168323003Y-98995291D01*
X168188937Y-99068116D01*
X167991303Y-99150575D01*
X167749575Y-99235808D01*
X167483229Y-99316955D01*
X167211741Y-99387158D01*
X167207911Y-99388050D01*
X166885436Y-99446930D01*
X166502736Y-99490465D01*
X166083037Y-99517607D01*
X165649565Y-99527307D01*
X165225546Y-99518515D01*
X164868789Y-99493689D01*
X164376745Y-99445420D01*
X164106789Y-99566595D01*
X163939075Y-99641271D01*
X163774836Y-99713421D01*
X163667500Y-99759770D01*
X163538176Y-99825741D01*
X163410892Y-99917207D01*
X163270774Y-100047083D01*
X163102948Y-100228287D01*
X163025019Y-100317693D01*
X162888288Y-100459284D01*
X162737783Y-100588931D01*
X162605370Y-100679267D01*
X162601686Y-100681257D01*
X162338373Y-100786385D01*
X162024750Y-100853963D01*
X161688595Y-100879162D01*
X161499375Y-100872851D01*
X161286154Y-100846621D01*
X161097131Y-100797132D01*
X160917697Y-100715965D01*
X160733244Y-100594697D01*
X160529163Y-100424907D01*
X160290846Y-100198172D01*
X160238500Y-100145964D01*
X160037160Y-99944037D01*
X159886606Y-99794985D01*
X159777441Y-99692136D01*
X159700264Y-99628817D01*
X159645676Y-99598352D01*
X159604280Y-99594070D01*
X159566675Y-99609297D01*
X159523462Y-99637359D01*
X159522785Y-99637804D01*
X159412185Y-99695391D01*
X159271067Y-99750881D01*
X159234201Y-99762673D01*
X159121602Y-99802593D01*
X159070162Y-99847110D01*
X159058331Y-99918910D01*
X159059178Y-99946918D01*
X159077052Y-100036749D01*
X159121145Y-100183761D01*
X159184704Y-100367152D01*
X159256572Y-100555131D01*
X159334389Y-100755109D01*
X159402114Y-100939258D01*
X159452153Y-101086282D01*
X159476174Y-101171083D01*
X159504394Y-101308667D01*
X157913530Y-101308667D01*
X157555948Y-101308090D01*
X157226425Y-101306446D01*
X156934208Y-101303866D01*
X156688542Y-101300481D01*
X156498672Y-101296421D01*
X156373843Y-101291818D01*
X156323301Y-101286802D01*
X156322667Y-101286164D01*
X156339207Y-101209046D01*
X156382771Y-101078395D01*
X156444271Y-100917259D01*
X156514618Y-100748684D01*
X156584725Y-100595716D01*
X156628191Y-100511348D01*
X156751325Y-100328800D01*
X156929898Y-100116769D01*
X157147821Y-99891074D01*
X157389003Y-99667533D01*
X157637354Y-99461964D01*
X157857250Y-99303034D01*
X158227667Y-99057193D01*
X158227667Y-98874059D01*
X158229866Y-98738486D01*
X158246408Y-98650932D01*
X158292208Y-98602054D01*
X158382180Y-98582512D01*
X158531239Y-98582965D01*
X158680774Y-98590284D01*
X159087106Y-98611538D01*
X159057780Y-98428143D01*
X159013830Y-98249522D01*
X158929844Y-98005864D01*
X158808794Y-97705060D01*
X158654212Y-97356224D01*
X158526130Y-97066123D01*
X158435790Y-96829621D01*
X158377824Y-96627449D01*
X158346864Y-96440337D01*
X158337541Y-96249016D01*
X158337665Y-96219964D01*
X158337187Y-96201137D01*
X158490252Y-96201137D01*
X158497327Y-96229957D01*
X158664394Y-96744289D01*
X158809349Y-97185635D01*
X158935220Y-97561859D01*
X159045031Y-97880822D01*
X159141810Y-98150389D01*
X159228582Y-98378422D01*
X159308375Y-98572784D01*
X159384214Y-98741338D01*
X159459126Y-98891947D01*
X159536138Y-99032474D01*
X159618275Y-99170782D01*
X159647241Y-99217631D01*
X159789373Y-99429046D01*
X159960614Y-99657873D01*
X160147550Y-99888533D01*
X160336767Y-100105444D01*
X160514851Y-100293026D01*
X160668387Y-100435698D01*
X160748747Y-100497025D01*
X160850882Y-100558706D01*
X160958185Y-100607269D01*
X161091231Y-100649447D01*
X161270594Y-100691970D01*
X161466167Y-100731719D01*
X161609045Y-100736926D01*
X161813148Y-100712224D01*
X162037667Y-100665415D01*
X162326054Y-100564184D01*
X162632242Y-100401304D01*
X162934191Y-100189835D01*
X163138333Y-100013177D01*
X163328562Y-99843402D01*
X163486511Y-99728619D01*
X163630591Y-99656007D01*
X163673104Y-99640779D01*
X163794175Y-99591608D01*
X163901728Y-99532255D01*
X163981044Y-99473986D01*
X164017400Y-99428066D01*
X163996078Y-99405760D01*
X163980978Y-99405167D01*
X163901938Y-99426264D01*
X163815667Y-99467167D01*
X163680208Y-99513569D01*
X163518921Y-99526830D01*
X163369074Y-99506881D01*
X163284008Y-99468143D01*
X163241722Y-99431181D01*
X163254017Y-99417260D01*
X163332818Y-99422083D01*
X163392333Y-99429123D01*
X163553560Y-99432624D01*
X163661665Y-99392917D01*
X163667500Y-99388663D01*
X163718556Y-99333150D01*
X163704406Y-99285935D01*
X163618723Y-99241176D01*
X163455833Y-99193197D01*
X162651081Y-98953041D01*
X161882248Y-98647970D01*
X161142867Y-98274243D01*
X160426472Y-97828113D01*
X159726598Y-97305837D01*
X159036779Y-96703671D01*
X158851264Y-96526759D01*
X158715259Y-96394920D01*
X158602221Y-96285680D01*
X158525654Y-96212068D01*
X158499777Y-96187624D01*
X158490252Y-96201137D01*
X158337187Y-96201137D01*
X158332608Y-96021126D01*
X158313641Y-95905615D01*
X158282146Y-95873649D01*
X158239505Y-95925445D01*
X158187099Y-96061220D01*
X158149572Y-96190420D01*
X158052316Y-96488382D01*
X157909558Y-96834239D01*
X157729495Y-97210430D01*
X157520325Y-97599393D01*
X157380788Y-97837333D01*
X157225960Y-98101031D01*
X157064128Y-98390979D01*
X156906721Y-98685537D01*
X156765169Y-98963065D01*
X156650902Y-99201923D01*
X156605104Y-99305931D01*
X156516447Y-99451686D01*
X156371787Y-99615192D01*
X156278367Y-99701703D01*
X156159246Y-99811379D01*
X156070496Y-99905436D01*
X156027930Y-99966775D01*
X156026333Y-99974258D01*
X156008167Y-100036106D01*
X155960138Y-100150084D01*
X155891950Y-100293471D01*
X155878958Y-100319320D01*
X155808549Y-100462438D01*
X155756217Y-100576732D01*
X155731557Y-100641060D01*
X155730792Y-100645871D01*
X155752407Y-100699786D01*
X155808969Y-100797797D01*
X155886401Y-100918991D01*
X155970622Y-101042453D01*
X156047552Y-101147267D01*
X156103114Y-101212521D01*
X156119978Y-101224000D01*
X156152412Y-101256464D01*
X156153333Y-101266333D01*
X156119085Y-101303984D01*
X156090401Y-101308667D01*
X156034344Y-101344226D01*
X155976667Y-101431922D01*
X155966985Y-101453426D01*
X155906573Y-101562506D01*
X155818237Y-101641731D01*
X155677513Y-101711132D01*
X155629043Y-101730146D01*
X155554911Y-101751802D01*
X155539236Y-101729176D01*
X155548098Y-101698432D01*
X155609357Y-101583436D01*
X155712671Y-101497088D01*
X155799332Y-101451228D01*
X155898446Y-101392114D01*
X155940880Y-101341529D01*
X155918875Y-101311847D01*
X155888750Y-101308591D01*
X155837530Y-101275413D01*
X155764902Y-101190730D01*
X155720328Y-101125677D01*
X155631578Y-101008083D01*
X155498634Y-100858203D01*
X155342738Y-100697479D01*
X155185129Y-100547355D01*
X155047049Y-100429274D01*
X154987928Y-100386282D01*
X154949403Y-100355439D01*
X154967149Y-100343183D01*
X155052440Y-100346532D01*
X155116167Y-100352365D01*
X155272983Y-100370765D01*
X155418852Y-100392822D01*
X155463384Y-100401218D01*
X155558656Y-100412754D01*
X155604893Y-100381179D01*
X155629121Y-100308135D01*
X155680968Y-100161605D01*
X155772191Y-99992828D01*
X155910677Y-99788637D01*
X156052143Y-99601981D01*
X156205117Y-99393891D01*
X156386491Y-99126765D01*
X156586261Y-98817023D01*
X156794422Y-98481084D01*
X157000970Y-98135369D01*
X157195903Y-97796298D01*
X157369215Y-97480290D01*
X157501238Y-97223500D01*
X157603369Y-97005151D01*
X157709172Y-96760328D01*
X157812900Y-96504461D01*
X157908805Y-96252978D01*
X157991138Y-96021309D01*
X158054150Y-95824881D01*
X158092095Y-95679125D01*
X158100667Y-95614552D01*
X158078353Y-95556648D01*
X158019238Y-95450165D01*
X157935062Y-95315895D01*
X157914741Y-95285281D01*
X157656569Y-94851774D01*
X157418579Y-94358147D01*
X157209919Y-93828227D01*
X157039734Y-93285839D01*
X156917168Y-92754807D01*
X156895634Y-92630333D01*
X156871940Y-92411334D01*
X159100582Y-92411334D01*
X159100599Y-92418667D01*
X159139763Y-92799039D01*
X159250440Y-93204096D01*
X159426352Y-93625105D01*
X159661221Y-94053333D01*
X159948768Y-94480045D01*
X160282714Y-94896510D01*
X160656781Y-95293992D01*
X161064691Y-95663759D01*
X161500163Y-95997078D01*
X161825007Y-96208247D01*
X162472639Y-96555437D01*
X163127072Y-96820021D01*
X163717683Y-96987321D01*
X163910058Y-97030586D01*
X164064802Y-97062178D01*
X164201020Y-97083667D01*
X164337821Y-97096624D01*
X164494311Y-97102620D01*
X164689598Y-97103223D01*
X164942790Y-97100005D01*
X165064500Y-97098001D01*
X165349827Y-97091560D01*
X165568585Y-97081869D01*
X165738860Y-97067045D01*
X165878737Y-97045205D01*
X166006303Y-97014466D01*
X166080500Y-96992222D01*
X166486483Y-96832334D01*
X166825874Y-96631696D01*
X167095433Y-96393125D01*
X167291922Y-96119440D01*
X167405129Y-95839938D01*
X167430965Y-95715862D01*
X167421529Y-95667394D01*
X167379732Y-95694575D01*
X167308487Y-95797446D01*
X167284557Y-95838243D01*
X167065362Y-96138809D01*
X166781876Y-96393951D01*
X166442559Y-96601553D01*
X166055872Y-96759498D01*
X165630276Y-96865671D01*
X165174231Y-96917955D01*
X164696199Y-96914233D01*
X164204640Y-96852389D01*
X163712643Y-96731730D01*
X163065752Y-96491519D01*
X162431769Y-96175091D01*
X161822533Y-95790887D01*
X161249883Y-95347350D01*
X160725659Y-94852921D01*
X160261700Y-94316043D01*
X160187198Y-94217833D01*
X159896425Y-93791861D01*
X159679628Y-93393845D01*
X159533806Y-93016477D01*
X159455963Y-92652449D01*
X159440317Y-92397500D01*
X159462192Y-92086872D01*
X159533007Y-91820063D01*
X159541005Y-91804833D01*
X159791155Y-91804833D01*
X159812833Y-92058833D01*
X159842187Y-92250366D01*
X159892614Y-92453326D01*
X159923594Y-92545667D01*
X160012532Y-92755102D01*
X160116275Y-92949532D01*
X160241756Y-93135601D01*
X160395906Y-93319955D01*
X160585658Y-93509237D01*
X160817944Y-93710093D01*
X161099698Y-93929166D01*
X161437851Y-94173101D01*
X161839335Y-94448543D01*
X162069651Y-94602586D01*
X162535333Y-94909584D01*
X162940752Y-95170801D01*
X163294077Y-95390314D01*
X163603476Y-95572201D01*
X163877116Y-95720540D01*
X164123166Y-95839407D01*
X164349792Y-95932880D01*
X164565162Y-96005036D01*
X164777445Y-96059953D01*
X164994808Y-96101708D01*
X165106833Y-96118767D01*
X165267542Y-96128378D01*
X165481801Y-96123644D01*
X165720141Y-96106841D01*
X165953094Y-96080245D01*
X166151191Y-96046133D01*
X166201608Y-96034208D01*
X166537148Y-95918919D01*
X166824808Y-95762723D01*
X167055503Y-95573031D01*
X167220142Y-95357254D01*
X167307654Y-95132264D01*
X167317592Y-95074913D01*
X167310357Y-95050502D01*
X167277090Y-95064927D01*
X167208933Y-95124085D01*
X167097025Y-95233872D01*
X166984835Y-95347125D01*
X166793931Y-95533574D01*
X166634685Y-95668143D01*
X166485130Y-95764472D01*
X166323299Y-95836200D01*
X166127224Y-95896966D01*
X166078371Y-95909942D01*
X165789637Y-95965570D01*
X165494103Y-95981032D01*
X165184393Y-95954077D01*
X164853134Y-95882456D01*
X164492952Y-95763916D01*
X164096472Y-95596208D01*
X163656320Y-95377080D01*
X163165123Y-95104281D01*
X162871446Y-94931097D01*
X162410991Y-94647969D01*
X162014064Y-94387877D01*
X161666479Y-94140267D01*
X161354046Y-93894586D01*
X161062577Y-93640277D01*
X160805359Y-93394215D01*
X160501099Y-93074512D01*
X160261533Y-92782012D01*
X160077195Y-92503060D01*
X159938623Y-92224005D01*
X159872927Y-92049105D01*
X159791155Y-91804833D01*
X159541005Y-91804833D01*
X159662340Y-91573793D01*
X159859769Y-91324782D01*
X159899173Y-91282221D01*
X159965430Y-91208776D01*
X164498396Y-91208776D01*
X164515383Y-91265684D01*
X164572442Y-91336438D01*
X164625813Y-91410891D01*
X164704518Y-91539795D01*
X164795938Y-91701919D01*
X164850873Y-91804833D01*
X164958058Y-92006210D01*
X165043532Y-92151207D01*
X165123072Y-92259358D01*
X165212456Y-92350199D01*
X165327461Y-92443263D01*
X165424333Y-92514860D01*
X165651967Y-92687169D01*
X165821131Y-92835849D01*
X165946288Y-92980278D01*
X166041901Y-93139832D01*
X166122431Y-93333888D01*
X166189845Y-93540500D01*
X166239923Y-93697480D01*
X166285960Y-93829411D01*
X166318356Y-93908850D01*
X166319427Y-93910917D01*
X166374237Y-93974575D01*
X166422434Y-93974957D01*
X166440333Y-93920293D01*
X166465028Y-93823875D01*
X166536054Y-93668063D01*
X166648820Y-93461104D01*
X166798736Y-93211246D01*
X166981212Y-92926738D01*
X167054517Y-92816638D01*
X167285142Y-92448079D01*
X167448747Y-92127931D01*
X167546226Y-91854045D01*
X167578473Y-91624274D01*
X167575716Y-91565226D01*
X167567158Y-91501835D01*
X167552307Y-91482828D01*
X167523594Y-91516532D01*
X167473448Y-91611277D01*
X167404899Y-91753189D01*
X167311730Y-91926308D01*
X167183690Y-92135012D01*
X167039705Y-92349508D01*
X166934339Y-92494022D01*
X166799074Y-92673871D01*
X166670837Y-92848241D01*
X166565227Y-92995703D01*
X166503898Y-93085417D01*
X166411349Y-93211984D01*
X166349493Y-93259999D01*
X166317928Y-93229659D01*
X166313333Y-93178980D01*
X166279887Y-93025851D01*
X166177304Y-92855955D01*
X166002219Y-92664913D01*
X165752580Y-92449392D01*
X165576515Y-92303105D01*
X165406901Y-92151590D01*
X165265900Y-92015199D01*
X165191500Y-91934164D01*
X165086986Y-91809362D01*
X164992845Y-91698053D01*
X164943767Y-91640863D01*
X164872290Y-91552807D01*
X164780213Y-91431913D01*
X164735507Y-91370917D01*
X164651861Y-91268883D01*
X164579197Y-91203683D01*
X164549323Y-91191000D01*
X164498396Y-91208776D01*
X159965430Y-91208776D01*
X160034483Y-91132233D01*
X160122123Y-91014253D01*
X160177186Y-90903463D01*
X160214768Y-90775046D01*
X160219046Y-90756258D01*
X160260221Y-90605538D01*
X160311306Y-90510137D01*
X160389442Y-90441017D01*
X160414754Y-90424722D01*
X160523163Y-90344522D01*
X160553796Y-90283664D01*
X160520738Y-90242870D01*
X160450704Y-90246147D01*
X160350091Y-90310886D01*
X160230978Y-90425414D01*
X160105447Y-90578060D01*
X159985577Y-90757152D01*
X159981642Y-90763740D01*
X159854410Y-90963169D01*
X159700754Y-91183244D01*
X159550586Y-91381406D01*
X159527397Y-91410046D01*
X159350068Y-91638843D01*
X159227528Y-91832559D01*
X159150971Y-92012006D01*
X159111592Y-92197993D01*
X159100582Y-92411334D01*
X156871940Y-92411334D01*
X156830922Y-92032225D01*
X156836263Y-91481580D01*
X156911185Y-90979012D01*
X157055219Y-90525135D01*
X157267894Y-90120562D01*
X157548739Y-89765906D01*
X157897283Y-89461782D01*
X158313056Y-89208804D01*
X158795587Y-89007584D01*
X159344405Y-88858737D01*
X159852635Y-88775076D01*
X160028959Y-88760162D01*
X160256234Y-88750670D01*
X160514954Y-88746382D01*
X160785615Y-88747084D01*
X161048714Y-88752557D01*
X161284746Y-88762585D01*
X161474207Y-88776953D01*
X161593167Y-88794395D01*
X161692492Y-88812464D01*
X161735604Y-88817094D01*
X161734644Y-88846526D01*
X161684018Y-88922755D01*
X161593453Y-89032237D01*
X161534390Y-89097188D01*
X161343420Y-89307684D01*
X161215040Y-89461989D01*
X161147528Y-89558976D01*
X161139162Y-89597519D01*
X161188218Y-89576492D01*
X161292974Y-89494769D01*
X161451708Y-89351223D01*
X161640795Y-89166742D01*
X161908597Y-88910792D01*
X162151171Y-88712056D01*
X162385023Y-88564426D01*
X162626657Y-88461791D01*
X162892578Y-88398042D01*
X163199292Y-88367071D01*
X163563305Y-88362768D01*
X163794500Y-88369578D01*
G36*
X165011272Y-101579258D02*
X165029602Y-101638593D01*
X165020162Y-101765755D01*
X165016944Y-101793492D01*
X164989815Y-102024317D01*
X165209518Y-102013156D01*
X165336947Y-102012055D01*
X165424845Y-102021353D01*
X165447478Y-102031534D01*
X165439777Y-102082217D01*
X165361680Y-102125689D01*
X165227454Y-102155641D01*
X165149737Y-102163209D01*
X164940790Y-102176500D01*
X164845872Y-102642167D01*
X164794992Y-102900881D01*
X164763687Y-103088167D01*
X164751696Y-103214907D01*
X164758762Y-103291981D01*
X164784626Y-103330274D01*
X164829027Y-103340666D01*
X164829247Y-103340667D01*
X164917475Y-103319780D01*
X165033319Y-103267978D01*
X165062080Y-103251818D01*
X165157721Y-103199956D01*
X165201784Y-103193148D01*
X165212661Y-103228778D01*
X165212667Y-103230386D01*
X165180583Y-103292348D01*
X165098676Y-103376061D01*
X165036982Y-103425068D01*
X164874176Y-103513891D01*
X164712499Y-103552571D01*
X164573496Y-103538853D01*
X164487820Y-103482591D01*
X164451603Y-103404530D01*
X164439494Y-103280132D01*
X164451974Y-103100174D01*
X164489524Y-102855429D01*
X164532026Y-102635517D01*
X164568561Y-102454665D01*
X164597683Y-102306174D01*
X164615794Y-102208639D01*
X164620000Y-102180433D01*
X164582653Y-102164062D01*
X164490443Y-102155637D01*
X164466650Y-102155333D01*
X164369750Y-102150563D01*
X164342875Y-102130198D01*
X164366000Y-102091833D01*
X164448335Y-102040919D01*
X164517861Y-102028333D01*
X164619632Y-101990524D01*
X164685335Y-101887552D01*
X164704667Y-101760091D01*
X164728003Y-101674840D01*
X164811535Y-101619043D01*
X164837984Y-101609141D01*
X164951843Y-101574018D01*
X165011272Y-101579258D01*
X165011272Y-101579258D01*
G37*
X165011272Y-101579258D02*
X165029602Y-101638593D01*
X165020162Y-101765755D01*
X165016944Y-101793492D01*
X164989815Y-102024317D01*
X165209518Y-102013156D01*
X165336947Y-102012055D01*
X165424845Y-102021353D01*
X165447478Y-102031534D01*
X165439777Y-102082217D01*
X165361680Y-102125689D01*
X165227454Y-102155641D01*
X165149737Y-102163209D01*
X164940790Y-102176500D01*
X164845872Y-102642167D01*
X164794992Y-102900881D01*
X164763687Y-103088167D01*
X164751696Y-103214907D01*
X164758762Y-103291981D01*
X164784626Y-103330274D01*
X164829027Y-103340666D01*
X164829247Y-103340667D01*
X164917475Y-103319780D01*
X165033319Y-103267978D01*
X165062080Y-103251818D01*
X165157721Y-103199956D01*
X165201784Y-103193148D01*
X165212661Y-103228778D01*
X165212667Y-103230386D01*
X165180583Y-103292348D01*
X165098676Y-103376061D01*
X165036982Y-103425068D01*
X164874176Y-103513891D01*
X164712499Y-103552571D01*
X164573496Y-103538853D01*
X164487820Y-103482591D01*
X164451603Y-103404530D01*
X164439494Y-103280132D01*
X164451974Y-103100174D01*
X164489524Y-102855429D01*
X164532026Y-102635517D01*
X164568561Y-102454665D01*
X164597683Y-102306174D01*
X164615794Y-102208639D01*
X164620000Y-102180433D01*
X164582653Y-102164062D01*
X164490443Y-102155637D01*
X164466650Y-102155333D01*
X164369750Y-102150563D01*
X164342875Y-102130198D01*
X164366000Y-102091833D01*
X164448335Y-102040919D01*
X164517861Y-102028333D01*
X164619632Y-101990524D01*
X164685335Y-101887552D01*
X164704667Y-101760091D01*
X164728003Y-101674840D01*
X164811535Y-101619043D01*
X164837984Y-101609141D01*
X164951843Y-101574018D01*
X165011272Y-101579258D01*
G36*
X161790297Y-101125419D02*
X161826000Y-101160802D01*
X161788460Y-101253460D01*
X161687280Y-101312683D01*
X161539621Y-101330334D01*
X161479584Y-101325108D01*
X161297086Y-101321184D01*
X161163883Y-101375008D01*
X161061349Y-101497242D01*
X161013816Y-101591721D01*
X160978107Y-101690879D01*
X160935568Y-101836083D01*
X160890840Y-102007451D01*
X160848562Y-102185100D01*
X160813377Y-102349149D01*
X160789923Y-102479715D01*
X160782842Y-102556915D01*
X160785809Y-102568587D01*
X160813548Y-102543804D01*
X160871124Y-102467503D01*
X160910454Y-102409868D01*
X161045368Y-102244344D01*
X161200668Y-102113988D01*
X161361129Y-102025729D01*
X161511527Y-101986499D01*
X161636638Y-102003228D01*
X161699843Y-102050516D01*
X161729247Y-102140506D01*
X161733153Y-102303257D01*
X161712100Y-102530967D01*
X161666629Y-102815833D01*
X161636158Y-102971203D01*
X161599085Y-103180843D01*
X161592764Y-103314501D01*
X161620231Y-103376193D01*
X161684523Y-103369940D01*
X161788677Y-103299759D01*
X161847115Y-103250366D01*
X161940027Y-103177669D01*
X162006476Y-103141911D01*
X162023151Y-103142707D01*
X162032611Y-103206249D01*
X161969473Y-103297925D01*
X161838410Y-103411266D01*
X161818883Y-103425622D01*
X161683529Y-103509793D01*
X161565968Y-103543484D01*
X161470470Y-103543739D01*
X161356202Y-103525797D01*
X161297909Y-103482762D01*
X161272764Y-103419243D01*
X161261696Y-103367569D01*
X161258328Y-103310197D01*
X161264692Y-103232648D01*
X161282822Y-103120447D01*
X161314753Y-102959117D01*
X161362517Y-102734181D01*
X161381067Y-102648300D01*
X161416727Y-102462314D01*
X161427306Y-102343565D01*
X161413676Y-102278700D01*
X161405851Y-102268584D01*
X161335249Y-102250563D01*
X161238670Y-102297567D01*
X161125405Y-102397652D01*
X161004747Y-102538872D01*
X160885987Y-102709281D01*
X160778418Y-102896935D01*
X160691332Y-103089888D01*
X160639091Y-103254284D01*
X160601481Y-103401308D01*
X160568664Y-103485186D01*
X160525840Y-103525138D01*
X160458206Y-103540384D01*
X160415749Y-103544305D01*
X160314895Y-103549664D01*
X160262074Y-103546359D01*
X160259795Y-103544305D01*
X160268043Y-103491141D01*
X160290166Y-103372551D01*
X160322655Y-103205974D01*
X160362005Y-103008849D01*
X160404707Y-102798614D01*
X160447256Y-102592706D01*
X160486144Y-102408565D01*
X160512831Y-102286085D01*
X160616683Y-101915579D01*
X160747855Y-101621039D01*
X160909924Y-101397166D01*
X161106466Y-101238658D01*
X161270923Y-101162173D01*
X161411705Y-101125649D01*
X161560382Y-101107311D01*
X161694173Y-101107216D01*
X161790297Y-101125419D01*
X161790297Y-101125419D01*
G37*
X161790297Y-101125419D02*
X161826000Y-101160802D01*
X161788460Y-101253460D01*
X161687280Y-101312683D01*
X161539621Y-101330334D01*
X161479584Y-101325108D01*
X161297086Y-101321184D01*
X161163883Y-101375008D01*
X161061349Y-101497242D01*
X161013816Y-101591721D01*
X160978107Y-101690879D01*
X160935568Y-101836083D01*
X160890840Y-102007451D01*
X160848562Y-102185100D01*
X160813377Y-102349149D01*
X160789923Y-102479715D01*
X160782842Y-102556915D01*
X160785809Y-102568587D01*
X160813548Y-102543804D01*
X160871124Y-102467503D01*
X160910454Y-102409868D01*
X161045368Y-102244344D01*
X161200668Y-102113988D01*
X161361129Y-102025729D01*
X161511527Y-101986499D01*
X161636638Y-102003228D01*
X161699843Y-102050516D01*
X161729247Y-102140506D01*
X161733153Y-102303257D01*
X161712100Y-102530967D01*
X161666629Y-102815833D01*
X161636158Y-102971203D01*
X161599085Y-103180843D01*
X161592764Y-103314501D01*
X161620231Y-103376193D01*
X161684523Y-103369940D01*
X161788677Y-103299759D01*
X161847115Y-103250366D01*
X161940027Y-103177669D01*
X162006476Y-103141911D01*
X162023151Y-103142707D01*
X162032611Y-103206249D01*
X161969473Y-103297925D01*
X161838410Y-103411266D01*
X161818883Y-103425622D01*
X161683529Y-103509793D01*
X161565968Y-103543484D01*
X161470470Y-103543739D01*
X161356202Y-103525797D01*
X161297909Y-103482762D01*
X161272764Y-103419243D01*
X161261696Y-103367569D01*
X161258328Y-103310197D01*
X161264692Y-103232648D01*
X161282822Y-103120447D01*
X161314753Y-102959117D01*
X161362517Y-102734181D01*
X161381067Y-102648300D01*
X161416727Y-102462314D01*
X161427306Y-102343565D01*
X161413676Y-102278700D01*
X161405851Y-102268584D01*
X161335249Y-102250563D01*
X161238670Y-102297567D01*
X161125405Y-102397652D01*
X161004747Y-102538872D01*
X160885987Y-102709281D01*
X160778418Y-102896935D01*
X160691332Y-103089888D01*
X160639091Y-103254284D01*
X160601481Y-103401308D01*
X160568664Y-103485186D01*
X160525840Y-103525138D01*
X160458206Y-103540384D01*
X160415749Y-103544305D01*
X160314895Y-103549664D01*
X160262074Y-103546359D01*
X160259795Y-103544305D01*
X160268043Y-103491141D01*
X160290166Y-103372551D01*
X160322655Y-103205974D01*
X160362005Y-103008849D01*
X160404707Y-102798614D01*
X160447256Y-102592706D01*
X160486144Y-102408565D01*
X160512831Y-102286085D01*
X160616683Y-101915579D01*
X160747855Y-101621039D01*
X160909924Y-101397166D01*
X161106466Y-101238658D01*
X161270923Y-101162173D01*
X161411705Y-101125649D01*
X161560382Y-101107311D01*
X161694173Y-101107216D01*
X161790297Y-101125419D01*
G36*
X158707133Y-102017847D02*
X158807618Y-102103308D01*
X158855297Y-102228800D01*
X158848265Y-102379814D01*
X158784612Y-102541838D01*
X158662432Y-102700362D01*
X158651000Y-102711567D01*
X158552232Y-102781367D01*
X158409444Y-102854782D01*
X158255777Y-102917412D01*
X158124371Y-102954860D01*
X158079961Y-102959667D01*
X158002236Y-102974527D01*
X157975336Y-103036223D01*
X157973667Y-103078575D01*
X158004723Y-103227345D01*
X158093415Y-103319546D01*
X158233029Y-103353630D01*
X158416849Y-103328053D01*
X158638162Y-103241267D01*
X158651315Y-103234674D01*
X158773724Y-103175756D01*
X158837547Y-103155919D01*
X158857761Y-103172326D01*
X158855675Y-103195984D01*
X158812912Y-103251750D01*
X158715304Y-103326186D01*
X158596560Y-103396244D01*
X158377104Y-103488837D01*
X158165867Y-103537735D01*
X157981474Y-103540931D01*
X157842552Y-103496417D01*
X157819871Y-103479963D01*
X157706837Y-103351143D01*
X157648910Y-103190115D01*
X157635930Y-103015366D01*
X157669461Y-102791150D01*
X157975799Y-102791150D01*
X157997258Y-102821948D01*
X158071886Y-102810782D01*
X158084342Y-102807806D01*
X158218012Y-102765285D01*
X158315416Y-102723683D01*
X158452887Y-102628377D01*
X158528154Y-102499541D01*
X158551355Y-102400563D01*
X158549700Y-102265881D01*
X158500142Y-102189754D01*
X158415660Y-102171900D01*
X158309232Y-102212038D01*
X158193838Y-102309885D01*
X158116353Y-102410021D01*
X158044537Y-102542726D01*
X157994781Y-102677447D01*
X157990012Y-102698023D01*
X157975799Y-102791150D01*
X157669461Y-102791150D01*
X157672747Y-102769180D01*
X157772265Y-102533516D01*
X157921457Y-102322938D01*
X158107298Y-102152011D01*
X158316761Y-102035299D01*
X158536820Y-101987367D01*
X158555750Y-101986930D01*
X158707133Y-102017847D01*
X158707133Y-102017847D01*
G37*
X158707133Y-102017847D02*
X158807618Y-102103308D01*
X158855297Y-102228800D01*
X158848265Y-102379814D01*
X158784612Y-102541838D01*
X158662432Y-102700362D01*
X158651000Y-102711567D01*
X158552232Y-102781367D01*
X158409444Y-102854782D01*
X158255777Y-102917412D01*
X158124371Y-102954860D01*
X158079961Y-102959667D01*
X158002236Y-102974527D01*
X157975336Y-103036223D01*
X157973667Y-103078575D01*
X158004723Y-103227345D01*
X158093415Y-103319546D01*
X158233029Y-103353630D01*
X158416849Y-103328053D01*
X158638162Y-103241267D01*
X158651315Y-103234674D01*
X158773724Y-103175756D01*
X158837547Y-103155919D01*
X158857761Y-103172326D01*
X158855675Y-103195984D01*
X158812912Y-103251750D01*
X158715304Y-103326186D01*
X158596560Y-103396244D01*
X158377104Y-103488837D01*
X158165867Y-103537735D01*
X157981474Y-103540931D01*
X157842552Y-103496417D01*
X157819871Y-103479963D01*
X157706837Y-103351143D01*
X157648910Y-103190115D01*
X157635930Y-103015366D01*
X157669461Y-102791150D01*
X157975799Y-102791150D01*
X157997258Y-102821948D01*
X158071886Y-102810782D01*
X158084342Y-102807806D01*
X158218012Y-102765285D01*
X158315416Y-102723683D01*
X158452887Y-102628377D01*
X158528154Y-102499541D01*
X158551355Y-102400563D01*
X158549700Y-102265881D01*
X158500142Y-102189754D01*
X158415660Y-102171900D01*
X158309232Y-102212038D01*
X158193838Y-102309885D01*
X158116353Y-102410021D01*
X158044537Y-102542726D01*
X157994781Y-102677447D01*
X157990012Y-102698023D01*
X157975799Y-102791150D01*
X157669461Y-102791150D01*
X157672747Y-102769180D01*
X157772265Y-102533516D01*
X157921457Y-102322938D01*
X158107298Y-102152011D01*
X158316761Y-102035299D01*
X158536820Y-101987367D01*
X158555750Y-101986930D01*
X158707133Y-102017847D01*
G36*
X156985736Y-101576624D02*
X156990932Y-101627685D01*
X156978530Y-101731536D01*
X156966864Y-101792510D01*
X156945668Y-101901753D01*
X156951025Y-101963657D01*
X156998672Y-101990595D01*
X157104348Y-101994936D01*
X157219641Y-101991213D01*
X157350873Y-101999302D01*
X157410191Y-102029021D01*
X157404238Y-102070414D01*
X157339655Y-102113526D01*
X157223083Y-102148403D01*
X157104890Y-102163209D01*
X156894430Y-102176500D01*
X156845745Y-102430500D01*
X156809101Y-102618810D01*
X156769594Y-102817607D01*
X156750363Y-102912528D01*
X156714517Y-103125358D01*
X156712751Y-103264200D01*
X156749177Y-103334254D01*
X156827906Y-103340717D01*
X156953052Y-103288789D01*
X157018747Y-103251818D01*
X157116479Y-103200618D01*
X157161381Y-103197477D01*
X157169333Y-103223272D01*
X157134182Y-103298780D01*
X157041341Y-103392013D01*
X156909732Y-103484650D01*
X156884158Y-103499417D01*
X156768460Y-103537596D01*
X156628212Y-103550722D01*
X156505070Y-103536802D01*
X156463606Y-103519511D01*
X156414083Y-103461833D01*
X156390273Y-103361651D01*
X156392234Y-103209239D01*
X156420022Y-102994869D01*
X156468194Y-102735813D01*
X156508843Y-102533415D01*
X156542552Y-102362449D01*
X156566149Y-102239237D01*
X156576461Y-102180102D01*
X156576667Y-102177709D01*
X156539252Y-102163261D01*
X156446599Y-102155670D01*
X156419428Y-102155333D01*
X156320463Y-102152020D01*
X156292841Y-102135144D01*
X156323298Y-102094304D01*
X156331304Y-102086219D01*
X156429593Y-102027691D01*
X156499126Y-102012136D01*
X156566882Y-101992618D01*
X156609778Y-101928122D01*
X156637579Y-101827894D01*
X156674643Y-101707117D01*
X156732292Y-101640243D01*
X156820332Y-101601425D01*
X156920744Y-101575810D01*
X156981745Y-101574166D01*
X156985736Y-101576624D01*
X156985736Y-101576624D01*
G37*
X156985736Y-101576624D02*
X156990932Y-101627685D01*
X156978530Y-101731536D01*
X156966864Y-101792510D01*
X156945668Y-101901753D01*
X156951025Y-101963657D01*
X156998672Y-101990595D01*
X157104348Y-101994936D01*
X157219641Y-101991213D01*
X157350873Y-101999302D01*
X157410191Y-102029021D01*
X157404238Y-102070414D01*
X157339655Y-102113526D01*
X157223083Y-102148403D01*
X157104890Y-102163209D01*
X156894430Y-102176500D01*
X156845745Y-102430500D01*
X156809101Y-102618810D01*
X156769594Y-102817607D01*
X156750363Y-102912528D01*
X156714517Y-103125358D01*
X156712751Y-103264200D01*
X156749177Y-103334254D01*
X156827906Y-103340717D01*
X156953052Y-103288789D01*
X157018747Y-103251818D01*
X157116479Y-103200618D01*
X157161381Y-103197477D01*
X157169333Y-103223272D01*
X157134182Y-103298780D01*
X157041341Y-103392013D01*
X156909732Y-103484650D01*
X156884158Y-103499417D01*
X156768460Y-103537596D01*
X156628212Y-103550722D01*
X156505070Y-103536802D01*
X156463606Y-103519511D01*
X156414083Y-103461833D01*
X156390273Y-103361651D01*
X156392234Y-103209239D01*
X156420022Y-102994869D01*
X156468194Y-102735813D01*
X156508843Y-102533415D01*
X156542552Y-102362449D01*
X156566149Y-102239237D01*
X156576461Y-102180102D01*
X156576667Y-102177709D01*
X156539252Y-102163261D01*
X156446599Y-102155670D01*
X156419428Y-102155333D01*
X156320463Y-102152020D01*
X156292841Y-102135144D01*
X156323298Y-102094304D01*
X156331304Y-102086219D01*
X156429593Y-102027691D01*
X156499126Y-102012136D01*
X156566882Y-101992618D01*
X156609778Y-101928122D01*
X156637579Y-101827894D01*
X156674643Y-101707117D01*
X156732292Y-101640243D01*
X156820332Y-101601425D01*
X156920744Y-101575810D01*
X156981745Y-101574166D01*
X156985736Y-101576624D01*
G36*
X155808747Y-102008303D02*
X155808098Y-102054315D01*
X155792132Y-102162775D01*
X155764009Y-102313501D01*
X155751186Y-102375800D01*
X155681908Y-102706940D01*
X155631138Y-102962582D01*
X155599566Y-103149998D01*
X155587880Y-103276462D01*
X155596769Y-103349245D01*
X155626923Y-103375620D01*
X155679031Y-103362860D01*
X155753781Y-103318236D01*
X155835082Y-103261085D01*
X155955601Y-103188187D01*
X156019912Y-103175494D01*
X156022091Y-103216068D01*
X155956215Y-103302968D01*
X155909917Y-103348740D01*
X155749281Y-103475155D01*
X155596143Y-103538394D01*
X155458423Y-103552333D01*
X155352776Y-103541996D01*
X155300495Y-103498351D01*
X155280079Y-103439974D01*
X155274874Y-103349982D01*
X155284332Y-103201922D01*
X155306423Y-103020728D01*
X155322282Y-102921390D01*
X155353007Y-102731892D01*
X155376781Y-102561977D01*
X155390222Y-102436988D01*
X155392009Y-102398589D01*
X155380903Y-102316759D01*
X155331102Y-102290654D01*
X155266605Y-102292755D01*
X155171708Y-102284325D01*
X155134952Y-102248532D01*
X155168104Y-102200643D01*
X155186981Y-102189457D01*
X155264391Y-102157659D01*
X155384718Y-102117013D01*
X155523610Y-102074614D01*
X155656712Y-102037558D01*
X155759670Y-102012941D01*
X155808131Y-102007859D01*
X155808747Y-102008303D01*
X155808747Y-102008303D01*
G37*
X155808747Y-102008303D02*
X155808098Y-102054315D01*
X155792132Y-102162775D01*
X155764009Y-102313501D01*
X155751186Y-102375800D01*
X155681908Y-102706940D01*
X155631138Y-102962582D01*
X155599566Y-103149998D01*
X155587880Y-103276462D01*
X155596769Y-103349245D01*
X155626923Y-103375620D01*
X155679031Y-103362860D01*
X155753781Y-103318236D01*
X155835082Y-103261085D01*
X155955601Y-103188187D01*
X156019912Y-103175494D01*
X156022091Y-103216068D01*
X155956215Y-103302968D01*
X155909917Y-103348740D01*
X155749281Y-103475155D01*
X155596143Y-103538394D01*
X155458423Y-103552333D01*
X155352776Y-103541996D01*
X155300495Y-103498351D01*
X155280079Y-103439974D01*
X155274874Y-103349982D01*
X155284332Y-103201922D01*
X155306423Y-103020728D01*
X155322282Y-102921390D01*
X155353007Y-102731892D01*
X155376781Y-102561977D01*
X155390222Y-102436988D01*
X155392009Y-102398589D01*
X155380903Y-102316759D01*
X155331102Y-102290654D01*
X155266605Y-102292755D01*
X155171708Y-102284325D01*
X155134952Y-102248532D01*
X155168104Y-102200643D01*
X155186981Y-102189457D01*
X155264391Y-102157659D01*
X155384718Y-102117013D01*
X155523610Y-102074614D01*
X155656712Y-102037558D01*
X155759670Y-102012941D01*
X155808131Y-102007859D01*
X155808747Y-102008303D01*
G36*
X154530822Y-101127737D02*
X154595436Y-101143221D01*
X154604839Y-101172687D01*
X154573529Y-101227531D01*
X154562063Y-101244979D01*
X154514638Y-101305375D01*
X154457994Y-101332646D01*
X154364542Y-101334056D01*
X154263287Y-101323644D01*
X154122574Y-101312167D01*
X154032861Y-101323895D01*
X153962070Y-101365695D01*
X153928804Y-101395240D01*
X153855899Y-101496233D01*
X153783711Y-101650928D01*
X153742537Y-101771657D01*
X153695356Y-101946186D01*
X153652012Y-102129982D01*
X153616320Y-102303482D01*
X153592096Y-102447118D01*
X153583155Y-102541327D01*
X153587450Y-102566894D01*
X153617160Y-102545109D01*
X153672152Y-102471044D01*
X153694794Y-102435687D01*
X153825758Y-102262682D01*
X153974541Y-102127818D01*
X154128315Y-102035611D01*
X154274250Y-101990578D01*
X154399518Y-101997235D01*
X154491290Y-102060098D01*
X154529228Y-102141917D01*
X154532866Y-102225863D01*
X154522165Y-102372548D01*
X154499183Y-102561650D01*
X154465983Y-102772845D01*
X154464266Y-102782632D01*
X154423205Y-103031433D01*
X154403139Y-103205496D01*
X154406041Y-103312586D01*
X154433883Y-103360468D01*
X154488639Y-103356906D01*
X154572281Y-103309664D01*
X154594322Y-103294484D01*
X154686645Y-103224331D01*
X154743294Y-103171323D01*
X154749278Y-103162279D01*
X154791766Y-103128929D01*
X154833491Y-103156720D01*
X154841000Y-103190561D01*
X154809485Y-103247953D01*
X154727996Y-103332529D01*
X154644412Y-103402227D01*
X154491502Y-103502345D01*
X154358695Y-103546917D01*
X154286068Y-103552333D01*
X154170842Y-103538586D01*
X154094780Y-103491279D01*
X154056215Y-103401311D01*
X154053484Y-103259584D01*
X154084921Y-103056999D01*
X154146922Y-102792022D01*
X154197985Y-102545586D01*
X154208615Y-102371838D01*
X154181796Y-102270778D01*
X154120514Y-102242409D01*
X154027756Y-102286733D01*
X153906506Y-102403750D01*
X153759749Y-102593462D01*
X153629589Y-102791749D01*
X153512229Y-103016363D01*
X153435171Y-103237022D01*
X153422833Y-103294153D01*
X153396428Y-103428250D01*
X153367173Y-103500277D01*
X153317711Y-103531581D01*
X153230689Y-103543507D01*
X153219325Y-103544450D01*
X153058150Y-103557733D01*
X153086571Y-103396283D01*
X153107693Y-103282446D01*
X153140170Y-103114409D01*
X153178414Y-102920922D01*
X153196126Y-102832667D01*
X153237687Y-102625705D01*
X153278645Y-102420142D01*
X153312186Y-102250235D01*
X153321600Y-102201988D01*
X153407608Y-101896576D01*
X153536438Y-101621839D01*
X153696166Y-101402707D01*
X153711445Y-101386773D01*
X153881666Y-101256964D01*
X154088854Y-101162004D01*
X154298781Y-101115481D01*
X154396500Y-101114838D01*
X154530822Y-101127737D01*
X154530822Y-101127737D01*
G37*
X154530822Y-101127737D02*
X154595436Y-101143221D01*
X154604839Y-101172687D01*
X154573529Y-101227531D01*
X154562063Y-101244979D01*
X154514638Y-101305375D01*
X154457994Y-101332646D01*
X154364542Y-101334056D01*
X154263287Y-101323644D01*
X154122574Y-101312167D01*
X154032861Y-101323895D01*
X153962070Y-101365695D01*
X153928804Y-101395240D01*
X153855899Y-101496233D01*
X153783711Y-101650928D01*
X153742537Y-101771657D01*
X153695356Y-101946186D01*
X153652012Y-102129982D01*
X153616320Y-102303482D01*
X153592096Y-102447118D01*
X153583155Y-102541327D01*
X153587450Y-102566894D01*
X153617160Y-102545109D01*
X153672152Y-102471044D01*
X153694794Y-102435687D01*
X153825758Y-102262682D01*
X153974541Y-102127818D01*
X154128315Y-102035611D01*
X154274250Y-101990578D01*
X154399518Y-101997235D01*
X154491290Y-102060098D01*
X154529228Y-102141917D01*
X154532866Y-102225863D01*
X154522165Y-102372548D01*
X154499183Y-102561650D01*
X154465983Y-102772845D01*
X154464266Y-102782632D01*
X154423205Y-103031433D01*
X154403139Y-103205496D01*
X154406041Y-103312586D01*
X154433883Y-103360468D01*
X154488639Y-103356906D01*
X154572281Y-103309664D01*
X154594322Y-103294484D01*
X154686645Y-103224331D01*
X154743294Y-103171323D01*
X154749278Y-103162279D01*
X154791766Y-103128929D01*
X154833491Y-103156720D01*
X154841000Y-103190561D01*
X154809485Y-103247953D01*
X154727996Y-103332529D01*
X154644412Y-103402227D01*
X154491502Y-103502345D01*
X154358695Y-103546917D01*
X154286068Y-103552333D01*
X154170842Y-103538586D01*
X154094780Y-103491279D01*
X154056215Y-103401311D01*
X154053484Y-103259584D01*
X154084921Y-103056999D01*
X154146922Y-102792022D01*
X154197985Y-102545586D01*
X154208615Y-102371838D01*
X154181796Y-102270778D01*
X154120514Y-102242409D01*
X154027756Y-102286733D01*
X153906506Y-102403750D01*
X153759749Y-102593462D01*
X153629589Y-102791749D01*
X153512229Y-103016363D01*
X153435171Y-103237022D01*
X153422833Y-103294153D01*
X153396428Y-103428250D01*
X153367173Y-103500277D01*
X153317711Y-103531581D01*
X153230689Y-103543507D01*
X153219325Y-103544450D01*
X153058150Y-103557733D01*
X153086571Y-103396283D01*
X153107693Y-103282446D01*
X153140170Y-103114409D01*
X153178414Y-102920922D01*
X153196126Y-102832667D01*
X153237687Y-102625705D01*
X153278645Y-102420142D01*
X153312186Y-102250235D01*
X153321600Y-102201988D01*
X153407608Y-101896576D01*
X153536438Y-101621839D01*
X153696166Y-101402707D01*
X153711445Y-101386773D01*
X153881666Y-101256964D01*
X154088854Y-101162004D01*
X154298781Y-101115481D01*
X154396500Y-101114838D01*
X154530822Y-101127737D01*
G36*
X152540840Y-101993426D02*
X152635472Y-102026808D01*
X152677190Y-102101440D01*
X152664768Y-102220514D01*
X152596984Y-102387219D01*
X152472615Y-102604744D01*
X152290435Y-102876281D01*
X152103939Y-103132277D01*
X151939741Y-103342542D01*
X151815879Y-103480024D01*
X151731321Y-103545814D01*
X151706754Y-103552333D01*
X151670290Y-103546602D01*
X151646385Y-103519642D01*
X151632411Y-103456804D01*
X151625741Y-103343441D01*
X151623747Y-103164903D01*
X151623667Y-103089165D01*
X151620530Y-102899719D01*
X151612032Y-102743389D01*
X151599544Y-102638433D01*
X151587242Y-102603485D01*
X151550467Y-102624646D01*
X151498380Y-102703883D01*
X151471002Y-102759737D01*
X151408881Y-102880867D01*
X151316095Y-103040970D01*
X151210454Y-103209605D01*
X151186864Y-103245417D01*
X151070569Y-103409600D01*
X150982428Y-103507559D01*
X150913079Y-103548970D01*
X150890354Y-103551898D01*
X150851042Y-103547664D01*
X150824404Y-103525908D01*
X150807484Y-103472383D01*
X150797326Y-103372845D01*
X150790974Y-103213050D01*
X150787137Y-103054481D01*
X150773095Y-102741045D01*
X150745077Y-102506606D01*
X150700640Y-102346285D01*
X150637341Y-102255204D01*
X150552736Y-102228481D01*
X150444382Y-102261237D01*
X150401838Y-102284971D01*
X150305697Y-102355718D01*
X150245972Y-102422201D01*
X150241882Y-102430742D01*
X150197495Y-102488233D01*
X150154934Y-102477120D01*
X150142000Y-102424930D01*
X150170346Y-102360195D01*
X150244039Y-102261477D01*
X150329655Y-102168205D01*
X150441983Y-102062882D01*
X150526265Y-102008469D01*
X150609338Y-101991404D01*
X150674699Y-101993858D01*
X150825470Y-102036114D01*
X150911787Y-102114400D01*
X150990108Y-102263432D01*
X151054843Y-102469189D01*
X151099129Y-102703997D01*
X151116098Y-102938500D01*
X151117534Y-103192500D01*
X151244775Y-102974268D01*
X151317261Y-102834519D01*
X151394866Y-102660437D01*
X151468794Y-102475070D01*
X151530245Y-102301467D01*
X151570421Y-102162675D01*
X151581333Y-102092628D01*
X151617676Y-102040473D01*
X151679896Y-102028333D01*
X151740807Y-102040314D01*
X151781946Y-102089476D01*
X151816703Y-102195645D01*
X151829987Y-102250583D01*
X151859606Y-102408537D01*
X151887399Y-102607514D01*
X151907032Y-102800917D01*
X151922356Y-102955356D01*
X151940112Y-103070707D01*
X151956991Y-103126664D01*
X151960506Y-103129000D01*
X151998037Y-103093068D01*
X152057297Y-102998534D01*
X152128280Y-102865286D01*
X152200976Y-102713215D01*
X152265377Y-102562211D01*
X152311477Y-102432164D01*
X152311970Y-102430500D01*
X152348744Y-102251104D01*
X152339599Y-102124964D01*
X152338521Y-102121961D01*
X152329635Y-102036969D01*
X152386282Y-101994336D01*
X152513815Y-101990662D01*
X152540840Y-101993426D01*
X152540840Y-101993426D01*
G37*
X152540840Y-101993426D02*
X152635472Y-102026808D01*
X152677190Y-102101440D01*
X152664768Y-102220514D01*
X152596984Y-102387219D01*
X152472615Y-102604744D01*
X152290435Y-102876281D01*
X152103939Y-103132277D01*
X151939741Y-103342542D01*
X151815879Y-103480024D01*
X151731321Y-103545814D01*
X151706754Y-103552333D01*
X151670290Y-103546602D01*
X151646385Y-103519642D01*
X151632411Y-103456804D01*
X151625741Y-103343441D01*
X151623747Y-103164903D01*
X151623667Y-103089165D01*
X151620530Y-102899719D01*
X151612032Y-102743389D01*
X151599544Y-102638433D01*
X151587242Y-102603485D01*
X151550467Y-102624646D01*
X151498380Y-102703883D01*
X151471002Y-102759737D01*
X151408881Y-102880867D01*
X151316095Y-103040970D01*
X151210454Y-103209605D01*
X151186864Y-103245417D01*
X151070569Y-103409600D01*
X150982428Y-103507559D01*
X150913079Y-103548970D01*
X150890354Y-103551898D01*
X150851042Y-103547664D01*
X150824404Y-103525908D01*
X150807484Y-103472383D01*
X150797326Y-103372845D01*
X150790974Y-103213050D01*
X150787137Y-103054481D01*
X150773095Y-102741045D01*
X150745077Y-102506606D01*
X150700640Y-102346285D01*
X150637341Y-102255204D01*
X150552736Y-102228481D01*
X150444382Y-102261237D01*
X150401838Y-102284971D01*
X150305697Y-102355718D01*
X150245972Y-102422201D01*
X150241882Y-102430742D01*
X150197495Y-102488233D01*
X150154934Y-102477120D01*
X150142000Y-102424930D01*
X150170346Y-102360195D01*
X150244039Y-102261477D01*
X150329655Y-102168205D01*
X150441983Y-102062882D01*
X150526265Y-102008469D01*
X150609338Y-101991404D01*
X150674699Y-101993858D01*
X150825470Y-102036114D01*
X150911787Y-102114400D01*
X150990108Y-102263432D01*
X151054843Y-102469189D01*
X151099129Y-102703997D01*
X151116098Y-102938500D01*
X151117534Y-103192500D01*
X151244775Y-102974268D01*
X151317261Y-102834519D01*
X151394866Y-102660437D01*
X151468794Y-102475070D01*
X151530245Y-102301467D01*
X151570421Y-102162675D01*
X151581333Y-102092628D01*
X151617676Y-102040473D01*
X151679896Y-102028333D01*
X151740807Y-102040314D01*
X151781946Y-102089476D01*
X151816703Y-102195645D01*
X151829987Y-102250583D01*
X151859606Y-102408537D01*
X151887399Y-102607514D01*
X151907032Y-102800917D01*
X151922356Y-102955356D01*
X151940112Y-103070707D01*
X151956991Y-103126664D01*
X151960506Y-103129000D01*
X151998037Y-103093068D01*
X152057297Y-102998534D01*
X152128280Y-102865286D01*
X152200976Y-102713215D01*
X152265377Y-102562211D01*
X152311477Y-102432164D01*
X152311970Y-102430500D01*
X152348744Y-102251104D01*
X152339599Y-102124964D01*
X152338521Y-102121961D01*
X152329635Y-102036969D01*
X152386282Y-101994336D01*
X152513815Y-101990662D01*
X152540840Y-101993426D01*
G36*
X163609558Y-102003643D02*
X163693396Y-102008957D01*
X163747529Y-102029160D01*
X163774725Y-102075780D01*
X163777751Y-102160349D01*
X163759375Y-102294395D01*
X163722362Y-102489449D01*
X163671741Y-102745438D01*
X163624165Y-103004216D01*
X163598474Y-103188502D01*
X163595545Y-103305820D01*
X163616255Y-103363698D01*
X163661482Y-103369660D01*
X163732101Y-103331233D01*
X163739409Y-103326085D01*
X163852513Y-103245110D01*
X163936783Y-103184508D01*
X164006495Y-103137929D01*
X164027571Y-103143726D01*
X164021449Y-103190225D01*
X163971141Y-103278599D01*
X163866854Y-103378460D01*
X163733587Y-103470776D01*
X163596334Y-103536514D01*
X163548118Y-103550615D01*
X163429654Y-103564392D01*
X163345671Y-103532642D01*
X163309138Y-103502284D01*
X163257091Y-103439678D01*
X163236948Y-103362219D01*
X163242444Y-103239564D01*
X163246838Y-103200406D01*
X163272883Y-102980833D01*
X163189923Y-103110425D01*
X163108745Y-103213617D01*
X162993404Y-103333522D01*
X162924528Y-103396175D01*
X162788779Y-103497288D01*
X162671475Y-103544150D01*
X162583404Y-103552333D01*
X162421927Y-103520242D01*
X162315988Y-103425737D01*
X162266951Y-103271477D01*
X162273788Y-103114912D01*
X162590659Y-103114912D01*
X162611103Y-103247915D01*
X162638800Y-103289867D01*
X162682337Y-103326722D01*
X162724243Y-103330849D01*
X162783074Y-103294209D01*
X162877391Y-103208764D01*
X162919827Y-103168139D01*
X163095866Y-102976372D01*
X163246609Y-102769242D01*
X163358717Y-102567907D01*
X163418853Y-102393522D01*
X163422605Y-102370709D01*
X163445814Y-102197667D01*
X163214786Y-102197667D01*
X163056995Y-102211105D01*
X162937179Y-102259956D01*
X162841486Y-102357024D01*
X162756060Y-102515111D01*
X162689917Y-102682739D01*
X162617152Y-102923894D01*
X162590659Y-103114912D01*
X162273788Y-103114912D01*
X162276182Y-103060115D01*
X162291027Y-102983687D01*
X162359312Y-102754725D01*
X162461380Y-102560481D01*
X162617052Y-102363492D01*
X162622145Y-102357828D01*
X162841820Y-102165733D01*
X163091357Y-102048571D01*
X163381186Y-102002078D01*
X163493250Y-102001687D01*
X163609558Y-102003643D01*
X163609558Y-102003643D01*
G37*
X163609558Y-102003643D02*
X163693396Y-102008957D01*
X163747529Y-102029160D01*
X163774725Y-102075780D01*
X163777751Y-102160349D01*
X163759375Y-102294395D01*
X163722362Y-102489449D01*
X163671741Y-102745438D01*
X163624165Y-103004216D01*
X163598474Y-103188502D01*
X163595545Y-103305820D01*
X163616255Y-103363698D01*
X163661482Y-103369660D01*
X163732101Y-103331233D01*
X163739409Y-103326085D01*
X163852513Y-103245110D01*
X163936783Y-103184508D01*
X164006495Y-103137929D01*
X164027571Y-103143726D01*
X164021449Y-103190225D01*
X163971141Y-103278599D01*
X163866854Y-103378460D01*
X163733587Y-103470776D01*
X163596334Y-103536514D01*
X163548118Y-103550615D01*
X163429654Y-103564392D01*
X163345671Y-103532642D01*
X163309138Y-103502284D01*
X163257091Y-103439678D01*
X163236948Y-103362219D01*
X163242444Y-103239564D01*
X163246838Y-103200406D01*
X163272883Y-102980833D01*
X163189923Y-103110425D01*
X163108745Y-103213617D01*
X162993404Y-103333522D01*
X162924528Y-103396175D01*
X162788779Y-103497288D01*
X162671475Y-103544150D01*
X162583404Y-103552333D01*
X162421927Y-103520242D01*
X162315988Y-103425737D01*
X162266951Y-103271477D01*
X162273788Y-103114912D01*
X162590659Y-103114912D01*
X162611103Y-103247915D01*
X162638800Y-103289867D01*
X162682337Y-103326722D01*
X162724243Y-103330849D01*
X162783074Y-103294209D01*
X162877391Y-103208764D01*
X162919827Y-103168139D01*
X163095866Y-102976372D01*
X163246609Y-102769242D01*
X163358717Y-102567907D01*
X163418853Y-102393522D01*
X163422605Y-102370709D01*
X163445814Y-102197667D01*
X163214786Y-102197667D01*
X163056995Y-102211105D01*
X162937179Y-102259956D01*
X162841486Y-102357024D01*
X162756060Y-102515111D01*
X162689917Y-102682739D01*
X162617152Y-102923894D01*
X162590659Y-103114912D01*
X162273788Y-103114912D01*
X162276182Y-103060115D01*
X162291027Y-102983687D01*
X162359312Y-102754725D01*
X162461380Y-102560481D01*
X162617052Y-102363492D01*
X162622145Y-102357828D01*
X162841820Y-102165733D01*
X163091357Y-102048571D01*
X163381186Y-102002078D01*
X163493250Y-102001687D01*
X163609558Y-102003643D01*
G04 #@! TO.C,H1*
D10*
X239258095Y-70002380D02*
X239258095Y-69002380D01*
X239258095Y-69478571D02*
X239829523Y-69478571D01*
X239829523Y-70002380D02*
X239829523Y-69002380D01*
X240829523Y-70002380D02*
X240258095Y-70002380D01*
X240543809Y-70002380D02*
X240543809Y-69002380D01*
X240448571Y-69145238D01*
X240353333Y-69240476D01*
X240258095Y-69288095D01*
G04 #@! TO.C,H2*
X143208095Y-70002380D02*
X143208095Y-69002380D01*
X143208095Y-69478571D02*
X143779523Y-69478571D01*
X143779523Y-70002380D02*
X143779523Y-69002380D01*
X144208095Y-69097619D02*
X144255714Y-69050000D01*
X144350952Y-69002380D01*
X144589047Y-69002380D01*
X144684285Y-69050000D01*
X144731904Y-69097619D01*
X144779523Y-69192857D01*
X144779523Y-69288095D01*
X144731904Y-69430952D01*
X144160476Y-70002380D01*
X144779523Y-70002380D01*
G04 #@! TD*
M02*
