G04 #@! TF.GenerationSoftware,KiCad,Pcbnew,(5.0.1-3-g963ef8bb5)*
G04 #@! TF.CreationDate,2019-03-09T14:34:52+08:00*
G04 #@! TF.ProjectId,fc660c,6663363630632E6B696361645F706362,rev?*
G04 #@! TF.SameCoordinates,Original*
G04 #@! TF.FileFunction,Soldermask,Top*
G04 #@! TF.FilePolarity,Negative*
%FSLAX46Y46*%
G04 Gerber Fmt 4.6, Leading zero omitted, Abs format (unit mm)*
G04 Created by KiCad (PCBNEW (5.0.1-3-g963ef8bb5)) date 2019 March 09, Saturday 14:34:52*
%MOMM*%
%LPD*%
G01*
G04 APERTURE LIST*
%ADD10C,0.100000*%
G04 APERTURE END LIST*
D10*
G36*
X241751000Y-103531000D02*
X237649000Y-103531000D01*
X237649000Y-100829000D01*
X241751000Y-100829000D01*
X241751000Y-103531000D01*
X241751000Y-103531000D01*
G37*
G36*
X211201000Y-103531000D02*
X207099000Y-103531000D01*
X207099000Y-100829000D01*
X211201000Y-100829000D01*
X211201000Y-103531000D01*
X211201000Y-103531000D01*
G37*
G36*
X239075305Y-97602096D02*
X239184680Y-97647400D01*
X239283118Y-97713175D01*
X239366825Y-97796882D01*
X239432600Y-97895320D01*
X239477904Y-98004695D01*
X239501000Y-98120806D01*
X239501000Y-98239194D01*
X239477904Y-98355305D01*
X239432600Y-98464680D01*
X239366825Y-98563118D01*
X239283118Y-98646825D01*
X239184680Y-98712600D01*
X239075305Y-98757904D01*
X238959194Y-98781000D01*
X238840806Y-98781000D01*
X238724695Y-98757904D01*
X238615320Y-98712600D01*
X238516882Y-98646825D01*
X238433175Y-98563118D01*
X238367400Y-98464680D01*
X238322096Y-98355305D01*
X238299000Y-98239194D01*
X238299000Y-98120806D01*
X238322096Y-98004695D01*
X238367400Y-97895320D01*
X238433175Y-97796882D01*
X238516882Y-97713175D01*
X238615320Y-97647400D01*
X238724695Y-97602096D01*
X238840806Y-97579000D01*
X238959194Y-97579000D01*
X239075305Y-97602096D01*
X239075305Y-97602096D01*
G37*
G36*
X210125305Y-97602096D02*
X210234680Y-97647400D01*
X210333118Y-97713175D01*
X210416825Y-97796882D01*
X210482600Y-97895320D01*
X210527904Y-98004695D01*
X210551000Y-98120806D01*
X210551000Y-98239194D01*
X210527904Y-98355305D01*
X210482600Y-98464680D01*
X210416825Y-98563118D01*
X210333118Y-98646825D01*
X210234680Y-98712600D01*
X210125305Y-98757904D01*
X210009194Y-98781000D01*
X209890806Y-98781000D01*
X209774695Y-98757904D01*
X209665320Y-98712600D01*
X209566882Y-98646825D01*
X209483175Y-98563118D01*
X209417400Y-98464680D01*
X209372096Y-98355305D01*
X209349000Y-98239194D01*
X209349000Y-98120806D01*
X209372096Y-98004695D01*
X209417400Y-97895320D01*
X209483175Y-97796882D01*
X209566882Y-97713175D01*
X209665320Y-97647400D01*
X209774695Y-97602096D01*
X209890806Y-97579000D01*
X210009194Y-97579000D01*
X210125305Y-97602096D01*
X210125305Y-97602096D01*
G37*
G36*
X191118677Y-96583465D02*
X191156364Y-96594898D01*
X191191103Y-96613466D01*
X191221548Y-96638452D01*
X191246534Y-96668897D01*
X191265102Y-96703636D01*
X191276535Y-96741323D01*
X191281000Y-96786661D01*
X191281000Y-97873339D01*
X191276535Y-97918677D01*
X191265102Y-97956364D01*
X191246534Y-97991103D01*
X191221548Y-98021548D01*
X191191103Y-98046534D01*
X191156364Y-98065102D01*
X191118677Y-98076535D01*
X191073339Y-98081000D01*
X190236661Y-98081000D01*
X190191323Y-98076535D01*
X190153636Y-98065102D01*
X190118897Y-98046534D01*
X190088452Y-98021548D01*
X190063466Y-97991103D01*
X190044898Y-97956364D01*
X190033465Y-97918677D01*
X190029000Y-97873339D01*
X190029000Y-96786661D01*
X190033465Y-96741323D01*
X190044898Y-96703636D01*
X190063466Y-96668897D01*
X190088452Y-96638452D01*
X190118897Y-96613466D01*
X190153636Y-96594898D01*
X190191323Y-96583465D01*
X190236661Y-96579000D01*
X191073339Y-96579000D01*
X191118677Y-96583465D01*
X191118677Y-96583465D01*
G37*
G36*
X193168677Y-96583465D02*
X193206364Y-96594898D01*
X193241103Y-96613466D01*
X193271548Y-96638452D01*
X193296534Y-96668897D01*
X193315102Y-96703636D01*
X193326535Y-96741323D01*
X193331000Y-96786661D01*
X193331000Y-97873339D01*
X193326535Y-97918677D01*
X193315102Y-97956364D01*
X193296534Y-97991103D01*
X193271548Y-98021548D01*
X193241103Y-98046534D01*
X193206364Y-98065102D01*
X193168677Y-98076535D01*
X193123339Y-98081000D01*
X192286661Y-98081000D01*
X192241323Y-98076535D01*
X192203636Y-98065102D01*
X192168897Y-98046534D01*
X192138452Y-98021548D01*
X192113466Y-97991103D01*
X192094898Y-97956364D01*
X192083465Y-97918677D01*
X192079000Y-97873339D01*
X192079000Y-96786661D01*
X192083465Y-96741323D01*
X192094898Y-96703636D01*
X192113466Y-96668897D01*
X192138452Y-96638452D01*
X192168897Y-96613466D01*
X192203636Y-96594898D01*
X192241323Y-96583465D01*
X192286661Y-96579000D01*
X193123339Y-96579000D01*
X193168677Y-96583465D01*
X193168677Y-96583465D01*
G37*
G36*
X229201000Y-98031000D02*
X228399000Y-98031000D01*
X228399000Y-96129000D01*
X229201000Y-96129000D01*
X229201000Y-98031000D01*
X229201000Y-98031000D01*
G37*
G36*
X227951000Y-98031000D02*
X227149000Y-98031000D01*
X227149000Y-96129000D01*
X227951000Y-96129000D01*
X227951000Y-98031000D01*
X227951000Y-98031000D01*
G37*
G36*
X226701000Y-98031000D02*
X225899000Y-98031000D01*
X225899000Y-96129000D01*
X226701000Y-96129000D01*
X226701000Y-98031000D01*
X226701000Y-98031000D01*
G37*
G36*
X225451000Y-98031000D02*
X224649000Y-98031000D01*
X224649000Y-96129000D01*
X225451000Y-96129000D01*
X225451000Y-98031000D01*
X225451000Y-98031000D01*
G37*
G36*
X224201000Y-98031000D02*
X223399000Y-98031000D01*
X223399000Y-96129000D01*
X224201000Y-96129000D01*
X224201000Y-98031000D01*
X224201000Y-98031000D01*
G37*
G36*
X222951000Y-98031000D02*
X222149000Y-98031000D01*
X222149000Y-96129000D01*
X222951000Y-96129000D01*
X222951000Y-98031000D01*
X222951000Y-98031000D01*
G37*
G36*
X221701000Y-98031000D02*
X220899000Y-98031000D01*
X220899000Y-96129000D01*
X221701000Y-96129000D01*
X221701000Y-98031000D01*
X221701000Y-98031000D01*
G37*
G36*
X220451000Y-98031000D02*
X219649000Y-98031000D01*
X219649000Y-96129000D01*
X220451000Y-96129000D01*
X220451000Y-98031000D01*
X220451000Y-98031000D01*
G37*
G36*
X219201000Y-98031000D02*
X218399000Y-98031000D01*
X218399000Y-96129000D01*
X219201000Y-96129000D01*
X219201000Y-98031000D01*
X219201000Y-98031000D01*
G37*
G36*
X217951000Y-98031000D02*
X217149000Y-98031000D01*
X217149000Y-96129000D01*
X217951000Y-96129000D01*
X217951000Y-98031000D01*
X217951000Y-98031000D01*
G37*
G36*
X216701000Y-98031000D02*
X215899000Y-98031000D01*
X215899000Y-96129000D01*
X216701000Y-96129000D01*
X216701000Y-98031000D01*
X216701000Y-98031000D01*
G37*
G36*
X215451000Y-98031000D02*
X214649000Y-98031000D01*
X214649000Y-96129000D01*
X215451000Y-96129000D01*
X215451000Y-98031000D01*
X215451000Y-98031000D01*
G37*
G36*
X214201000Y-98031000D02*
X213399000Y-98031000D01*
X213399000Y-96129000D01*
X214201000Y-96129000D01*
X214201000Y-98031000D01*
X214201000Y-98031000D01*
G37*
G36*
X212951000Y-98031000D02*
X212149000Y-98031000D01*
X212149000Y-96129000D01*
X212951000Y-96129000D01*
X212951000Y-98031000D01*
X212951000Y-98031000D01*
G37*
G36*
X232951000Y-98031000D02*
X232149000Y-98031000D01*
X232149000Y-96129000D01*
X232951000Y-96129000D01*
X232951000Y-98031000D01*
X232951000Y-98031000D01*
G37*
G36*
X231701000Y-98031000D02*
X230899000Y-98031000D01*
X230899000Y-96129000D01*
X231701000Y-96129000D01*
X231701000Y-98031000D01*
X231701000Y-98031000D01*
G37*
G36*
X230451000Y-98031000D02*
X229649000Y-98031000D01*
X229649000Y-96129000D01*
X230451000Y-96129000D01*
X230451000Y-98031000D01*
X230451000Y-98031000D01*
G37*
G36*
X236701000Y-98031000D02*
X235899000Y-98031000D01*
X235899000Y-96129000D01*
X236701000Y-96129000D01*
X236701000Y-98031000D01*
X236701000Y-98031000D01*
G37*
G36*
X234201000Y-98031000D02*
X233399000Y-98031000D01*
X233399000Y-96129000D01*
X234201000Y-96129000D01*
X234201000Y-98031000D01*
X234201000Y-98031000D01*
G37*
G36*
X235451000Y-98031000D02*
X234649000Y-98031000D01*
X234649000Y-96129000D01*
X235451000Y-96129000D01*
X235451000Y-98031000D01*
X235451000Y-98031000D01*
G37*
G36*
X196811000Y-96411000D02*
X194209000Y-96411000D01*
X194209000Y-94309000D01*
X196811000Y-94309000D01*
X196811000Y-96411000D01*
X196811000Y-96411000D01*
G37*
G36*
X193168677Y-94593465D02*
X193206364Y-94604898D01*
X193241103Y-94623466D01*
X193271548Y-94648452D01*
X193296534Y-94678897D01*
X193315102Y-94713636D01*
X193326535Y-94751323D01*
X193331000Y-94796661D01*
X193331000Y-95883339D01*
X193326535Y-95928677D01*
X193315102Y-95966364D01*
X193296534Y-96001103D01*
X193271548Y-96031548D01*
X193241103Y-96056534D01*
X193206364Y-96075102D01*
X193168677Y-96086535D01*
X193123339Y-96091000D01*
X192286661Y-96091000D01*
X192241323Y-96086535D01*
X192203636Y-96075102D01*
X192168897Y-96056534D01*
X192138452Y-96031548D01*
X192113466Y-96001103D01*
X192094898Y-95966364D01*
X192083465Y-95928677D01*
X192079000Y-95883339D01*
X192079000Y-94796661D01*
X192083465Y-94751323D01*
X192094898Y-94713636D01*
X192113466Y-94678897D01*
X192138452Y-94648452D01*
X192168897Y-94623466D01*
X192203636Y-94604898D01*
X192241323Y-94593465D01*
X192286661Y-94589000D01*
X193123339Y-94589000D01*
X193168677Y-94593465D01*
X193168677Y-94593465D01*
G37*
G36*
X191118677Y-94593465D02*
X191156364Y-94604898D01*
X191191103Y-94623466D01*
X191221548Y-94648452D01*
X191246534Y-94678897D01*
X191265102Y-94713636D01*
X191276535Y-94751323D01*
X191281000Y-94796661D01*
X191281000Y-95883339D01*
X191276535Y-95928677D01*
X191265102Y-95966364D01*
X191246534Y-96001103D01*
X191221548Y-96031548D01*
X191191103Y-96056534D01*
X191156364Y-96075102D01*
X191118677Y-96086535D01*
X191073339Y-96091000D01*
X190236661Y-96091000D01*
X190191323Y-96086535D01*
X190153636Y-96075102D01*
X190118897Y-96056534D01*
X190088452Y-96031548D01*
X190063466Y-96001103D01*
X190044898Y-95966364D01*
X190033465Y-95928677D01*
X190029000Y-95883339D01*
X190029000Y-94796661D01*
X190033465Y-94751323D01*
X190044898Y-94713636D01*
X190063466Y-94678897D01*
X190088452Y-94648452D01*
X190118897Y-94623466D01*
X190153636Y-94604898D01*
X190191323Y-94593465D01*
X190236661Y-94589000D01*
X191073339Y-94589000D01*
X191118677Y-94593465D01*
X191118677Y-94593465D01*
G37*
G36*
X195836111Y-90053413D02*
X195879828Y-90057718D01*
X195879831Y-90057719D01*
X195927747Y-90072254D01*
X195971909Y-90095859D01*
X196010616Y-90127624D01*
X196010617Y-90127626D01*
X196010619Y-90127627D01*
X196042381Y-90166330D01*
X196065985Y-90210490D01*
X196080522Y-90258412D01*
X196084200Y-90295756D01*
X196084200Y-91814244D01*
X196080522Y-91851588D01*
X196080521Y-91851591D01*
X196080521Y-91851592D01*
X196069922Y-91886534D01*
X196065985Y-91899510D01*
X196042381Y-91943670D01*
X196010616Y-91982376D01*
X195971910Y-92014141D01*
X195927750Y-92037745D01*
X195927748Y-92037746D01*
X195879832Y-92052281D01*
X195879831Y-92052281D01*
X195879828Y-92052282D01*
X195830001Y-92057189D01*
X195830000Y-92057189D01*
X195823889Y-92056587D01*
X195780172Y-92052282D01*
X195771251Y-92049576D01*
X195732253Y-92037746D01*
X195732251Y-92037745D01*
X195688091Y-92014141D01*
X195649385Y-91982376D01*
X195617620Y-91943670D01*
X195594016Y-91899510D01*
X195590080Y-91886534D01*
X195579480Y-91851592D01*
X195579480Y-91851591D01*
X195579479Y-91851588D01*
X195575801Y-91814244D01*
X195575800Y-90295757D01*
X195579478Y-90258413D01*
X195579479Y-90258409D01*
X195594014Y-90210493D01*
X195617619Y-90166331D01*
X195649384Y-90127624D01*
X195649386Y-90127623D01*
X195649387Y-90127621D01*
X195688090Y-90095859D01*
X195732250Y-90072255D01*
X195732252Y-90072254D01*
X195780168Y-90057719D01*
X195780169Y-90057719D01*
X195780172Y-90057718D01*
X195829999Y-90052811D01*
X195830000Y-90052811D01*
X195836111Y-90053413D01*
X195836111Y-90053413D01*
G37*
G36*
X194235911Y-90053413D02*
X194279628Y-90057718D01*
X194279631Y-90057719D01*
X194327547Y-90072254D01*
X194371709Y-90095859D01*
X194410416Y-90127624D01*
X194410417Y-90127626D01*
X194410419Y-90127627D01*
X194442181Y-90166330D01*
X194465785Y-90210490D01*
X194480322Y-90258412D01*
X194484000Y-90295756D01*
X194484000Y-91814244D01*
X194480322Y-91851588D01*
X194480321Y-91851591D01*
X194480321Y-91851592D01*
X194469722Y-91886534D01*
X194465785Y-91899510D01*
X194442181Y-91943670D01*
X194410416Y-91982376D01*
X194371710Y-92014141D01*
X194327550Y-92037745D01*
X194327548Y-92037746D01*
X194279632Y-92052281D01*
X194279631Y-92052281D01*
X194279628Y-92052282D01*
X194229801Y-92057189D01*
X194229800Y-92057189D01*
X194223689Y-92056587D01*
X194179972Y-92052282D01*
X194171051Y-92049576D01*
X194132053Y-92037746D01*
X194132051Y-92037745D01*
X194087891Y-92014141D01*
X194049185Y-91982376D01*
X194017420Y-91943670D01*
X193993816Y-91899510D01*
X193989880Y-91886534D01*
X193979280Y-91851592D01*
X193979280Y-91851591D01*
X193979279Y-91851588D01*
X193975601Y-91814244D01*
X193975600Y-90295757D01*
X193979278Y-90258413D01*
X193979279Y-90258409D01*
X193993814Y-90210493D01*
X194017419Y-90166331D01*
X194049184Y-90127624D01*
X194049186Y-90127623D01*
X194049187Y-90127621D01*
X194087890Y-90095859D01*
X194132050Y-90072255D01*
X194132052Y-90072254D01*
X194179968Y-90057719D01*
X194179969Y-90057719D01*
X194179972Y-90057718D01*
X194229799Y-90052811D01*
X194229800Y-90052811D01*
X194235911Y-90053413D01*
X194235911Y-90053413D01*
G37*
G36*
X198236411Y-90053413D02*
X198280128Y-90057718D01*
X198280131Y-90057719D01*
X198328047Y-90072254D01*
X198372209Y-90095859D01*
X198410916Y-90127624D01*
X198410917Y-90127626D01*
X198410919Y-90127627D01*
X198442681Y-90166330D01*
X198466285Y-90210490D01*
X198480822Y-90258412D01*
X198484500Y-90295756D01*
X198484500Y-91814244D01*
X198480822Y-91851588D01*
X198480821Y-91851591D01*
X198480821Y-91851592D01*
X198470222Y-91886534D01*
X198466285Y-91899510D01*
X198442681Y-91943670D01*
X198410916Y-91982376D01*
X198372210Y-92014141D01*
X198328050Y-92037745D01*
X198328048Y-92037746D01*
X198280132Y-92052281D01*
X198280131Y-92052281D01*
X198280128Y-92052282D01*
X198230301Y-92057189D01*
X198230300Y-92057189D01*
X198224189Y-92056587D01*
X198180472Y-92052282D01*
X198171551Y-92049576D01*
X198132553Y-92037746D01*
X198132551Y-92037745D01*
X198088391Y-92014141D01*
X198049685Y-91982376D01*
X198017920Y-91943670D01*
X197994316Y-91899510D01*
X197990380Y-91886534D01*
X197979780Y-91851592D01*
X197979780Y-91851591D01*
X197979779Y-91851588D01*
X197976101Y-91814244D01*
X197976100Y-90295757D01*
X197979778Y-90258413D01*
X197979779Y-90258409D01*
X197994314Y-90210493D01*
X198017919Y-90166331D01*
X198049684Y-90127624D01*
X198049686Y-90127623D01*
X198049687Y-90127621D01*
X198088390Y-90095859D01*
X198132550Y-90072255D01*
X198132552Y-90072254D01*
X198180468Y-90057719D01*
X198180469Y-90057719D01*
X198180472Y-90057718D01*
X198230299Y-90052811D01*
X198230300Y-90052811D01*
X198236411Y-90053413D01*
X198236411Y-90053413D01*
G37*
G36*
X199036511Y-90053413D02*
X199080228Y-90057718D01*
X199080231Y-90057719D01*
X199128147Y-90072254D01*
X199172309Y-90095859D01*
X199211016Y-90127624D01*
X199211017Y-90127626D01*
X199211019Y-90127627D01*
X199242781Y-90166330D01*
X199266385Y-90210490D01*
X199280922Y-90258412D01*
X199284600Y-90295756D01*
X199284600Y-91814244D01*
X199280922Y-91851588D01*
X199280921Y-91851591D01*
X199280921Y-91851592D01*
X199270322Y-91886534D01*
X199266385Y-91899510D01*
X199242781Y-91943670D01*
X199211016Y-91982376D01*
X199172310Y-92014141D01*
X199128150Y-92037745D01*
X199128148Y-92037746D01*
X199080232Y-92052281D01*
X199080231Y-92052281D01*
X199080228Y-92052282D01*
X199030401Y-92057189D01*
X199030400Y-92057189D01*
X199024289Y-92056587D01*
X198980572Y-92052282D01*
X198971651Y-92049576D01*
X198932653Y-92037746D01*
X198932651Y-92037745D01*
X198888491Y-92014141D01*
X198849785Y-91982376D01*
X198818020Y-91943670D01*
X198794416Y-91899510D01*
X198790480Y-91886534D01*
X198779880Y-91851592D01*
X198779880Y-91851591D01*
X198779879Y-91851588D01*
X198776201Y-91814244D01*
X198776200Y-90295757D01*
X198779878Y-90258413D01*
X198779879Y-90258409D01*
X198794414Y-90210493D01*
X198818019Y-90166331D01*
X198849784Y-90127624D01*
X198849786Y-90127623D01*
X198849787Y-90127621D01*
X198888490Y-90095859D01*
X198932650Y-90072255D01*
X198932652Y-90072254D01*
X198980568Y-90057719D01*
X198980569Y-90057719D01*
X198980572Y-90057718D01*
X199030399Y-90052811D01*
X199030400Y-90052811D01*
X199036511Y-90053413D01*
X199036511Y-90053413D01*
G37*
G36*
X197436311Y-90053413D02*
X197480028Y-90057718D01*
X197480031Y-90057719D01*
X197527947Y-90072254D01*
X197572109Y-90095859D01*
X197610816Y-90127624D01*
X197610817Y-90127626D01*
X197610819Y-90127627D01*
X197642581Y-90166330D01*
X197666185Y-90210490D01*
X197680722Y-90258412D01*
X197684400Y-90295756D01*
X197684400Y-91814244D01*
X197680722Y-91851588D01*
X197680721Y-91851591D01*
X197680721Y-91851592D01*
X197670122Y-91886534D01*
X197666185Y-91899510D01*
X197642581Y-91943670D01*
X197610816Y-91982376D01*
X197572110Y-92014141D01*
X197527950Y-92037745D01*
X197527948Y-92037746D01*
X197480032Y-92052281D01*
X197480031Y-92052281D01*
X197480028Y-92052282D01*
X197430201Y-92057189D01*
X197430200Y-92057189D01*
X197424089Y-92056587D01*
X197380372Y-92052282D01*
X197371451Y-92049576D01*
X197332453Y-92037746D01*
X197332451Y-92037745D01*
X197288291Y-92014141D01*
X197249585Y-91982376D01*
X197217820Y-91943670D01*
X197194216Y-91899510D01*
X197190280Y-91886534D01*
X197179680Y-91851592D01*
X197179680Y-91851591D01*
X197179679Y-91851588D01*
X197176001Y-91814244D01*
X197176000Y-90295757D01*
X197179678Y-90258413D01*
X197179679Y-90258409D01*
X197194214Y-90210493D01*
X197217819Y-90166331D01*
X197249584Y-90127624D01*
X197249586Y-90127623D01*
X197249587Y-90127621D01*
X197288290Y-90095859D01*
X197332450Y-90072255D01*
X197332452Y-90072254D01*
X197380368Y-90057719D01*
X197380369Y-90057719D01*
X197380372Y-90057718D01*
X197430199Y-90052811D01*
X197430200Y-90052811D01*
X197436311Y-90053413D01*
X197436311Y-90053413D01*
G37*
G36*
X196636211Y-90053413D02*
X196679928Y-90057718D01*
X196679931Y-90057719D01*
X196727847Y-90072254D01*
X196772009Y-90095859D01*
X196810716Y-90127624D01*
X196810717Y-90127626D01*
X196810719Y-90127627D01*
X196842481Y-90166330D01*
X196866085Y-90210490D01*
X196880622Y-90258412D01*
X196884300Y-90295756D01*
X196884300Y-91814244D01*
X196880622Y-91851588D01*
X196880621Y-91851591D01*
X196880621Y-91851592D01*
X196870022Y-91886534D01*
X196866085Y-91899510D01*
X196842481Y-91943670D01*
X196810716Y-91982376D01*
X196772010Y-92014141D01*
X196727850Y-92037745D01*
X196727848Y-92037746D01*
X196679932Y-92052281D01*
X196679931Y-92052281D01*
X196679928Y-92052282D01*
X196630101Y-92057189D01*
X196630100Y-92057189D01*
X196623989Y-92056587D01*
X196580272Y-92052282D01*
X196571351Y-92049576D01*
X196532353Y-92037746D01*
X196532351Y-92037745D01*
X196488191Y-92014141D01*
X196449485Y-91982376D01*
X196417720Y-91943670D01*
X196394116Y-91899510D01*
X196390180Y-91886534D01*
X196379580Y-91851592D01*
X196379580Y-91851591D01*
X196379579Y-91851588D01*
X196375901Y-91814244D01*
X196375900Y-90295757D01*
X196379578Y-90258413D01*
X196379579Y-90258409D01*
X196394114Y-90210493D01*
X196417719Y-90166331D01*
X196449484Y-90127624D01*
X196449486Y-90127623D01*
X196449487Y-90127621D01*
X196488190Y-90095859D01*
X196532350Y-90072255D01*
X196532352Y-90072254D01*
X196580268Y-90057719D01*
X196580269Y-90057719D01*
X196580272Y-90057718D01*
X196630099Y-90052811D01*
X196630100Y-90052811D01*
X196636211Y-90053413D01*
X196636211Y-90053413D01*
G37*
G36*
X191835611Y-90053413D02*
X191879328Y-90057718D01*
X191879331Y-90057719D01*
X191927247Y-90072254D01*
X191971409Y-90095859D01*
X192010116Y-90127624D01*
X192010117Y-90127626D01*
X192010119Y-90127627D01*
X192041881Y-90166330D01*
X192065485Y-90210490D01*
X192080022Y-90258412D01*
X192083700Y-90295756D01*
X192083700Y-91814244D01*
X192080022Y-91851588D01*
X192080021Y-91851591D01*
X192080021Y-91851592D01*
X192069422Y-91886534D01*
X192065485Y-91899510D01*
X192041881Y-91943670D01*
X192010116Y-91982376D01*
X191971410Y-92014141D01*
X191927250Y-92037745D01*
X191927248Y-92037746D01*
X191879332Y-92052281D01*
X191879331Y-92052281D01*
X191879328Y-92052282D01*
X191829501Y-92057189D01*
X191829500Y-92057189D01*
X191823389Y-92056587D01*
X191779672Y-92052282D01*
X191770751Y-92049576D01*
X191731753Y-92037746D01*
X191731751Y-92037745D01*
X191687591Y-92014141D01*
X191648885Y-91982376D01*
X191617120Y-91943670D01*
X191593516Y-91899510D01*
X191589580Y-91886534D01*
X191578980Y-91851592D01*
X191578980Y-91851591D01*
X191578979Y-91851588D01*
X191575301Y-91814244D01*
X191575300Y-90295757D01*
X191578978Y-90258413D01*
X191578979Y-90258409D01*
X191593514Y-90210493D01*
X191617119Y-90166331D01*
X191648884Y-90127624D01*
X191648886Y-90127623D01*
X191648887Y-90127621D01*
X191687590Y-90095859D01*
X191731750Y-90072255D01*
X191731752Y-90072254D01*
X191779668Y-90057719D01*
X191779669Y-90057719D01*
X191779672Y-90057718D01*
X191829499Y-90052811D01*
X191829500Y-90052811D01*
X191835611Y-90053413D01*
X191835611Y-90053413D01*
G37*
G36*
X192635711Y-90053413D02*
X192679428Y-90057718D01*
X192679431Y-90057719D01*
X192727347Y-90072254D01*
X192771509Y-90095859D01*
X192810216Y-90127624D01*
X192810217Y-90127626D01*
X192810219Y-90127627D01*
X192841981Y-90166330D01*
X192865585Y-90210490D01*
X192880122Y-90258412D01*
X192883800Y-90295756D01*
X192883800Y-91814244D01*
X192880122Y-91851588D01*
X192880121Y-91851591D01*
X192880121Y-91851592D01*
X192869522Y-91886534D01*
X192865585Y-91899510D01*
X192841981Y-91943670D01*
X192810216Y-91982376D01*
X192771510Y-92014141D01*
X192727350Y-92037745D01*
X192727348Y-92037746D01*
X192679432Y-92052281D01*
X192679431Y-92052281D01*
X192679428Y-92052282D01*
X192629601Y-92057189D01*
X192629600Y-92057189D01*
X192623489Y-92056587D01*
X192579772Y-92052282D01*
X192570851Y-92049576D01*
X192531853Y-92037746D01*
X192531851Y-92037745D01*
X192487691Y-92014141D01*
X192448985Y-91982376D01*
X192417220Y-91943670D01*
X192393616Y-91899510D01*
X192389680Y-91886534D01*
X192379080Y-91851592D01*
X192379080Y-91851591D01*
X192379079Y-91851588D01*
X192375401Y-91814244D01*
X192375400Y-90295757D01*
X192379078Y-90258413D01*
X192379079Y-90258409D01*
X192393614Y-90210493D01*
X192417219Y-90166331D01*
X192448984Y-90127624D01*
X192448986Y-90127623D01*
X192448987Y-90127621D01*
X192487690Y-90095859D01*
X192531850Y-90072255D01*
X192531852Y-90072254D01*
X192579768Y-90057719D01*
X192579769Y-90057719D01*
X192579772Y-90057718D01*
X192629599Y-90052811D01*
X192629600Y-90052811D01*
X192635711Y-90053413D01*
X192635711Y-90053413D01*
G37*
G36*
X193435811Y-90053413D02*
X193479528Y-90057718D01*
X193479531Y-90057719D01*
X193527447Y-90072254D01*
X193571609Y-90095859D01*
X193610316Y-90127624D01*
X193610317Y-90127626D01*
X193610319Y-90127627D01*
X193642081Y-90166330D01*
X193665685Y-90210490D01*
X193680222Y-90258412D01*
X193683900Y-90295756D01*
X193683900Y-91814244D01*
X193680222Y-91851588D01*
X193680221Y-91851591D01*
X193680221Y-91851592D01*
X193669622Y-91886534D01*
X193665685Y-91899510D01*
X193642081Y-91943670D01*
X193610316Y-91982376D01*
X193571610Y-92014141D01*
X193527450Y-92037745D01*
X193527448Y-92037746D01*
X193479532Y-92052281D01*
X193479531Y-92052281D01*
X193479528Y-92052282D01*
X193429701Y-92057189D01*
X193429700Y-92057189D01*
X193423589Y-92056587D01*
X193379872Y-92052282D01*
X193370951Y-92049576D01*
X193331953Y-92037746D01*
X193331951Y-92037745D01*
X193287791Y-92014141D01*
X193249085Y-91982376D01*
X193217320Y-91943670D01*
X193193716Y-91899510D01*
X193189780Y-91886534D01*
X193179180Y-91851592D01*
X193179180Y-91851591D01*
X193179179Y-91851588D01*
X193175501Y-91814244D01*
X193175500Y-90295757D01*
X193179178Y-90258413D01*
X193179179Y-90258409D01*
X193193714Y-90210493D01*
X193217319Y-90166331D01*
X193249084Y-90127624D01*
X193249086Y-90127623D01*
X193249087Y-90127621D01*
X193287790Y-90095859D01*
X193331950Y-90072255D01*
X193331952Y-90072254D01*
X193379868Y-90057719D01*
X193379869Y-90057719D01*
X193379872Y-90057718D01*
X193429699Y-90052811D01*
X193429700Y-90052811D01*
X193435811Y-90053413D01*
X193435811Y-90053413D01*
G37*
G36*
X199836611Y-90053413D02*
X199880328Y-90057718D01*
X199880331Y-90057719D01*
X199928247Y-90072254D01*
X199972409Y-90095859D01*
X200011116Y-90127624D01*
X200011117Y-90127626D01*
X200011119Y-90127627D01*
X200042881Y-90166330D01*
X200066485Y-90210490D01*
X200081022Y-90258412D01*
X200084700Y-90295756D01*
X200084700Y-91814244D01*
X200081022Y-91851588D01*
X200081021Y-91851591D01*
X200081021Y-91851592D01*
X200070422Y-91886534D01*
X200066485Y-91899510D01*
X200042881Y-91943670D01*
X200011116Y-91982376D01*
X199972410Y-92014141D01*
X199928250Y-92037745D01*
X199928248Y-92037746D01*
X199880332Y-92052281D01*
X199880331Y-92052281D01*
X199880328Y-92052282D01*
X199830501Y-92057189D01*
X199830500Y-92057189D01*
X199824389Y-92056587D01*
X199780672Y-92052282D01*
X199771751Y-92049576D01*
X199732753Y-92037746D01*
X199732751Y-92037745D01*
X199688591Y-92014141D01*
X199649885Y-91982376D01*
X199618120Y-91943670D01*
X199594516Y-91899510D01*
X199590580Y-91886534D01*
X199579980Y-91851592D01*
X199579980Y-91851591D01*
X199579979Y-91851588D01*
X199576301Y-91814244D01*
X199576300Y-90295757D01*
X199579978Y-90258413D01*
X199579979Y-90258409D01*
X199594514Y-90210493D01*
X199618119Y-90166331D01*
X199649884Y-90127624D01*
X199649886Y-90127623D01*
X199649887Y-90127621D01*
X199688590Y-90095859D01*
X199732750Y-90072255D01*
X199732752Y-90072254D01*
X199780668Y-90057719D01*
X199780669Y-90057719D01*
X199780672Y-90057718D01*
X199830499Y-90052811D01*
X199830500Y-90052811D01*
X199836611Y-90053413D01*
X199836611Y-90053413D01*
G37*
G36*
X195036011Y-90053413D02*
X195079728Y-90057718D01*
X195079731Y-90057719D01*
X195127647Y-90072254D01*
X195171809Y-90095859D01*
X195210516Y-90127624D01*
X195210517Y-90127626D01*
X195210519Y-90127627D01*
X195242281Y-90166330D01*
X195265885Y-90210490D01*
X195280422Y-90258412D01*
X195284100Y-90295756D01*
X195284100Y-91814244D01*
X195280422Y-91851588D01*
X195280421Y-91851591D01*
X195280421Y-91851592D01*
X195269822Y-91886534D01*
X195265885Y-91899510D01*
X195242281Y-91943670D01*
X195210516Y-91982376D01*
X195171810Y-92014141D01*
X195127650Y-92037745D01*
X195127648Y-92037746D01*
X195079732Y-92052281D01*
X195079731Y-92052281D01*
X195079728Y-92052282D01*
X195029901Y-92057189D01*
X195029900Y-92057189D01*
X195023789Y-92056587D01*
X194980072Y-92052282D01*
X194971151Y-92049576D01*
X194932153Y-92037746D01*
X194932151Y-92037745D01*
X194887991Y-92014141D01*
X194849285Y-91982376D01*
X194817520Y-91943670D01*
X194793916Y-91899510D01*
X194789980Y-91886534D01*
X194779380Y-91851592D01*
X194779380Y-91851591D01*
X194779379Y-91851588D01*
X194775701Y-91814244D01*
X194775700Y-90295757D01*
X194779378Y-90258413D01*
X194779379Y-90258409D01*
X194793914Y-90210493D01*
X194817519Y-90166331D01*
X194849284Y-90127624D01*
X194849286Y-90127623D01*
X194849287Y-90127621D01*
X194887990Y-90095859D01*
X194932150Y-90072255D01*
X194932152Y-90072254D01*
X194980068Y-90057719D01*
X194980069Y-90057719D01*
X194980072Y-90057718D01*
X195029899Y-90052811D01*
X195029900Y-90052811D01*
X195036011Y-90053413D01*
X195036011Y-90053413D01*
G37*
G36*
X205918677Y-90673465D02*
X205956364Y-90684898D01*
X205991103Y-90703466D01*
X206021548Y-90728452D01*
X206046534Y-90758897D01*
X206065102Y-90793636D01*
X206076535Y-90831323D01*
X206081000Y-90876661D01*
X206081000Y-91713339D01*
X206076535Y-91758677D01*
X206065102Y-91796364D01*
X206046534Y-91831103D01*
X206021548Y-91861548D01*
X205991103Y-91886534D01*
X205956364Y-91905102D01*
X205918677Y-91916535D01*
X205873339Y-91921000D01*
X204786661Y-91921000D01*
X204741323Y-91916535D01*
X204703636Y-91905102D01*
X204668897Y-91886534D01*
X204638452Y-91861548D01*
X204613466Y-91831103D01*
X204594898Y-91796364D01*
X204583465Y-91758677D01*
X204579000Y-91713339D01*
X204579000Y-90876661D01*
X204583465Y-90831323D01*
X204594898Y-90793636D01*
X204613466Y-90758897D01*
X204638452Y-90728452D01*
X204668897Y-90703466D01*
X204703636Y-90684898D01*
X204741323Y-90673465D01*
X204786661Y-90669000D01*
X205873339Y-90669000D01*
X205918677Y-90673465D01*
X205918677Y-90673465D01*
G37*
G36*
X205918677Y-88623465D02*
X205956364Y-88634898D01*
X205991103Y-88653466D01*
X206021548Y-88678452D01*
X206046534Y-88708897D01*
X206065102Y-88743636D01*
X206076535Y-88781323D01*
X206081000Y-88826661D01*
X206081000Y-89663339D01*
X206076535Y-89708677D01*
X206065102Y-89746364D01*
X206046534Y-89781103D01*
X206021548Y-89811548D01*
X205991103Y-89836534D01*
X205956364Y-89855102D01*
X205918677Y-89866535D01*
X205873339Y-89871000D01*
X204786661Y-89871000D01*
X204741323Y-89866535D01*
X204703636Y-89855102D01*
X204668897Y-89836534D01*
X204638452Y-89811548D01*
X204613466Y-89781103D01*
X204594898Y-89746364D01*
X204583465Y-89708677D01*
X204579000Y-89663339D01*
X204579000Y-88826661D01*
X204583465Y-88781323D01*
X204594898Y-88743636D01*
X204613466Y-88708897D01*
X204638452Y-88678452D01*
X204668897Y-88653466D01*
X204703636Y-88634898D01*
X204741323Y-88623465D01*
X204786661Y-88619000D01*
X205873339Y-88619000D01*
X205918677Y-88623465D01*
X205918677Y-88623465D01*
G37*
G36*
X202341588Y-89089978D02*
X202341591Y-89089979D01*
X202341592Y-89089979D01*
X202389508Y-89104514D01*
X202389510Y-89104515D01*
X202433670Y-89128119D01*
X202472376Y-89159884D01*
X202504141Y-89198590D01*
X202527745Y-89242750D01*
X202542282Y-89290672D01*
X202547189Y-89340500D01*
X202542282Y-89390328D01*
X202542281Y-89390331D01*
X202542281Y-89390332D01*
X202535307Y-89413324D01*
X202527745Y-89438250D01*
X202504141Y-89482410D01*
X202472376Y-89521116D01*
X202433670Y-89552881D01*
X202389510Y-89576485D01*
X202389508Y-89576486D01*
X202341592Y-89591021D01*
X202341591Y-89591021D01*
X202341588Y-89591022D01*
X202304244Y-89594700D01*
X200785756Y-89594700D01*
X200748412Y-89591022D01*
X200748409Y-89591021D01*
X200748408Y-89591021D01*
X200700492Y-89576486D01*
X200700490Y-89576485D01*
X200656330Y-89552881D01*
X200617624Y-89521116D01*
X200585859Y-89482410D01*
X200562255Y-89438250D01*
X200554694Y-89413324D01*
X200547719Y-89390332D01*
X200547719Y-89390331D01*
X200547718Y-89390328D01*
X200542811Y-89340500D01*
X200547718Y-89290672D01*
X200562255Y-89242750D01*
X200585859Y-89198590D01*
X200617624Y-89159884D01*
X200656330Y-89128119D01*
X200700490Y-89104515D01*
X200700492Y-89104514D01*
X200748408Y-89089979D01*
X200748409Y-89089979D01*
X200748412Y-89089978D01*
X200785756Y-89086300D01*
X202304244Y-89086300D01*
X202341588Y-89089978D01*
X202341588Y-89089978D01*
G37*
G36*
X190911588Y-89089978D02*
X190911591Y-89089979D01*
X190911592Y-89089979D01*
X190959508Y-89104514D01*
X190959510Y-89104515D01*
X191003670Y-89128119D01*
X191042376Y-89159884D01*
X191074141Y-89198590D01*
X191097745Y-89242750D01*
X191112282Y-89290672D01*
X191117189Y-89340500D01*
X191112282Y-89390328D01*
X191112281Y-89390331D01*
X191112281Y-89390332D01*
X191105307Y-89413324D01*
X191097745Y-89438250D01*
X191074141Y-89482410D01*
X191042376Y-89521116D01*
X191003670Y-89552881D01*
X190959510Y-89576485D01*
X190959508Y-89576486D01*
X190911592Y-89591021D01*
X190911591Y-89591021D01*
X190911588Y-89591022D01*
X190874244Y-89594700D01*
X189355756Y-89594700D01*
X189318412Y-89591022D01*
X189318409Y-89591021D01*
X189318408Y-89591021D01*
X189270492Y-89576486D01*
X189270490Y-89576485D01*
X189226330Y-89552881D01*
X189187624Y-89521116D01*
X189155859Y-89482410D01*
X189132255Y-89438250D01*
X189124694Y-89413324D01*
X189117719Y-89390332D01*
X189117719Y-89390331D01*
X189117718Y-89390328D01*
X189112811Y-89340500D01*
X189117718Y-89290672D01*
X189132255Y-89242750D01*
X189155859Y-89198590D01*
X189187624Y-89159884D01*
X189226330Y-89128119D01*
X189270490Y-89104515D01*
X189270492Y-89104514D01*
X189318408Y-89089979D01*
X189318409Y-89089979D01*
X189318412Y-89089978D01*
X189355756Y-89086300D01*
X190874244Y-89086300D01*
X190911588Y-89089978D01*
X190911588Y-89089978D01*
G37*
G36*
X241477000Y-89435000D02*
X238875000Y-89435000D01*
X238875000Y-86333000D01*
X241477000Y-86333000D01*
X241477000Y-89435000D01*
X241477000Y-89435000D01*
G37*
G36*
X227977000Y-89435000D02*
X225375000Y-89435000D01*
X225375000Y-86333000D01*
X227977000Y-86333000D01*
X227977000Y-89435000D01*
X227977000Y-89435000D01*
G37*
G36*
X198365542Y-81263164D02*
X198401545Y-81274085D01*
X198434726Y-81291821D01*
X198463811Y-81315689D01*
X198487679Y-81344773D01*
X198505415Y-81377954D01*
X198516336Y-81413957D01*
X198519100Y-81442019D01*
X198519100Y-82430781D01*
X198516336Y-82458843D01*
X198505415Y-82494846D01*
X198503471Y-82498482D01*
X198494093Y-82521121D01*
X198489312Y-82545154D01*
X198489312Y-82569658D01*
X198494092Y-82593692D01*
X198503469Y-82616331D01*
X198517083Y-82636706D01*
X198534409Y-82654033D01*
X198554784Y-82667647D01*
X198577423Y-82677025D01*
X198601456Y-82681806D01*
X198625960Y-82681806D01*
X198649994Y-82677026D01*
X198672634Y-82667648D01*
X198688650Y-82659087D01*
X198688651Y-82659087D01*
X198688654Y-82659085D01*
X198724657Y-82648164D01*
X198752719Y-82645400D01*
X199703481Y-82645400D01*
X199731543Y-82648164D01*
X199767546Y-82659085D01*
X199800727Y-82676821D01*
X199829811Y-82700689D01*
X199853679Y-82729773D01*
X199871415Y-82762954D01*
X199882336Y-82798957D01*
X199886024Y-82836400D01*
X199882336Y-82873843D01*
X199871415Y-82909846D01*
X199853679Y-82943027D01*
X199829811Y-82972111D01*
X199808282Y-82989779D01*
X199790959Y-83007101D01*
X199777346Y-83027476D01*
X199767968Y-83050115D01*
X199763188Y-83074148D01*
X199763188Y-83098652D01*
X199767969Y-83122686D01*
X199777346Y-83145325D01*
X199790960Y-83165699D01*
X199808282Y-83183021D01*
X199829811Y-83200689D01*
X199853679Y-83229773D01*
X199871415Y-83262954D01*
X199882336Y-83298957D01*
X199886024Y-83336400D01*
X199882336Y-83373843D01*
X199871415Y-83409846D01*
X199853679Y-83443027D01*
X199829811Y-83472111D01*
X199808282Y-83489779D01*
X199790959Y-83507101D01*
X199777346Y-83527476D01*
X199767968Y-83550115D01*
X199763188Y-83574148D01*
X199763188Y-83598652D01*
X199767969Y-83622686D01*
X199777346Y-83645325D01*
X199790960Y-83665699D01*
X199808282Y-83683021D01*
X199829811Y-83700689D01*
X199853679Y-83729773D01*
X199871415Y-83762954D01*
X199882336Y-83798957D01*
X199886024Y-83836400D01*
X199882336Y-83873843D01*
X199871415Y-83909846D01*
X199853679Y-83943027D01*
X199829811Y-83972111D01*
X199808282Y-83989779D01*
X199790959Y-84007101D01*
X199777346Y-84027476D01*
X199767968Y-84050115D01*
X199763188Y-84074148D01*
X199763188Y-84098652D01*
X199767969Y-84122686D01*
X199777346Y-84145325D01*
X199790960Y-84165699D01*
X199808282Y-84183021D01*
X199829811Y-84200689D01*
X199853679Y-84229773D01*
X199871415Y-84262954D01*
X199882336Y-84298957D01*
X199886024Y-84336400D01*
X199882336Y-84373843D01*
X199871415Y-84409846D01*
X199853679Y-84443027D01*
X199829811Y-84472111D01*
X199808282Y-84489779D01*
X199790959Y-84507101D01*
X199777346Y-84527476D01*
X199767968Y-84550115D01*
X199763188Y-84574148D01*
X199763188Y-84598652D01*
X199767969Y-84622686D01*
X199777346Y-84645325D01*
X199790960Y-84665699D01*
X199808282Y-84683021D01*
X199829811Y-84700689D01*
X199853679Y-84729773D01*
X199871415Y-84762954D01*
X199882336Y-84798957D01*
X199886024Y-84836400D01*
X199882336Y-84873843D01*
X199871415Y-84909846D01*
X199853679Y-84943027D01*
X199829811Y-84972111D01*
X199808282Y-84989779D01*
X199790959Y-85007101D01*
X199777346Y-85027476D01*
X199767968Y-85050115D01*
X199763188Y-85074148D01*
X199763188Y-85098652D01*
X199767969Y-85122686D01*
X199777346Y-85145325D01*
X199790960Y-85165699D01*
X199808282Y-85183021D01*
X199829811Y-85200689D01*
X199853679Y-85229773D01*
X199871415Y-85262954D01*
X199882336Y-85298957D01*
X199886024Y-85336400D01*
X199882336Y-85373843D01*
X199871415Y-85409846D01*
X199853679Y-85443027D01*
X199829811Y-85472111D01*
X199808282Y-85489779D01*
X199790959Y-85507101D01*
X199777346Y-85527476D01*
X199767968Y-85550115D01*
X199763188Y-85574148D01*
X199763188Y-85598652D01*
X199767969Y-85622686D01*
X199777346Y-85645325D01*
X199790960Y-85665699D01*
X199808282Y-85683021D01*
X199829811Y-85700689D01*
X199853679Y-85729773D01*
X199871415Y-85762954D01*
X199882336Y-85798957D01*
X199886024Y-85836400D01*
X199882336Y-85873843D01*
X199871415Y-85909846D01*
X199853679Y-85943027D01*
X199829811Y-85972111D01*
X199808282Y-85989779D01*
X199790959Y-86007101D01*
X199777346Y-86027476D01*
X199767968Y-86050115D01*
X199763188Y-86074148D01*
X199763188Y-86098652D01*
X199767969Y-86122686D01*
X199777346Y-86145325D01*
X199790960Y-86165699D01*
X199808282Y-86183021D01*
X199829811Y-86200689D01*
X199853679Y-86229773D01*
X199871415Y-86262954D01*
X199882336Y-86298957D01*
X199886024Y-86336400D01*
X199882336Y-86373843D01*
X199871415Y-86409846D01*
X199853679Y-86443027D01*
X199829811Y-86472111D01*
X199808282Y-86489779D01*
X199790959Y-86507101D01*
X199777346Y-86527476D01*
X199767968Y-86550115D01*
X199763188Y-86574148D01*
X199763188Y-86598652D01*
X199767969Y-86622686D01*
X199777346Y-86645325D01*
X199790960Y-86665699D01*
X199808282Y-86683021D01*
X199829811Y-86700689D01*
X199853679Y-86729773D01*
X199871415Y-86762954D01*
X199882336Y-86798957D01*
X199886024Y-86836400D01*
X199882336Y-86873843D01*
X199871415Y-86909846D01*
X199853679Y-86943027D01*
X199829811Y-86972111D01*
X199808282Y-86989779D01*
X199790959Y-87007101D01*
X199777346Y-87027476D01*
X199767968Y-87050115D01*
X199763188Y-87074148D01*
X199763188Y-87098652D01*
X199767969Y-87122686D01*
X199777346Y-87145325D01*
X199790960Y-87165699D01*
X199808282Y-87183021D01*
X199829811Y-87200689D01*
X199853679Y-87229773D01*
X199871415Y-87262954D01*
X199882336Y-87298957D01*
X199886024Y-87336400D01*
X199882336Y-87373843D01*
X199871415Y-87409846D01*
X199853679Y-87443027D01*
X199829811Y-87472111D01*
X199808283Y-87489778D01*
X199790959Y-87507101D01*
X199777346Y-87527476D01*
X199767968Y-87550115D01*
X199763188Y-87574148D01*
X199763188Y-87598652D01*
X199767969Y-87622686D01*
X199777346Y-87645325D01*
X199790960Y-87665699D01*
X199808282Y-87683021D01*
X199829811Y-87700689D01*
X199853679Y-87729773D01*
X199871415Y-87762954D01*
X199882336Y-87798957D01*
X199886024Y-87836400D01*
X199882336Y-87873843D01*
X199871415Y-87909846D01*
X199853679Y-87943027D01*
X199829811Y-87972111D01*
X199800727Y-87995979D01*
X199767546Y-88013715D01*
X199731543Y-88024636D01*
X199703481Y-88027400D01*
X198752719Y-88027400D01*
X198724657Y-88024636D01*
X198688654Y-88013715D01*
X198672632Y-88005151D01*
X198649995Y-87995774D01*
X198625962Y-87990994D01*
X198601458Y-87990994D01*
X198577424Y-87995775D01*
X198554785Y-88005152D01*
X198534411Y-88018766D01*
X198517084Y-88036093D01*
X198503470Y-88056468D01*
X198494092Y-88079107D01*
X198489312Y-88103140D01*
X198489312Y-88127644D01*
X198494093Y-88151678D01*
X198503469Y-88174314D01*
X198505415Y-88177954D01*
X198516336Y-88213957D01*
X198519100Y-88242019D01*
X198519100Y-89230781D01*
X198516336Y-89258843D01*
X198505415Y-89294846D01*
X198487679Y-89328027D01*
X198463811Y-89357111D01*
X198434727Y-89380979D01*
X198401546Y-89398715D01*
X198365543Y-89409636D01*
X198328100Y-89413324D01*
X198290658Y-89409636D01*
X198254655Y-89398715D01*
X198221474Y-89380979D01*
X198192390Y-89357111D01*
X198174722Y-89335582D01*
X198157400Y-89318259D01*
X198137025Y-89304646D01*
X198114386Y-89295268D01*
X198090353Y-89290488D01*
X198065849Y-89290488D01*
X198041815Y-89295269D01*
X198019176Y-89304646D01*
X197998802Y-89318260D01*
X197981479Y-89335582D01*
X197963811Y-89357111D01*
X197934727Y-89380979D01*
X197901546Y-89398715D01*
X197865543Y-89409636D01*
X197828100Y-89413324D01*
X197790658Y-89409636D01*
X197754655Y-89398715D01*
X197721474Y-89380979D01*
X197692390Y-89357111D01*
X197674722Y-89335582D01*
X197657400Y-89318259D01*
X197637025Y-89304646D01*
X197614386Y-89295268D01*
X197590353Y-89290488D01*
X197565849Y-89290488D01*
X197541815Y-89295269D01*
X197519176Y-89304646D01*
X197498802Y-89318260D01*
X197481479Y-89335582D01*
X197463811Y-89357111D01*
X197434727Y-89380979D01*
X197401546Y-89398715D01*
X197365543Y-89409636D01*
X197328100Y-89413324D01*
X197290658Y-89409636D01*
X197254655Y-89398715D01*
X197221474Y-89380979D01*
X197192390Y-89357111D01*
X197174722Y-89335582D01*
X197157400Y-89318259D01*
X197137025Y-89304646D01*
X197114386Y-89295268D01*
X197090353Y-89290488D01*
X197065849Y-89290488D01*
X197041815Y-89295269D01*
X197019176Y-89304646D01*
X196998802Y-89318260D01*
X196981479Y-89335582D01*
X196963811Y-89357111D01*
X196934727Y-89380979D01*
X196901546Y-89398715D01*
X196865543Y-89409636D01*
X196828100Y-89413324D01*
X196790658Y-89409636D01*
X196754655Y-89398715D01*
X196721474Y-89380979D01*
X196692390Y-89357111D01*
X196674722Y-89335582D01*
X196657400Y-89318259D01*
X196637025Y-89304646D01*
X196614386Y-89295268D01*
X196590353Y-89290488D01*
X196565849Y-89290488D01*
X196541815Y-89295269D01*
X196519176Y-89304646D01*
X196498802Y-89318260D01*
X196481479Y-89335582D01*
X196463811Y-89357111D01*
X196434727Y-89380979D01*
X196401546Y-89398715D01*
X196365543Y-89409636D01*
X196328100Y-89413324D01*
X196290658Y-89409636D01*
X196254655Y-89398715D01*
X196221474Y-89380979D01*
X196192390Y-89357111D01*
X196174722Y-89335582D01*
X196157400Y-89318259D01*
X196137025Y-89304646D01*
X196114386Y-89295268D01*
X196090353Y-89290488D01*
X196065849Y-89290488D01*
X196041815Y-89295269D01*
X196019176Y-89304646D01*
X195998802Y-89318260D01*
X195981479Y-89335582D01*
X195963811Y-89357111D01*
X195934727Y-89380979D01*
X195901546Y-89398715D01*
X195865543Y-89409636D01*
X195828100Y-89413324D01*
X195790658Y-89409636D01*
X195754655Y-89398715D01*
X195721474Y-89380979D01*
X195692390Y-89357111D01*
X195674722Y-89335582D01*
X195657400Y-89318259D01*
X195637025Y-89304646D01*
X195614386Y-89295268D01*
X195590353Y-89290488D01*
X195565849Y-89290488D01*
X195541815Y-89295269D01*
X195519176Y-89304646D01*
X195498802Y-89318260D01*
X195481479Y-89335582D01*
X195463811Y-89357111D01*
X195434727Y-89380979D01*
X195401546Y-89398715D01*
X195365543Y-89409636D01*
X195328100Y-89413324D01*
X195290658Y-89409636D01*
X195254655Y-89398715D01*
X195221474Y-89380979D01*
X195192390Y-89357111D01*
X195174722Y-89335582D01*
X195157400Y-89318259D01*
X195137025Y-89304646D01*
X195114386Y-89295268D01*
X195090353Y-89290488D01*
X195065849Y-89290488D01*
X195041815Y-89295269D01*
X195019176Y-89304646D01*
X194998802Y-89318260D01*
X194981479Y-89335582D01*
X194963811Y-89357111D01*
X194934727Y-89380979D01*
X194901546Y-89398715D01*
X194865543Y-89409636D01*
X194828100Y-89413324D01*
X194790658Y-89409636D01*
X194754655Y-89398715D01*
X194721474Y-89380979D01*
X194692390Y-89357111D01*
X194674722Y-89335582D01*
X194657400Y-89318259D01*
X194637025Y-89304646D01*
X194614386Y-89295268D01*
X194590353Y-89290488D01*
X194565849Y-89290488D01*
X194541815Y-89295269D01*
X194519176Y-89304646D01*
X194498802Y-89318260D01*
X194481479Y-89335582D01*
X194463811Y-89357111D01*
X194434727Y-89380979D01*
X194401546Y-89398715D01*
X194365543Y-89409636D01*
X194328100Y-89413324D01*
X194290658Y-89409636D01*
X194254655Y-89398715D01*
X194221474Y-89380979D01*
X194192390Y-89357111D01*
X194174722Y-89335582D01*
X194157400Y-89318259D01*
X194137025Y-89304646D01*
X194114386Y-89295268D01*
X194090353Y-89290488D01*
X194065849Y-89290488D01*
X194041815Y-89295269D01*
X194019176Y-89304646D01*
X193998802Y-89318260D01*
X193981479Y-89335582D01*
X193963811Y-89357111D01*
X193934727Y-89380979D01*
X193901546Y-89398715D01*
X193865543Y-89409636D01*
X193828100Y-89413324D01*
X193790658Y-89409636D01*
X193754655Y-89398715D01*
X193721474Y-89380979D01*
X193692390Y-89357111D01*
X193674722Y-89335582D01*
X193657400Y-89318259D01*
X193637025Y-89304646D01*
X193614386Y-89295268D01*
X193590353Y-89290488D01*
X193565849Y-89290488D01*
X193541815Y-89295269D01*
X193519176Y-89304646D01*
X193498802Y-89318260D01*
X193481479Y-89335582D01*
X193463811Y-89357111D01*
X193434727Y-89380979D01*
X193401546Y-89398715D01*
X193365543Y-89409636D01*
X193328100Y-89413324D01*
X193290658Y-89409636D01*
X193254655Y-89398715D01*
X193221474Y-89380979D01*
X193192390Y-89357111D01*
X193168522Y-89328027D01*
X193150786Y-89294846D01*
X193139865Y-89258843D01*
X193137101Y-89230781D01*
X193137100Y-88242020D01*
X193139864Y-88213958D01*
X193150785Y-88177955D01*
X193152736Y-88174305D01*
X193162108Y-88151678D01*
X193166889Y-88127644D01*
X193166889Y-88103140D01*
X193162109Y-88079107D01*
X193152732Y-88056468D01*
X193152420Y-88056000D01*
X193451529Y-88056000D01*
X193453931Y-88080386D01*
X193461044Y-88103835D01*
X193472595Y-88125446D01*
X193479891Y-88135283D01*
X193481488Y-88137229D01*
X193498807Y-88154546D01*
X193519183Y-88168158D01*
X193541823Y-88177534D01*
X193565856Y-88182313D01*
X193590361Y-88182311D01*
X193614394Y-88177529D01*
X193637032Y-88168150D01*
X193657406Y-88154535D01*
X193674716Y-88137225D01*
X193676298Y-88135298D01*
X193689907Y-88114932D01*
X193699286Y-88092294D01*
X193704068Y-88068261D01*
X193704069Y-88056000D01*
X193951529Y-88056000D01*
X193953931Y-88080386D01*
X193961044Y-88103835D01*
X193972595Y-88125446D01*
X193979891Y-88135283D01*
X193981488Y-88137229D01*
X193998807Y-88154546D01*
X194019183Y-88168158D01*
X194041823Y-88177534D01*
X194065856Y-88182313D01*
X194090361Y-88182311D01*
X194114394Y-88177529D01*
X194137032Y-88168150D01*
X194157406Y-88154535D01*
X194174716Y-88137225D01*
X194176298Y-88135298D01*
X194189907Y-88114932D01*
X194199286Y-88092294D01*
X194204068Y-88068261D01*
X194204069Y-88056000D01*
X194451529Y-88056000D01*
X194453931Y-88080386D01*
X194461044Y-88103835D01*
X194472595Y-88125446D01*
X194479891Y-88135283D01*
X194481488Y-88137229D01*
X194498807Y-88154546D01*
X194519183Y-88168158D01*
X194541823Y-88177534D01*
X194565856Y-88182313D01*
X194590361Y-88182311D01*
X194614394Y-88177529D01*
X194637032Y-88168150D01*
X194657406Y-88154535D01*
X194674716Y-88137225D01*
X194676298Y-88135298D01*
X194689907Y-88114932D01*
X194699286Y-88092294D01*
X194704068Y-88068261D01*
X194704069Y-88056000D01*
X194951529Y-88056000D01*
X194953931Y-88080386D01*
X194961044Y-88103835D01*
X194972595Y-88125446D01*
X194979891Y-88135283D01*
X194981488Y-88137229D01*
X194998807Y-88154546D01*
X195019183Y-88168158D01*
X195041823Y-88177534D01*
X195065856Y-88182313D01*
X195090361Y-88182311D01*
X195114394Y-88177529D01*
X195137032Y-88168150D01*
X195157406Y-88154535D01*
X195174716Y-88137225D01*
X195176298Y-88135298D01*
X195189907Y-88114932D01*
X195199286Y-88092294D01*
X195204068Y-88068261D01*
X195204069Y-88056000D01*
X195451529Y-88056000D01*
X195453931Y-88080386D01*
X195461044Y-88103835D01*
X195472595Y-88125446D01*
X195479891Y-88135283D01*
X195481488Y-88137229D01*
X195498807Y-88154546D01*
X195519183Y-88168158D01*
X195541823Y-88177534D01*
X195565856Y-88182313D01*
X195590361Y-88182311D01*
X195614394Y-88177529D01*
X195637032Y-88168150D01*
X195657406Y-88154535D01*
X195674716Y-88137225D01*
X195676298Y-88135298D01*
X195689907Y-88114932D01*
X195699286Y-88092294D01*
X195704068Y-88068261D01*
X195704069Y-88056000D01*
X195951529Y-88056000D01*
X195953931Y-88080386D01*
X195961044Y-88103835D01*
X195972595Y-88125446D01*
X195979891Y-88135283D01*
X195981488Y-88137229D01*
X195998807Y-88154546D01*
X196019183Y-88168158D01*
X196041823Y-88177534D01*
X196065856Y-88182313D01*
X196090361Y-88182311D01*
X196114394Y-88177529D01*
X196137032Y-88168150D01*
X196157406Y-88154535D01*
X196174716Y-88137225D01*
X196176298Y-88135298D01*
X196189907Y-88114932D01*
X196199286Y-88092294D01*
X196204068Y-88068261D01*
X196204069Y-88056000D01*
X196451529Y-88056000D01*
X196453931Y-88080386D01*
X196461044Y-88103835D01*
X196472595Y-88125446D01*
X196479891Y-88135283D01*
X196481488Y-88137229D01*
X196498807Y-88154546D01*
X196519183Y-88168158D01*
X196541823Y-88177534D01*
X196565856Y-88182313D01*
X196590361Y-88182311D01*
X196614394Y-88177529D01*
X196637032Y-88168150D01*
X196657406Y-88154535D01*
X196674716Y-88137225D01*
X196676298Y-88135298D01*
X196689907Y-88114932D01*
X196699286Y-88092294D01*
X196704068Y-88068261D01*
X196704069Y-88056000D01*
X196951529Y-88056000D01*
X196953931Y-88080386D01*
X196961044Y-88103835D01*
X196972595Y-88125446D01*
X196979891Y-88135283D01*
X196981488Y-88137229D01*
X196998807Y-88154546D01*
X197019183Y-88168158D01*
X197041823Y-88177534D01*
X197065856Y-88182313D01*
X197090361Y-88182311D01*
X197114394Y-88177529D01*
X197137032Y-88168150D01*
X197157406Y-88154535D01*
X197174716Y-88137225D01*
X197176298Y-88135298D01*
X197189907Y-88114932D01*
X197199286Y-88092294D01*
X197204068Y-88068261D01*
X197204069Y-88056000D01*
X197451529Y-88056000D01*
X197453931Y-88080386D01*
X197461044Y-88103835D01*
X197472595Y-88125446D01*
X197479891Y-88135283D01*
X197481488Y-88137229D01*
X197498807Y-88154546D01*
X197519183Y-88168158D01*
X197541823Y-88177534D01*
X197565856Y-88182313D01*
X197590361Y-88182311D01*
X197614394Y-88177529D01*
X197637032Y-88168150D01*
X197657406Y-88154535D01*
X197674716Y-88137225D01*
X197676298Y-88135298D01*
X197689907Y-88114932D01*
X197699286Y-88092294D01*
X197704068Y-88068261D01*
X197704069Y-88056000D01*
X197951529Y-88056000D01*
X197953931Y-88080386D01*
X197961044Y-88103835D01*
X197972595Y-88125446D01*
X197979891Y-88135283D01*
X197981488Y-88137229D01*
X197998807Y-88154546D01*
X198019183Y-88168158D01*
X198041823Y-88177534D01*
X198065856Y-88182313D01*
X198090361Y-88182311D01*
X198114394Y-88177529D01*
X198137032Y-88168150D01*
X198157406Y-88154535D01*
X198174716Y-88137225D01*
X198176298Y-88135298D01*
X198189907Y-88114932D01*
X198199286Y-88092294D01*
X198204068Y-88068261D01*
X198204070Y-88043756D01*
X198199291Y-88019723D01*
X198189915Y-87997083D01*
X198176303Y-87976707D01*
X198158977Y-87959379D01*
X198138603Y-87945764D01*
X198115965Y-87936385D01*
X198091932Y-87931603D01*
X198079671Y-87931000D01*
X198076529Y-87931000D01*
X198052143Y-87933402D01*
X198028694Y-87940515D01*
X198007083Y-87952066D01*
X197988141Y-87967612D01*
X197972595Y-87986554D01*
X197961044Y-88008165D01*
X197953931Y-88031614D01*
X197951529Y-88056000D01*
X197704069Y-88056000D01*
X197704070Y-88043756D01*
X197699291Y-88019723D01*
X197689915Y-87997083D01*
X197676303Y-87976707D01*
X197658977Y-87959379D01*
X197638603Y-87945764D01*
X197615965Y-87936385D01*
X197591932Y-87931603D01*
X197579671Y-87931000D01*
X197576529Y-87931000D01*
X197552143Y-87933402D01*
X197528694Y-87940515D01*
X197507083Y-87952066D01*
X197488141Y-87967612D01*
X197472595Y-87986554D01*
X197461044Y-88008165D01*
X197453931Y-88031614D01*
X197451529Y-88056000D01*
X197204069Y-88056000D01*
X197204070Y-88043756D01*
X197199291Y-88019723D01*
X197189915Y-87997083D01*
X197176303Y-87976707D01*
X197158977Y-87959379D01*
X197138603Y-87945764D01*
X197115965Y-87936385D01*
X197091932Y-87931603D01*
X197079671Y-87931000D01*
X197076529Y-87931000D01*
X197052143Y-87933402D01*
X197028694Y-87940515D01*
X197007083Y-87952066D01*
X196988141Y-87967612D01*
X196972595Y-87986554D01*
X196961044Y-88008165D01*
X196953931Y-88031614D01*
X196951529Y-88056000D01*
X196704069Y-88056000D01*
X196704070Y-88043756D01*
X196699291Y-88019723D01*
X196689915Y-87997083D01*
X196676303Y-87976707D01*
X196658977Y-87959379D01*
X196638603Y-87945764D01*
X196615965Y-87936385D01*
X196591932Y-87931603D01*
X196579671Y-87931000D01*
X196576529Y-87931000D01*
X196552143Y-87933402D01*
X196528694Y-87940515D01*
X196507083Y-87952066D01*
X196488141Y-87967612D01*
X196472595Y-87986554D01*
X196461044Y-88008165D01*
X196453931Y-88031614D01*
X196451529Y-88056000D01*
X196204069Y-88056000D01*
X196204070Y-88043756D01*
X196199291Y-88019723D01*
X196189915Y-87997083D01*
X196176303Y-87976707D01*
X196158977Y-87959379D01*
X196138603Y-87945764D01*
X196115965Y-87936385D01*
X196091932Y-87931603D01*
X196079671Y-87931000D01*
X196076529Y-87931000D01*
X196052143Y-87933402D01*
X196028694Y-87940515D01*
X196007083Y-87952066D01*
X195988141Y-87967612D01*
X195972595Y-87986554D01*
X195961044Y-88008165D01*
X195953931Y-88031614D01*
X195951529Y-88056000D01*
X195704069Y-88056000D01*
X195704070Y-88043756D01*
X195699291Y-88019723D01*
X195689915Y-87997083D01*
X195676303Y-87976707D01*
X195658977Y-87959379D01*
X195638603Y-87945764D01*
X195615965Y-87936385D01*
X195591932Y-87931603D01*
X195579671Y-87931000D01*
X195576529Y-87931000D01*
X195552143Y-87933402D01*
X195528694Y-87940515D01*
X195507083Y-87952066D01*
X195488141Y-87967612D01*
X195472595Y-87986554D01*
X195461044Y-88008165D01*
X195453931Y-88031614D01*
X195451529Y-88056000D01*
X195204069Y-88056000D01*
X195204070Y-88043756D01*
X195199291Y-88019723D01*
X195189915Y-87997083D01*
X195176303Y-87976707D01*
X195158977Y-87959379D01*
X195138603Y-87945764D01*
X195115965Y-87936385D01*
X195091932Y-87931603D01*
X195079671Y-87931000D01*
X195076529Y-87931000D01*
X195052143Y-87933402D01*
X195028694Y-87940515D01*
X195007083Y-87952066D01*
X194988141Y-87967612D01*
X194972595Y-87986554D01*
X194961044Y-88008165D01*
X194953931Y-88031614D01*
X194951529Y-88056000D01*
X194704069Y-88056000D01*
X194704070Y-88043756D01*
X194699291Y-88019723D01*
X194689915Y-87997083D01*
X194676303Y-87976707D01*
X194658977Y-87959379D01*
X194638603Y-87945764D01*
X194615965Y-87936385D01*
X194591932Y-87931603D01*
X194579671Y-87931000D01*
X194576529Y-87931000D01*
X194552143Y-87933402D01*
X194528694Y-87940515D01*
X194507083Y-87952066D01*
X194488141Y-87967612D01*
X194472595Y-87986554D01*
X194461044Y-88008165D01*
X194453931Y-88031614D01*
X194451529Y-88056000D01*
X194204069Y-88056000D01*
X194204070Y-88043756D01*
X194199291Y-88019723D01*
X194189915Y-87997083D01*
X194176303Y-87976707D01*
X194158977Y-87959379D01*
X194138603Y-87945764D01*
X194115965Y-87936385D01*
X194091932Y-87931603D01*
X194079671Y-87931000D01*
X194076529Y-87931000D01*
X194052143Y-87933402D01*
X194028694Y-87940515D01*
X194007083Y-87952066D01*
X193988141Y-87967612D01*
X193972595Y-87986554D01*
X193961044Y-88008165D01*
X193953931Y-88031614D01*
X193951529Y-88056000D01*
X193704069Y-88056000D01*
X193704070Y-88043756D01*
X193699291Y-88019723D01*
X193689915Y-87997083D01*
X193676303Y-87976707D01*
X193658977Y-87959379D01*
X193638603Y-87945764D01*
X193615965Y-87936385D01*
X193591932Y-87931603D01*
X193579671Y-87931000D01*
X193576529Y-87931000D01*
X193552143Y-87933402D01*
X193528694Y-87940515D01*
X193507083Y-87952066D01*
X193488141Y-87967612D01*
X193472595Y-87986554D01*
X193461044Y-88008165D01*
X193453931Y-88031614D01*
X193451529Y-88056000D01*
X193152420Y-88056000D01*
X193139118Y-88036093D01*
X193121791Y-88018766D01*
X193101417Y-88005151D01*
X193078778Y-87995774D01*
X193054744Y-87990993D01*
X193030240Y-87990993D01*
X193006207Y-87995773D01*
X192983569Y-88005150D01*
X192967546Y-88013715D01*
X192931543Y-88024636D01*
X192903481Y-88027400D01*
X191952719Y-88027400D01*
X191924657Y-88024636D01*
X191888654Y-88013715D01*
X191855473Y-87995979D01*
X191826389Y-87972111D01*
X191802521Y-87943027D01*
X191784785Y-87909846D01*
X191773864Y-87873843D01*
X191770176Y-87836400D01*
X191773864Y-87798957D01*
X191784785Y-87762954D01*
X191802521Y-87729773D01*
X191826389Y-87700689D01*
X191847918Y-87683021D01*
X191865241Y-87665699D01*
X191878854Y-87645324D01*
X191888232Y-87622685D01*
X191893012Y-87598652D01*
X191893012Y-87574150D01*
X192963188Y-87574150D01*
X192963188Y-87598654D01*
X192967969Y-87622687D01*
X192977347Y-87645326D01*
X192990961Y-87665700D01*
X193008282Y-87683021D01*
X193029811Y-87700689D01*
X193029815Y-87700694D01*
X193034700Y-87704703D01*
X193055074Y-87718317D01*
X193077713Y-87727695D01*
X193101746Y-87732476D01*
X193126250Y-87732476D01*
X193150284Y-87727696D01*
X193172923Y-87718319D01*
X193193298Y-87704705D01*
X193210625Y-87687378D01*
X193224239Y-87667004D01*
X193233617Y-87644365D01*
X193238398Y-87620332D01*
X193239000Y-87608078D01*
X193239000Y-87567841D01*
X198421000Y-87567841D01*
X198421000Y-87604959D01*
X198423402Y-87629345D01*
X198430515Y-87652794D01*
X198442066Y-87674405D01*
X198457612Y-87693347D01*
X198476554Y-87708893D01*
X198498165Y-87720444D01*
X198521614Y-87727557D01*
X198546000Y-87729959D01*
X198570386Y-87727557D01*
X198593835Y-87720444D01*
X198615446Y-87708893D01*
X198625300Y-87701585D01*
X198626383Y-87700696D01*
X198626389Y-87700689D01*
X198647923Y-87683017D01*
X198665241Y-87665699D01*
X198678854Y-87645324D01*
X198688232Y-87622685D01*
X198693012Y-87598652D01*
X198693012Y-87574147D01*
X198688231Y-87550114D01*
X198678854Y-87527475D01*
X198665240Y-87507100D01*
X198647923Y-87489783D01*
X198626389Y-87472111D01*
X198626383Y-87472104D01*
X198625300Y-87471215D01*
X198604925Y-87457601D01*
X198582286Y-87448224D01*
X198558253Y-87443443D01*
X198533748Y-87443443D01*
X198509715Y-87448223D01*
X198487076Y-87457601D01*
X198466701Y-87471214D01*
X198449374Y-87488541D01*
X198435760Y-87508916D01*
X198426383Y-87531555D01*
X198421602Y-87555588D01*
X198421000Y-87567841D01*
X193239000Y-87567841D01*
X193239000Y-87564722D01*
X193236598Y-87540336D01*
X193229485Y-87516887D01*
X193217934Y-87495276D01*
X193202388Y-87476334D01*
X193183446Y-87460788D01*
X193161835Y-87449237D01*
X193138386Y-87442124D01*
X193114000Y-87439722D01*
X193089614Y-87442124D01*
X193066165Y-87449237D01*
X193044554Y-87460788D01*
X193034700Y-87468097D01*
X193029815Y-87472106D01*
X193029811Y-87472111D01*
X193008283Y-87489778D01*
X192990959Y-87507102D01*
X192977345Y-87527477D01*
X192967968Y-87550116D01*
X192963188Y-87574150D01*
X191893012Y-87574150D01*
X191893012Y-87574148D01*
X191888231Y-87550114D01*
X191878854Y-87527475D01*
X191865240Y-87507101D01*
X191847917Y-87489778D01*
X191826389Y-87472111D01*
X191802521Y-87443027D01*
X191784785Y-87409846D01*
X191773864Y-87373843D01*
X191770176Y-87336400D01*
X191773864Y-87298957D01*
X191784785Y-87262954D01*
X191802521Y-87229773D01*
X191826389Y-87200689D01*
X191847918Y-87183021D01*
X191865241Y-87165699D01*
X191878854Y-87145324D01*
X191888232Y-87122685D01*
X191893012Y-87098652D01*
X191893012Y-87074150D01*
X192963188Y-87074150D01*
X192963188Y-87098654D01*
X192967969Y-87122687D01*
X192977347Y-87145326D01*
X192990961Y-87165700D01*
X193008282Y-87183021D01*
X193029811Y-87200689D01*
X193029815Y-87200694D01*
X193034700Y-87204703D01*
X193055074Y-87218317D01*
X193077713Y-87227695D01*
X193101746Y-87232476D01*
X193126250Y-87232476D01*
X193150284Y-87227696D01*
X193172923Y-87218319D01*
X193193298Y-87204705D01*
X193210625Y-87187378D01*
X193224239Y-87167004D01*
X193233617Y-87144365D01*
X193238398Y-87120332D01*
X193239000Y-87108078D01*
X193239000Y-87067841D01*
X198421000Y-87067841D01*
X198421000Y-87104959D01*
X198423402Y-87129345D01*
X198430515Y-87152794D01*
X198442066Y-87174405D01*
X198457612Y-87193347D01*
X198476554Y-87208893D01*
X198498165Y-87220444D01*
X198521614Y-87227557D01*
X198546000Y-87229959D01*
X198570386Y-87227557D01*
X198593835Y-87220444D01*
X198615446Y-87208893D01*
X198625300Y-87201585D01*
X198626383Y-87200696D01*
X198626389Y-87200689D01*
X198647923Y-87183017D01*
X198665241Y-87165699D01*
X198678854Y-87145324D01*
X198688232Y-87122685D01*
X198693012Y-87098652D01*
X198693012Y-87074147D01*
X198688231Y-87050114D01*
X198678854Y-87027475D01*
X198665240Y-87007100D01*
X198647923Y-86989783D01*
X198626389Y-86972111D01*
X198626383Y-86972104D01*
X198625300Y-86971215D01*
X198604925Y-86957601D01*
X198582286Y-86948224D01*
X198558253Y-86943443D01*
X198533748Y-86943443D01*
X198509715Y-86948223D01*
X198487076Y-86957601D01*
X198466701Y-86971214D01*
X198449374Y-86988541D01*
X198435760Y-87008916D01*
X198426383Y-87031555D01*
X198421602Y-87055588D01*
X198421000Y-87067841D01*
X193239000Y-87067841D01*
X193239000Y-87064722D01*
X193236598Y-87040336D01*
X193229485Y-87016887D01*
X193217934Y-86995276D01*
X193202388Y-86976334D01*
X193183446Y-86960788D01*
X193161835Y-86949237D01*
X193138386Y-86942124D01*
X193114000Y-86939722D01*
X193089614Y-86942124D01*
X193066165Y-86949237D01*
X193044554Y-86960788D01*
X193034700Y-86968097D01*
X193029815Y-86972106D01*
X193029811Y-86972111D01*
X193008282Y-86989779D01*
X192990959Y-87007102D01*
X192977345Y-87027477D01*
X192967968Y-87050116D01*
X192963188Y-87074150D01*
X191893012Y-87074150D01*
X191893012Y-87074148D01*
X191888231Y-87050114D01*
X191878854Y-87027475D01*
X191865240Y-87007101D01*
X191847918Y-86989779D01*
X191826389Y-86972111D01*
X191802521Y-86943027D01*
X191784785Y-86909846D01*
X191773864Y-86873843D01*
X191770176Y-86836400D01*
X191773864Y-86798957D01*
X191784785Y-86762954D01*
X191802521Y-86729773D01*
X191826389Y-86700689D01*
X191847918Y-86683021D01*
X191865241Y-86665699D01*
X191878854Y-86645324D01*
X191888232Y-86622685D01*
X191893012Y-86598652D01*
X191893012Y-86574150D01*
X192963188Y-86574150D01*
X192963188Y-86598654D01*
X192967969Y-86622687D01*
X192977347Y-86645326D01*
X192990961Y-86665700D01*
X193008282Y-86683021D01*
X193029811Y-86700689D01*
X193029815Y-86700694D01*
X193034700Y-86704703D01*
X193055074Y-86718317D01*
X193077713Y-86727695D01*
X193101746Y-86732476D01*
X193126250Y-86732476D01*
X193150284Y-86727696D01*
X193172923Y-86718319D01*
X193193298Y-86704705D01*
X193210625Y-86687378D01*
X193224239Y-86667004D01*
X193233617Y-86644365D01*
X193238398Y-86620332D01*
X193239000Y-86608078D01*
X193239000Y-86567841D01*
X198421000Y-86567841D01*
X198421000Y-86604959D01*
X198423402Y-86629345D01*
X198430515Y-86652794D01*
X198442066Y-86674405D01*
X198457612Y-86693347D01*
X198476554Y-86708893D01*
X198498165Y-86720444D01*
X198521614Y-86727557D01*
X198546000Y-86729959D01*
X198570386Y-86727557D01*
X198593835Y-86720444D01*
X198615446Y-86708893D01*
X198625300Y-86701585D01*
X198626383Y-86700696D01*
X198626389Y-86700689D01*
X198647923Y-86683017D01*
X198665241Y-86665699D01*
X198678854Y-86645324D01*
X198688232Y-86622685D01*
X198693012Y-86598652D01*
X198693012Y-86574147D01*
X198688231Y-86550114D01*
X198678854Y-86527475D01*
X198665240Y-86507100D01*
X198647923Y-86489783D01*
X198626389Y-86472111D01*
X198626383Y-86472104D01*
X198625300Y-86471215D01*
X198604925Y-86457601D01*
X198582286Y-86448224D01*
X198558253Y-86443443D01*
X198533748Y-86443443D01*
X198509715Y-86448223D01*
X198487076Y-86457601D01*
X198466701Y-86471214D01*
X198449374Y-86488541D01*
X198435760Y-86508916D01*
X198426383Y-86531555D01*
X198421602Y-86555588D01*
X198421000Y-86567841D01*
X193239000Y-86567841D01*
X193239000Y-86564722D01*
X193236598Y-86540336D01*
X193229485Y-86516887D01*
X193217934Y-86495276D01*
X193202388Y-86476334D01*
X193183446Y-86460788D01*
X193161835Y-86449237D01*
X193138386Y-86442124D01*
X193114000Y-86439722D01*
X193089614Y-86442124D01*
X193066165Y-86449237D01*
X193044554Y-86460788D01*
X193034700Y-86468097D01*
X193029815Y-86472106D01*
X193029811Y-86472111D01*
X193008282Y-86489779D01*
X192990959Y-86507102D01*
X192977345Y-86527477D01*
X192967968Y-86550116D01*
X192963188Y-86574150D01*
X191893012Y-86574150D01*
X191893012Y-86574148D01*
X191888231Y-86550114D01*
X191878854Y-86527475D01*
X191865240Y-86507101D01*
X191847918Y-86489779D01*
X191826389Y-86472111D01*
X191802521Y-86443027D01*
X191784785Y-86409846D01*
X191773864Y-86373843D01*
X191770176Y-86336400D01*
X191773864Y-86298957D01*
X191784785Y-86262954D01*
X191802521Y-86229773D01*
X191826389Y-86200689D01*
X191847918Y-86183021D01*
X191865241Y-86165699D01*
X191878854Y-86145324D01*
X191888232Y-86122685D01*
X191893012Y-86098652D01*
X191893012Y-86074150D01*
X192963188Y-86074150D01*
X192963188Y-86098654D01*
X192967969Y-86122687D01*
X192977347Y-86145326D01*
X192990961Y-86165700D01*
X193008282Y-86183021D01*
X193029811Y-86200689D01*
X193029815Y-86200694D01*
X193034700Y-86204703D01*
X193055074Y-86218317D01*
X193077713Y-86227695D01*
X193101746Y-86232476D01*
X193126250Y-86232476D01*
X193150284Y-86227696D01*
X193172923Y-86218319D01*
X193193298Y-86204705D01*
X193210625Y-86187378D01*
X193224239Y-86167004D01*
X193233617Y-86144365D01*
X193238398Y-86120332D01*
X193239000Y-86108078D01*
X193239000Y-86067841D01*
X198421000Y-86067841D01*
X198421000Y-86104959D01*
X198423402Y-86129345D01*
X198430515Y-86152794D01*
X198442066Y-86174405D01*
X198457612Y-86193347D01*
X198476554Y-86208893D01*
X198498165Y-86220444D01*
X198521614Y-86227557D01*
X198546000Y-86229959D01*
X198570386Y-86227557D01*
X198593835Y-86220444D01*
X198615446Y-86208893D01*
X198625300Y-86201585D01*
X198626383Y-86200696D01*
X198626389Y-86200689D01*
X198647923Y-86183017D01*
X198665241Y-86165699D01*
X198678854Y-86145324D01*
X198688232Y-86122685D01*
X198693012Y-86098652D01*
X198693012Y-86074147D01*
X198688231Y-86050114D01*
X198678854Y-86027475D01*
X198665240Y-86007100D01*
X198647923Y-85989783D01*
X198626389Y-85972111D01*
X198626383Y-85972104D01*
X198625300Y-85971215D01*
X198604925Y-85957601D01*
X198582286Y-85948224D01*
X198558253Y-85943443D01*
X198533748Y-85943443D01*
X198509715Y-85948223D01*
X198487076Y-85957601D01*
X198466701Y-85971214D01*
X198449374Y-85988541D01*
X198435760Y-86008916D01*
X198426383Y-86031555D01*
X198421602Y-86055588D01*
X198421000Y-86067841D01*
X193239000Y-86067841D01*
X193239000Y-86064722D01*
X193236598Y-86040336D01*
X193229485Y-86016887D01*
X193217934Y-85995276D01*
X193202388Y-85976334D01*
X193183446Y-85960788D01*
X193161835Y-85949237D01*
X193138386Y-85942124D01*
X193114000Y-85939722D01*
X193089614Y-85942124D01*
X193066165Y-85949237D01*
X193044554Y-85960788D01*
X193034700Y-85968097D01*
X193029815Y-85972106D01*
X193029811Y-85972111D01*
X193008282Y-85989779D01*
X192990959Y-86007102D01*
X192977345Y-86027477D01*
X192967968Y-86050116D01*
X192963188Y-86074150D01*
X191893012Y-86074150D01*
X191893012Y-86074148D01*
X191888231Y-86050114D01*
X191878854Y-86027475D01*
X191865240Y-86007101D01*
X191847918Y-85989779D01*
X191826389Y-85972111D01*
X191802521Y-85943027D01*
X191784785Y-85909846D01*
X191773864Y-85873843D01*
X191770176Y-85836400D01*
X191773864Y-85798957D01*
X191784785Y-85762954D01*
X191802521Y-85729773D01*
X191826389Y-85700689D01*
X191847918Y-85683021D01*
X191865241Y-85665699D01*
X191878854Y-85645324D01*
X191888232Y-85622685D01*
X191893012Y-85598652D01*
X191893012Y-85574150D01*
X192963188Y-85574150D01*
X192963188Y-85598654D01*
X192967969Y-85622687D01*
X192977347Y-85645326D01*
X192990961Y-85665700D01*
X193008282Y-85683021D01*
X193029811Y-85700689D01*
X193029815Y-85700694D01*
X193034700Y-85704703D01*
X193055074Y-85718317D01*
X193077713Y-85727695D01*
X193101746Y-85732476D01*
X193126250Y-85732476D01*
X193150284Y-85727696D01*
X193172923Y-85718319D01*
X193193298Y-85704705D01*
X193210625Y-85687378D01*
X193224239Y-85667004D01*
X193233617Y-85644365D01*
X193238398Y-85620332D01*
X193239000Y-85608078D01*
X193239000Y-85567841D01*
X198421000Y-85567841D01*
X198421000Y-85604959D01*
X198423402Y-85629345D01*
X198430515Y-85652794D01*
X198442066Y-85674405D01*
X198457612Y-85693347D01*
X198476554Y-85708893D01*
X198498165Y-85720444D01*
X198521614Y-85727557D01*
X198546000Y-85729959D01*
X198570386Y-85727557D01*
X198593835Y-85720444D01*
X198615446Y-85708893D01*
X198625300Y-85701585D01*
X198626383Y-85700696D01*
X198626389Y-85700689D01*
X198647923Y-85683017D01*
X198665241Y-85665699D01*
X198678854Y-85645324D01*
X198688232Y-85622685D01*
X198693012Y-85598652D01*
X198693012Y-85574147D01*
X198688231Y-85550114D01*
X198678854Y-85527475D01*
X198665240Y-85507100D01*
X198647923Y-85489783D01*
X198626389Y-85472111D01*
X198626383Y-85472104D01*
X198625300Y-85471215D01*
X198604925Y-85457601D01*
X198582286Y-85448224D01*
X198558253Y-85443443D01*
X198533748Y-85443443D01*
X198509715Y-85448223D01*
X198487076Y-85457601D01*
X198466701Y-85471214D01*
X198449374Y-85488541D01*
X198435760Y-85508916D01*
X198426383Y-85531555D01*
X198421602Y-85555588D01*
X198421000Y-85567841D01*
X193239000Y-85567841D01*
X193239000Y-85564722D01*
X193236598Y-85540336D01*
X193229485Y-85516887D01*
X193217934Y-85495276D01*
X193202388Y-85476334D01*
X193183446Y-85460788D01*
X193161835Y-85449237D01*
X193138386Y-85442124D01*
X193114000Y-85439722D01*
X193089614Y-85442124D01*
X193066165Y-85449237D01*
X193044554Y-85460788D01*
X193034700Y-85468097D01*
X193029815Y-85472106D01*
X193029811Y-85472111D01*
X193008282Y-85489779D01*
X192990959Y-85507102D01*
X192977345Y-85527477D01*
X192967968Y-85550116D01*
X192963188Y-85574150D01*
X191893012Y-85574150D01*
X191893012Y-85574148D01*
X191888231Y-85550114D01*
X191878854Y-85527475D01*
X191865240Y-85507101D01*
X191847918Y-85489779D01*
X191826389Y-85472111D01*
X191802521Y-85443027D01*
X191784785Y-85409846D01*
X191773864Y-85373843D01*
X191770176Y-85336400D01*
X191773864Y-85298957D01*
X191784785Y-85262954D01*
X191802521Y-85229773D01*
X191826389Y-85200689D01*
X191847918Y-85183021D01*
X191865241Y-85165699D01*
X191878854Y-85145324D01*
X191888232Y-85122685D01*
X191893012Y-85098652D01*
X191893012Y-85074150D01*
X192963188Y-85074150D01*
X192963188Y-85098654D01*
X192967969Y-85122687D01*
X192977347Y-85145326D01*
X192990961Y-85165700D01*
X193008282Y-85183021D01*
X193029811Y-85200689D01*
X193029815Y-85200694D01*
X193034700Y-85204703D01*
X193055074Y-85218317D01*
X193077713Y-85227695D01*
X193101746Y-85232476D01*
X193126250Y-85232476D01*
X193150284Y-85227696D01*
X193172923Y-85218319D01*
X193193298Y-85204705D01*
X193210625Y-85187378D01*
X193224239Y-85167004D01*
X193233617Y-85144365D01*
X193238398Y-85120332D01*
X193239000Y-85108078D01*
X193239000Y-85067841D01*
X198421000Y-85067841D01*
X198421000Y-85104959D01*
X198423402Y-85129345D01*
X198430515Y-85152794D01*
X198442066Y-85174405D01*
X198457612Y-85193347D01*
X198476554Y-85208893D01*
X198498165Y-85220444D01*
X198521614Y-85227557D01*
X198546000Y-85229959D01*
X198570386Y-85227557D01*
X198593835Y-85220444D01*
X198615446Y-85208893D01*
X198625300Y-85201585D01*
X198626383Y-85200696D01*
X198626389Y-85200689D01*
X198647923Y-85183017D01*
X198665241Y-85165699D01*
X198678854Y-85145324D01*
X198688232Y-85122685D01*
X198693012Y-85098652D01*
X198693012Y-85074147D01*
X198688231Y-85050114D01*
X198678854Y-85027475D01*
X198665240Y-85007100D01*
X198647923Y-84989783D01*
X198626389Y-84972111D01*
X198626383Y-84972104D01*
X198625300Y-84971215D01*
X198604925Y-84957601D01*
X198582286Y-84948224D01*
X198558253Y-84943443D01*
X198533748Y-84943443D01*
X198509715Y-84948223D01*
X198487076Y-84957601D01*
X198466701Y-84971214D01*
X198449374Y-84988541D01*
X198435760Y-85008916D01*
X198426383Y-85031555D01*
X198421602Y-85055588D01*
X198421000Y-85067841D01*
X193239000Y-85067841D01*
X193239000Y-85064722D01*
X193236598Y-85040336D01*
X193229485Y-85016887D01*
X193217934Y-84995276D01*
X193202388Y-84976334D01*
X193183446Y-84960788D01*
X193161835Y-84949237D01*
X193138386Y-84942124D01*
X193114000Y-84939722D01*
X193089614Y-84942124D01*
X193066165Y-84949237D01*
X193044554Y-84960788D01*
X193034700Y-84968097D01*
X193029815Y-84972106D01*
X193029811Y-84972111D01*
X193008282Y-84989779D01*
X192990959Y-85007102D01*
X192977345Y-85027477D01*
X192967968Y-85050116D01*
X192963188Y-85074150D01*
X191893012Y-85074150D01*
X191893012Y-85074148D01*
X191888231Y-85050114D01*
X191878854Y-85027475D01*
X191865240Y-85007101D01*
X191847918Y-84989779D01*
X191826389Y-84972111D01*
X191802521Y-84943027D01*
X191784785Y-84909846D01*
X191773864Y-84873843D01*
X191770176Y-84836400D01*
X191773864Y-84798957D01*
X191784785Y-84762954D01*
X191802521Y-84729773D01*
X191826389Y-84700689D01*
X191847918Y-84683021D01*
X191865241Y-84665699D01*
X191878854Y-84645324D01*
X191888232Y-84622685D01*
X191893012Y-84598652D01*
X191893012Y-84574150D01*
X192963188Y-84574150D01*
X192963188Y-84598654D01*
X192967969Y-84622687D01*
X192977347Y-84645326D01*
X192990961Y-84665700D01*
X193008282Y-84683021D01*
X193029811Y-84700689D01*
X193029815Y-84700694D01*
X193034700Y-84704703D01*
X193055074Y-84718317D01*
X193077713Y-84727695D01*
X193101746Y-84732476D01*
X193126250Y-84732476D01*
X193150284Y-84727696D01*
X193172923Y-84718319D01*
X193193298Y-84704705D01*
X193210625Y-84687378D01*
X193224239Y-84667004D01*
X193233617Y-84644365D01*
X193238398Y-84620332D01*
X193239000Y-84608078D01*
X193239000Y-84567841D01*
X198421000Y-84567841D01*
X198421000Y-84604959D01*
X198423402Y-84629345D01*
X198430515Y-84652794D01*
X198442066Y-84674405D01*
X198457612Y-84693347D01*
X198476554Y-84708893D01*
X198498165Y-84720444D01*
X198521614Y-84727557D01*
X198546000Y-84729959D01*
X198570386Y-84727557D01*
X198593835Y-84720444D01*
X198615446Y-84708893D01*
X198625300Y-84701585D01*
X198626383Y-84700696D01*
X198626389Y-84700689D01*
X198647923Y-84683017D01*
X198665241Y-84665699D01*
X198678854Y-84645324D01*
X198688232Y-84622685D01*
X198693012Y-84598652D01*
X198693012Y-84574147D01*
X198688231Y-84550114D01*
X198678854Y-84527475D01*
X198665240Y-84507100D01*
X198647923Y-84489783D01*
X198626389Y-84472111D01*
X198626383Y-84472104D01*
X198625300Y-84471215D01*
X198604925Y-84457601D01*
X198582286Y-84448224D01*
X198558253Y-84443443D01*
X198533748Y-84443443D01*
X198509715Y-84448223D01*
X198487076Y-84457601D01*
X198466701Y-84471214D01*
X198449374Y-84488541D01*
X198435760Y-84508916D01*
X198426383Y-84531555D01*
X198421602Y-84555588D01*
X198421000Y-84567841D01*
X193239000Y-84567841D01*
X193239000Y-84564722D01*
X193236598Y-84540336D01*
X193229485Y-84516887D01*
X193217934Y-84495276D01*
X193202388Y-84476334D01*
X193183446Y-84460788D01*
X193161835Y-84449237D01*
X193138386Y-84442124D01*
X193114000Y-84439722D01*
X193089614Y-84442124D01*
X193066165Y-84449237D01*
X193044554Y-84460788D01*
X193034700Y-84468097D01*
X193029815Y-84472106D01*
X193029811Y-84472111D01*
X193008282Y-84489779D01*
X192990959Y-84507102D01*
X192977345Y-84527477D01*
X192967968Y-84550116D01*
X192963188Y-84574150D01*
X191893012Y-84574150D01*
X191893012Y-84574148D01*
X191888231Y-84550114D01*
X191878854Y-84527475D01*
X191865240Y-84507101D01*
X191847918Y-84489779D01*
X191826389Y-84472111D01*
X191802521Y-84443027D01*
X191784785Y-84409846D01*
X191773864Y-84373843D01*
X191770176Y-84336400D01*
X191773864Y-84298957D01*
X191784785Y-84262954D01*
X191802521Y-84229773D01*
X191826389Y-84200689D01*
X191847918Y-84183021D01*
X191865241Y-84165699D01*
X191878854Y-84145324D01*
X191888232Y-84122685D01*
X191893012Y-84098652D01*
X191893012Y-84074150D01*
X192963188Y-84074150D01*
X192963188Y-84098654D01*
X192967969Y-84122687D01*
X192977347Y-84145326D01*
X192990961Y-84165700D01*
X193008282Y-84183021D01*
X193029811Y-84200689D01*
X193029815Y-84200694D01*
X193034700Y-84204703D01*
X193055074Y-84218317D01*
X193077713Y-84227695D01*
X193101746Y-84232476D01*
X193126250Y-84232476D01*
X193150284Y-84227696D01*
X193172923Y-84218319D01*
X193193298Y-84204705D01*
X193210625Y-84187378D01*
X193224239Y-84167004D01*
X193233617Y-84144365D01*
X193238398Y-84120332D01*
X193239000Y-84108078D01*
X193239000Y-84067841D01*
X198421000Y-84067841D01*
X198421000Y-84104959D01*
X198423402Y-84129345D01*
X198430515Y-84152794D01*
X198442066Y-84174405D01*
X198457612Y-84193347D01*
X198476554Y-84208893D01*
X198498165Y-84220444D01*
X198521614Y-84227557D01*
X198546000Y-84229959D01*
X198570386Y-84227557D01*
X198593835Y-84220444D01*
X198615446Y-84208893D01*
X198625300Y-84201585D01*
X198626383Y-84200696D01*
X198626389Y-84200689D01*
X198647923Y-84183017D01*
X198665241Y-84165699D01*
X198678854Y-84145324D01*
X198688232Y-84122685D01*
X198693012Y-84098652D01*
X198693012Y-84074147D01*
X198688231Y-84050114D01*
X198678854Y-84027475D01*
X198665240Y-84007100D01*
X198647923Y-83989783D01*
X198626389Y-83972111D01*
X198626383Y-83972104D01*
X198625300Y-83971215D01*
X198604925Y-83957601D01*
X198582286Y-83948224D01*
X198558253Y-83943443D01*
X198533748Y-83943443D01*
X198509715Y-83948223D01*
X198487076Y-83957601D01*
X198466701Y-83971214D01*
X198449374Y-83988541D01*
X198435760Y-84008916D01*
X198426383Y-84031555D01*
X198421602Y-84055588D01*
X198421000Y-84067841D01*
X193239000Y-84067841D01*
X193239000Y-84064722D01*
X193236598Y-84040336D01*
X193229485Y-84016887D01*
X193217934Y-83995276D01*
X193202388Y-83976334D01*
X193183446Y-83960788D01*
X193161835Y-83949237D01*
X193138386Y-83942124D01*
X193114000Y-83939722D01*
X193089614Y-83942124D01*
X193066165Y-83949237D01*
X193044554Y-83960788D01*
X193034700Y-83968097D01*
X193029815Y-83972106D01*
X193029811Y-83972111D01*
X193008282Y-83989779D01*
X192990959Y-84007102D01*
X192977345Y-84027477D01*
X192967968Y-84050116D01*
X192963188Y-84074150D01*
X191893012Y-84074150D01*
X191893012Y-84074148D01*
X191888231Y-84050114D01*
X191878854Y-84027475D01*
X191865240Y-84007101D01*
X191847918Y-83989779D01*
X191826389Y-83972111D01*
X191802521Y-83943027D01*
X191784785Y-83909846D01*
X191773864Y-83873843D01*
X191770176Y-83836400D01*
X191773864Y-83798957D01*
X191784785Y-83762954D01*
X191802521Y-83729773D01*
X191826389Y-83700689D01*
X191847918Y-83683021D01*
X191865241Y-83665699D01*
X191878854Y-83645324D01*
X191888232Y-83622685D01*
X191893012Y-83598652D01*
X191893012Y-83574150D01*
X192963188Y-83574150D01*
X192963188Y-83598654D01*
X192967969Y-83622687D01*
X192977347Y-83645326D01*
X192990961Y-83665700D01*
X193008282Y-83683021D01*
X193029811Y-83700689D01*
X193029815Y-83700694D01*
X193034700Y-83704703D01*
X193055074Y-83718317D01*
X193077713Y-83727695D01*
X193101746Y-83732476D01*
X193126250Y-83732476D01*
X193150284Y-83727696D01*
X193172923Y-83718319D01*
X193193298Y-83704705D01*
X193210625Y-83687378D01*
X193224239Y-83667004D01*
X193233617Y-83644365D01*
X193238398Y-83620332D01*
X193239000Y-83608078D01*
X193239000Y-83567841D01*
X198421000Y-83567841D01*
X198421000Y-83604959D01*
X198423402Y-83629345D01*
X198430515Y-83652794D01*
X198442066Y-83674405D01*
X198457612Y-83693347D01*
X198476554Y-83708893D01*
X198498165Y-83720444D01*
X198521614Y-83727557D01*
X198546000Y-83729959D01*
X198570386Y-83727557D01*
X198593835Y-83720444D01*
X198615446Y-83708893D01*
X198625300Y-83701585D01*
X198626383Y-83700696D01*
X198626389Y-83700689D01*
X198647923Y-83683017D01*
X198665241Y-83665699D01*
X198678854Y-83645324D01*
X198688232Y-83622685D01*
X198693012Y-83598652D01*
X198693012Y-83574147D01*
X198688231Y-83550114D01*
X198678854Y-83527475D01*
X198665240Y-83507100D01*
X198647923Y-83489783D01*
X198626389Y-83472111D01*
X198626383Y-83472104D01*
X198625300Y-83471215D01*
X198604925Y-83457601D01*
X198582286Y-83448224D01*
X198558253Y-83443443D01*
X198533748Y-83443443D01*
X198509715Y-83448223D01*
X198487076Y-83457601D01*
X198466701Y-83471214D01*
X198449374Y-83488541D01*
X198435760Y-83508916D01*
X198426383Y-83531555D01*
X198421602Y-83555588D01*
X198421000Y-83567841D01*
X193239000Y-83567841D01*
X193239000Y-83564722D01*
X193236598Y-83540336D01*
X193229485Y-83516887D01*
X193217934Y-83495276D01*
X193202388Y-83476334D01*
X193183446Y-83460788D01*
X193161835Y-83449237D01*
X193138386Y-83442124D01*
X193114000Y-83439722D01*
X193089614Y-83442124D01*
X193066165Y-83449237D01*
X193044554Y-83460788D01*
X193034700Y-83468097D01*
X193029815Y-83472106D01*
X193029811Y-83472111D01*
X193008282Y-83489779D01*
X192990959Y-83507102D01*
X192977345Y-83527477D01*
X192967968Y-83550116D01*
X192963188Y-83574150D01*
X191893012Y-83574150D01*
X191893012Y-83574148D01*
X191888231Y-83550114D01*
X191878854Y-83527475D01*
X191865240Y-83507101D01*
X191847918Y-83489779D01*
X191826389Y-83472111D01*
X191802521Y-83443027D01*
X191784785Y-83409846D01*
X191773864Y-83373843D01*
X191770176Y-83336400D01*
X191773864Y-83298957D01*
X191784785Y-83262954D01*
X191802521Y-83229773D01*
X191826389Y-83200689D01*
X191847918Y-83183021D01*
X191865241Y-83165699D01*
X191878854Y-83145324D01*
X191888232Y-83122685D01*
X191893012Y-83098652D01*
X191893012Y-83074150D01*
X192963188Y-83074150D01*
X192963188Y-83098654D01*
X192967969Y-83122687D01*
X192977347Y-83145326D01*
X192990961Y-83165700D01*
X193008282Y-83183021D01*
X193029811Y-83200689D01*
X193029815Y-83200694D01*
X193034700Y-83204703D01*
X193055074Y-83218317D01*
X193077713Y-83227695D01*
X193101746Y-83232476D01*
X193126250Y-83232476D01*
X193150284Y-83227696D01*
X193172923Y-83218319D01*
X193193298Y-83204705D01*
X193210625Y-83187378D01*
X193224239Y-83167004D01*
X193233617Y-83144365D01*
X193238398Y-83120332D01*
X193239000Y-83108078D01*
X193239000Y-83067841D01*
X198421000Y-83067841D01*
X198421000Y-83104959D01*
X198423402Y-83129345D01*
X198430515Y-83152794D01*
X198442066Y-83174405D01*
X198457612Y-83193347D01*
X198476554Y-83208893D01*
X198498165Y-83220444D01*
X198521614Y-83227557D01*
X198546000Y-83229959D01*
X198570386Y-83227557D01*
X198593835Y-83220444D01*
X198615446Y-83208893D01*
X198625300Y-83201585D01*
X198626383Y-83200696D01*
X198626389Y-83200689D01*
X198647923Y-83183017D01*
X198665241Y-83165699D01*
X198678854Y-83145324D01*
X198688232Y-83122685D01*
X198693012Y-83098652D01*
X198693012Y-83074147D01*
X198688231Y-83050114D01*
X198678854Y-83027475D01*
X198665240Y-83007100D01*
X198647923Y-82989783D01*
X198626389Y-82972111D01*
X198626383Y-82972104D01*
X198625300Y-82971215D01*
X198604925Y-82957601D01*
X198582286Y-82948224D01*
X198558253Y-82943443D01*
X198533748Y-82943443D01*
X198509715Y-82948223D01*
X198487076Y-82957601D01*
X198466701Y-82971214D01*
X198449374Y-82988541D01*
X198435760Y-83008916D01*
X198426383Y-83031555D01*
X198421602Y-83055588D01*
X198421000Y-83067841D01*
X193239000Y-83067841D01*
X193239000Y-83064722D01*
X193236598Y-83040336D01*
X193229485Y-83016887D01*
X193217934Y-82995276D01*
X193202388Y-82976334D01*
X193183446Y-82960788D01*
X193161835Y-82949237D01*
X193138386Y-82942124D01*
X193114000Y-82939722D01*
X193089614Y-82942124D01*
X193066165Y-82949237D01*
X193044554Y-82960788D01*
X193034700Y-82968097D01*
X193029815Y-82972106D01*
X193029811Y-82972111D01*
X193008282Y-82989779D01*
X192990959Y-83007102D01*
X192977345Y-83027477D01*
X192967968Y-83050116D01*
X192963188Y-83074150D01*
X191893012Y-83074150D01*
X191893012Y-83074148D01*
X191888231Y-83050114D01*
X191878854Y-83027475D01*
X191865240Y-83007101D01*
X191847918Y-82989779D01*
X191826389Y-82972111D01*
X191802521Y-82943027D01*
X191784785Y-82909846D01*
X191773864Y-82873843D01*
X191770176Y-82836400D01*
X191773864Y-82798957D01*
X191784785Y-82762954D01*
X191802521Y-82729773D01*
X191826389Y-82700689D01*
X191855473Y-82676821D01*
X191888654Y-82659085D01*
X191924657Y-82648164D01*
X191952719Y-82645400D01*
X192903481Y-82645400D01*
X192931543Y-82648164D01*
X192967546Y-82659085D01*
X192983569Y-82667650D01*
X193006204Y-82677026D01*
X193030237Y-82681807D01*
X193054742Y-82681807D01*
X193078775Y-82677027D01*
X193101414Y-82667650D01*
X193121789Y-82654036D01*
X193139116Y-82636709D01*
X193139428Y-82636241D01*
X193446221Y-82636241D01*
X193450999Y-82660275D01*
X193460375Y-82682915D01*
X193473987Y-82703291D01*
X193491312Y-82720619D01*
X193511686Y-82734235D01*
X193534324Y-82743614D01*
X193558357Y-82748397D01*
X193570620Y-82749000D01*
X193585581Y-82749000D01*
X193609967Y-82746598D01*
X193633416Y-82739485D01*
X193655027Y-82727934D01*
X193673969Y-82712388D01*
X193689515Y-82693446D01*
X193701066Y-82671835D01*
X193708179Y-82648386D01*
X193709375Y-82636241D01*
X193946221Y-82636241D01*
X193950999Y-82660275D01*
X193960375Y-82682915D01*
X193973987Y-82703291D01*
X193991312Y-82720619D01*
X194011686Y-82734235D01*
X194034324Y-82743614D01*
X194058357Y-82748397D01*
X194070620Y-82749000D01*
X194085581Y-82749000D01*
X194109967Y-82746598D01*
X194133416Y-82739485D01*
X194155027Y-82727934D01*
X194173969Y-82712388D01*
X194189515Y-82693446D01*
X194201066Y-82671835D01*
X194208179Y-82648386D01*
X194209375Y-82636241D01*
X194446221Y-82636241D01*
X194450999Y-82660275D01*
X194460375Y-82682915D01*
X194473987Y-82703291D01*
X194491312Y-82720619D01*
X194511686Y-82734235D01*
X194534324Y-82743614D01*
X194558357Y-82748397D01*
X194570620Y-82749000D01*
X194585581Y-82749000D01*
X194609967Y-82746598D01*
X194633416Y-82739485D01*
X194655027Y-82727934D01*
X194673969Y-82712388D01*
X194689515Y-82693446D01*
X194701066Y-82671835D01*
X194708179Y-82648386D01*
X194709375Y-82636241D01*
X194946221Y-82636241D01*
X194950999Y-82660275D01*
X194960375Y-82682915D01*
X194973987Y-82703291D01*
X194991312Y-82720619D01*
X195011686Y-82734235D01*
X195034324Y-82743614D01*
X195058357Y-82748397D01*
X195070620Y-82749000D01*
X195085581Y-82749000D01*
X195109967Y-82746598D01*
X195133416Y-82739485D01*
X195155027Y-82727934D01*
X195173969Y-82712388D01*
X195189515Y-82693446D01*
X195201066Y-82671835D01*
X195208179Y-82648386D01*
X195209375Y-82636241D01*
X195446221Y-82636241D01*
X195450999Y-82660275D01*
X195460375Y-82682915D01*
X195473987Y-82703291D01*
X195491312Y-82720619D01*
X195511686Y-82734235D01*
X195534324Y-82743614D01*
X195558357Y-82748397D01*
X195570620Y-82749000D01*
X195585581Y-82749000D01*
X195609967Y-82746598D01*
X195633416Y-82739485D01*
X195655027Y-82727934D01*
X195673969Y-82712388D01*
X195689515Y-82693446D01*
X195701066Y-82671835D01*
X195708179Y-82648386D01*
X195709375Y-82636241D01*
X195946221Y-82636241D01*
X195950999Y-82660275D01*
X195960375Y-82682915D01*
X195973987Y-82703291D01*
X195991312Y-82720619D01*
X196011686Y-82734235D01*
X196034324Y-82743614D01*
X196058357Y-82748397D01*
X196070620Y-82749000D01*
X196085581Y-82749000D01*
X196109967Y-82746598D01*
X196133416Y-82739485D01*
X196155027Y-82727934D01*
X196173969Y-82712388D01*
X196189515Y-82693446D01*
X196201066Y-82671835D01*
X196208179Y-82648386D01*
X196209375Y-82636241D01*
X196446221Y-82636241D01*
X196450999Y-82660275D01*
X196460375Y-82682915D01*
X196473987Y-82703291D01*
X196491312Y-82720619D01*
X196511686Y-82734235D01*
X196534324Y-82743614D01*
X196558357Y-82748397D01*
X196570620Y-82749000D01*
X196585581Y-82749000D01*
X196609967Y-82746598D01*
X196633416Y-82739485D01*
X196655027Y-82727934D01*
X196673969Y-82712388D01*
X196689515Y-82693446D01*
X196701066Y-82671835D01*
X196708179Y-82648386D01*
X196709375Y-82636241D01*
X196946221Y-82636241D01*
X196950999Y-82660275D01*
X196960375Y-82682915D01*
X196973987Y-82703291D01*
X196991312Y-82720619D01*
X197011686Y-82734235D01*
X197034324Y-82743614D01*
X197058357Y-82748397D01*
X197070620Y-82749000D01*
X197085581Y-82749000D01*
X197109967Y-82746598D01*
X197133416Y-82739485D01*
X197155027Y-82727934D01*
X197173969Y-82712388D01*
X197189515Y-82693446D01*
X197201066Y-82671835D01*
X197208179Y-82648386D01*
X197209375Y-82636241D01*
X197446221Y-82636241D01*
X197450999Y-82660275D01*
X197460375Y-82682915D01*
X197473987Y-82703291D01*
X197491312Y-82720619D01*
X197511686Y-82734235D01*
X197534324Y-82743614D01*
X197558357Y-82748397D01*
X197570620Y-82749000D01*
X197585581Y-82749000D01*
X197609967Y-82746598D01*
X197633416Y-82739485D01*
X197655027Y-82727934D01*
X197673969Y-82712388D01*
X197689515Y-82693446D01*
X197701066Y-82671835D01*
X197708179Y-82648386D01*
X197709375Y-82636241D01*
X197946221Y-82636241D01*
X197950999Y-82660275D01*
X197960375Y-82682915D01*
X197973987Y-82703291D01*
X197991312Y-82720619D01*
X198011686Y-82734235D01*
X198034324Y-82743614D01*
X198058357Y-82748397D01*
X198070620Y-82749000D01*
X198085581Y-82749000D01*
X198109967Y-82746598D01*
X198133416Y-82739485D01*
X198155027Y-82727934D01*
X198173969Y-82712388D01*
X198189515Y-82693446D01*
X198201066Y-82671835D01*
X198208179Y-82648386D01*
X198210581Y-82624000D01*
X198208179Y-82599614D01*
X198201066Y-82576165D01*
X198189515Y-82554554D01*
X198182225Y-82544724D01*
X198174718Y-82535577D01*
X198157398Y-82518258D01*
X198137023Y-82504645D01*
X198114384Y-82495268D01*
X198090350Y-82490488D01*
X198065846Y-82490488D01*
X198041813Y-82495269D01*
X198019174Y-82504647D01*
X197998800Y-82518261D01*
X197981483Y-82535577D01*
X197973993Y-82544703D01*
X197960385Y-82565066D01*
X197951006Y-82587704D01*
X197946223Y-82611737D01*
X197946221Y-82636241D01*
X197709375Y-82636241D01*
X197710581Y-82624000D01*
X197708179Y-82599614D01*
X197701066Y-82576165D01*
X197689515Y-82554554D01*
X197682225Y-82544724D01*
X197674718Y-82535577D01*
X197657398Y-82518258D01*
X197637023Y-82504645D01*
X197614384Y-82495268D01*
X197590350Y-82490488D01*
X197565846Y-82490488D01*
X197541813Y-82495269D01*
X197519174Y-82504647D01*
X197498800Y-82518261D01*
X197481483Y-82535577D01*
X197473993Y-82544703D01*
X197460385Y-82565066D01*
X197451006Y-82587704D01*
X197446223Y-82611737D01*
X197446221Y-82636241D01*
X197209375Y-82636241D01*
X197210581Y-82624000D01*
X197208179Y-82599614D01*
X197201066Y-82576165D01*
X197189515Y-82554554D01*
X197182225Y-82544724D01*
X197174718Y-82535577D01*
X197157398Y-82518258D01*
X197137023Y-82504645D01*
X197114384Y-82495268D01*
X197090350Y-82490488D01*
X197065846Y-82490488D01*
X197041813Y-82495269D01*
X197019174Y-82504647D01*
X196998800Y-82518261D01*
X196981483Y-82535577D01*
X196973993Y-82544703D01*
X196960385Y-82565066D01*
X196951006Y-82587704D01*
X196946223Y-82611737D01*
X196946221Y-82636241D01*
X196709375Y-82636241D01*
X196710581Y-82624000D01*
X196708179Y-82599614D01*
X196701066Y-82576165D01*
X196689515Y-82554554D01*
X196682225Y-82544724D01*
X196674718Y-82535577D01*
X196657398Y-82518258D01*
X196637023Y-82504645D01*
X196614384Y-82495268D01*
X196590350Y-82490488D01*
X196565846Y-82490488D01*
X196541813Y-82495269D01*
X196519174Y-82504647D01*
X196498800Y-82518261D01*
X196481483Y-82535577D01*
X196473993Y-82544703D01*
X196460385Y-82565066D01*
X196451006Y-82587704D01*
X196446223Y-82611737D01*
X196446221Y-82636241D01*
X196209375Y-82636241D01*
X196210581Y-82624000D01*
X196208179Y-82599614D01*
X196201066Y-82576165D01*
X196189515Y-82554554D01*
X196182225Y-82544724D01*
X196174718Y-82535577D01*
X196157398Y-82518258D01*
X196137023Y-82504645D01*
X196114384Y-82495268D01*
X196090350Y-82490488D01*
X196065846Y-82490488D01*
X196041813Y-82495269D01*
X196019174Y-82504647D01*
X195998800Y-82518261D01*
X195981483Y-82535577D01*
X195973993Y-82544703D01*
X195960385Y-82565066D01*
X195951006Y-82587704D01*
X195946223Y-82611737D01*
X195946221Y-82636241D01*
X195709375Y-82636241D01*
X195710581Y-82624000D01*
X195708179Y-82599614D01*
X195701066Y-82576165D01*
X195689515Y-82554554D01*
X195682225Y-82544724D01*
X195674718Y-82535577D01*
X195657398Y-82518258D01*
X195637023Y-82504645D01*
X195614384Y-82495268D01*
X195590350Y-82490488D01*
X195565846Y-82490488D01*
X195541813Y-82495269D01*
X195519174Y-82504647D01*
X195498800Y-82518261D01*
X195481483Y-82535577D01*
X195473993Y-82544703D01*
X195460385Y-82565066D01*
X195451006Y-82587704D01*
X195446223Y-82611737D01*
X195446221Y-82636241D01*
X195209375Y-82636241D01*
X195210581Y-82624000D01*
X195208179Y-82599614D01*
X195201066Y-82576165D01*
X195189515Y-82554554D01*
X195182225Y-82544724D01*
X195174718Y-82535577D01*
X195157398Y-82518258D01*
X195137023Y-82504645D01*
X195114384Y-82495268D01*
X195090350Y-82490488D01*
X195065846Y-82490488D01*
X195041813Y-82495269D01*
X195019174Y-82504647D01*
X194998800Y-82518261D01*
X194981483Y-82535577D01*
X194973993Y-82544703D01*
X194960385Y-82565066D01*
X194951006Y-82587704D01*
X194946223Y-82611737D01*
X194946221Y-82636241D01*
X194709375Y-82636241D01*
X194710581Y-82624000D01*
X194708179Y-82599614D01*
X194701066Y-82576165D01*
X194689515Y-82554554D01*
X194682225Y-82544724D01*
X194674718Y-82535577D01*
X194657398Y-82518258D01*
X194637023Y-82504645D01*
X194614384Y-82495268D01*
X194590350Y-82490488D01*
X194565846Y-82490488D01*
X194541813Y-82495269D01*
X194519174Y-82504647D01*
X194498800Y-82518261D01*
X194481483Y-82535577D01*
X194473993Y-82544703D01*
X194460385Y-82565066D01*
X194451006Y-82587704D01*
X194446223Y-82611737D01*
X194446221Y-82636241D01*
X194209375Y-82636241D01*
X194210581Y-82624000D01*
X194208179Y-82599614D01*
X194201066Y-82576165D01*
X194189515Y-82554554D01*
X194182225Y-82544724D01*
X194174718Y-82535577D01*
X194157398Y-82518258D01*
X194137023Y-82504645D01*
X194114384Y-82495268D01*
X194090350Y-82490488D01*
X194065846Y-82490488D01*
X194041813Y-82495269D01*
X194019174Y-82504647D01*
X193998800Y-82518261D01*
X193981483Y-82535577D01*
X193973993Y-82544703D01*
X193960385Y-82565066D01*
X193951006Y-82587704D01*
X193946223Y-82611737D01*
X193946221Y-82636241D01*
X193709375Y-82636241D01*
X193710581Y-82624000D01*
X193708179Y-82599614D01*
X193701066Y-82576165D01*
X193689515Y-82554554D01*
X193682225Y-82544724D01*
X193674718Y-82535577D01*
X193657398Y-82518258D01*
X193637023Y-82504645D01*
X193614384Y-82495268D01*
X193590350Y-82490488D01*
X193565846Y-82490488D01*
X193541813Y-82495269D01*
X193519174Y-82504647D01*
X193498800Y-82518261D01*
X193481483Y-82535577D01*
X193473993Y-82544703D01*
X193460385Y-82565066D01*
X193451006Y-82587704D01*
X193446223Y-82611737D01*
X193446221Y-82636241D01*
X193139428Y-82636241D01*
X193152730Y-82616335D01*
X193162108Y-82593696D01*
X193166889Y-82569663D01*
X193166889Y-82545158D01*
X193162109Y-82521125D01*
X193152732Y-82498486D01*
X193152730Y-82498482D01*
X193150786Y-82494846D01*
X193139865Y-82458843D01*
X193137101Y-82430781D01*
X193137100Y-81442020D01*
X193139864Y-81413958D01*
X193150785Y-81377955D01*
X193168521Y-81344774D01*
X193192389Y-81315689D01*
X193221473Y-81291821D01*
X193254654Y-81274085D01*
X193290657Y-81263164D01*
X193328100Y-81259476D01*
X193365542Y-81263164D01*
X193401545Y-81274085D01*
X193434726Y-81291821D01*
X193463811Y-81315689D01*
X193481479Y-81337218D01*
X193498801Y-81354541D01*
X193519176Y-81368154D01*
X193541815Y-81377532D01*
X193565848Y-81382312D01*
X193590352Y-81382312D01*
X193614386Y-81377531D01*
X193637025Y-81368154D01*
X193657399Y-81354540D01*
X193674726Y-81337213D01*
X193692389Y-81315689D01*
X193721473Y-81291821D01*
X193754654Y-81274085D01*
X193790657Y-81263164D01*
X193828100Y-81259476D01*
X193865542Y-81263164D01*
X193901545Y-81274085D01*
X193934726Y-81291821D01*
X193963811Y-81315689D01*
X193981479Y-81337218D01*
X193998801Y-81354541D01*
X194019176Y-81368154D01*
X194041815Y-81377532D01*
X194065848Y-81382312D01*
X194090352Y-81382312D01*
X194114386Y-81377531D01*
X194137025Y-81368154D01*
X194157399Y-81354540D01*
X194174726Y-81337213D01*
X194192389Y-81315689D01*
X194221473Y-81291821D01*
X194254654Y-81274085D01*
X194290657Y-81263164D01*
X194328100Y-81259476D01*
X194365542Y-81263164D01*
X194401545Y-81274085D01*
X194434726Y-81291821D01*
X194463811Y-81315689D01*
X194481479Y-81337218D01*
X194498801Y-81354541D01*
X194519176Y-81368154D01*
X194541815Y-81377532D01*
X194565848Y-81382312D01*
X194590352Y-81382312D01*
X194614386Y-81377531D01*
X194637025Y-81368154D01*
X194657399Y-81354540D01*
X194674726Y-81337213D01*
X194692389Y-81315689D01*
X194721473Y-81291821D01*
X194754654Y-81274085D01*
X194790657Y-81263164D01*
X194828100Y-81259476D01*
X194865542Y-81263164D01*
X194901545Y-81274085D01*
X194934726Y-81291821D01*
X194963811Y-81315689D01*
X194981479Y-81337218D01*
X194998801Y-81354541D01*
X195019176Y-81368154D01*
X195041815Y-81377532D01*
X195065848Y-81382312D01*
X195090352Y-81382312D01*
X195114386Y-81377531D01*
X195137025Y-81368154D01*
X195157399Y-81354540D01*
X195174726Y-81337213D01*
X195192389Y-81315689D01*
X195221473Y-81291821D01*
X195254654Y-81274085D01*
X195290657Y-81263164D01*
X195328100Y-81259476D01*
X195365542Y-81263164D01*
X195401545Y-81274085D01*
X195434726Y-81291821D01*
X195463811Y-81315689D01*
X195481479Y-81337218D01*
X195498801Y-81354541D01*
X195519176Y-81368154D01*
X195541815Y-81377532D01*
X195565848Y-81382312D01*
X195590352Y-81382312D01*
X195614386Y-81377531D01*
X195637025Y-81368154D01*
X195657399Y-81354540D01*
X195674726Y-81337213D01*
X195692389Y-81315689D01*
X195721473Y-81291821D01*
X195754654Y-81274085D01*
X195790657Y-81263164D01*
X195828100Y-81259476D01*
X195865542Y-81263164D01*
X195901545Y-81274085D01*
X195934726Y-81291821D01*
X195963811Y-81315689D01*
X195981479Y-81337218D01*
X195998801Y-81354541D01*
X196019176Y-81368154D01*
X196041815Y-81377532D01*
X196065848Y-81382312D01*
X196090352Y-81382312D01*
X196114386Y-81377531D01*
X196137025Y-81368154D01*
X196157399Y-81354540D01*
X196174726Y-81337213D01*
X196192389Y-81315689D01*
X196221473Y-81291821D01*
X196254654Y-81274085D01*
X196290657Y-81263164D01*
X196328100Y-81259476D01*
X196365542Y-81263164D01*
X196401545Y-81274085D01*
X196434726Y-81291821D01*
X196463811Y-81315689D01*
X196481479Y-81337218D01*
X196498801Y-81354541D01*
X196519176Y-81368154D01*
X196541815Y-81377532D01*
X196565848Y-81382312D01*
X196590352Y-81382312D01*
X196614386Y-81377531D01*
X196637025Y-81368154D01*
X196657399Y-81354540D01*
X196674726Y-81337213D01*
X196692389Y-81315689D01*
X196721473Y-81291821D01*
X196754654Y-81274085D01*
X196790657Y-81263164D01*
X196828100Y-81259476D01*
X196865542Y-81263164D01*
X196901545Y-81274085D01*
X196934726Y-81291821D01*
X196963811Y-81315689D01*
X196981479Y-81337218D01*
X196998801Y-81354541D01*
X197019176Y-81368154D01*
X197041815Y-81377532D01*
X197065848Y-81382312D01*
X197090352Y-81382312D01*
X197114386Y-81377531D01*
X197137025Y-81368154D01*
X197157399Y-81354540D01*
X197174726Y-81337213D01*
X197192389Y-81315689D01*
X197221473Y-81291821D01*
X197254654Y-81274085D01*
X197290657Y-81263164D01*
X197328100Y-81259476D01*
X197365542Y-81263164D01*
X197401545Y-81274085D01*
X197434726Y-81291821D01*
X197463811Y-81315689D01*
X197481479Y-81337218D01*
X197498801Y-81354541D01*
X197519176Y-81368154D01*
X197541815Y-81377532D01*
X197565848Y-81382312D01*
X197590352Y-81382312D01*
X197614386Y-81377531D01*
X197637025Y-81368154D01*
X197657399Y-81354540D01*
X197674726Y-81337213D01*
X197692389Y-81315689D01*
X197721473Y-81291821D01*
X197754654Y-81274085D01*
X197790657Y-81263164D01*
X197828100Y-81259476D01*
X197865542Y-81263164D01*
X197901545Y-81274085D01*
X197934726Y-81291821D01*
X197963811Y-81315689D01*
X197981479Y-81337218D01*
X197998801Y-81354541D01*
X198019176Y-81368154D01*
X198041815Y-81377532D01*
X198065848Y-81382312D01*
X198090352Y-81382312D01*
X198114386Y-81377531D01*
X198137025Y-81368154D01*
X198157399Y-81354540D01*
X198174726Y-81337213D01*
X198192389Y-81315689D01*
X198221473Y-81291821D01*
X198254654Y-81274085D01*
X198290657Y-81263164D01*
X198328100Y-81259476D01*
X198365542Y-81263164D01*
X198365542Y-81263164D01*
G37*
G36*
X215875562Y-87698181D02*
X215910477Y-87708773D01*
X215942665Y-87725978D01*
X215970873Y-87749127D01*
X215994022Y-87777335D01*
X216011227Y-87809523D01*
X216021819Y-87844438D01*
X216026000Y-87886895D01*
X216026000Y-89028105D01*
X216021819Y-89070562D01*
X216011227Y-89105477D01*
X215994022Y-89137665D01*
X215970873Y-89165873D01*
X215942665Y-89189022D01*
X215910477Y-89206227D01*
X215875562Y-89216819D01*
X215833105Y-89221000D01*
X214366895Y-89221000D01*
X214324438Y-89216819D01*
X214289523Y-89206227D01*
X214257335Y-89189022D01*
X214229127Y-89165873D01*
X214205978Y-89137665D01*
X214188773Y-89105477D01*
X214178181Y-89070562D01*
X214174000Y-89028105D01*
X214174000Y-87886895D01*
X214178181Y-87844438D01*
X214188773Y-87809523D01*
X214205978Y-87777335D01*
X214229127Y-87749127D01*
X214257335Y-87725978D01*
X214289523Y-87708773D01*
X214324438Y-87698181D01*
X214366895Y-87694000D01*
X215833105Y-87694000D01*
X215875562Y-87698181D01*
X215875562Y-87698181D01*
G37*
G36*
X202341588Y-88289878D02*
X202341591Y-88289879D01*
X202341592Y-88289879D01*
X202389508Y-88304414D01*
X202389510Y-88304415D01*
X202433670Y-88328019D01*
X202472376Y-88359784D01*
X202504141Y-88398490D01*
X202518381Y-88425131D01*
X202527746Y-88442652D01*
X202542281Y-88490568D01*
X202542282Y-88490572D01*
X202547189Y-88540400D01*
X202542282Y-88590228D01*
X202542281Y-88590231D01*
X202542281Y-88590232D01*
X202528732Y-88634898D01*
X202527745Y-88638150D01*
X202504141Y-88682310D01*
X202472376Y-88721016D01*
X202433670Y-88752781D01*
X202389510Y-88776385D01*
X202389508Y-88776386D01*
X202341592Y-88790921D01*
X202341591Y-88790921D01*
X202341588Y-88790922D01*
X202304244Y-88794600D01*
X200785756Y-88794600D01*
X200748412Y-88790922D01*
X200748409Y-88790921D01*
X200748408Y-88790921D01*
X200700492Y-88776386D01*
X200700490Y-88776385D01*
X200656330Y-88752781D01*
X200617624Y-88721016D01*
X200585859Y-88682310D01*
X200562255Y-88638150D01*
X200561269Y-88634898D01*
X200547719Y-88590232D01*
X200547719Y-88590231D01*
X200547718Y-88590228D01*
X200542811Y-88540400D01*
X200547718Y-88490572D01*
X200547719Y-88490568D01*
X200562254Y-88442652D01*
X200571619Y-88425131D01*
X200585859Y-88398490D01*
X200617624Y-88359784D01*
X200656330Y-88328019D01*
X200700490Y-88304415D01*
X200700492Y-88304414D01*
X200748408Y-88289879D01*
X200748409Y-88289879D01*
X200748412Y-88289878D01*
X200785756Y-88286200D01*
X202304244Y-88286200D01*
X202341588Y-88289878D01*
X202341588Y-88289878D01*
G37*
G36*
X190911588Y-88289878D02*
X190911591Y-88289879D01*
X190911592Y-88289879D01*
X190959508Y-88304414D01*
X190959510Y-88304415D01*
X191003670Y-88328019D01*
X191042376Y-88359784D01*
X191074141Y-88398490D01*
X191088381Y-88425131D01*
X191097746Y-88442652D01*
X191112281Y-88490568D01*
X191112282Y-88490572D01*
X191117189Y-88540400D01*
X191112282Y-88590228D01*
X191112281Y-88590231D01*
X191112281Y-88590232D01*
X191098732Y-88634898D01*
X191097745Y-88638150D01*
X191074141Y-88682310D01*
X191042376Y-88721016D01*
X191003670Y-88752781D01*
X190959510Y-88776385D01*
X190959508Y-88776386D01*
X190911592Y-88790921D01*
X190911591Y-88790921D01*
X190911588Y-88790922D01*
X190874244Y-88794600D01*
X189355756Y-88794600D01*
X189318412Y-88790922D01*
X189318409Y-88790921D01*
X189318408Y-88790921D01*
X189270492Y-88776386D01*
X189270490Y-88776385D01*
X189226330Y-88752781D01*
X189187624Y-88721016D01*
X189155859Y-88682310D01*
X189132255Y-88638150D01*
X189131269Y-88634898D01*
X189117719Y-88590232D01*
X189117719Y-88590231D01*
X189117718Y-88590228D01*
X189112811Y-88540400D01*
X189117718Y-88490572D01*
X189117719Y-88490568D01*
X189132254Y-88442652D01*
X189141619Y-88425131D01*
X189155859Y-88398490D01*
X189187624Y-88359784D01*
X189226330Y-88328019D01*
X189270490Y-88304415D01*
X189270492Y-88304414D01*
X189318408Y-88289879D01*
X189318409Y-88289879D01*
X189318412Y-88289878D01*
X189355756Y-88286200D01*
X190874244Y-88286200D01*
X190911588Y-88289878D01*
X190911588Y-88289878D01*
G37*
G36*
X185998677Y-87243465D02*
X186036364Y-87254898D01*
X186071103Y-87273466D01*
X186101548Y-87298452D01*
X186126534Y-87328897D01*
X186145102Y-87363636D01*
X186156535Y-87401323D01*
X186161000Y-87446661D01*
X186161000Y-88533339D01*
X186156535Y-88578677D01*
X186145102Y-88616364D01*
X186126534Y-88651103D01*
X186101548Y-88681548D01*
X186071103Y-88706534D01*
X186036364Y-88725102D01*
X185998677Y-88736535D01*
X185953339Y-88741000D01*
X185116661Y-88741000D01*
X185071323Y-88736535D01*
X185033636Y-88725102D01*
X184998897Y-88706534D01*
X184968452Y-88681548D01*
X184943466Y-88651103D01*
X184924898Y-88616364D01*
X184913465Y-88578677D01*
X184909000Y-88533339D01*
X184909000Y-87446661D01*
X184913465Y-87401323D01*
X184924898Y-87363636D01*
X184943466Y-87328897D01*
X184968452Y-87298452D01*
X184998897Y-87273466D01*
X185033636Y-87254898D01*
X185071323Y-87243465D01*
X185116661Y-87239000D01*
X185953339Y-87239000D01*
X185998677Y-87243465D01*
X185998677Y-87243465D01*
G37*
G36*
X183948677Y-87243465D02*
X183986364Y-87254898D01*
X184021103Y-87273466D01*
X184051548Y-87298452D01*
X184076534Y-87328897D01*
X184095102Y-87363636D01*
X184106535Y-87401323D01*
X184111000Y-87446661D01*
X184111000Y-88533339D01*
X184106535Y-88578677D01*
X184095102Y-88616364D01*
X184076534Y-88651103D01*
X184051548Y-88681548D01*
X184021103Y-88706534D01*
X183986364Y-88725102D01*
X183948677Y-88736535D01*
X183903339Y-88741000D01*
X183066661Y-88741000D01*
X183021323Y-88736535D01*
X182983636Y-88725102D01*
X182948897Y-88706534D01*
X182918452Y-88681548D01*
X182893466Y-88651103D01*
X182874898Y-88616364D01*
X182863465Y-88578677D01*
X182859000Y-88533339D01*
X182859000Y-87446661D01*
X182863465Y-87401323D01*
X182874898Y-87363636D01*
X182893466Y-87328897D01*
X182918452Y-87298452D01*
X182948897Y-87273466D01*
X182983636Y-87254898D01*
X183021323Y-87243465D01*
X183066661Y-87239000D01*
X183903339Y-87239000D01*
X183948677Y-87243465D01*
X183948677Y-87243465D01*
G37*
G36*
X222396000Y-88531000D02*
X221644000Y-88531000D01*
X221644000Y-87369000D01*
X222396000Y-87369000D01*
X222396000Y-88531000D01*
X222396000Y-88531000D01*
G37*
G36*
X220496000Y-88531000D02*
X219744000Y-88531000D01*
X219744000Y-87369000D01*
X220496000Y-87369000D01*
X220496000Y-88531000D01*
X220496000Y-88531000D01*
G37*
G36*
X218818677Y-87283465D02*
X218856364Y-87294898D01*
X218891103Y-87313466D01*
X218921548Y-87338452D01*
X218946534Y-87368897D01*
X218965102Y-87403636D01*
X218976535Y-87441323D01*
X218981000Y-87486661D01*
X218981000Y-88323339D01*
X218976535Y-88368677D01*
X218965102Y-88406364D01*
X218946534Y-88441103D01*
X218921548Y-88471548D01*
X218891103Y-88496534D01*
X218856364Y-88515102D01*
X218818677Y-88526535D01*
X218773339Y-88531000D01*
X217686661Y-88531000D01*
X217641323Y-88526535D01*
X217603636Y-88515102D01*
X217568897Y-88496534D01*
X217538452Y-88471548D01*
X217513466Y-88441103D01*
X217494898Y-88406364D01*
X217483465Y-88368677D01*
X217479000Y-88323339D01*
X217479000Y-87486661D01*
X217483465Y-87441323D01*
X217494898Y-87403636D01*
X217513466Y-87368897D01*
X217538452Y-87338452D01*
X217568897Y-87313466D01*
X217603636Y-87294898D01*
X217641323Y-87283465D01*
X217686661Y-87279000D01*
X218773339Y-87279000D01*
X218818677Y-87283465D01*
X218818677Y-87283465D01*
G37*
G36*
X224468677Y-87223465D02*
X224506364Y-87234898D01*
X224541103Y-87253466D01*
X224571548Y-87278452D01*
X224596534Y-87308897D01*
X224615102Y-87343636D01*
X224626535Y-87381323D01*
X224631000Y-87426661D01*
X224631000Y-88263339D01*
X224626535Y-88308677D01*
X224615102Y-88346364D01*
X224596534Y-88381103D01*
X224571548Y-88411548D01*
X224541103Y-88436534D01*
X224506364Y-88455102D01*
X224468677Y-88466535D01*
X224423339Y-88471000D01*
X223336661Y-88471000D01*
X223291323Y-88466535D01*
X223253636Y-88455102D01*
X223218897Y-88436534D01*
X223188452Y-88411548D01*
X223163466Y-88381103D01*
X223144898Y-88346364D01*
X223133465Y-88308677D01*
X223129000Y-88263339D01*
X223129000Y-87426661D01*
X223133465Y-87381323D01*
X223144898Y-87343636D01*
X223163466Y-87308897D01*
X223188452Y-87278452D01*
X223218897Y-87253466D01*
X223253636Y-87234898D01*
X223291323Y-87223465D01*
X223336661Y-87219000D01*
X224423339Y-87219000D01*
X224468677Y-87223465D01*
X224468677Y-87223465D01*
G37*
G36*
X202341588Y-87489778D02*
X202341591Y-87489779D01*
X202341592Y-87489779D01*
X202389508Y-87504314D01*
X202389510Y-87504315D01*
X202433670Y-87527919D01*
X202472376Y-87559684D01*
X202504141Y-87598390D01*
X202504281Y-87598652D01*
X202527746Y-87642552D01*
X202542281Y-87690468D01*
X202542282Y-87690472D01*
X202547189Y-87740300D01*
X202542282Y-87790128D01*
X202542281Y-87790131D01*
X202542281Y-87790132D01*
X202535326Y-87813061D01*
X202527745Y-87838050D01*
X202504141Y-87882210D01*
X202472376Y-87920916D01*
X202433670Y-87952681D01*
X202405736Y-87967612D01*
X202389508Y-87976286D01*
X202341592Y-87990821D01*
X202341591Y-87990821D01*
X202341588Y-87990822D01*
X202304244Y-87994500D01*
X200785756Y-87994500D01*
X200748412Y-87990822D01*
X200748409Y-87990821D01*
X200748408Y-87990821D01*
X200700492Y-87976286D01*
X200684264Y-87967612D01*
X200656330Y-87952681D01*
X200617624Y-87920916D01*
X200585859Y-87882210D01*
X200562255Y-87838050D01*
X200554675Y-87813061D01*
X200547719Y-87790132D01*
X200547719Y-87790131D01*
X200547718Y-87790128D01*
X200542811Y-87740300D01*
X200547718Y-87690472D01*
X200547719Y-87690468D01*
X200562254Y-87642552D01*
X200585719Y-87598652D01*
X200585859Y-87598390D01*
X200617624Y-87559684D01*
X200656330Y-87527919D01*
X200700490Y-87504315D01*
X200700492Y-87504314D01*
X200748408Y-87489779D01*
X200748409Y-87489779D01*
X200748412Y-87489778D01*
X200785756Y-87486100D01*
X202304244Y-87486100D01*
X202341588Y-87489778D01*
X202341588Y-87489778D01*
G37*
G36*
X190911588Y-87489778D02*
X190911591Y-87489779D01*
X190911592Y-87489779D01*
X190959508Y-87504314D01*
X190959510Y-87504315D01*
X191003670Y-87527919D01*
X191042376Y-87559684D01*
X191074141Y-87598390D01*
X191074281Y-87598652D01*
X191097746Y-87642552D01*
X191112281Y-87690468D01*
X191112282Y-87690472D01*
X191117189Y-87740300D01*
X191112282Y-87790128D01*
X191112281Y-87790131D01*
X191112281Y-87790132D01*
X191105326Y-87813061D01*
X191097745Y-87838050D01*
X191074141Y-87882210D01*
X191042376Y-87920916D01*
X191003670Y-87952681D01*
X190975736Y-87967612D01*
X190959508Y-87976286D01*
X190911592Y-87990821D01*
X190911591Y-87990821D01*
X190911588Y-87990822D01*
X190874244Y-87994500D01*
X189355756Y-87994500D01*
X189318412Y-87990822D01*
X189318409Y-87990821D01*
X189318408Y-87990821D01*
X189270492Y-87976286D01*
X189254264Y-87967612D01*
X189226330Y-87952681D01*
X189187624Y-87920916D01*
X189155859Y-87882210D01*
X189132255Y-87838050D01*
X189124675Y-87813061D01*
X189117719Y-87790132D01*
X189117719Y-87790131D01*
X189117718Y-87790128D01*
X189112811Y-87740300D01*
X189117718Y-87690472D01*
X189117719Y-87690468D01*
X189132254Y-87642552D01*
X189155719Y-87598652D01*
X189155859Y-87598390D01*
X189187624Y-87559684D01*
X189226330Y-87527919D01*
X189270490Y-87504315D01*
X189270492Y-87504314D01*
X189318408Y-87489779D01*
X189318409Y-87489779D01*
X189318412Y-87489778D01*
X189355756Y-87486100D01*
X190874244Y-87486100D01*
X190911588Y-87489778D01*
X190911588Y-87489778D01*
G37*
G36*
X190911588Y-86689678D02*
X190911591Y-86689679D01*
X190911592Y-86689679D01*
X190959508Y-86704214D01*
X190959510Y-86704215D01*
X191003670Y-86727819D01*
X191042376Y-86759584D01*
X191074141Y-86798290D01*
X191094511Y-86836400D01*
X191097746Y-86842452D01*
X191107268Y-86873843D01*
X191112282Y-86890372D01*
X191117189Y-86940200D01*
X191112282Y-86990028D01*
X191112281Y-86990031D01*
X191112281Y-86990032D01*
X191100923Y-87027476D01*
X191097745Y-87037950D01*
X191074141Y-87082110D01*
X191042376Y-87120816D01*
X191003670Y-87152581D01*
X190979126Y-87165700D01*
X190959508Y-87176186D01*
X190911592Y-87190721D01*
X190911591Y-87190721D01*
X190911588Y-87190722D01*
X190874244Y-87194400D01*
X189355756Y-87194400D01*
X189318412Y-87190722D01*
X189318409Y-87190721D01*
X189318408Y-87190721D01*
X189270492Y-87176186D01*
X189250874Y-87165700D01*
X189226330Y-87152581D01*
X189187624Y-87120816D01*
X189155859Y-87082110D01*
X189132255Y-87037950D01*
X189129078Y-87027476D01*
X189117719Y-86990032D01*
X189117719Y-86990031D01*
X189117718Y-86990028D01*
X189112811Y-86940200D01*
X189117718Y-86890372D01*
X189122732Y-86873843D01*
X189132254Y-86842452D01*
X189135489Y-86836400D01*
X189155859Y-86798290D01*
X189187624Y-86759584D01*
X189226330Y-86727819D01*
X189270490Y-86704215D01*
X189270492Y-86704214D01*
X189318408Y-86689679D01*
X189318409Y-86689679D01*
X189318412Y-86689678D01*
X189355756Y-86686000D01*
X190874244Y-86686000D01*
X190911588Y-86689678D01*
X190911588Y-86689678D01*
G37*
G36*
X202341588Y-86689678D02*
X202341591Y-86689679D01*
X202341592Y-86689679D01*
X202389508Y-86704214D01*
X202389510Y-86704215D01*
X202433670Y-86727819D01*
X202472376Y-86759584D01*
X202504141Y-86798290D01*
X202524511Y-86836400D01*
X202527746Y-86842452D01*
X202537268Y-86873843D01*
X202542282Y-86890372D01*
X202547189Y-86940200D01*
X202542282Y-86990028D01*
X202542281Y-86990031D01*
X202542281Y-86990032D01*
X202530923Y-87027476D01*
X202527745Y-87037950D01*
X202504141Y-87082110D01*
X202472376Y-87120816D01*
X202433670Y-87152581D01*
X202409126Y-87165700D01*
X202389508Y-87176186D01*
X202341592Y-87190721D01*
X202341591Y-87190721D01*
X202341588Y-87190722D01*
X202304244Y-87194400D01*
X200785756Y-87194400D01*
X200748412Y-87190722D01*
X200748409Y-87190721D01*
X200748408Y-87190721D01*
X200700492Y-87176186D01*
X200680874Y-87165700D01*
X200656330Y-87152581D01*
X200617624Y-87120816D01*
X200585859Y-87082110D01*
X200562255Y-87037950D01*
X200559078Y-87027476D01*
X200547719Y-86990032D01*
X200547719Y-86990031D01*
X200547718Y-86990028D01*
X200542811Y-86940200D01*
X200547718Y-86890372D01*
X200552732Y-86873843D01*
X200562254Y-86842452D01*
X200565489Y-86836400D01*
X200585859Y-86798290D01*
X200617624Y-86759584D01*
X200656330Y-86727819D01*
X200700490Y-86704215D01*
X200700492Y-86704214D01*
X200748408Y-86689679D01*
X200748409Y-86689679D01*
X200748412Y-86689678D01*
X200785756Y-86686000D01*
X202304244Y-86686000D01*
X202341588Y-86689678D01*
X202341588Y-86689678D01*
G37*
G36*
X186008677Y-85203465D02*
X186046364Y-85214898D01*
X186081103Y-85233466D01*
X186111548Y-85258452D01*
X186136534Y-85288897D01*
X186155102Y-85323636D01*
X186166535Y-85361323D01*
X186171000Y-85406661D01*
X186171000Y-86493339D01*
X186166535Y-86538677D01*
X186155102Y-86576364D01*
X186136534Y-86611103D01*
X186111548Y-86641548D01*
X186081103Y-86666534D01*
X186046364Y-86685102D01*
X186008677Y-86696535D01*
X185963339Y-86701000D01*
X185126661Y-86701000D01*
X185081323Y-86696535D01*
X185043636Y-86685102D01*
X185008897Y-86666534D01*
X184978452Y-86641548D01*
X184953466Y-86611103D01*
X184934898Y-86576364D01*
X184923465Y-86538677D01*
X184919000Y-86493339D01*
X184919000Y-85406661D01*
X184923465Y-85361323D01*
X184934898Y-85323636D01*
X184953466Y-85288897D01*
X184978452Y-85258452D01*
X185008897Y-85233466D01*
X185043636Y-85214898D01*
X185081323Y-85203465D01*
X185126661Y-85199000D01*
X185963339Y-85199000D01*
X186008677Y-85203465D01*
X186008677Y-85203465D01*
G37*
G36*
X183958677Y-85203465D02*
X183996364Y-85214898D01*
X184031103Y-85233466D01*
X184061548Y-85258452D01*
X184086534Y-85288897D01*
X184105102Y-85323636D01*
X184116535Y-85361323D01*
X184121000Y-85406661D01*
X184121000Y-86493339D01*
X184116535Y-86538677D01*
X184105102Y-86576364D01*
X184086534Y-86611103D01*
X184061548Y-86641548D01*
X184031103Y-86666534D01*
X183996364Y-86685102D01*
X183958677Y-86696535D01*
X183913339Y-86701000D01*
X183076661Y-86701000D01*
X183031323Y-86696535D01*
X182993636Y-86685102D01*
X182958897Y-86666534D01*
X182928452Y-86641548D01*
X182903466Y-86611103D01*
X182884898Y-86576364D01*
X182873465Y-86538677D01*
X182869000Y-86493339D01*
X182869000Y-85406661D01*
X182873465Y-85361323D01*
X182884898Y-85323636D01*
X182903466Y-85288897D01*
X182928452Y-85258452D01*
X182958897Y-85233466D01*
X182993636Y-85214898D01*
X183031323Y-85203465D01*
X183076661Y-85199000D01*
X183913339Y-85199000D01*
X183958677Y-85203465D01*
X183958677Y-85203465D01*
G37*
G36*
X218818677Y-85233465D02*
X218856364Y-85244898D01*
X218891103Y-85263466D01*
X218921548Y-85288452D01*
X218946534Y-85318897D01*
X218965102Y-85353636D01*
X218976535Y-85391323D01*
X218981000Y-85436661D01*
X218981000Y-86273339D01*
X218976535Y-86318677D01*
X218965102Y-86356364D01*
X218946534Y-86391103D01*
X218921548Y-86421548D01*
X218891103Y-86446534D01*
X218856364Y-86465102D01*
X218818677Y-86476535D01*
X218773339Y-86481000D01*
X217686661Y-86481000D01*
X217641323Y-86476535D01*
X217603636Y-86465102D01*
X217568897Y-86446534D01*
X217538452Y-86421548D01*
X217513466Y-86391103D01*
X217494898Y-86356364D01*
X217483465Y-86318677D01*
X217479000Y-86273339D01*
X217479000Y-85436661D01*
X217483465Y-85391323D01*
X217494898Y-85353636D01*
X217513466Y-85318897D01*
X217538452Y-85288452D01*
X217568897Y-85263466D01*
X217603636Y-85244898D01*
X217641323Y-85233465D01*
X217686661Y-85229000D01*
X218773339Y-85229000D01*
X218818677Y-85233465D01*
X218818677Y-85233465D01*
G37*
G36*
X224468677Y-85173465D02*
X224506364Y-85184898D01*
X224541103Y-85203466D01*
X224571548Y-85228452D01*
X224596534Y-85258897D01*
X224615102Y-85293636D01*
X224626535Y-85331323D01*
X224631000Y-85376661D01*
X224631000Y-86213339D01*
X224626535Y-86258677D01*
X224615102Y-86296364D01*
X224596534Y-86331103D01*
X224571548Y-86361548D01*
X224541103Y-86386534D01*
X224506364Y-86405102D01*
X224468677Y-86416535D01*
X224423339Y-86421000D01*
X223336661Y-86421000D01*
X223291323Y-86416535D01*
X223253636Y-86405102D01*
X223218897Y-86386534D01*
X223188452Y-86361548D01*
X223163466Y-86331103D01*
X223144898Y-86296364D01*
X223133465Y-86258677D01*
X223129000Y-86213339D01*
X223129000Y-85376661D01*
X223133465Y-85331323D01*
X223144898Y-85293636D01*
X223163466Y-85258897D01*
X223188452Y-85228452D01*
X223218897Y-85203466D01*
X223253636Y-85184898D01*
X223291323Y-85173465D01*
X223336661Y-85169000D01*
X224423339Y-85169000D01*
X224468677Y-85173465D01*
X224468677Y-85173465D01*
G37*
G36*
X202341588Y-85889578D02*
X202341591Y-85889579D01*
X202341592Y-85889579D01*
X202389508Y-85904114D01*
X202389510Y-85904115D01*
X202433670Y-85927719D01*
X202472376Y-85959484D01*
X202504141Y-85998190D01*
X202519795Y-86027477D01*
X202527746Y-86042352D01*
X202542281Y-86090268D01*
X202542282Y-86090272D01*
X202547189Y-86140100D01*
X202542282Y-86189928D01*
X202542281Y-86189931D01*
X202542281Y-86189932D01*
X202529376Y-86232476D01*
X202527745Y-86237850D01*
X202504141Y-86282010D01*
X202472376Y-86320716D01*
X202433670Y-86352481D01*
X202393708Y-86373841D01*
X202389508Y-86376086D01*
X202341592Y-86390621D01*
X202341591Y-86390621D01*
X202341588Y-86390622D01*
X202304244Y-86394300D01*
X200785756Y-86394300D01*
X200748412Y-86390622D01*
X200748409Y-86390621D01*
X200748408Y-86390621D01*
X200700492Y-86376086D01*
X200696292Y-86373841D01*
X200656330Y-86352481D01*
X200617624Y-86320716D01*
X200585859Y-86282010D01*
X200562255Y-86237850D01*
X200560625Y-86232476D01*
X200547719Y-86189932D01*
X200547719Y-86189931D01*
X200547718Y-86189928D01*
X200542811Y-86140100D01*
X200547718Y-86090272D01*
X200547719Y-86090268D01*
X200562254Y-86042352D01*
X200570205Y-86027477D01*
X200585859Y-85998190D01*
X200617624Y-85959484D01*
X200656330Y-85927719D01*
X200700490Y-85904115D01*
X200700492Y-85904114D01*
X200748408Y-85889579D01*
X200748409Y-85889579D01*
X200748412Y-85889578D01*
X200785756Y-85885900D01*
X202304244Y-85885900D01*
X202341588Y-85889578D01*
X202341588Y-85889578D01*
G37*
G36*
X190911588Y-85889578D02*
X190911591Y-85889579D01*
X190911592Y-85889579D01*
X190959508Y-85904114D01*
X190959510Y-85904115D01*
X191003670Y-85927719D01*
X191042376Y-85959484D01*
X191074141Y-85998190D01*
X191089795Y-86027477D01*
X191097746Y-86042352D01*
X191112281Y-86090268D01*
X191112282Y-86090272D01*
X191117189Y-86140100D01*
X191112282Y-86189928D01*
X191112281Y-86189931D01*
X191112281Y-86189932D01*
X191099376Y-86232476D01*
X191097745Y-86237850D01*
X191074141Y-86282010D01*
X191042376Y-86320716D01*
X191003670Y-86352481D01*
X190963708Y-86373841D01*
X190959508Y-86376086D01*
X190911592Y-86390621D01*
X190911591Y-86390621D01*
X190911588Y-86390622D01*
X190874244Y-86394300D01*
X189355756Y-86394300D01*
X189318412Y-86390622D01*
X189318409Y-86390621D01*
X189318408Y-86390621D01*
X189270492Y-86376086D01*
X189266292Y-86373841D01*
X189226330Y-86352481D01*
X189187624Y-86320716D01*
X189155859Y-86282010D01*
X189132255Y-86237850D01*
X189130625Y-86232476D01*
X189117719Y-86189932D01*
X189117719Y-86189931D01*
X189117718Y-86189928D01*
X189112811Y-86140100D01*
X189117718Y-86090272D01*
X189117719Y-86090268D01*
X189132254Y-86042352D01*
X189140205Y-86027477D01*
X189155859Y-85998190D01*
X189187624Y-85959484D01*
X189226330Y-85927719D01*
X189270490Y-85904115D01*
X189270492Y-85904114D01*
X189318408Y-85889579D01*
X189318409Y-85889579D01*
X189318412Y-85889578D01*
X189355756Y-85885900D01*
X190874244Y-85885900D01*
X190911588Y-85889578D01*
X190911588Y-85889578D01*
G37*
G36*
X158279999Y-84749737D02*
X158289611Y-84752653D01*
X158298469Y-84757388D01*
X158306237Y-84763763D01*
X158316446Y-84776202D01*
X158323372Y-84786568D01*
X158340698Y-84803895D01*
X158361073Y-84817510D01*
X158383711Y-84826888D01*
X158407745Y-84831669D01*
X158432249Y-84831669D01*
X158456283Y-84826889D01*
X158478922Y-84817513D01*
X158499297Y-84803899D01*
X158516624Y-84786573D01*
X158523552Y-84776204D01*
X158533763Y-84763763D01*
X158541531Y-84757388D01*
X158550389Y-84752653D01*
X158560001Y-84749737D01*
X158576140Y-84748148D01*
X159063860Y-84748148D01*
X159082198Y-84749954D01*
X159094450Y-84750556D01*
X159112869Y-84750556D01*
X159135149Y-84752750D01*
X159219236Y-84769476D01*
X159240655Y-84775974D01*
X159319871Y-84808785D01*
X159339607Y-84819335D01*
X159410897Y-84866969D01*
X159428208Y-84881176D01*
X159488824Y-84941792D01*
X159503031Y-84959103D01*
X159550665Y-85030393D01*
X159561215Y-85050129D01*
X159594026Y-85129345D01*
X159600524Y-85150764D01*
X159617250Y-85234851D01*
X159619444Y-85257131D01*
X159619444Y-85275550D01*
X159620046Y-85287802D01*
X159621852Y-85306140D01*
X159621852Y-85793861D01*
X159620046Y-85812198D01*
X159619444Y-85824450D01*
X159619444Y-85842869D01*
X159617250Y-85865149D01*
X159600524Y-85949236D01*
X159594026Y-85970655D01*
X159561215Y-86049871D01*
X159550665Y-86069607D01*
X159503031Y-86140897D01*
X159488824Y-86158208D01*
X159428208Y-86218824D01*
X159410897Y-86233031D01*
X159339607Y-86280665D01*
X159319871Y-86291215D01*
X159240655Y-86324026D01*
X159219236Y-86330524D01*
X159135149Y-86347250D01*
X159112869Y-86349444D01*
X159094450Y-86349444D01*
X159082198Y-86350046D01*
X159063861Y-86351852D01*
X158576140Y-86351852D01*
X158560001Y-86350263D01*
X158550389Y-86347347D01*
X158541531Y-86342612D01*
X158533763Y-86336237D01*
X158523554Y-86323798D01*
X158516628Y-86313432D01*
X158499302Y-86296105D01*
X158478927Y-86282490D01*
X158456289Y-86273112D01*
X158432255Y-86268331D01*
X158407751Y-86268331D01*
X158383717Y-86273111D01*
X158361078Y-86282487D01*
X158340703Y-86296101D01*
X158323376Y-86313427D01*
X158316448Y-86323796D01*
X158306237Y-86336237D01*
X158298469Y-86342612D01*
X158289611Y-86347347D01*
X158279999Y-86350263D01*
X158263860Y-86351852D01*
X157776139Y-86351852D01*
X157757802Y-86350046D01*
X157745550Y-86349444D01*
X157727131Y-86349444D01*
X157704851Y-86347250D01*
X157620764Y-86330524D01*
X157599345Y-86324026D01*
X157520129Y-86291215D01*
X157500393Y-86280665D01*
X157429103Y-86233031D01*
X157411792Y-86218824D01*
X157351176Y-86158208D01*
X157336969Y-86140897D01*
X157289335Y-86069607D01*
X157278785Y-86049871D01*
X157245974Y-85970655D01*
X157239476Y-85949236D01*
X157222750Y-85865149D01*
X157220556Y-85842869D01*
X157220556Y-85824450D01*
X157219954Y-85812198D01*
X157218148Y-85793861D01*
X157218148Y-85306140D01*
X157219954Y-85287802D01*
X157220556Y-85275550D01*
X157220556Y-85257131D01*
X157222750Y-85234851D01*
X157239476Y-85150764D01*
X157245974Y-85129345D01*
X157278785Y-85050129D01*
X157289335Y-85030393D01*
X157336969Y-84959103D01*
X157351176Y-84941792D01*
X157411792Y-84881176D01*
X157429103Y-84866969D01*
X157500393Y-84819335D01*
X157520129Y-84808785D01*
X157599345Y-84775974D01*
X157620764Y-84769476D01*
X157704851Y-84752750D01*
X157727131Y-84750556D01*
X157745550Y-84750556D01*
X157757802Y-84749954D01*
X157776140Y-84748148D01*
X158263860Y-84748148D01*
X158279999Y-84749737D01*
X158279999Y-84749737D01*
G37*
G36*
X222396000Y-86331000D02*
X219744000Y-86331000D01*
X219744000Y-85169000D01*
X222396000Y-85169000D01*
X222396000Y-86331000D01*
X222396000Y-86331000D01*
G37*
G36*
X215875562Y-84723181D02*
X215910477Y-84733773D01*
X215942665Y-84750978D01*
X215970873Y-84774127D01*
X215994022Y-84802335D01*
X216011227Y-84834523D01*
X216021819Y-84869438D01*
X216026000Y-84911895D01*
X216026000Y-86053105D01*
X216021819Y-86095562D01*
X216011227Y-86130477D01*
X215994022Y-86162665D01*
X215970873Y-86190873D01*
X215942665Y-86214022D01*
X215910477Y-86231227D01*
X215875562Y-86241819D01*
X215833105Y-86246000D01*
X214366895Y-86246000D01*
X214324438Y-86241819D01*
X214289523Y-86231227D01*
X214257335Y-86214022D01*
X214229127Y-86190873D01*
X214205978Y-86162665D01*
X214188773Y-86130477D01*
X214178181Y-86095562D01*
X214174000Y-86053105D01*
X214174000Y-84911895D01*
X214178181Y-84869438D01*
X214188773Y-84834523D01*
X214205978Y-84802335D01*
X214229127Y-84774127D01*
X214257335Y-84750978D01*
X214289523Y-84733773D01*
X214324438Y-84723181D01*
X214366895Y-84719000D01*
X215833105Y-84719000D01*
X215875562Y-84723181D01*
X215875562Y-84723181D01*
G37*
G36*
X190911588Y-85089478D02*
X190911591Y-85089479D01*
X190911592Y-85089479D01*
X190959508Y-85104014D01*
X190959510Y-85104015D01*
X191003670Y-85127619D01*
X191042376Y-85159384D01*
X191074141Y-85198090D01*
X191085701Y-85219718D01*
X191097746Y-85242252D01*
X191112281Y-85290168D01*
X191112282Y-85290172D01*
X191117189Y-85340000D01*
X191112282Y-85389828D01*
X191112281Y-85389831D01*
X191112281Y-85389832D01*
X191098076Y-85436661D01*
X191097745Y-85437750D01*
X191074141Y-85481910D01*
X191042376Y-85520616D01*
X191003670Y-85552381D01*
X190962947Y-85574148D01*
X190959508Y-85575986D01*
X190911592Y-85590521D01*
X190911591Y-85590521D01*
X190911588Y-85590522D01*
X190874244Y-85594200D01*
X189355756Y-85594200D01*
X189318412Y-85590522D01*
X189318409Y-85590521D01*
X189318408Y-85590521D01*
X189270492Y-85575986D01*
X189267053Y-85574148D01*
X189226330Y-85552381D01*
X189187624Y-85520616D01*
X189155859Y-85481910D01*
X189132255Y-85437750D01*
X189131925Y-85436661D01*
X189117719Y-85389832D01*
X189117719Y-85389831D01*
X189117718Y-85389828D01*
X189112811Y-85340000D01*
X189117718Y-85290172D01*
X189117719Y-85290168D01*
X189132254Y-85242252D01*
X189144299Y-85219718D01*
X189155859Y-85198090D01*
X189187624Y-85159384D01*
X189226330Y-85127619D01*
X189270490Y-85104015D01*
X189270492Y-85104014D01*
X189318408Y-85089479D01*
X189318409Y-85089479D01*
X189318412Y-85089478D01*
X189355756Y-85085800D01*
X190874244Y-85085800D01*
X190911588Y-85089478D01*
X190911588Y-85089478D01*
G37*
G36*
X202341588Y-85089478D02*
X202341591Y-85089479D01*
X202341592Y-85089479D01*
X202389508Y-85104014D01*
X202389510Y-85104015D01*
X202433670Y-85127619D01*
X202472376Y-85159384D01*
X202504141Y-85198090D01*
X202515701Y-85219718D01*
X202527746Y-85242252D01*
X202542281Y-85290168D01*
X202542282Y-85290172D01*
X202547189Y-85340000D01*
X202542282Y-85389828D01*
X202542281Y-85389831D01*
X202542281Y-85389832D01*
X202528076Y-85436661D01*
X202527745Y-85437750D01*
X202504141Y-85481910D01*
X202472376Y-85520616D01*
X202433670Y-85552381D01*
X202392947Y-85574148D01*
X202389508Y-85575986D01*
X202341592Y-85590521D01*
X202341591Y-85590521D01*
X202341588Y-85590522D01*
X202304244Y-85594200D01*
X200785756Y-85594200D01*
X200748412Y-85590522D01*
X200748409Y-85590521D01*
X200748408Y-85590521D01*
X200700492Y-85575986D01*
X200697053Y-85574148D01*
X200656330Y-85552381D01*
X200617624Y-85520616D01*
X200585859Y-85481910D01*
X200562255Y-85437750D01*
X200561925Y-85436661D01*
X200547719Y-85389832D01*
X200547719Y-85389831D01*
X200547718Y-85389828D01*
X200542811Y-85340000D01*
X200547718Y-85290172D01*
X200547719Y-85290168D01*
X200562254Y-85242252D01*
X200574299Y-85219718D01*
X200585859Y-85198090D01*
X200617624Y-85159384D01*
X200656330Y-85127619D01*
X200700490Y-85104015D01*
X200700492Y-85104014D01*
X200748408Y-85089479D01*
X200748409Y-85089479D01*
X200748412Y-85089478D01*
X200785756Y-85085800D01*
X202304244Y-85085800D01*
X202341588Y-85089478D01*
X202341588Y-85089478D01*
G37*
G36*
X202341588Y-84289378D02*
X202341591Y-84289379D01*
X202341592Y-84289379D01*
X202389508Y-84303914D01*
X202389510Y-84303915D01*
X202433670Y-84327519D01*
X202472376Y-84359284D01*
X202504141Y-84397990D01*
X202526447Y-84439722D01*
X202527746Y-84442152D01*
X202536562Y-84471215D01*
X202542282Y-84490072D01*
X202547189Y-84539900D01*
X202542282Y-84589728D01*
X202542281Y-84589731D01*
X202542281Y-84589732D01*
X202530265Y-84629345D01*
X202527745Y-84637650D01*
X202504141Y-84681810D01*
X202472376Y-84720516D01*
X202433670Y-84752281D01*
X202392799Y-84774127D01*
X202389508Y-84775886D01*
X202341592Y-84790421D01*
X202341591Y-84790421D01*
X202341588Y-84790422D01*
X202304244Y-84794100D01*
X200785756Y-84794100D01*
X200748412Y-84790422D01*
X200748409Y-84790421D01*
X200748408Y-84790421D01*
X200700492Y-84775886D01*
X200697201Y-84774127D01*
X200656330Y-84752281D01*
X200617624Y-84720516D01*
X200585859Y-84681810D01*
X200562255Y-84637650D01*
X200559736Y-84629345D01*
X200547719Y-84589732D01*
X200547719Y-84589731D01*
X200547718Y-84589728D01*
X200542811Y-84539900D01*
X200547718Y-84490072D01*
X200553438Y-84471215D01*
X200562254Y-84442152D01*
X200563553Y-84439722D01*
X200585859Y-84397990D01*
X200617624Y-84359284D01*
X200656330Y-84327519D01*
X200700490Y-84303915D01*
X200700492Y-84303914D01*
X200748408Y-84289379D01*
X200748409Y-84289379D01*
X200748412Y-84289378D01*
X200785756Y-84285700D01*
X202304244Y-84285700D01*
X202341588Y-84289378D01*
X202341588Y-84289378D01*
G37*
G36*
X190911588Y-84289378D02*
X190911591Y-84289379D01*
X190911592Y-84289379D01*
X190959508Y-84303914D01*
X190959510Y-84303915D01*
X191003670Y-84327519D01*
X191042376Y-84359284D01*
X191074141Y-84397990D01*
X191096447Y-84439722D01*
X191097746Y-84442152D01*
X191106562Y-84471215D01*
X191112282Y-84490072D01*
X191117189Y-84539900D01*
X191112282Y-84589728D01*
X191112281Y-84589731D01*
X191112281Y-84589732D01*
X191100265Y-84629345D01*
X191097745Y-84637650D01*
X191074141Y-84681810D01*
X191042376Y-84720516D01*
X191003670Y-84752281D01*
X190962799Y-84774127D01*
X190959508Y-84775886D01*
X190911592Y-84790421D01*
X190911591Y-84790421D01*
X190911588Y-84790422D01*
X190874244Y-84794100D01*
X189355756Y-84794100D01*
X189318412Y-84790422D01*
X189318409Y-84790421D01*
X189318408Y-84790421D01*
X189270492Y-84775886D01*
X189267201Y-84774127D01*
X189226330Y-84752281D01*
X189187624Y-84720516D01*
X189155859Y-84681810D01*
X189132255Y-84637650D01*
X189129736Y-84629345D01*
X189117719Y-84589732D01*
X189117719Y-84589731D01*
X189117718Y-84589728D01*
X189112811Y-84539900D01*
X189117718Y-84490072D01*
X189123438Y-84471215D01*
X189132254Y-84442152D01*
X189133553Y-84439722D01*
X189155859Y-84397990D01*
X189187624Y-84359284D01*
X189226330Y-84327519D01*
X189270490Y-84303915D01*
X189270492Y-84303914D01*
X189318408Y-84289379D01*
X189318409Y-84289379D01*
X189318412Y-84289378D01*
X189355756Y-84285700D01*
X190874244Y-84285700D01*
X190911588Y-84289378D01*
X190911588Y-84289378D01*
G37*
G36*
X177343677Y-82583465D02*
X177381364Y-82594898D01*
X177416103Y-82613466D01*
X177446548Y-82638452D01*
X177471534Y-82668897D01*
X177490102Y-82703636D01*
X177501535Y-82741323D01*
X177506000Y-82786661D01*
X177506000Y-83873339D01*
X177501535Y-83918677D01*
X177490102Y-83956364D01*
X177471534Y-83991103D01*
X177446548Y-84021548D01*
X177416103Y-84046534D01*
X177381364Y-84065102D01*
X177343677Y-84076535D01*
X177298339Y-84081000D01*
X176461661Y-84081000D01*
X176416323Y-84076535D01*
X176378636Y-84065102D01*
X176343897Y-84046534D01*
X176313452Y-84021548D01*
X176288466Y-83991103D01*
X176269898Y-83956364D01*
X176258465Y-83918677D01*
X176254000Y-83873339D01*
X176254000Y-82786661D01*
X176258465Y-82741323D01*
X176269898Y-82703636D01*
X176288466Y-82668897D01*
X176313452Y-82638452D01*
X176343897Y-82613466D01*
X176378636Y-82594898D01*
X176416323Y-82583465D01*
X176461661Y-82579000D01*
X177298339Y-82579000D01*
X177343677Y-82583465D01*
X177343677Y-82583465D01*
G37*
G36*
X179393677Y-82583465D02*
X179431364Y-82594898D01*
X179466103Y-82613466D01*
X179496548Y-82638452D01*
X179521534Y-82668897D01*
X179540102Y-82703636D01*
X179551535Y-82741323D01*
X179556000Y-82786661D01*
X179556000Y-83873339D01*
X179551535Y-83918677D01*
X179540102Y-83956364D01*
X179521534Y-83991103D01*
X179496548Y-84021548D01*
X179466103Y-84046534D01*
X179431364Y-84065102D01*
X179393677Y-84076535D01*
X179348339Y-84081000D01*
X178511661Y-84081000D01*
X178466323Y-84076535D01*
X178428636Y-84065102D01*
X178393897Y-84046534D01*
X178363452Y-84021548D01*
X178338466Y-83991103D01*
X178319898Y-83956364D01*
X178308465Y-83918677D01*
X178304000Y-83873339D01*
X178304000Y-82786661D01*
X178308465Y-82741323D01*
X178319898Y-82703636D01*
X178338466Y-82668897D01*
X178363452Y-82638452D01*
X178393897Y-82613466D01*
X178428636Y-82594898D01*
X178466323Y-82583465D01*
X178511661Y-82579000D01*
X179348339Y-82579000D01*
X179393677Y-82583465D01*
X179393677Y-82583465D01*
G37*
G36*
X157768677Y-82573465D02*
X157806364Y-82584898D01*
X157841103Y-82603466D01*
X157871548Y-82628452D01*
X157896534Y-82658897D01*
X157915102Y-82693636D01*
X157926535Y-82731323D01*
X157931000Y-82776661D01*
X157931000Y-83863339D01*
X157926535Y-83908677D01*
X157915102Y-83946364D01*
X157896534Y-83981103D01*
X157871548Y-84011548D01*
X157841103Y-84036534D01*
X157806364Y-84055102D01*
X157768677Y-84066535D01*
X157723339Y-84071000D01*
X156886661Y-84071000D01*
X156841323Y-84066535D01*
X156803636Y-84055102D01*
X156768897Y-84036534D01*
X156738452Y-84011548D01*
X156713466Y-83981103D01*
X156694898Y-83946364D01*
X156683465Y-83908677D01*
X156679000Y-83863339D01*
X156679000Y-82776661D01*
X156683465Y-82731323D01*
X156694898Y-82693636D01*
X156713466Y-82658897D01*
X156738452Y-82628452D01*
X156768897Y-82603466D01*
X156803636Y-82584898D01*
X156841323Y-82573465D01*
X156886661Y-82569000D01*
X157723339Y-82569000D01*
X157768677Y-82573465D01*
X157768677Y-82573465D01*
G37*
G36*
X159818677Y-82573465D02*
X159856364Y-82584898D01*
X159891103Y-82603466D01*
X159921548Y-82628452D01*
X159946534Y-82658897D01*
X159965102Y-82693636D01*
X159976535Y-82731323D01*
X159981000Y-82776661D01*
X159981000Y-83863339D01*
X159976535Y-83908677D01*
X159965102Y-83946364D01*
X159946534Y-83981103D01*
X159921548Y-84011548D01*
X159891103Y-84036534D01*
X159856364Y-84055102D01*
X159818677Y-84066535D01*
X159773339Y-84071000D01*
X158936661Y-84071000D01*
X158891323Y-84066535D01*
X158853636Y-84055102D01*
X158818897Y-84036534D01*
X158788452Y-84011548D01*
X158763466Y-83981103D01*
X158744898Y-83946364D01*
X158733465Y-83908677D01*
X158729000Y-83863339D01*
X158729000Y-82776661D01*
X158733465Y-82731323D01*
X158744898Y-82693636D01*
X158763466Y-82658897D01*
X158788452Y-82628452D01*
X158818897Y-82603466D01*
X158853636Y-82584898D01*
X158891323Y-82573465D01*
X158936661Y-82569000D01*
X159773339Y-82569000D01*
X159818677Y-82573465D01*
X159818677Y-82573465D01*
G37*
G36*
X202341588Y-83489278D02*
X202341591Y-83489279D01*
X202341592Y-83489279D01*
X202389508Y-83503814D01*
X202389510Y-83503815D01*
X202433670Y-83527419D01*
X202472376Y-83559184D01*
X202504141Y-83597890D01*
X202517395Y-83622687D01*
X202527746Y-83642052D01*
X202532913Y-83659085D01*
X202542282Y-83689972D01*
X202547189Y-83739800D01*
X202542282Y-83789628D01*
X202542281Y-83789631D01*
X202542281Y-83789632D01*
X202539452Y-83798959D01*
X202527745Y-83837550D01*
X202504141Y-83881710D01*
X202472376Y-83920416D01*
X202433670Y-83952181D01*
X202389510Y-83975785D01*
X202389508Y-83975786D01*
X202341592Y-83990321D01*
X202341591Y-83990321D01*
X202341588Y-83990322D01*
X202304244Y-83994000D01*
X200785756Y-83994000D01*
X200748412Y-83990322D01*
X200748409Y-83990321D01*
X200748408Y-83990321D01*
X200700492Y-83975786D01*
X200700490Y-83975785D01*
X200656330Y-83952181D01*
X200617624Y-83920416D01*
X200585859Y-83881710D01*
X200562255Y-83837550D01*
X200550549Y-83798959D01*
X200547719Y-83789632D01*
X200547719Y-83789631D01*
X200547718Y-83789628D01*
X200542811Y-83739800D01*
X200547718Y-83689972D01*
X200557087Y-83659085D01*
X200562254Y-83642052D01*
X200572605Y-83622687D01*
X200585859Y-83597890D01*
X200617624Y-83559184D01*
X200656330Y-83527419D01*
X200700490Y-83503815D01*
X200700492Y-83503814D01*
X200748408Y-83489279D01*
X200748409Y-83489279D01*
X200748412Y-83489278D01*
X200785756Y-83485600D01*
X202304244Y-83485600D01*
X202341588Y-83489278D01*
X202341588Y-83489278D01*
G37*
G36*
X190911588Y-83489278D02*
X190911591Y-83489279D01*
X190911592Y-83489279D01*
X190959508Y-83503814D01*
X190959510Y-83503815D01*
X191003670Y-83527419D01*
X191042376Y-83559184D01*
X191074141Y-83597890D01*
X191087395Y-83622687D01*
X191097746Y-83642052D01*
X191102913Y-83659085D01*
X191112282Y-83689972D01*
X191117189Y-83739800D01*
X191112282Y-83789628D01*
X191112281Y-83789631D01*
X191112281Y-83789632D01*
X191109452Y-83798959D01*
X191097745Y-83837550D01*
X191074141Y-83881710D01*
X191042376Y-83920416D01*
X191003670Y-83952181D01*
X190959510Y-83975785D01*
X190959508Y-83975786D01*
X190911592Y-83990321D01*
X190911591Y-83990321D01*
X190911588Y-83990322D01*
X190874244Y-83994000D01*
X189355756Y-83994000D01*
X189318412Y-83990322D01*
X189318409Y-83990321D01*
X189318408Y-83990321D01*
X189270492Y-83975786D01*
X189270490Y-83975785D01*
X189226330Y-83952181D01*
X189187624Y-83920416D01*
X189155859Y-83881710D01*
X189132255Y-83837550D01*
X189120549Y-83798959D01*
X189117719Y-83789632D01*
X189117719Y-83789631D01*
X189117718Y-83789628D01*
X189112811Y-83739800D01*
X189117718Y-83689972D01*
X189127087Y-83659085D01*
X189132254Y-83642052D01*
X189142605Y-83622687D01*
X189155859Y-83597890D01*
X189187624Y-83559184D01*
X189226330Y-83527419D01*
X189270490Y-83503815D01*
X189270492Y-83503814D01*
X189318408Y-83489279D01*
X189318409Y-83489279D01*
X189318412Y-83489278D01*
X189355756Y-83485600D01*
X190874244Y-83485600D01*
X190911588Y-83489278D01*
X190911588Y-83489278D01*
G37*
G36*
X202341588Y-82689178D02*
X202341591Y-82689179D01*
X202341592Y-82689179D01*
X202389508Y-82703714D01*
X202389510Y-82703715D01*
X202433670Y-82727319D01*
X202472376Y-82759084D01*
X202504141Y-82797790D01*
X202527745Y-82841950D01*
X202542282Y-82889872D01*
X202547189Y-82939700D01*
X202542282Y-82989528D01*
X202542281Y-82989531D01*
X202542281Y-82989532D01*
X202529534Y-83031555D01*
X202527745Y-83037450D01*
X202504141Y-83081610D01*
X202472376Y-83120316D01*
X202433670Y-83152081D01*
X202405751Y-83167004D01*
X202389508Y-83175686D01*
X202341592Y-83190221D01*
X202341591Y-83190221D01*
X202341588Y-83190222D01*
X202304244Y-83193900D01*
X200785756Y-83193900D01*
X200748412Y-83190222D01*
X200748409Y-83190221D01*
X200748408Y-83190221D01*
X200700492Y-83175686D01*
X200684249Y-83167004D01*
X200656330Y-83152081D01*
X200617624Y-83120316D01*
X200585859Y-83081610D01*
X200562255Y-83037450D01*
X200560467Y-83031555D01*
X200547719Y-82989532D01*
X200547719Y-82989531D01*
X200547718Y-82989528D01*
X200542811Y-82939700D01*
X200547718Y-82889872D01*
X200562255Y-82841950D01*
X200585859Y-82797790D01*
X200617624Y-82759084D01*
X200656330Y-82727319D01*
X200700490Y-82703715D01*
X200700492Y-82703714D01*
X200748408Y-82689179D01*
X200748409Y-82689179D01*
X200748412Y-82689178D01*
X200785756Y-82685500D01*
X202304244Y-82685500D01*
X202341588Y-82689178D01*
X202341588Y-82689178D01*
G37*
G36*
X190911588Y-82689178D02*
X190911591Y-82689179D01*
X190911592Y-82689179D01*
X190959508Y-82703714D01*
X190959510Y-82703715D01*
X191003670Y-82727319D01*
X191042376Y-82759084D01*
X191074141Y-82797790D01*
X191097745Y-82841950D01*
X191112282Y-82889872D01*
X191117189Y-82939700D01*
X191112282Y-82989528D01*
X191112281Y-82989531D01*
X191112281Y-82989532D01*
X191099534Y-83031555D01*
X191097745Y-83037450D01*
X191074141Y-83081610D01*
X191042376Y-83120316D01*
X191003670Y-83152081D01*
X190975751Y-83167004D01*
X190959508Y-83175686D01*
X190911592Y-83190221D01*
X190911591Y-83190221D01*
X190911588Y-83190222D01*
X190874244Y-83193900D01*
X189355756Y-83193900D01*
X189318412Y-83190222D01*
X189318409Y-83190221D01*
X189318408Y-83190221D01*
X189270492Y-83175686D01*
X189254249Y-83167004D01*
X189226330Y-83152081D01*
X189187624Y-83120316D01*
X189155859Y-83081610D01*
X189132255Y-83037450D01*
X189130467Y-83031555D01*
X189117719Y-82989532D01*
X189117719Y-82989531D01*
X189117718Y-82989528D01*
X189112811Y-82939700D01*
X189117718Y-82889872D01*
X189132255Y-82841950D01*
X189155859Y-82797790D01*
X189187624Y-82759084D01*
X189226330Y-82727319D01*
X189270490Y-82703715D01*
X189270492Y-82703714D01*
X189318408Y-82689179D01*
X189318409Y-82689179D01*
X189318412Y-82689178D01*
X189355756Y-82685500D01*
X190874244Y-82685500D01*
X190911588Y-82689178D01*
X190911588Y-82689178D01*
G37*
G36*
X202341588Y-81889078D02*
X202341591Y-81889079D01*
X202341592Y-81889079D01*
X202389508Y-81903614D01*
X202389510Y-81903615D01*
X202433670Y-81927219D01*
X202472376Y-81958984D01*
X202504141Y-81997690D01*
X202527745Y-82041850D01*
X202527746Y-82041852D01*
X202542281Y-82089768D01*
X202542282Y-82089772D01*
X202547189Y-82139600D01*
X202542282Y-82189428D01*
X202542281Y-82189431D01*
X202542281Y-82189432D01*
X202539477Y-82198677D01*
X202527745Y-82237350D01*
X202504141Y-82281510D01*
X202472376Y-82320216D01*
X202433670Y-82351981D01*
X202389510Y-82375585D01*
X202389508Y-82375586D01*
X202341592Y-82390121D01*
X202341591Y-82390121D01*
X202341588Y-82390122D01*
X202304244Y-82393800D01*
X200785756Y-82393800D01*
X200748412Y-82390122D01*
X200748409Y-82390121D01*
X200748408Y-82390121D01*
X200700492Y-82375586D01*
X200700490Y-82375585D01*
X200656330Y-82351981D01*
X200617624Y-82320216D01*
X200585859Y-82281510D01*
X200562255Y-82237350D01*
X200550524Y-82198677D01*
X200547719Y-82189432D01*
X200547719Y-82189431D01*
X200547718Y-82189428D01*
X200542811Y-82139600D01*
X200547718Y-82089772D01*
X200547719Y-82089768D01*
X200562254Y-82041852D01*
X200562255Y-82041850D01*
X200585859Y-81997690D01*
X200617624Y-81958984D01*
X200656330Y-81927219D01*
X200700490Y-81903615D01*
X200700492Y-81903614D01*
X200748408Y-81889079D01*
X200748409Y-81889079D01*
X200748412Y-81889078D01*
X200785756Y-81885400D01*
X202304244Y-81885400D01*
X202341588Y-81889078D01*
X202341588Y-81889078D01*
G37*
G36*
X190911588Y-81889078D02*
X190911591Y-81889079D01*
X190911592Y-81889079D01*
X190959508Y-81903614D01*
X190959510Y-81903615D01*
X191003670Y-81927219D01*
X191042376Y-81958984D01*
X191074141Y-81997690D01*
X191097745Y-82041850D01*
X191097746Y-82041852D01*
X191112281Y-82089768D01*
X191112282Y-82089772D01*
X191117189Y-82139600D01*
X191112282Y-82189428D01*
X191112281Y-82189431D01*
X191112281Y-82189432D01*
X191109477Y-82198677D01*
X191097745Y-82237350D01*
X191074141Y-82281510D01*
X191042376Y-82320216D01*
X191003670Y-82351981D01*
X190959510Y-82375585D01*
X190959508Y-82375586D01*
X190911592Y-82390121D01*
X190911591Y-82390121D01*
X190911588Y-82390122D01*
X190874244Y-82393800D01*
X189355756Y-82393800D01*
X189318412Y-82390122D01*
X189318409Y-82390121D01*
X189318408Y-82390121D01*
X189270492Y-82375586D01*
X189270490Y-82375585D01*
X189226330Y-82351981D01*
X189187624Y-82320216D01*
X189155859Y-82281510D01*
X189132255Y-82237350D01*
X189120524Y-82198677D01*
X189117719Y-82189432D01*
X189117719Y-82189431D01*
X189117718Y-82189428D01*
X189112811Y-82139600D01*
X189117718Y-82089772D01*
X189117719Y-82089768D01*
X189132254Y-82041852D01*
X189132255Y-82041850D01*
X189155859Y-81997690D01*
X189187624Y-81958984D01*
X189226330Y-81927219D01*
X189270490Y-81903615D01*
X189270492Y-81903614D01*
X189318408Y-81889079D01*
X189318409Y-81889079D01*
X189318412Y-81889078D01*
X189355756Y-81885400D01*
X190874244Y-81885400D01*
X190911588Y-81889078D01*
X190911588Y-81889078D01*
G37*
G36*
X186018677Y-80863465D02*
X186056364Y-80874898D01*
X186091103Y-80893466D01*
X186121548Y-80918452D01*
X186146534Y-80948897D01*
X186165102Y-80983636D01*
X186176535Y-81021323D01*
X186181000Y-81066661D01*
X186181000Y-82153339D01*
X186176535Y-82198677D01*
X186165102Y-82236364D01*
X186146534Y-82271103D01*
X186121548Y-82301548D01*
X186091103Y-82326534D01*
X186056364Y-82345102D01*
X186018677Y-82356535D01*
X185973339Y-82361000D01*
X185136661Y-82361000D01*
X185091323Y-82356535D01*
X185053636Y-82345102D01*
X185018897Y-82326534D01*
X184988452Y-82301548D01*
X184963466Y-82271103D01*
X184944898Y-82236364D01*
X184933465Y-82198677D01*
X184929000Y-82153339D01*
X184929000Y-81066661D01*
X184933465Y-81021323D01*
X184944898Y-80983636D01*
X184963466Y-80948897D01*
X184988452Y-80918452D01*
X185018897Y-80893466D01*
X185053636Y-80874898D01*
X185091323Y-80863465D01*
X185136661Y-80859000D01*
X185973339Y-80859000D01*
X186018677Y-80863465D01*
X186018677Y-80863465D01*
G37*
G36*
X183968677Y-80863465D02*
X184006364Y-80874898D01*
X184041103Y-80893466D01*
X184071548Y-80918452D01*
X184096534Y-80948897D01*
X184115102Y-80983636D01*
X184126535Y-81021323D01*
X184131000Y-81066661D01*
X184131000Y-82153339D01*
X184126535Y-82198677D01*
X184115102Y-82236364D01*
X184096534Y-82271103D01*
X184071548Y-82301548D01*
X184041103Y-82326534D01*
X184006364Y-82345102D01*
X183968677Y-82356535D01*
X183923339Y-82361000D01*
X183086661Y-82361000D01*
X183041323Y-82356535D01*
X183003636Y-82345102D01*
X182968897Y-82326534D01*
X182938452Y-82301548D01*
X182913466Y-82271103D01*
X182894898Y-82236364D01*
X182883465Y-82198677D01*
X182879000Y-82153339D01*
X182879000Y-81066661D01*
X182883465Y-81021323D01*
X182894898Y-80983636D01*
X182913466Y-80948897D01*
X182938452Y-80918452D01*
X182968897Y-80893466D01*
X183003636Y-80874898D01*
X183041323Y-80863465D01*
X183086661Y-80859000D01*
X183923339Y-80859000D01*
X183968677Y-80863465D01*
X183968677Y-80863465D01*
G37*
G36*
X177343677Y-80583465D02*
X177381364Y-80594898D01*
X177416103Y-80613466D01*
X177446548Y-80638452D01*
X177471534Y-80668897D01*
X177490102Y-80703636D01*
X177501535Y-80741323D01*
X177506000Y-80786661D01*
X177506000Y-81873339D01*
X177501535Y-81918677D01*
X177490102Y-81956364D01*
X177471534Y-81991103D01*
X177446548Y-82021548D01*
X177416103Y-82046534D01*
X177381364Y-82065102D01*
X177343677Y-82076535D01*
X177298339Y-82081000D01*
X176461661Y-82081000D01*
X176416323Y-82076535D01*
X176378636Y-82065102D01*
X176343897Y-82046534D01*
X176313452Y-82021548D01*
X176288466Y-81991103D01*
X176269898Y-81956364D01*
X176258465Y-81918677D01*
X176254000Y-81873339D01*
X176254000Y-80786661D01*
X176258465Y-80741323D01*
X176269898Y-80703636D01*
X176288466Y-80668897D01*
X176313452Y-80638452D01*
X176343897Y-80613466D01*
X176378636Y-80594898D01*
X176416323Y-80583465D01*
X176461661Y-80579000D01*
X177298339Y-80579000D01*
X177343677Y-80583465D01*
X177343677Y-80583465D01*
G37*
G36*
X179393677Y-80583465D02*
X179431364Y-80594898D01*
X179466103Y-80613466D01*
X179496548Y-80638452D01*
X179521534Y-80668897D01*
X179540102Y-80703636D01*
X179551535Y-80741323D01*
X179556000Y-80786661D01*
X179556000Y-81873339D01*
X179551535Y-81918677D01*
X179540102Y-81956364D01*
X179521534Y-81991103D01*
X179496548Y-82021548D01*
X179466103Y-82046534D01*
X179431364Y-82065102D01*
X179393677Y-82076535D01*
X179348339Y-82081000D01*
X178511661Y-82081000D01*
X178466323Y-82076535D01*
X178428636Y-82065102D01*
X178393897Y-82046534D01*
X178363452Y-82021548D01*
X178338466Y-81991103D01*
X178319898Y-81956364D01*
X178308465Y-81918677D01*
X178304000Y-81873339D01*
X178304000Y-80786661D01*
X178308465Y-80741323D01*
X178319898Y-80703636D01*
X178338466Y-80668897D01*
X178363452Y-80638452D01*
X178393897Y-80613466D01*
X178428636Y-80594898D01*
X178466323Y-80583465D01*
X178511661Y-80579000D01*
X179348339Y-80579000D01*
X179393677Y-80583465D01*
X179393677Y-80583465D01*
G37*
G36*
X157778677Y-80573465D02*
X157816364Y-80584898D01*
X157851103Y-80603466D01*
X157881548Y-80628452D01*
X157906534Y-80658897D01*
X157925102Y-80693636D01*
X157936535Y-80731323D01*
X157941000Y-80776661D01*
X157941000Y-81863339D01*
X157936535Y-81908677D01*
X157925102Y-81946364D01*
X157906534Y-81981103D01*
X157881548Y-82011548D01*
X157851103Y-82036534D01*
X157816364Y-82055102D01*
X157778677Y-82066535D01*
X157733339Y-82071000D01*
X156896661Y-82071000D01*
X156851323Y-82066535D01*
X156813636Y-82055102D01*
X156778897Y-82036534D01*
X156748452Y-82011548D01*
X156723466Y-81981103D01*
X156704898Y-81946364D01*
X156693465Y-81908677D01*
X156689000Y-81863339D01*
X156689000Y-80776661D01*
X156693465Y-80731323D01*
X156704898Y-80693636D01*
X156723466Y-80658897D01*
X156748452Y-80628452D01*
X156778897Y-80603466D01*
X156813636Y-80584898D01*
X156851323Y-80573465D01*
X156896661Y-80569000D01*
X157733339Y-80569000D01*
X157778677Y-80573465D01*
X157778677Y-80573465D01*
G37*
G36*
X159828677Y-80573465D02*
X159866364Y-80584898D01*
X159901103Y-80603466D01*
X159931548Y-80628452D01*
X159956534Y-80658897D01*
X159975102Y-80693636D01*
X159986535Y-80731323D01*
X159991000Y-80776661D01*
X159991000Y-81863339D01*
X159986535Y-81908677D01*
X159975102Y-81946364D01*
X159956534Y-81981103D01*
X159931548Y-82011548D01*
X159901103Y-82036534D01*
X159866364Y-82055102D01*
X159828677Y-82066535D01*
X159783339Y-82071000D01*
X158946661Y-82071000D01*
X158901323Y-82066535D01*
X158863636Y-82055102D01*
X158828897Y-82036534D01*
X158798452Y-82011548D01*
X158773466Y-81981103D01*
X158754898Y-81946364D01*
X158743465Y-81908677D01*
X158739000Y-81863339D01*
X158739000Y-80776661D01*
X158743465Y-80731323D01*
X158754898Y-80693636D01*
X158773466Y-80658897D01*
X158798452Y-80628452D01*
X158828897Y-80603466D01*
X158863636Y-80584898D01*
X158901323Y-80573465D01*
X158946661Y-80569000D01*
X159783339Y-80569000D01*
X159828677Y-80573465D01*
X159828677Y-80573465D01*
G37*
G36*
X205878677Y-80573465D02*
X205916364Y-80584898D01*
X205951103Y-80603466D01*
X205981548Y-80628452D01*
X206006534Y-80658897D01*
X206025102Y-80693636D01*
X206036535Y-80731323D01*
X206041000Y-80776661D01*
X206041000Y-81613339D01*
X206036535Y-81658677D01*
X206025102Y-81696364D01*
X206006534Y-81731103D01*
X205981548Y-81761548D01*
X205951103Y-81786534D01*
X205916364Y-81805102D01*
X205878677Y-81816535D01*
X205833339Y-81821000D01*
X204746661Y-81821000D01*
X204701323Y-81816535D01*
X204663636Y-81805102D01*
X204628897Y-81786534D01*
X204598452Y-81761548D01*
X204573466Y-81731103D01*
X204554898Y-81696364D01*
X204543465Y-81658677D01*
X204539000Y-81613339D01*
X204539000Y-80776661D01*
X204543465Y-80731323D01*
X204554898Y-80693636D01*
X204573466Y-80658897D01*
X204598452Y-80628452D01*
X204628897Y-80603466D01*
X204663636Y-80584898D01*
X204701323Y-80573465D01*
X204746661Y-80569000D01*
X205833339Y-80569000D01*
X205878677Y-80573465D01*
X205878677Y-80573465D01*
G37*
G36*
X190911588Y-81088978D02*
X190911591Y-81088979D01*
X190911592Y-81088979D01*
X190959508Y-81103514D01*
X190959510Y-81103515D01*
X191003670Y-81127119D01*
X191042376Y-81158884D01*
X191074141Y-81197590D01*
X191097745Y-81241750D01*
X191097746Y-81241752D01*
X191104241Y-81263164D01*
X191112282Y-81289672D01*
X191117189Y-81339500D01*
X191112282Y-81389328D01*
X191112281Y-81389331D01*
X191112281Y-81389332D01*
X191104811Y-81413959D01*
X191097745Y-81437250D01*
X191074141Y-81481410D01*
X191042376Y-81520116D01*
X191003670Y-81551881D01*
X190959510Y-81575485D01*
X190959508Y-81575486D01*
X190911592Y-81590021D01*
X190911591Y-81590021D01*
X190911588Y-81590022D01*
X190874244Y-81593700D01*
X189355756Y-81593700D01*
X189318412Y-81590022D01*
X189318409Y-81590021D01*
X189318408Y-81590021D01*
X189270492Y-81575486D01*
X189270490Y-81575485D01*
X189226330Y-81551881D01*
X189187624Y-81520116D01*
X189155859Y-81481410D01*
X189132255Y-81437250D01*
X189125190Y-81413959D01*
X189117719Y-81389332D01*
X189117719Y-81389331D01*
X189117718Y-81389328D01*
X189112811Y-81339500D01*
X189117718Y-81289672D01*
X189125759Y-81263164D01*
X189132254Y-81241752D01*
X189132255Y-81241750D01*
X189155859Y-81197590D01*
X189187624Y-81158884D01*
X189226330Y-81127119D01*
X189270490Y-81103515D01*
X189270492Y-81103514D01*
X189318408Y-81088979D01*
X189318409Y-81088979D01*
X189318412Y-81088978D01*
X189355756Y-81085300D01*
X190874244Y-81085300D01*
X190911588Y-81088978D01*
X190911588Y-81088978D01*
G37*
G36*
X202341588Y-81088978D02*
X202341591Y-81088979D01*
X202341592Y-81088979D01*
X202389508Y-81103514D01*
X202389510Y-81103515D01*
X202433670Y-81127119D01*
X202472376Y-81158884D01*
X202504141Y-81197590D01*
X202527745Y-81241750D01*
X202527746Y-81241752D01*
X202534241Y-81263164D01*
X202542282Y-81289672D01*
X202547189Y-81339500D01*
X202542282Y-81389328D01*
X202542281Y-81389331D01*
X202542281Y-81389332D01*
X202534811Y-81413959D01*
X202527745Y-81437250D01*
X202504141Y-81481410D01*
X202472376Y-81520116D01*
X202433670Y-81551881D01*
X202389510Y-81575485D01*
X202389508Y-81575486D01*
X202341592Y-81590021D01*
X202341591Y-81590021D01*
X202341588Y-81590022D01*
X202304244Y-81593700D01*
X200785756Y-81593700D01*
X200748412Y-81590022D01*
X200748409Y-81590021D01*
X200748408Y-81590021D01*
X200700492Y-81575486D01*
X200700490Y-81575485D01*
X200656330Y-81551881D01*
X200617624Y-81520116D01*
X200585859Y-81481410D01*
X200562255Y-81437250D01*
X200555190Y-81413959D01*
X200547719Y-81389332D01*
X200547719Y-81389331D01*
X200547718Y-81389328D01*
X200542811Y-81339500D01*
X200547718Y-81289672D01*
X200555759Y-81263164D01*
X200562254Y-81241752D01*
X200562255Y-81241750D01*
X200585859Y-81197590D01*
X200617624Y-81158884D01*
X200656330Y-81127119D01*
X200700490Y-81103515D01*
X200700492Y-81103514D01*
X200748408Y-81088979D01*
X200748409Y-81088979D01*
X200748412Y-81088978D01*
X200785756Y-81085300D01*
X202304244Y-81085300D01*
X202341588Y-81088978D01*
X202341588Y-81088978D01*
G37*
G36*
X195036011Y-78623413D02*
X195079728Y-78627718D01*
X195079731Y-78627719D01*
X195127647Y-78642254D01*
X195171809Y-78665859D01*
X195210516Y-78697624D01*
X195210517Y-78697626D01*
X195210519Y-78697627D01*
X195242281Y-78736330D01*
X195245207Y-78741805D01*
X195265886Y-78780492D01*
X195277292Y-78818093D01*
X195280422Y-78828412D01*
X195284100Y-78865756D01*
X195284100Y-80384244D01*
X195280422Y-80421588D01*
X195265885Y-80469510D01*
X195242281Y-80513670D01*
X195210516Y-80552376D01*
X195171810Y-80584141D01*
X195142667Y-80599718D01*
X195127648Y-80607746D01*
X195079732Y-80622281D01*
X195079731Y-80622281D01*
X195079728Y-80622282D01*
X195029901Y-80627189D01*
X195029900Y-80627189D01*
X195023789Y-80626587D01*
X194980072Y-80622282D01*
X194951010Y-80613466D01*
X194932153Y-80607746D01*
X194917134Y-80599718D01*
X194887991Y-80584141D01*
X194849285Y-80552376D01*
X194817520Y-80513670D01*
X194793916Y-80469510D01*
X194779379Y-80421588D01*
X194775701Y-80384244D01*
X194775700Y-78865757D01*
X194779378Y-78828413D01*
X194779379Y-78828409D01*
X194793914Y-78780493D01*
X194817519Y-78736331D01*
X194849284Y-78697624D01*
X194849286Y-78697623D01*
X194849287Y-78697621D01*
X194887990Y-78665859D01*
X194932150Y-78642255D01*
X194932152Y-78642254D01*
X194980068Y-78627719D01*
X194980069Y-78627719D01*
X194980072Y-78627718D01*
X195029899Y-78622811D01*
X195029900Y-78622811D01*
X195036011Y-78623413D01*
X195036011Y-78623413D01*
G37*
G36*
X195836111Y-78623413D02*
X195879828Y-78627718D01*
X195879831Y-78627719D01*
X195927747Y-78642254D01*
X195971909Y-78665859D01*
X196010616Y-78697624D01*
X196010617Y-78697626D01*
X196010619Y-78697627D01*
X196042381Y-78736330D01*
X196045307Y-78741805D01*
X196065986Y-78780492D01*
X196077392Y-78818093D01*
X196080522Y-78828412D01*
X196084200Y-78865756D01*
X196084200Y-80384244D01*
X196080522Y-80421588D01*
X196065985Y-80469510D01*
X196042381Y-80513670D01*
X196010616Y-80552376D01*
X195971910Y-80584141D01*
X195942767Y-80599718D01*
X195927748Y-80607746D01*
X195879832Y-80622281D01*
X195879831Y-80622281D01*
X195879828Y-80622282D01*
X195830001Y-80627189D01*
X195830000Y-80627189D01*
X195823889Y-80626587D01*
X195780172Y-80622282D01*
X195751110Y-80613466D01*
X195732253Y-80607746D01*
X195717234Y-80599718D01*
X195688091Y-80584141D01*
X195649385Y-80552376D01*
X195617620Y-80513670D01*
X195594016Y-80469510D01*
X195579479Y-80421588D01*
X195575801Y-80384244D01*
X195575800Y-78865757D01*
X195579478Y-78828413D01*
X195579479Y-78828409D01*
X195594014Y-78780493D01*
X195617619Y-78736331D01*
X195649384Y-78697624D01*
X195649386Y-78697623D01*
X195649387Y-78697621D01*
X195688090Y-78665859D01*
X195732250Y-78642255D01*
X195732252Y-78642254D01*
X195780168Y-78627719D01*
X195780169Y-78627719D01*
X195780172Y-78627718D01*
X195829999Y-78622811D01*
X195830000Y-78622811D01*
X195836111Y-78623413D01*
X195836111Y-78623413D01*
G37*
G36*
X194235911Y-78623413D02*
X194279628Y-78627718D01*
X194279631Y-78627719D01*
X194327547Y-78642254D01*
X194371709Y-78665859D01*
X194410416Y-78697624D01*
X194410417Y-78697626D01*
X194410419Y-78697627D01*
X194442181Y-78736330D01*
X194445107Y-78741805D01*
X194465786Y-78780492D01*
X194477192Y-78818093D01*
X194480322Y-78828412D01*
X194484000Y-78865756D01*
X194484000Y-80384244D01*
X194480322Y-80421588D01*
X194465785Y-80469510D01*
X194442181Y-80513670D01*
X194410416Y-80552376D01*
X194371710Y-80584141D01*
X194342567Y-80599718D01*
X194327548Y-80607746D01*
X194279632Y-80622281D01*
X194279631Y-80622281D01*
X194279628Y-80622282D01*
X194229801Y-80627189D01*
X194229800Y-80627189D01*
X194223689Y-80626587D01*
X194179972Y-80622282D01*
X194150910Y-80613466D01*
X194132053Y-80607746D01*
X194117034Y-80599718D01*
X194087891Y-80584141D01*
X194049185Y-80552376D01*
X194017420Y-80513670D01*
X193993816Y-80469510D01*
X193979279Y-80421588D01*
X193975601Y-80384244D01*
X193975600Y-78865757D01*
X193979278Y-78828413D01*
X193979279Y-78828409D01*
X193993814Y-78780493D01*
X194017419Y-78736331D01*
X194049184Y-78697624D01*
X194049186Y-78697623D01*
X194049187Y-78697621D01*
X194087890Y-78665859D01*
X194132050Y-78642255D01*
X194132052Y-78642254D01*
X194179968Y-78627719D01*
X194179969Y-78627719D01*
X194179972Y-78627718D01*
X194229799Y-78622811D01*
X194229800Y-78622811D01*
X194235911Y-78623413D01*
X194235911Y-78623413D01*
G37*
G36*
X199836611Y-78623413D02*
X199880328Y-78627718D01*
X199880331Y-78627719D01*
X199928247Y-78642254D01*
X199972409Y-78665859D01*
X200011116Y-78697624D01*
X200011117Y-78697626D01*
X200011119Y-78697627D01*
X200042881Y-78736330D01*
X200045807Y-78741805D01*
X200066486Y-78780492D01*
X200077892Y-78818093D01*
X200081022Y-78828412D01*
X200084700Y-78865756D01*
X200084700Y-80384244D01*
X200081022Y-80421588D01*
X200066485Y-80469510D01*
X200042881Y-80513670D01*
X200011116Y-80552376D01*
X199972410Y-80584141D01*
X199943267Y-80599718D01*
X199928248Y-80607746D01*
X199880332Y-80622281D01*
X199880331Y-80622281D01*
X199880328Y-80622282D01*
X199830501Y-80627189D01*
X199830500Y-80627189D01*
X199824389Y-80626587D01*
X199780672Y-80622282D01*
X199751610Y-80613466D01*
X199732753Y-80607746D01*
X199717734Y-80599718D01*
X199688591Y-80584141D01*
X199649885Y-80552376D01*
X199618120Y-80513670D01*
X199594516Y-80469510D01*
X199579979Y-80421588D01*
X199576301Y-80384244D01*
X199576300Y-78865757D01*
X199579978Y-78828413D01*
X199579979Y-78828409D01*
X199594514Y-78780493D01*
X199618119Y-78736331D01*
X199649884Y-78697624D01*
X199649886Y-78697623D01*
X199649887Y-78697621D01*
X199688590Y-78665859D01*
X199732750Y-78642255D01*
X199732752Y-78642254D01*
X199780668Y-78627719D01*
X199780669Y-78627719D01*
X199780672Y-78627718D01*
X199830499Y-78622811D01*
X199830500Y-78622811D01*
X199836611Y-78623413D01*
X199836611Y-78623413D01*
G37*
G36*
X199036511Y-78623413D02*
X199080228Y-78627718D01*
X199080231Y-78627719D01*
X199128147Y-78642254D01*
X199172309Y-78665859D01*
X199211016Y-78697624D01*
X199211017Y-78697626D01*
X199211019Y-78697627D01*
X199242781Y-78736330D01*
X199245707Y-78741805D01*
X199266386Y-78780492D01*
X199277792Y-78818093D01*
X199280922Y-78828412D01*
X199284600Y-78865756D01*
X199284600Y-80384244D01*
X199280922Y-80421588D01*
X199266385Y-80469510D01*
X199242781Y-80513670D01*
X199211016Y-80552376D01*
X199172310Y-80584141D01*
X199143167Y-80599718D01*
X199128148Y-80607746D01*
X199080232Y-80622281D01*
X199080231Y-80622281D01*
X199080228Y-80622282D01*
X199030401Y-80627189D01*
X199030400Y-80627189D01*
X199024289Y-80626587D01*
X198980572Y-80622282D01*
X198951510Y-80613466D01*
X198932653Y-80607746D01*
X198917634Y-80599718D01*
X198888491Y-80584141D01*
X198849785Y-80552376D01*
X198818020Y-80513670D01*
X198794416Y-80469510D01*
X198779879Y-80421588D01*
X198776201Y-80384244D01*
X198776200Y-78865757D01*
X198779878Y-78828413D01*
X198779879Y-78828409D01*
X198794414Y-78780493D01*
X198818019Y-78736331D01*
X198849784Y-78697624D01*
X198849786Y-78697623D01*
X198849787Y-78697621D01*
X198888490Y-78665859D01*
X198932650Y-78642255D01*
X198932652Y-78642254D01*
X198980568Y-78627719D01*
X198980569Y-78627719D01*
X198980572Y-78627718D01*
X199030399Y-78622811D01*
X199030400Y-78622811D01*
X199036511Y-78623413D01*
X199036511Y-78623413D01*
G37*
G36*
X198236411Y-78623413D02*
X198280128Y-78627718D01*
X198280131Y-78627719D01*
X198328047Y-78642254D01*
X198372209Y-78665859D01*
X198410916Y-78697624D01*
X198410917Y-78697626D01*
X198410919Y-78697627D01*
X198442681Y-78736330D01*
X198445607Y-78741805D01*
X198466286Y-78780492D01*
X198477692Y-78818093D01*
X198480822Y-78828412D01*
X198484500Y-78865756D01*
X198484500Y-80384244D01*
X198480822Y-80421588D01*
X198466285Y-80469510D01*
X198442681Y-80513670D01*
X198410916Y-80552376D01*
X198372210Y-80584141D01*
X198343067Y-80599718D01*
X198328048Y-80607746D01*
X198280132Y-80622281D01*
X198280131Y-80622281D01*
X198280128Y-80622282D01*
X198230301Y-80627189D01*
X198230300Y-80627189D01*
X198224189Y-80626587D01*
X198180472Y-80622282D01*
X198151410Y-80613466D01*
X198132553Y-80607746D01*
X198117534Y-80599718D01*
X198088391Y-80584141D01*
X198049685Y-80552376D01*
X198017920Y-80513670D01*
X197994316Y-80469510D01*
X197979779Y-80421588D01*
X197976101Y-80384244D01*
X197976100Y-78865757D01*
X197979778Y-78828413D01*
X197979779Y-78828409D01*
X197994314Y-78780493D01*
X198017919Y-78736331D01*
X198049684Y-78697624D01*
X198049686Y-78697623D01*
X198049687Y-78697621D01*
X198088390Y-78665859D01*
X198132550Y-78642255D01*
X198132552Y-78642254D01*
X198180468Y-78627719D01*
X198180469Y-78627719D01*
X198180472Y-78627718D01*
X198230299Y-78622811D01*
X198230300Y-78622811D01*
X198236411Y-78623413D01*
X198236411Y-78623413D01*
G37*
G36*
X197436311Y-78623413D02*
X197480028Y-78627718D01*
X197480031Y-78627719D01*
X197527947Y-78642254D01*
X197572109Y-78665859D01*
X197610816Y-78697624D01*
X197610817Y-78697626D01*
X197610819Y-78697627D01*
X197642581Y-78736330D01*
X197645507Y-78741805D01*
X197666186Y-78780492D01*
X197677592Y-78818093D01*
X197680722Y-78828412D01*
X197684400Y-78865756D01*
X197684400Y-80384244D01*
X197680722Y-80421588D01*
X197666185Y-80469510D01*
X197642581Y-80513670D01*
X197610816Y-80552376D01*
X197572110Y-80584141D01*
X197542967Y-80599718D01*
X197527948Y-80607746D01*
X197480032Y-80622281D01*
X197480031Y-80622281D01*
X197480028Y-80622282D01*
X197430201Y-80627189D01*
X197430200Y-80627189D01*
X197424089Y-80626587D01*
X197380372Y-80622282D01*
X197351310Y-80613466D01*
X197332453Y-80607746D01*
X197317434Y-80599718D01*
X197288291Y-80584141D01*
X197249585Y-80552376D01*
X197217820Y-80513670D01*
X197194216Y-80469510D01*
X197179679Y-80421588D01*
X197176001Y-80384244D01*
X197176000Y-78865757D01*
X197179678Y-78828413D01*
X197179679Y-78828409D01*
X197194214Y-78780493D01*
X197217819Y-78736331D01*
X197249584Y-78697624D01*
X197249586Y-78697623D01*
X197249587Y-78697621D01*
X197288290Y-78665859D01*
X197332450Y-78642255D01*
X197332452Y-78642254D01*
X197380368Y-78627719D01*
X197380369Y-78627719D01*
X197380372Y-78627718D01*
X197430199Y-78622811D01*
X197430200Y-78622811D01*
X197436311Y-78623413D01*
X197436311Y-78623413D01*
G37*
G36*
X196636211Y-78623413D02*
X196679928Y-78627718D01*
X196679931Y-78627719D01*
X196727847Y-78642254D01*
X196772009Y-78665859D01*
X196810716Y-78697624D01*
X196810717Y-78697626D01*
X196810719Y-78697627D01*
X196842481Y-78736330D01*
X196845407Y-78741805D01*
X196866086Y-78780492D01*
X196877492Y-78818093D01*
X196880622Y-78828412D01*
X196884300Y-78865756D01*
X196884300Y-80384244D01*
X196880622Y-80421588D01*
X196866085Y-80469510D01*
X196842481Y-80513670D01*
X196810716Y-80552376D01*
X196772010Y-80584141D01*
X196742867Y-80599718D01*
X196727848Y-80607746D01*
X196679932Y-80622281D01*
X196679931Y-80622281D01*
X196679928Y-80622282D01*
X196630101Y-80627189D01*
X196630100Y-80627189D01*
X196623989Y-80626587D01*
X196580272Y-80622282D01*
X196551210Y-80613466D01*
X196532353Y-80607746D01*
X196517334Y-80599718D01*
X196488191Y-80584141D01*
X196449485Y-80552376D01*
X196417720Y-80513670D01*
X196394116Y-80469510D01*
X196379579Y-80421588D01*
X196375901Y-80384244D01*
X196375900Y-78865757D01*
X196379578Y-78828413D01*
X196379579Y-78828409D01*
X196394114Y-78780493D01*
X196417719Y-78736331D01*
X196449484Y-78697624D01*
X196449486Y-78697623D01*
X196449487Y-78697621D01*
X196488190Y-78665859D01*
X196532350Y-78642255D01*
X196532352Y-78642254D01*
X196580268Y-78627719D01*
X196580269Y-78627719D01*
X196580272Y-78627718D01*
X196630099Y-78622811D01*
X196630100Y-78622811D01*
X196636211Y-78623413D01*
X196636211Y-78623413D01*
G37*
G36*
X193435811Y-78623413D02*
X193479528Y-78627718D01*
X193479531Y-78627719D01*
X193527447Y-78642254D01*
X193571609Y-78665859D01*
X193610316Y-78697624D01*
X193610317Y-78697626D01*
X193610319Y-78697627D01*
X193642081Y-78736330D01*
X193645007Y-78741805D01*
X193665686Y-78780492D01*
X193677092Y-78818093D01*
X193680222Y-78828412D01*
X193683900Y-78865756D01*
X193683900Y-80384244D01*
X193680222Y-80421588D01*
X193665685Y-80469510D01*
X193642081Y-80513670D01*
X193610316Y-80552376D01*
X193571610Y-80584141D01*
X193542467Y-80599718D01*
X193527448Y-80607746D01*
X193479532Y-80622281D01*
X193479531Y-80622281D01*
X193479528Y-80622282D01*
X193429701Y-80627189D01*
X193429700Y-80627189D01*
X193423589Y-80626587D01*
X193379872Y-80622282D01*
X193350810Y-80613466D01*
X193331953Y-80607746D01*
X193316934Y-80599718D01*
X193287791Y-80584141D01*
X193249085Y-80552376D01*
X193217320Y-80513670D01*
X193193716Y-80469510D01*
X193179179Y-80421588D01*
X193175501Y-80384244D01*
X193175500Y-78865757D01*
X193179178Y-78828413D01*
X193179179Y-78828409D01*
X193193714Y-78780493D01*
X193217319Y-78736331D01*
X193249084Y-78697624D01*
X193249086Y-78697623D01*
X193249087Y-78697621D01*
X193287790Y-78665859D01*
X193331950Y-78642255D01*
X193331952Y-78642254D01*
X193379868Y-78627719D01*
X193379869Y-78627719D01*
X193379872Y-78627718D01*
X193429699Y-78622811D01*
X193429700Y-78622811D01*
X193435811Y-78623413D01*
X193435811Y-78623413D01*
G37*
G36*
X192635711Y-78623413D02*
X192679428Y-78627718D01*
X192679431Y-78627719D01*
X192727347Y-78642254D01*
X192771509Y-78665859D01*
X192810216Y-78697624D01*
X192810217Y-78697626D01*
X192810219Y-78697627D01*
X192841981Y-78736330D01*
X192844907Y-78741805D01*
X192865586Y-78780492D01*
X192876992Y-78818093D01*
X192880122Y-78828412D01*
X192883800Y-78865756D01*
X192883800Y-80384244D01*
X192880122Y-80421588D01*
X192865585Y-80469510D01*
X192841981Y-80513670D01*
X192810216Y-80552376D01*
X192771510Y-80584141D01*
X192742367Y-80599718D01*
X192727348Y-80607746D01*
X192679432Y-80622281D01*
X192679431Y-80622281D01*
X192679428Y-80622282D01*
X192629601Y-80627189D01*
X192629600Y-80627189D01*
X192623489Y-80626587D01*
X192579772Y-80622282D01*
X192550710Y-80613466D01*
X192531853Y-80607746D01*
X192516834Y-80599718D01*
X192487691Y-80584141D01*
X192448985Y-80552376D01*
X192417220Y-80513670D01*
X192393616Y-80469510D01*
X192379079Y-80421588D01*
X192375401Y-80384244D01*
X192375400Y-78865757D01*
X192379078Y-78828413D01*
X192379079Y-78828409D01*
X192393614Y-78780493D01*
X192417219Y-78736331D01*
X192448984Y-78697624D01*
X192448986Y-78697623D01*
X192448987Y-78697621D01*
X192487690Y-78665859D01*
X192531850Y-78642255D01*
X192531852Y-78642254D01*
X192579768Y-78627719D01*
X192579769Y-78627719D01*
X192579772Y-78627718D01*
X192629599Y-78622811D01*
X192629600Y-78622811D01*
X192635711Y-78623413D01*
X192635711Y-78623413D01*
G37*
G36*
X191835611Y-78623413D02*
X191879328Y-78627718D01*
X191879331Y-78627719D01*
X191927247Y-78642254D01*
X191971409Y-78665859D01*
X192010116Y-78697624D01*
X192010117Y-78697626D01*
X192010119Y-78697627D01*
X192041881Y-78736330D01*
X192044807Y-78741805D01*
X192065486Y-78780492D01*
X192076892Y-78818093D01*
X192080022Y-78828412D01*
X192083700Y-78865756D01*
X192083700Y-80384244D01*
X192080022Y-80421588D01*
X192065485Y-80469510D01*
X192041881Y-80513670D01*
X192010116Y-80552376D01*
X191971410Y-80584141D01*
X191942267Y-80599718D01*
X191927248Y-80607746D01*
X191879332Y-80622281D01*
X191879331Y-80622281D01*
X191879328Y-80622282D01*
X191829501Y-80627189D01*
X191829500Y-80627189D01*
X191823389Y-80626587D01*
X191779672Y-80622282D01*
X191750610Y-80613466D01*
X191731753Y-80607746D01*
X191716734Y-80599718D01*
X191687591Y-80584141D01*
X191648885Y-80552376D01*
X191617120Y-80513670D01*
X191593516Y-80469510D01*
X191578979Y-80421588D01*
X191575301Y-80384244D01*
X191575300Y-78865757D01*
X191578978Y-78828413D01*
X191578979Y-78828409D01*
X191593514Y-78780493D01*
X191617119Y-78736331D01*
X191648884Y-78697624D01*
X191648886Y-78697623D01*
X191648887Y-78697621D01*
X191687590Y-78665859D01*
X191731750Y-78642255D01*
X191731752Y-78642254D01*
X191779668Y-78627719D01*
X191779669Y-78627719D01*
X191779672Y-78627718D01*
X191829499Y-78622811D01*
X191829500Y-78622811D01*
X191835611Y-78623413D01*
X191835611Y-78623413D01*
G37*
G36*
X216351000Y-80561000D02*
X215049000Y-80561000D01*
X215049000Y-79459000D01*
X216351000Y-79459000D01*
X216351000Y-80561000D01*
X216351000Y-80561000D01*
G37*
G36*
X222751000Y-80561000D02*
X221449000Y-80561000D01*
X221449000Y-79459000D01*
X222751000Y-79459000D01*
X222751000Y-80561000D01*
X222751000Y-80561000D01*
G37*
G36*
X163708213Y-78604029D02*
X163802652Y-78632677D01*
X163889687Y-78679198D01*
X163965975Y-78741805D01*
X164028582Y-78818093D01*
X164075103Y-78905128D01*
X164103751Y-78999567D01*
X164111000Y-79073168D01*
X164111000Y-79722392D01*
X164103751Y-79795993D01*
X164075103Y-79890432D01*
X164028582Y-79977467D01*
X163965975Y-80053755D01*
X163889687Y-80116362D01*
X163802651Y-80162883D01*
X163708212Y-80191531D01*
X163610000Y-80201204D01*
X163511787Y-80191531D01*
X163417348Y-80162883D01*
X163330313Y-80116362D01*
X163254025Y-80053755D01*
X163191418Y-79977467D01*
X163144897Y-79890431D01*
X163116249Y-79795992D01*
X163109000Y-79722391D01*
X163109000Y-79073178D01*
X163116250Y-78999569D01*
X163116250Y-78999567D01*
X163144898Y-78905128D01*
X163144898Y-78905127D01*
X163185903Y-78828413D01*
X163191419Y-78818093D01*
X163254026Y-78741805D01*
X163330314Y-78679198D01*
X163417349Y-78632677D01*
X163511788Y-78604029D01*
X163610000Y-78594356D01*
X163708213Y-78604029D01*
X163708213Y-78604029D01*
G37*
G36*
X162110553Y-78604029D02*
X162204992Y-78632677D01*
X162292027Y-78679198D01*
X162368315Y-78741805D01*
X162430922Y-78818093D01*
X162477443Y-78905128D01*
X162506091Y-78999567D01*
X162513340Y-79073168D01*
X162513340Y-79722392D01*
X162506091Y-79795993D01*
X162477443Y-79890432D01*
X162430922Y-79977467D01*
X162368315Y-80053755D01*
X162292027Y-80116362D01*
X162204991Y-80162883D01*
X162110552Y-80191531D01*
X162012340Y-80201204D01*
X161914127Y-80191531D01*
X161819688Y-80162883D01*
X161732653Y-80116362D01*
X161656365Y-80053755D01*
X161593758Y-79977467D01*
X161547237Y-79890431D01*
X161518589Y-79795992D01*
X161511340Y-79722391D01*
X161511340Y-79073178D01*
X161518590Y-78999569D01*
X161518590Y-78999567D01*
X161547238Y-78905128D01*
X161547238Y-78905127D01*
X161588243Y-78828413D01*
X161593759Y-78818093D01*
X161656366Y-78741805D01*
X161732654Y-78679198D01*
X161819689Y-78632677D01*
X161914128Y-78604029D01*
X162012340Y-78594356D01*
X162110553Y-78604029D01*
X162110553Y-78604029D01*
G37*
G36*
X165305873Y-78604029D02*
X165400312Y-78632677D01*
X165487347Y-78679198D01*
X165563635Y-78741805D01*
X165626242Y-78818093D01*
X165672763Y-78905128D01*
X165701411Y-78999567D01*
X165708660Y-79073168D01*
X165708660Y-79722392D01*
X165701411Y-79795993D01*
X165672763Y-79890432D01*
X165626242Y-79977467D01*
X165563635Y-80053755D01*
X165487347Y-80116362D01*
X165400311Y-80162883D01*
X165305872Y-80191531D01*
X165207660Y-80201204D01*
X165109447Y-80191531D01*
X165015008Y-80162883D01*
X164927973Y-80116362D01*
X164851685Y-80053755D01*
X164789078Y-79977467D01*
X164742557Y-79890431D01*
X164713909Y-79795992D01*
X164706660Y-79722391D01*
X164706660Y-79073178D01*
X164713910Y-78999569D01*
X164713910Y-78999567D01*
X164742558Y-78905128D01*
X164742558Y-78905127D01*
X164783563Y-78828413D01*
X164789079Y-78818093D01*
X164851686Y-78741805D01*
X164927974Y-78679198D01*
X165015009Y-78632677D01*
X165109448Y-78604029D01*
X165207660Y-78594356D01*
X165305873Y-78604029D01*
X165305873Y-78604029D01*
G37*
G36*
X205878677Y-78523465D02*
X205916364Y-78534898D01*
X205951103Y-78553466D01*
X205981548Y-78578452D01*
X206006534Y-78608897D01*
X206025102Y-78643636D01*
X206036535Y-78681323D01*
X206041000Y-78726661D01*
X206041000Y-79563339D01*
X206036535Y-79608677D01*
X206025102Y-79646364D01*
X206006534Y-79681103D01*
X205981548Y-79711548D01*
X205951103Y-79736534D01*
X205916364Y-79755102D01*
X205878677Y-79766535D01*
X205833339Y-79771000D01*
X204746661Y-79771000D01*
X204701323Y-79766535D01*
X204663636Y-79755102D01*
X204628897Y-79736534D01*
X204598452Y-79711548D01*
X204573466Y-79681103D01*
X204554898Y-79646364D01*
X204543465Y-79608677D01*
X204539000Y-79563339D01*
X204539000Y-78726661D01*
X204543465Y-78681323D01*
X204554898Y-78643636D01*
X204573466Y-78608897D01*
X204598452Y-78578452D01*
X204628897Y-78553466D01*
X204663636Y-78534898D01*
X204701323Y-78523465D01*
X204746661Y-78519000D01*
X205833339Y-78519000D01*
X205878677Y-78523465D01*
X205878677Y-78523465D01*
G37*
G36*
X167323025Y-77124590D02*
X167474012Y-77170392D01*
X167613165Y-77244770D01*
X167735133Y-77344867D01*
X167835230Y-77466835D01*
X167909608Y-77605988D01*
X167955410Y-77756975D01*
X167967000Y-77874654D01*
X167967000Y-78453346D01*
X167955410Y-78571025D01*
X167909608Y-78722012D01*
X167835230Y-78861165D01*
X167735136Y-78983130D01*
X167735134Y-78983131D01*
X167735133Y-78983133D01*
X167715105Y-78999569D01*
X167613161Y-79083232D01*
X167474011Y-79157608D01*
X167323024Y-79203410D01*
X167166000Y-79218875D01*
X167008975Y-79203410D01*
X166857988Y-79157608D01*
X166718835Y-79083230D01*
X166596870Y-78983136D01*
X166596869Y-78983134D01*
X166596867Y-78983133D01*
X166500540Y-78865757D01*
X166496768Y-78861161D01*
X166422392Y-78722011D01*
X166376590Y-78571024D01*
X166365000Y-78453345D01*
X166365000Y-77874654D01*
X166376590Y-77756975D01*
X166399491Y-77681482D01*
X166422392Y-77605988D01*
X166496771Y-77466835D01*
X166596868Y-77344867D01*
X166718836Y-77244770D01*
X166857989Y-77170392D01*
X167008976Y-77124590D01*
X167166000Y-77109125D01*
X167323025Y-77124590D01*
X167323025Y-77124590D01*
G37*
G36*
X160211025Y-77124590D02*
X160362012Y-77170392D01*
X160501165Y-77244770D01*
X160623133Y-77344867D01*
X160723230Y-77466835D01*
X160797608Y-77605988D01*
X160843410Y-77756975D01*
X160855000Y-77874654D01*
X160855000Y-78453346D01*
X160843410Y-78571025D01*
X160797608Y-78722012D01*
X160723230Y-78861165D01*
X160623136Y-78983130D01*
X160623134Y-78983131D01*
X160623133Y-78983133D01*
X160603105Y-78999569D01*
X160501161Y-79083232D01*
X160362011Y-79157608D01*
X160211024Y-79203410D01*
X160054000Y-79218875D01*
X159896975Y-79203410D01*
X159745988Y-79157608D01*
X159606835Y-79083230D01*
X159484870Y-78983136D01*
X159484869Y-78983134D01*
X159484867Y-78983133D01*
X159388540Y-78865757D01*
X159384768Y-78861161D01*
X159310392Y-78722011D01*
X159264590Y-78571024D01*
X159253000Y-78453345D01*
X159253000Y-77874654D01*
X159264590Y-77756975D01*
X159287491Y-77681482D01*
X159310392Y-77605988D01*
X159384771Y-77466835D01*
X159484868Y-77344867D01*
X159606836Y-77244770D01*
X159745989Y-77170392D01*
X159896976Y-77124590D01*
X160054000Y-77109125D01*
X160211025Y-77124590D01*
X160211025Y-77124590D01*
G37*
G36*
X164505773Y-77005149D02*
X164600212Y-77033797D01*
X164687247Y-77080318D01*
X164763535Y-77142925D01*
X164826142Y-77219213D01*
X164872663Y-77306248D01*
X164901311Y-77400687D01*
X164908560Y-77474288D01*
X164908560Y-78123512D01*
X164901311Y-78197113D01*
X164872663Y-78291552D01*
X164826142Y-78378587D01*
X164763535Y-78454875D01*
X164687247Y-78517482D01*
X164600211Y-78564003D01*
X164505772Y-78592651D01*
X164407560Y-78602324D01*
X164309347Y-78592651D01*
X164214908Y-78564003D01*
X164127873Y-78517482D01*
X164051585Y-78454875D01*
X163988978Y-78378587D01*
X163942457Y-78291551D01*
X163913809Y-78197112D01*
X163906560Y-78123511D01*
X163906560Y-77474298D01*
X163913810Y-77400689D01*
X163913810Y-77400687D01*
X163942458Y-77306248D01*
X163942458Y-77306247D01*
X163988980Y-77219212D01*
X164000536Y-77205131D01*
X164051586Y-77142925D01*
X164127874Y-77080318D01*
X164214909Y-77033797D01*
X164309348Y-77005149D01*
X164407560Y-76995476D01*
X164505773Y-77005149D01*
X164505773Y-77005149D01*
G37*
G36*
X162910653Y-77005149D02*
X163005092Y-77033797D01*
X163092127Y-77080318D01*
X163168415Y-77142925D01*
X163231022Y-77219213D01*
X163277543Y-77306248D01*
X163306191Y-77400687D01*
X163313440Y-77474288D01*
X163313440Y-78123512D01*
X163306191Y-78197113D01*
X163277543Y-78291552D01*
X163231022Y-78378587D01*
X163168415Y-78454875D01*
X163092127Y-78517482D01*
X163005091Y-78564003D01*
X162910652Y-78592651D01*
X162812440Y-78602324D01*
X162714227Y-78592651D01*
X162619788Y-78564003D01*
X162532753Y-78517482D01*
X162456465Y-78454875D01*
X162393858Y-78378587D01*
X162347337Y-78291551D01*
X162318689Y-78197112D01*
X162311440Y-78123511D01*
X162311440Y-77474298D01*
X162318690Y-77400689D01*
X162318690Y-77400687D01*
X162347338Y-77306248D01*
X162347338Y-77306247D01*
X162393860Y-77219212D01*
X162405416Y-77205131D01*
X162456466Y-77142925D01*
X162532754Y-77080318D01*
X162619789Y-77033797D01*
X162714228Y-77005149D01*
X162812440Y-76995476D01*
X162910653Y-77005149D01*
X162910653Y-77005149D01*
G37*
G36*
X192068677Y-75753465D02*
X192106364Y-75764898D01*
X192141103Y-75783466D01*
X192171548Y-75808452D01*
X192196534Y-75838897D01*
X192215102Y-75873636D01*
X192226535Y-75911323D01*
X192231000Y-75956661D01*
X192231000Y-77043339D01*
X192226535Y-77088677D01*
X192215102Y-77126364D01*
X192196534Y-77161103D01*
X192171548Y-77191548D01*
X192141103Y-77216534D01*
X192106364Y-77235102D01*
X192068677Y-77246535D01*
X192023339Y-77251000D01*
X191186661Y-77251000D01*
X191141323Y-77246535D01*
X191103636Y-77235102D01*
X191068897Y-77216534D01*
X191038452Y-77191548D01*
X191013466Y-77161103D01*
X190994898Y-77126364D01*
X190983465Y-77088677D01*
X190979000Y-77043339D01*
X190979000Y-75956661D01*
X190983465Y-75911323D01*
X190994898Y-75873636D01*
X191013466Y-75838897D01*
X191038452Y-75808452D01*
X191068897Y-75783466D01*
X191103636Y-75764898D01*
X191141323Y-75753465D01*
X191186661Y-75749000D01*
X192023339Y-75749000D01*
X192068677Y-75753465D01*
X192068677Y-75753465D01*
G37*
G36*
X194118677Y-75753465D02*
X194156364Y-75764898D01*
X194191103Y-75783466D01*
X194221548Y-75808452D01*
X194246534Y-75838897D01*
X194265102Y-75873636D01*
X194276535Y-75911323D01*
X194281000Y-75956661D01*
X194281000Y-77043339D01*
X194276535Y-77088677D01*
X194265102Y-77126364D01*
X194246534Y-77161103D01*
X194221548Y-77191548D01*
X194191103Y-77216534D01*
X194156364Y-77235102D01*
X194118677Y-77246535D01*
X194073339Y-77251000D01*
X193236661Y-77251000D01*
X193191323Y-77246535D01*
X193153636Y-77235102D01*
X193118897Y-77216534D01*
X193088452Y-77191548D01*
X193063466Y-77161103D01*
X193044898Y-77126364D01*
X193033465Y-77088677D01*
X193029000Y-77043339D01*
X193029000Y-75956661D01*
X193033465Y-75911323D01*
X193044898Y-75873636D01*
X193063466Y-75838897D01*
X193088452Y-75808452D01*
X193118897Y-75783466D01*
X193153636Y-75764898D01*
X193191323Y-75753465D01*
X193236661Y-75749000D01*
X194073339Y-75749000D01*
X194118677Y-75753465D01*
X194118677Y-75753465D01*
G37*
G36*
X189818677Y-75753465D02*
X189856364Y-75764898D01*
X189891103Y-75783466D01*
X189921548Y-75808452D01*
X189946534Y-75838897D01*
X189965102Y-75873636D01*
X189976535Y-75911323D01*
X189981000Y-75956661D01*
X189981000Y-77043339D01*
X189976535Y-77088677D01*
X189965102Y-77126364D01*
X189946534Y-77161103D01*
X189921548Y-77191548D01*
X189891103Y-77216534D01*
X189856364Y-77235102D01*
X189818677Y-77246535D01*
X189773339Y-77251000D01*
X188936661Y-77251000D01*
X188891323Y-77246535D01*
X188853636Y-77235102D01*
X188818897Y-77216534D01*
X188788452Y-77191548D01*
X188763466Y-77161103D01*
X188744898Y-77126364D01*
X188733465Y-77088677D01*
X188729000Y-77043339D01*
X188729000Y-75956661D01*
X188733465Y-75911323D01*
X188744898Y-75873636D01*
X188763466Y-75838897D01*
X188788452Y-75808452D01*
X188818897Y-75783466D01*
X188853636Y-75764898D01*
X188891323Y-75753465D01*
X188936661Y-75749000D01*
X189773339Y-75749000D01*
X189818677Y-75753465D01*
X189818677Y-75753465D01*
G37*
G36*
X187768677Y-75753465D02*
X187806364Y-75764898D01*
X187841103Y-75783466D01*
X187871548Y-75808452D01*
X187896534Y-75838897D01*
X187915102Y-75873636D01*
X187926535Y-75911323D01*
X187931000Y-75956661D01*
X187931000Y-77043339D01*
X187926535Y-77088677D01*
X187915102Y-77126364D01*
X187896534Y-77161103D01*
X187871548Y-77191548D01*
X187841103Y-77216534D01*
X187806364Y-77235102D01*
X187768677Y-77246535D01*
X187723339Y-77251000D01*
X186886661Y-77251000D01*
X186841323Y-77246535D01*
X186803636Y-77235102D01*
X186768897Y-77216534D01*
X186738452Y-77191548D01*
X186713466Y-77161103D01*
X186694898Y-77126364D01*
X186683465Y-77088677D01*
X186679000Y-77043339D01*
X186679000Y-75956661D01*
X186683465Y-75911323D01*
X186694898Y-75873636D01*
X186713466Y-75838897D01*
X186738452Y-75808452D01*
X186768897Y-75783466D01*
X186803636Y-75764898D01*
X186841323Y-75753465D01*
X186886661Y-75749000D01*
X187723339Y-75749000D01*
X187768677Y-75753465D01*
X187768677Y-75753465D01*
G37*
G36*
X198468677Y-75753465D02*
X198506364Y-75764898D01*
X198541103Y-75783466D01*
X198571548Y-75808452D01*
X198596534Y-75838897D01*
X198615102Y-75873636D01*
X198626535Y-75911323D01*
X198631000Y-75956661D01*
X198631000Y-77043339D01*
X198626535Y-77088677D01*
X198615102Y-77126364D01*
X198596534Y-77161103D01*
X198571548Y-77191548D01*
X198541103Y-77216534D01*
X198506364Y-77235102D01*
X198468677Y-77246535D01*
X198423339Y-77251000D01*
X197586661Y-77251000D01*
X197541323Y-77246535D01*
X197503636Y-77235102D01*
X197468897Y-77216534D01*
X197438452Y-77191548D01*
X197413466Y-77161103D01*
X197394898Y-77126364D01*
X197383465Y-77088677D01*
X197379000Y-77043339D01*
X197379000Y-75956661D01*
X197383465Y-75911323D01*
X197394898Y-75873636D01*
X197413466Y-75838897D01*
X197438452Y-75808452D01*
X197468897Y-75783466D01*
X197503636Y-75764898D01*
X197541323Y-75753465D01*
X197586661Y-75749000D01*
X198423339Y-75749000D01*
X198468677Y-75753465D01*
X198468677Y-75753465D01*
G37*
G36*
X200518677Y-75753465D02*
X200556364Y-75764898D01*
X200591103Y-75783466D01*
X200621548Y-75808452D01*
X200646534Y-75838897D01*
X200665102Y-75873636D01*
X200676535Y-75911323D01*
X200681000Y-75956661D01*
X200681000Y-77043339D01*
X200676535Y-77088677D01*
X200665102Y-77126364D01*
X200646534Y-77161103D01*
X200621548Y-77191548D01*
X200591103Y-77216534D01*
X200556364Y-77235102D01*
X200518677Y-77246535D01*
X200473339Y-77251000D01*
X199636661Y-77251000D01*
X199591323Y-77246535D01*
X199553636Y-77235102D01*
X199518897Y-77216534D01*
X199488452Y-77191548D01*
X199463466Y-77161103D01*
X199444898Y-77126364D01*
X199433465Y-77088677D01*
X199429000Y-77043339D01*
X199429000Y-75956661D01*
X199433465Y-75911323D01*
X199444898Y-75873636D01*
X199463466Y-75838897D01*
X199488452Y-75808452D01*
X199518897Y-75783466D01*
X199553636Y-75764898D01*
X199591323Y-75753465D01*
X199636661Y-75749000D01*
X200473339Y-75749000D01*
X200518677Y-75753465D01*
X200518677Y-75753465D01*
G37*
G36*
X216351000Y-76861000D02*
X215049000Y-76861000D01*
X215049000Y-75759000D01*
X216351000Y-75759000D01*
X216351000Y-76861000D01*
X216351000Y-76861000D01*
G37*
G36*
X222751000Y-76861000D02*
X221449000Y-76861000D01*
X221449000Y-75759000D01*
X222751000Y-75759000D01*
X222751000Y-76861000D01*
X222751000Y-76861000D01*
G37*
G36*
X152609667Y-71152751D02*
X152888894Y-71180252D01*
X153426309Y-71343275D01*
X153513413Y-71389833D01*
X153921595Y-71608010D01*
X154355715Y-71964285D01*
X154711990Y-72398405D01*
X154915949Y-72779988D01*
X154976725Y-72893691D01*
X155139748Y-73431106D01*
X155194794Y-73990000D01*
X155139748Y-74548894D01*
X154976725Y-75086309D01*
X154930167Y-75173413D01*
X154711990Y-75581595D01*
X154355715Y-76015715D01*
X153921595Y-76371990D01*
X153513413Y-76590167D01*
X153426309Y-76636725D01*
X152888894Y-76799748D01*
X152609667Y-76827249D01*
X152470055Y-76841000D01*
X151189945Y-76841000D01*
X151050333Y-76827249D01*
X150771106Y-76799748D01*
X150233691Y-76636725D01*
X150146587Y-76590167D01*
X149738405Y-76371990D01*
X149304285Y-76015715D01*
X148948010Y-75581595D01*
X148729833Y-75173413D01*
X148683275Y-75086309D01*
X148520252Y-74548894D01*
X148465206Y-73990000D01*
X148520252Y-73431106D01*
X148683275Y-72893691D01*
X148744051Y-72779988D01*
X148948010Y-72398405D01*
X149304285Y-71964285D01*
X149738405Y-71608010D01*
X150146587Y-71389833D01*
X150233691Y-71343275D01*
X150771106Y-71180252D01*
X151050333Y-71152751D01*
X151189945Y-71139000D01*
X152470055Y-71139000D01*
X152609667Y-71152751D01*
X152609667Y-71152751D01*
G37*
G36*
X233109667Y-70302751D02*
X233388894Y-70330252D01*
X233926309Y-70493275D01*
X234013413Y-70539833D01*
X234421595Y-70758010D01*
X234855715Y-71114285D01*
X235211990Y-71548405D01*
X235430167Y-71956587D01*
X235476725Y-72043691D01*
X235639748Y-72581106D01*
X235694794Y-73140000D01*
X235639748Y-73698894D01*
X235476725Y-74236309D01*
X235476722Y-74236314D01*
X235211990Y-74731595D01*
X234855715Y-75165715D01*
X234421595Y-75521990D01*
X234013413Y-75740167D01*
X233926309Y-75786725D01*
X233388894Y-75949748D01*
X233109667Y-75977249D01*
X232970055Y-75991000D01*
X231689945Y-75991000D01*
X231550333Y-75977249D01*
X231271106Y-75949748D01*
X230733691Y-75786725D01*
X230646587Y-75740167D01*
X230238405Y-75521990D01*
X229804285Y-75165715D01*
X229448010Y-74731595D01*
X229183278Y-74236314D01*
X229183275Y-74236309D01*
X229020252Y-73698894D01*
X228965206Y-73140000D01*
X229020252Y-72581106D01*
X229183275Y-72043691D01*
X229229833Y-71956587D01*
X229448010Y-71548405D01*
X229804285Y-71114285D01*
X230238405Y-70758010D01*
X230646587Y-70539833D01*
X230733691Y-70493275D01*
X231271106Y-70330252D01*
X231550333Y-70302751D01*
X231689945Y-70289000D01*
X232970055Y-70289000D01*
X233109667Y-70302751D01*
X233109667Y-70302751D01*
G37*
G36*
X167323025Y-72298590D02*
X167474012Y-72344392D01*
X167613165Y-72418770D01*
X167735133Y-72518867D01*
X167835230Y-72640835D01*
X167909608Y-72779988D01*
X167955410Y-72930975D01*
X167967000Y-73048654D01*
X167967000Y-73627346D01*
X167955410Y-73745025D01*
X167909608Y-73896012D01*
X167835230Y-74035165D01*
X167735136Y-74157130D01*
X167735134Y-74157131D01*
X167735133Y-74157133D01*
X167735129Y-74157136D01*
X167613161Y-74257232D01*
X167474011Y-74331608D01*
X167323024Y-74377410D01*
X167166000Y-74392875D01*
X167008975Y-74377410D01*
X166857988Y-74331608D01*
X166718835Y-74257230D01*
X166596870Y-74157136D01*
X166596869Y-74157134D01*
X166596867Y-74157133D01*
X166546819Y-74096148D01*
X166496768Y-74035161D01*
X166422392Y-73896011D01*
X166376590Y-73745024D01*
X166365000Y-73627345D01*
X166365000Y-73048654D01*
X166376590Y-72930975D01*
X166399491Y-72855483D01*
X166422392Y-72779988D01*
X166496771Y-72640835D01*
X166596868Y-72518867D01*
X166718836Y-72418770D01*
X166857989Y-72344392D01*
X167008976Y-72298590D01*
X167166000Y-72283125D01*
X167323025Y-72298590D01*
X167323025Y-72298590D01*
G37*
G36*
X160211025Y-72298590D02*
X160362012Y-72344392D01*
X160501165Y-72418770D01*
X160623133Y-72518867D01*
X160723230Y-72640835D01*
X160797608Y-72779988D01*
X160843410Y-72930975D01*
X160855000Y-73048654D01*
X160855000Y-73627346D01*
X160843410Y-73745025D01*
X160797608Y-73896012D01*
X160723230Y-74035165D01*
X160623136Y-74157130D01*
X160623134Y-74157131D01*
X160623133Y-74157133D01*
X160623129Y-74157136D01*
X160501161Y-74257232D01*
X160362011Y-74331608D01*
X160211024Y-74377410D01*
X160054000Y-74392875D01*
X159896975Y-74377410D01*
X159745988Y-74331608D01*
X159606835Y-74257230D01*
X159484870Y-74157136D01*
X159484869Y-74157134D01*
X159484867Y-74157133D01*
X159434819Y-74096148D01*
X159384768Y-74035161D01*
X159310392Y-73896011D01*
X159264590Y-73745024D01*
X159253000Y-73627345D01*
X159253000Y-73048654D01*
X159264590Y-72930975D01*
X159287491Y-72855483D01*
X159310392Y-72779988D01*
X159384771Y-72640835D01*
X159484868Y-72518867D01*
X159606836Y-72418770D01*
X159745989Y-72344392D01*
X159896976Y-72298590D01*
X160054000Y-72283125D01*
X160211025Y-72298590D01*
X160211025Y-72298590D01*
G37*
M02*
