M48
;DRILL file {KiCad (5.0.1-3-g963ef8bb5)} date 2019 March 09, Saturday 14:35:38
;FORMAT={-:-/ absolute / inch / decimal}
FMAT,2
INCH,TZ
T1C0.0118
T2C0.0314
T3C0.0394
T4C0.1260
%
G90
G05
M72
T1
X5.9Y-3.2
X5.9Y-3.3
X5.9Y-3.5
X5.9Y-3.7
X5.9Y-3.9
X5.9Y-4.1
X6.Y-3.2
X6.Y-3.3
X6.Y-3.4
X6.Y-3.5
X6.0791Y-2.7984
X6.0795Y-2.9134
X6.0803Y-3.1929
X6.0815Y-3.402
X6.1Y-4.1
X6.195Y-3.7925
X6.2Y-3.5
X6.3Y-4.1
X6.4Y-3.2
X6.4Y-3.3
X6.4Y-3.5
X6.5Y-4.1
X6.6Y-3.3
X6.6402Y-2.798
X6.6775Y-3.7475
X6.7Y-4.1
X6.8Y-3.3
X6.9Y-4.1
X7.1Y-3.
X7.1Y-3.1
X7.1Y-3.4
X7.1Y-3.5
X7.1Y-3.6
X7.1Y-4.1
X7.2Y-3.
X7.2Y-3.1
X7.2Y-3.6
X7.3Y-3.6
X7.3Y-4.1
X7.3055Y-3.5134
X7.3602Y-3.9024
X7.3827Y-3.9244
X7.4Y-3.11
X7.4Y-3.2
X7.4059Y-3.9413
X7.4125Y-2.975
X7.428Y-3.9594
X7.45Y-3.11
X7.45Y-3.165
X7.4975Y-2.98
X7.4975Y-3.045
X7.5Y-3.11
X7.5Y-3.16
X7.5Y-4.1
X7.5059Y-3.6874
X7.5512Y-3.6409
X7.5825Y-3.01
X7.5835Y-3.6457
X7.655Y-3.8525
X7.6725Y-3.01
X7.6725Y-3.065
X7.7Y-4.1
X7.7098Y-3.3598
X7.7275Y-3.85
X7.7375Y-3.01
X7.7375Y-3.065
X7.7925Y-3.065
X7.7975Y-3.8475
X7.8Y-3.7
X7.8Y-3.8
X7.9Y-3.7
X7.9Y-3.8
X7.9Y-4.1
X7.9675Y-3.0475
X7.9675Y-3.135
X7.97Y-2.975
X8.Y-3.7
X8.Y-3.8
X8.0675Y-2.975
X8.1Y-4.1
X8.1169Y-3.4768
X8.1319Y-3.4228
X8.1476Y-3.3598
X8.155Y-2.975
X8.2063Y-3.4232
X8.2311Y-3.3598
X8.2475Y-2.9725
X8.345Y-2.9725
X8.345Y-3.0275
X8.345Y-3.09
X8.345Y-3.1575
X8.345Y-3.23
X8.3673Y-3.476
X8.43Y-2.9725
X8.43Y-3.0275
X8.43Y-3.0925
X8.43Y-3.1575
X8.43Y-3.23
X8.43Y-3.3
X8.4654Y-3.426
X8.4949Y-3.113
X8.5Y-2.96
X8.51Y-3.5525
X8.5775Y-3.5525
X8.6Y-2.96
X8.655Y-3.5525
X8.6634Y-3.765
X8.7134Y-3.7646
X8.72Y-2.96
X8.73Y-3.5525
X8.7614Y-3.765
X8.785Y-3.5525
X8.811Y-3.7654
X8.86Y-2.96
X8.98Y-2.96
X8.98Y-3.04
X8.98Y-3.12
X8.98Y-3.22
X8.9929Y-3.513
X8.9961Y-2.7984
X9.Y-3.9
X9.Y-4.1
X9.04Y-3.22
X9.14Y-3.22
X9.2Y-3.58
X9.2Y-3.68
X9.2Y-3.74
X9.2Y-3.9
X9.2Y-4.1
X9.24Y-3.22
X9.24Y-3.68
X9.24Y-3.74
X9.287Y-2.7984
X9.32Y-2.96
X9.32Y-3.06
X9.32Y-3.14
X9.32Y-3.22
X9.3303Y-3.6673
X9.3807Y-3.7941
X9.4Y-2.96
X9.4Y-4.1
X9.4098Y-3.6709
X9.42Y-3.38
X9.42Y-3.58
X9.4913Y-3.6709
X9.5Y-2.96
X9.5Y-3.06
X9.5Y-3.14
X9.5Y-3.26
X9.5Y-3.38
X9.5Y-3.58
X9.5646Y-3.6709
X9.6Y-3.9
X9.6Y-4.1
X9.6673Y-3.7909
X9.6681Y-2.928
X9.6685Y-3.6591
X9.6717Y-2.7984
T2
X6.3784Y-3.118
X6.4099Y-3.0708
X6.4413Y-3.118
X6.4727Y-3.0708
X6.5042Y-3.118
T3
X6.3013Y-2.8775G85X6.3013Y-2.8972
G05
X6.3013Y-3.0675G85X6.3013Y-3.0872
G05
X6.5813Y-2.8775G85X6.5813Y-2.8972
G05
X6.5813Y-3.0675G85X6.5813Y-3.0872
G05
T4
X5.9579Y-2.913G85X5.9972Y-2.913
G05
X9.1272Y-2.8795G85X9.1665Y-2.8795
G05
T0
M30
