G04 #@! TF.GenerationSoftware,KiCad,Pcbnew,(5.0.1-3-g963ef8bb5)*
G04 #@! TF.CreationDate,2019-03-09T14:34:52+08:00*
G04 #@! TF.ProjectId,fc660c,6663363630632E6B696361645F706362,rev?*
G04 #@! TF.SameCoordinates,Original*
G04 #@! TF.FileFunction,Soldermask,Bot*
G04 #@! TF.FilePolarity,Negative*
%FSLAX46Y46*%
G04 Gerber Fmt 4.6, Leading zero omitted, Abs format (unit mm)*
G04 Created by KiCad (PCBNEW (5.0.1-3-g963ef8bb5)) date 2019 March 09, Saturday 14:34:52*
%MOMM*%
%LPD*%
G01*
G04 APERTURE LIST*
%ADD10C,0.100000*%
G04 APERTURE END LIST*
D10*
G36*
X239075305Y-97602096D02*
X239184680Y-97647400D01*
X239283118Y-97713175D01*
X239366825Y-97796882D01*
X239432600Y-97895320D01*
X239477904Y-98004695D01*
X239501000Y-98120806D01*
X239501000Y-98239194D01*
X239477904Y-98355305D01*
X239432600Y-98464680D01*
X239366825Y-98563118D01*
X239283118Y-98646825D01*
X239184680Y-98712600D01*
X239075305Y-98757904D01*
X238959194Y-98781000D01*
X238840806Y-98781000D01*
X238724695Y-98757904D01*
X238615320Y-98712600D01*
X238516882Y-98646825D01*
X238433175Y-98563118D01*
X238367400Y-98464680D01*
X238322096Y-98355305D01*
X238299000Y-98239194D01*
X238299000Y-98120806D01*
X238322096Y-98004695D01*
X238367400Y-97895320D01*
X238433175Y-97796882D01*
X238516882Y-97713175D01*
X238615320Y-97647400D01*
X238724695Y-97602096D01*
X238840806Y-97579000D01*
X238959194Y-97579000D01*
X239075305Y-97602096D01*
X239075305Y-97602096D01*
G37*
G36*
X210125305Y-97602096D02*
X210234680Y-97647400D01*
X210333118Y-97713175D01*
X210416825Y-97796882D01*
X210482600Y-97895320D01*
X210527904Y-98004695D01*
X210551000Y-98120806D01*
X210551000Y-98239194D01*
X210527904Y-98355305D01*
X210482600Y-98464680D01*
X210416825Y-98563118D01*
X210333118Y-98646825D01*
X210234680Y-98712600D01*
X210125305Y-98757904D01*
X210009194Y-98781000D01*
X209890806Y-98781000D01*
X209774695Y-98757904D01*
X209665320Y-98712600D01*
X209566882Y-98646825D01*
X209483175Y-98563118D01*
X209417400Y-98464680D01*
X209372096Y-98355305D01*
X209349000Y-98239194D01*
X209349000Y-98120806D01*
X209372096Y-98004695D01*
X209417400Y-97895320D01*
X209483175Y-97796882D01*
X209566882Y-97713175D01*
X209665320Y-97647400D01*
X209774695Y-97602096D01*
X209890806Y-97579000D01*
X210009194Y-97579000D01*
X210125305Y-97602096D01*
X210125305Y-97602096D01*
G37*
G36*
X163708213Y-78604029D02*
X163802652Y-78632677D01*
X163889687Y-78679198D01*
X163965975Y-78741805D01*
X164028582Y-78818093D01*
X164075103Y-78905128D01*
X164103751Y-78999567D01*
X164111000Y-79073168D01*
X164111000Y-79722392D01*
X164103751Y-79795993D01*
X164075103Y-79890432D01*
X164028582Y-79977467D01*
X163965975Y-80053755D01*
X163889687Y-80116362D01*
X163802651Y-80162883D01*
X163708212Y-80191531D01*
X163610000Y-80201204D01*
X163511787Y-80191531D01*
X163417348Y-80162883D01*
X163330313Y-80116362D01*
X163254025Y-80053755D01*
X163191418Y-79977467D01*
X163144897Y-79890431D01*
X163116249Y-79795992D01*
X163109000Y-79722391D01*
X163109000Y-79073178D01*
X163116250Y-78999569D01*
X163116250Y-78999567D01*
X163144898Y-78905128D01*
X163144898Y-78905127D01*
X163191420Y-78818092D01*
X163254026Y-78741805D01*
X163330314Y-78679198D01*
X163417349Y-78632677D01*
X163511788Y-78604029D01*
X163610000Y-78594356D01*
X163708213Y-78604029D01*
X163708213Y-78604029D01*
G37*
G36*
X162110553Y-78604029D02*
X162204992Y-78632677D01*
X162292027Y-78679198D01*
X162368315Y-78741805D01*
X162430922Y-78818093D01*
X162477443Y-78905128D01*
X162506091Y-78999567D01*
X162513340Y-79073168D01*
X162513340Y-79722392D01*
X162506091Y-79795993D01*
X162477443Y-79890432D01*
X162430922Y-79977467D01*
X162368315Y-80053755D01*
X162292027Y-80116362D01*
X162204991Y-80162883D01*
X162110552Y-80191531D01*
X162012340Y-80201204D01*
X161914127Y-80191531D01*
X161819688Y-80162883D01*
X161732653Y-80116362D01*
X161656365Y-80053755D01*
X161593758Y-79977467D01*
X161547237Y-79890431D01*
X161518589Y-79795992D01*
X161511340Y-79722391D01*
X161511340Y-79073178D01*
X161518590Y-78999569D01*
X161518590Y-78999567D01*
X161547238Y-78905128D01*
X161547238Y-78905127D01*
X161593760Y-78818092D01*
X161656366Y-78741805D01*
X161732654Y-78679198D01*
X161819689Y-78632677D01*
X161914128Y-78604029D01*
X162012340Y-78594356D01*
X162110553Y-78604029D01*
X162110553Y-78604029D01*
G37*
G36*
X165305873Y-78604029D02*
X165400312Y-78632677D01*
X165487347Y-78679198D01*
X165563635Y-78741805D01*
X165626242Y-78818093D01*
X165672763Y-78905128D01*
X165701411Y-78999567D01*
X165708660Y-79073168D01*
X165708660Y-79722392D01*
X165701411Y-79795993D01*
X165672763Y-79890432D01*
X165626242Y-79977467D01*
X165563635Y-80053755D01*
X165487347Y-80116362D01*
X165400311Y-80162883D01*
X165305872Y-80191531D01*
X165207660Y-80201204D01*
X165109447Y-80191531D01*
X165015008Y-80162883D01*
X164927973Y-80116362D01*
X164851685Y-80053755D01*
X164789078Y-79977467D01*
X164742557Y-79890431D01*
X164713909Y-79795992D01*
X164706660Y-79722391D01*
X164706660Y-79073178D01*
X164713910Y-78999569D01*
X164713910Y-78999567D01*
X164742558Y-78905128D01*
X164742558Y-78905127D01*
X164789080Y-78818092D01*
X164851686Y-78741805D01*
X164927974Y-78679198D01*
X165015009Y-78632677D01*
X165109448Y-78604029D01*
X165207660Y-78594356D01*
X165305873Y-78604029D01*
X165305873Y-78604029D01*
G37*
G36*
X160211025Y-77124590D02*
X160362012Y-77170392D01*
X160501165Y-77244770D01*
X160623133Y-77344867D01*
X160723230Y-77466835D01*
X160797608Y-77605988D01*
X160843410Y-77756975D01*
X160855000Y-77874654D01*
X160855000Y-78453346D01*
X160843410Y-78571025D01*
X160797608Y-78722012D01*
X160723230Y-78861165D01*
X160623136Y-78983130D01*
X160623134Y-78983131D01*
X160623133Y-78983133D01*
X160603105Y-78999569D01*
X160501161Y-79083232D01*
X160362011Y-79157608D01*
X160211024Y-79203410D01*
X160054000Y-79218875D01*
X159896975Y-79203410D01*
X159745988Y-79157608D01*
X159606835Y-79083230D01*
X159484870Y-78983136D01*
X159484869Y-78983134D01*
X159484867Y-78983133D01*
X159420850Y-78905127D01*
X159384768Y-78861161D01*
X159310392Y-78722011D01*
X159264590Y-78571024D01*
X159253000Y-78453345D01*
X159253000Y-77874654D01*
X159264590Y-77756975D01*
X159287491Y-77681482D01*
X159310392Y-77605988D01*
X159384771Y-77466835D01*
X159484868Y-77344867D01*
X159606836Y-77244770D01*
X159745989Y-77170392D01*
X159896976Y-77124590D01*
X160054000Y-77109125D01*
X160211025Y-77124590D01*
X160211025Y-77124590D01*
G37*
G36*
X167323025Y-77124590D02*
X167474012Y-77170392D01*
X167613165Y-77244770D01*
X167735133Y-77344867D01*
X167835230Y-77466835D01*
X167909608Y-77605988D01*
X167955410Y-77756975D01*
X167967000Y-77874654D01*
X167967000Y-78453346D01*
X167955410Y-78571025D01*
X167909608Y-78722012D01*
X167835230Y-78861165D01*
X167735136Y-78983130D01*
X167735134Y-78983131D01*
X167735133Y-78983133D01*
X167715105Y-78999569D01*
X167613161Y-79083232D01*
X167474011Y-79157608D01*
X167323024Y-79203410D01*
X167166000Y-79218875D01*
X167008975Y-79203410D01*
X166857988Y-79157608D01*
X166718835Y-79083230D01*
X166596870Y-78983136D01*
X166596869Y-78983134D01*
X166596867Y-78983133D01*
X166532850Y-78905127D01*
X166496768Y-78861161D01*
X166422392Y-78722011D01*
X166376590Y-78571024D01*
X166365000Y-78453345D01*
X166365000Y-77874654D01*
X166376590Y-77756975D01*
X166399491Y-77681482D01*
X166422392Y-77605988D01*
X166496771Y-77466835D01*
X166596868Y-77344867D01*
X166718836Y-77244770D01*
X166857989Y-77170392D01*
X167008976Y-77124590D01*
X167166000Y-77109125D01*
X167323025Y-77124590D01*
X167323025Y-77124590D01*
G37*
G36*
X164505773Y-77005149D02*
X164600212Y-77033797D01*
X164687247Y-77080318D01*
X164763535Y-77142925D01*
X164826142Y-77219213D01*
X164872663Y-77306248D01*
X164901311Y-77400687D01*
X164908560Y-77474288D01*
X164908560Y-78123512D01*
X164901311Y-78197113D01*
X164872663Y-78291552D01*
X164826142Y-78378587D01*
X164763535Y-78454875D01*
X164687247Y-78517482D01*
X164600211Y-78564003D01*
X164505772Y-78592651D01*
X164407560Y-78602324D01*
X164309347Y-78592651D01*
X164214908Y-78564003D01*
X164127873Y-78517482D01*
X164051585Y-78454875D01*
X163988978Y-78378587D01*
X163942457Y-78291551D01*
X163913809Y-78197112D01*
X163906560Y-78123511D01*
X163906560Y-77474298D01*
X163913810Y-77400689D01*
X163913810Y-77400687D01*
X163942458Y-77306248D01*
X163942458Y-77306247D01*
X163988980Y-77219212D01*
X164051586Y-77142925D01*
X164127874Y-77080318D01*
X164214909Y-77033797D01*
X164309348Y-77005149D01*
X164407560Y-76995476D01*
X164505773Y-77005149D01*
X164505773Y-77005149D01*
G37*
G36*
X162910653Y-77005149D02*
X163005092Y-77033797D01*
X163092127Y-77080318D01*
X163168415Y-77142925D01*
X163231022Y-77219213D01*
X163277543Y-77306248D01*
X163306191Y-77400687D01*
X163313440Y-77474288D01*
X163313440Y-78123512D01*
X163306191Y-78197113D01*
X163277543Y-78291552D01*
X163231022Y-78378587D01*
X163168415Y-78454875D01*
X163092127Y-78517482D01*
X163005091Y-78564003D01*
X162910652Y-78592651D01*
X162812440Y-78602324D01*
X162714227Y-78592651D01*
X162619788Y-78564003D01*
X162532753Y-78517482D01*
X162456465Y-78454875D01*
X162393858Y-78378587D01*
X162347337Y-78291551D01*
X162318689Y-78197112D01*
X162311440Y-78123511D01*
X162311440Y-77474298D01*
X162318690Y-77400689D01*
X162318690Y-77400687D01*
X162347338Y-77306248D01*
X162347338Y-77306247D01*
X162393860Y-77219212D01*
X162456466Y-77142925D01*
X162532754Y-77080318D01*
X162619789Y-77033797D01*
X162714228Y-77005149D01*
X162812440Y-76995476D01*
X162910653Y-77005149D01*
X162910653Y-77005149D01*
G37*
G36*
X152609667Y-71152751D02*
X152888894Y-71180252D01*
X153426309Y-71343275D01*
X153513413Y-71389833D01*
X153921595Y-71608010D01*
X154355715Y-71964285D01*
X154711990Y-72398405D01*
X154915949Y-72779988D01*
X154976725Y-72893691D01*
X155139748Y-73431106D01*
X155194794Y-73990000D01*
X155139748Y-74548894D01*
X154976725Y-75086309D01*
X154930167Y-75173413D01*
X154711990Y-75581595D01*
X154355715Y-76015715D01*
X153921595Y-76371990D01*
X153513413Y-76590167D01*
X153426309Y-76636725D01*
X152888894Y-76799748D01*
X152609667Y-76827249D01*
X152470055Y-76841000D01*
X151189945Y-76841000D01*
X151050333Y-76827249D01*
X150771106Y-76799748D01*
X150233691Y-76636725D01*
X150146587Y-76590167D01*
X149738405Y-76371990D01*
X149304285Y-76015715D01*
X148948010Y-75581595D01*
X148729833Y-75173413D01*
X148683275Y-75086309D01*
X148520252Y-74548894D01*
X148465206Y-73990000D01*
X148520252Y-73431106D01*
X148683275Y-72893691D01*
X148744051Y-72779988D01*
X148948010Y-72398405D01*
X149304285Y-71964285D01*
X149738405Y-71608010D01*
X150146587Y-71389833D01*
X150233691Y-71343275D01*
X150771106Y-71180252D01*
X151050333Y-71152751D01*
X151189945Y-71139000D01*
X152470055Y-71139000D01*
X152609667Y-71152751D01*
X152609667Y-71152751D01*
G37*
G36*
X233109667Y-70302751D02*
X233388894Y-70330252D01*
X233926309Y-70493275D01*
X234013413Y-70539833D01*
X234421595Y-70758010D01*
X234855715Y-71114285D01*
X235211990Y-71548405D01*
X235430167Y-71956587D01*
X235476725Y-72043691D01*
X235639748Y-72581106D01*
X235694794Y-73140000D01*
X235639748Y-73698894D01*
X235476725Y-74236309D01*
X235476722Y-74236314D01*
X235211990Y-74731595D01*
X234855715Y-75165715D01*
X234421595Y-75521990D01*
X234013413Y-75740167D01*
X233926309Y-75786725D01*
X233388894Y-75949748D01*
X233109667Y-75977249D01*
X232970055Y-75991000D01*
X231689945Y-75991000D01*
X231550333Y-75977249D01*
X231271106Y-75949748D01*
X230733691Y-75786725D01*
X230646587Y-75740167D01*
X230238405Y-75521990D01*
X229804285Y-75165715D01*
X229448010Y-74731595D01*
X229183278Y-74236314D01*
X229183275Y-74236309D01*
X229020252Y-73698894D01*
X228965206Y-73140000D01*
X229020252Y-72581106D01*
X229183275Y-72043691D01*
X229229833Y-71956587D01*
X229448010Y-71548405D01*
X229804285Y-71114285D01*
X230238405Y-70758010D01*
X230646587Y-70539833D01*
X230733691Y-70493275D01*
X231271106Y-70330252D01*
X231550333Y-70302751D01*
X231689945Y-70289000D01*
X232970055Y-70289000D01*
X233109667Y-70302751D01*
X233109667Y-70302751D01*
G37*
G36*
X160211025Y-72298590D02*
X160362012Y-72344392D01*
X160501165Y-72418770D01*
X160623133Y-72518867D01*
X160723230Y-72640835D01*
X160797608Y-72779988D01*
X160843410Y-72930975D01*
X160855000Y-73048654D01*
X160855000Y-73627346D01*
X160843410Y-73745025D01*
X160797608Y-73896012D01*
X160723230Y-74035165D01*
X160623136Y-74157130D01*
X160623134Y-74157131D01*
X160623133Y-74157133D01*
X160623129Y-74157136D01*
X160501161Y-74257232D01*
X160362011Y-74331608D01*
X160211024Y-74377410D01*
X160054000Y-74392875D01*
X159896975Y-74377410D01*
X159745988Y-74331608D01*
X159606835Y-74257230D01*
X159484870Y-74157136D01*
X159484869Y-74157134D01*
X159484867Y-74157133D01*
X159434819Y-74096148D01*
X159384768Y-74035161D01*
X159310392Y-73896011D01*
X159264590Y-73745024D01*
X159253000Y-73627345D01*
X159253000Y-73048654D01*
X159264590Y-72930975D01*
X159287491Y-72855483D01*
X159310392Y-72779988D01*
X159384771Y-72640835D01*
X159484868Y-72518867D01*
X159606836Y-72418770D01*
X159745989Y-72344392D01*
X159896976Y-72298590D01*
X160054000Y-72283125D01*
X160211025Y-72298590D01*
X160211025Y-72298590D01*
G37*
G36*
X167323025Y-72298590D02*
X167474012Y-72344392D01*
X167613165Y-72418770D01*
X167735133Y-72518867D01*
X167835230Y-72640835D01*
X167909608Y-72779988D01*
X167955410Y-72930975D01*
X167967000Y-73048654D01*
X167967000Y-73627346D01*
X167955410Y-73745025D01*
X167909608Y-73896012D01*
X167835230Y-74035165D01*
X167735136Y-74157130D01*
X167735134Y-74157131D01*
X167735133Y-74157133D01*
X167735129Y-74157136D01*
X167613161Y-74257232D01*
X167474011Y-74331608D01*
X167323024Y-74377410D01*
X167166000Y-74392875D01*
X167008975Y-74377410D01*
X166857988Y-74331608D01*
X166718835Y-74257230D01*
X166596870Y-74157136D01*
X166596869Y-74157134D01*
X166596867Y-74157133D01*
X166546819Y-74096148D01*
X166496768Y-74035161D01*
X166422392Y-73896011D01*
X166376590Y-73745024D01*
X166365000Y-73627345D01*
X166365000Y-73048654D01*
X166376590Y-72930975D01*
X166399491Y-72855483D01*
X166422392Y-72779988D01*
X166496771Y-72640835D01*
X166596868Y-72518867D01*
X166718836Y-72418770D01*
X166857989Y-72344392D01*
X167008976Y-72298590D01*
X167166000Y-72283125D01*
X167323025Y-72298590D01*
X167323025Y-72298590D01*
G37*
M02*
